<?xml version="1.0" encoding="utf-8" standalone="no"?>
<!DOCTYPE svg PUBLIC "-//W3C//DTD SVG 1.1//EN"
  "http://www.w3.org/Graphics/SVG/1.1/DTD/svg11.dtd">
<svg xmlns:xlink="http://www.w3.org/1999/xlink" width="517.456875pt" height="342.285937pt" viewBox="0 0 517.456875 342.285937" xmlns="http://www.w3.org/2000/svg" version="1.1">
 <metadata>
  <rdf:RDF xmlns:dc="http://purl.org/dc/elements/1.1/" xmlns:cc="http://creativecommons.org/ns#" xmlns:rdf="http://www.w3.org/1999/02/22-rdf-syntax-ns#">
   <cc:Work>
    <dc:type rdf:resource="http://purl.org/dc/dcmitype/StillImage"/>
    <dc:date>2021-12-03T15:12:54.755500</dc:date>
    <dc:format>image/svg+xml</dc:format>
    <dc:creator>
     <cc:Agent>
      <dc:title>Matplotlib v3.5.0, https://matplotlib.org/</dc:title>
     </cc:Agent>
    </dc:creator>
   </cc:Work>
  </rdf:RDF>
 </metadata>
 <defs>
  <style type="text/css">*{stroke-linejoin: round; stroke-linecap: butt}</style>
 </defs>
 <g id="figure_1">
  <g id="patch_1">
   <path d="M 0 342.285937 
L 517.456875 342.285937 
L 517.456875 0 
L 0 0 
z
" style="fill: #ffffff"/>
  </g>
  <g id="axes_1">
   <g id="patch_2">
    <path d="M 80.168437 288.910125 
L 437.288438 288.910125 
L 437.288438 22.798125 
L 80.168437 22.798125 
z
" style="fill: #ffffff"/>
   </g>
   <g id="matplotlib.axis_1">
    <g id="xtick_1">
     <g id="line2d_1">
      <defs>
       <path id="ma497b09b3b" d="M 0 0 
L 0 3.5 
" style="stroke: #000000; stroke-width: 0.8"/>
      </defs>
      <g>
       <use xlink:href="#ma497b09b3b" x="96.401165" y="288.910125" style="stroke: #000000; stroke-width: 0.8"/>
      </g>
     </g>
     <g id="text_1">
      <!-- 0.00 -->
      <g transform="translate(85.268352 303.508562)scale(0.1 -0.1)">
       <defs>
        <path id="DejaVuSerif-30" d="M 2034 219 
Q 2513 219 2750 744 
Q 2988 1269 2988 2328 
Q 2988 3391 2750 3916 
Q 2513 4441 2034 4441 
Q 1556 4441 1318 3916 
Q 1081 3391 1081 2328 
Q 1081 1269 1318 744 
Q 1556 219 2034 219 
z
M 2034 -91 
Q 1275 -91 848 546 
Q 422 1184 422 2328 
Q 422 3475 848 4112 
Q 1275 4750 2034 4750 
Q 2797 4750 3222 4112 
Q 3647 3475 3647 2328 
Q 3647 1184 3222 546 
Q 2797 -91 2034 -91 
z
" transform="scale(0.015625)"/>
        <path id="DejaVuSerif-2e" d="M 603 325 
Q 603 500 722 622 
Q 841 744 1019 744 
Q 1191 744 1312 622 
Q 1434 500 1434 325 
Q 1434 153 1312 31 
Q 1191 -91 1019 -91 
Q 841 -91 722 29 
Q 603 150 603 325 
z
" transform="scale(0.015625)"/>
       </defs>
       <use xlink:href="#DejaVuSerif-30"/>
       <use xlink:href="#DejaVuSerif-2e" x="63.623047"/>
       <use xlink:href="#DejaVuSerif-30" x="95.410156"/>
       <use xlink:href="#DejaVuSerif-30" x="159.033203"/>
      </g>
     </g>
    </g>
    <g id="xtick_2">
     <g id="line2d_2">
      <g>
       <use xlink:href="#ma497b09b3b" x="136.982983" y="288.910125" style="stroke: #000000; stroke-width: 0.8"/>
      </g>
     </g>
     <g id="text_2">
      <!-- 0.25 -->
      <g transform="translate(125.85017 303.508562)scale(0.1 -0.1)">
       <defs>
        <path id="DejaVuSerif-32" d="M 819 3553 
L 469 3553 
L 469 4384 
Q 803 4563 1142 4656 
Q 1481 4750 1806 4750 
Q 2534 4750 2956 4397 
Q 3378 4044 3378 3438 
Q 3378 2753 2422 1800 
Q 2347 1728 2309 1691 
L 1131 513 
L 3078 513 
L 3078 1088 
L 3444 1088 
L 3444 0 
L 434 0 
L 434 341 
L 1850 1753 
Q 2319 2222 2519 2614 
Q 2719 3006 2719 3438 
Q 2719 3909 2473 4175 
Q 2228 4441 1797 4441 
Q 1350 4441 1106 4219 
Q 863 3997 819 3553 
z
" transform="scale(0.015625)"/>
        <path id="DejaVuSerif-35" d="M 3219 4666 
L 3219 4153 
L 1081 4153 
L 1081 2816 
Q 1244 2928 1461 2984 
Q 1678 3041 1947 3041 
Q 2703 3041 3140 2622 
Q 3578 2203 3578 1478 
Q 3578 738 3136 323 
Q 2694 -91 1894 -91 
Q 1572 -91 1234 -12 
Q 897 66 544 225 
L 544 1131 
L 897 1131 
Q 925 688 1179 453 
Q 1434 219 1894 219 
Q 2388 219 2653 544 
Q 2919 869 2919 1478 
Q 2919 2084 2655 2407 
Q 2391 2731 1894 2731 
Q 1613 2731 1398 2631 
Q 1184 2531 1019 2322 
L 750 2322 
L 750 4666 
L 3219 4666 
z
" transform="scale(0.015625)"/>
       </defs>
       <use xlink:href="#DejaVuSerif-30"/>
       <use xlink:href="#DejaVuSerif-2e" x="63.623047"/>
       <use xlink:href="#DejaVuSerif-32" x="95.410156"/>
       <use xlink:href="#DejaVuSerif-35" x="159.033203"/>
      </g>
     </g>
    </g>
    <g id="xtick_3">
     <g id="line2d_3">
      <g>
       <use xlink:href="#ma497b09b3b" x="177.564801" y="288.910125" style="stroke: #000000; stroke-width: 0.8"/>
      </g>
     </g>
     <g id="text_3">
      <!-- 0.50 -->
      <g transform="translate(166.431989 303.508562)scale(0.1 -0.1)">
       <use xlink:href="#DejaVuSerif-30"/>
       <use xlink:href="#DejaVuSerif-2e" x="63.623047"/>
       <use xlink:href="#DejaVuSerif-35" x="95.410156"/>
       <use xlink:href="#DejaVuSerif-30" x="159.033203"/>
      </g>
     </g>
    </g>
    <g id="xtick_4">
     <g id="line2d_4">
      <g>
       <use xlink:href="#ma497b09b3b" x="218.146619" y="288.910125" style="stroke: #000000; stroke-width: 0.8"/>
      </g>
     </g>
     <g id="text_4">
      <!-- 0.75 -->
      <g transform="translate(207.013807 303.508562)scale(0.1 -0.1)">
       <defs>
        <path id="DejaVuSerif-37" d="M 3609 4347 
L 1784 0 
L 1319 0 
L 3059 4153 
L 903 4153 
L 903 3578 
L 538 3578 
L 538 4666 
L 3609 4666 
L 3609 4347 
z
" transform="scale(0.015625)"/>
       </defs>
       <use xlink:href="#DejaVuSerif-30"/>
       <use xlink:href="#DejaVuSerif-2e" x="63.623047"/>
       <use xlink:href="#DejaVuSerif-37" x="95.410156"/>
       <use xlink:href="#DejaVuSerif-35" x="159.033203"/>
      </g>
     </g>
    </g>
    <g id="xtick_5">
     <g id="line2d_5">
      <g>
       <use xlink:href="#ma497b09b3b" x="258.728438" y="288.910125" style="stroke: #000000; stroke-width: 0.8"/>
      </g>
     </g>
     <g id="text_5">
      <!-- 1.00 -->
      <g transform="translate(247.595625 303.508562)scale(0.1 -0.1)">
       <defs>
        <path id="DejaVuSerif-31" d="M 909 0 
L 909 331 
L 1722 331 
L 1722 4213 
L 781 3603 
L 781 4013 
L 1919 4750 
L 2350 4750 
L 2350 331 
L 3163 331 
L 3163 0 
L 909 0 
z
" transform="scale(0.015625)"/>
       </defs>
       <use xlink:href="#DejaVuSerif-31"/>
       <use xlink:href="#DejaVuSerif-2e" x="63.623047"/>
       <use xlink:href="#DejaVuSerif-30" x="95.410156"/>
       <use xlink:href="#DejaVuSerif-30" x="159.033203"/>
      </g>
     </g>
    </g>
    <g id="xtick_6">
     <g id="line2d_6">
      <g>
       <use xlink:href="#ma497b09b3b" x="299.310256" y="288.910125" style="stroke: #000000; stroke-width: 0.8"/>
      </g>
     </g>
     <g id="text_6">
      <!-- 1.25 -->
      <g transform="translate(288.177443 303.508562)scale(0.1 -0.1)">
       <use xlink:href="#DejaVuSerif-31"/>
       <use xlink:href="#DejaVuSerif-2e" x="63.623047"/>
       <use xlink:href="#DejaVuSerif-32" x="95.410156"/>
       <use xlink:href="#DejaVuSerif-35" x="159.033203"/>
      </g>
     </g>
    </g>
    <g id="xtick_7">
     <g id="line2d_7">
      <g>
       <use xlink:href="#ma497b09b3b" x="339.892074" y="288.910125" style="stroke: #000000; stroke-width: 0.8"/>
      </g>
     </g>
     <g id="text_7">
      <!-- 1.50 -->
      <g transform="translate(328.759261 303.508562)scale(0.1 -0.1)">
       <use xlink:href="#DejaVuSerif-31"/>
       <use xlink:href="#DejaVuSerif-2e" x="63.623047"/>
       <use xlink:href="#DejaVuSerif-35" x="95.410156"/>
       <use xlink:href="#DejaVuSerif-30" x="159.033203"/>
      </g>
     </g>
    </g>
    <g id="xtick_8">
     <g id="line2d_8">
      <g>
       <use xlink:href="#ma497b09b3b" x="380.473892" y="288.910125" style="stroke: #000000; stroke-width: 0.8"/>
      </g>
     </g>
     <g id="text_8">
      <!-- 1.75 -->
      <g transform="translate(369.34108 303.508562)scale(0.1 -0.1)">
       <use xlink:href="#DejaVuSerif-31"/>
       <use xlink:href="#DejaVuSerif-2e" x="63.623047"/>
       <use xlink:href="#DejaVuSerif-37" x="95.410156"/>
       <use xlink:href="#DejaVuSerif-35" x="159.033203"/>
      </g>
     </g>
    </g>
    <g id="xtick_9">
     <g id="line2d_9">
      <g>
       <use xlink:href="#ma497b09b3b" x="421.05571" y="288.910125" style="stroke: #000000; stroke-width: 0.8"/>
      </g>
     </g>
     <g id="text_9">
      <!-- 2.00 -->
      <g transform="translate(409.922898 303.508562)scale(0.1 -0.1)">
       <use xlink:href="#DejaVuSerif-32"/>
       <use xlink:href="#DejaVuSerif-2e" x="63.623047"/>
       <use xlink:href="#DejaVuSerif-30" x="95.410156"/>
       <use xlink:href="#DejaVuSerif-30" x="159.033203"/>
      </g>
     </g>
    </g>
    <g id="text_10">
     <!-- Distance à la note seuil -->
     <g transform="translate(199.52375 317.186687)scale(0.1 -0.1)">
      <defs>
       <path id="DejaVuSerif-44" d="M 1581 331 
L 2163 331 
Q 3072 331 3558 850 
Q 4044 1369 4044 2338 
Q 4044 3306 3559 3818 
Q 3075 4331 2163 4331 
L 1581 4331 
L 1581 331 
z
M 353 0 
L 353 331 
L 947 331 
L 947 4331 
L 353 4331 
L 353 4666 
L 2209 4666 
Q 3416 4666 4089 4050 
Q 4763 3434 4763 2338 
Q 4763 1238 4088 619 
Q 3413 0 2209 0 
L 353 0 
z
" transform="scale(0.015625)"/>
       <path id="DejaVuSerif-69" d="M 622 4353 
Q 622 4497 726 4603 
Q 831 4709 978 4709 
Q 1122 4709 1226 4603 
Q 1331 4497 1331 4353 
Q 1331 4206 1228 4103 
Q 1125 4000 978 4000 
Q 831 4000 726 4103 
Q 622 4206 622 4353 
z
M 1356 331 
L 1900 331 
L 1900 0 
L 231 0 
L 231 331 
L 781 331 
L 781 2988 
L 231 2988 
L 231 3322 
L 1356 3322 
L 1356 331 
z
" transform="scale(0.015625)"/>
       <path id="DejaVuSerif-73" d="M 359 184 
L 359 959 
L 691 959 
Q 703 588 923 403 
Q 1144 219 1575 219 
Q 1963 219 2166 364 
Q 2369 509 2369 788 
Q 2369 1006 2220 1140 
Q 2072 1275 1594 1428 
L 1178 1569 
Q 750 1706 558 1912 
Q 366 2119 366 2438 
Q 366 2894 700 3153 
Q 1034 3413 1625 3413 
Q 1888 3413 2178 3344 
Q 2469 3275 2778 3144 
L 2778 2419 
L 2447 2419 
Q 2434 2741 2221 2922 
Q 2009 3103 1644 3103 
Q 1281 3103 1095 2975 
Q 909 2847 909 2591 
Q 909 2381 1050 2254 
Q 1191 2128 1613 1997 
L 2069 1856 
Q 2541 1709 2748 1489 
Q 2956 1269 2956 922 
Q 2956 450 2595 179 
Q 2234 -91 1600 -91 
Q 1278 -91 972 -22 
Q 666 47 359 184 
z
" transform="scale(0.015625)"/>
       <path id="DejaVuSerif-74" d="M 691 2988 
L 184 2988 
L 184 3322 
L 691 3322 
L 691 4353 
L 1269 4353 
L 1269 3322 
L 2350 3322 
L 2350 2988 
L 1269 2988 
L 1269 878 
Q 1269 456 1350 337 
Q 1431 219 1650 219 
Q 1875 219 1978 351 
Q 2081 484 2088 781 
L 2522 781 
Q 2497 328 2275 118 
Q 2053 -91 1600 -91 
Q 1103 -91 897 129 
Q 691 350 691 878 
L 691 2988 
z
" transform="scale(0.015625)"/>
       <path id="DejaVuSerif-61" d="M 2547 1044 
L 2547 1747 
L 1806 1747 
Q 1378 1747 1168 1562 
Q 959 1378 959 997 
Q 959 650 1171 447 
Q 1384 244 1747 244 
Q 2106 244 2326 466 
Q 2547 688 2547 1044 
z
M 3122 2075 
L 3122 331 
L 3634 331 
L 3634 0 
L 2547 0 
L 2547 359 
Q 2356 128 2106 18 
Q 1856 -91 1522 -91 
Q 969 -91 644 203 
Q 319 497 319 997 
Q 319 1513 691 1797 
Q 1063 2081 1741 2081 
L 2547 2081 
L 2547 2309 
Q 2547 2688 2317 2895 
Q 2088 3103 1672 3103 
Q 1328 3103 1125 2947 
Q 922 2791 872 2484 
L 575 2484 
L 575 3156 
Q 875 3284 1158 3348 
Q 1441 3413 1709 3413 
Q 2400 3413 2761 3070 
Q 3122 2728 3122 2075 
z
" transform="scale(0.015625)"/>
       <path id="DejaVuSerif-6e" d="M 263 0 
L 263 331 
L 781 331 
L 781 2988 
L 231 2988 
L 231 3322 
L 1356 3322 
L 1356 2731 
Q 1516 3069 1770 3241 
Q 2025 3413 2363 3413 
Q 2913 3413 3172 3097 
Q 3431 2781 3431 2113 
L 3431 331 
L 3944 331 
L 3944 0 
L 2356 0 
L 2356 331 
L 2853 331 
L 2853 1931 
Q 2853 2541 2703 2767 
Q 2553 2994 2175 2994 
Q 1775 2994 1565 2701 
Q 1356 2409 1356 1850 
L 1356 331 
L 1856 331 
L 1856 0 
L 263 0 
z
" transform="scale(0.015625)"/>
       <path id="DejaVuSerif-63" d="M 3291 997 
Q 3169 466 2822 187 
Q 2475 -91 1925 -91 
Q 1200 -91 759 389 
Q 319 869 319 1663 
Q 319 2459 759 2936 
Q 1200 3413 1925 3413 
Q 2241 3413 2553 3339 
Q 2866 3266 3181 3116 
L 3181 2266 
L 2847 2266 
Q 2781 2703 2561 2903 
Q 2341 3103 1931 3103 
Q 1466 3103 1228 2742 
Q 991 2381 991 1663 
Q 991 944 1227 581 
Q 1463 219 1931 219 
Q 2303 219 2525 412 
Q 2747 606 2828 997 
L 3291 997 
z
" transform="scale(0.015625)"/>
       <path id="DejaVuSerif-65" d="M 3469 1600 
L 991 1600 
L 991 1575 
Q 991 903 1244 561 
Q 1497 219 1991 219 
Q 2369 219 2611 417 
Q 2853 616 2950 1006 
L 3413 1006 
Q 3275 459 2904 184 
Q 2534 -91 1931 -91 
Q 1203 -91 761 389 
Q 319 869 319 1663 
Q 319 2450 753 2931 
Q 1188 3413 1894 3413 
Q 2647 3413 3050 2948 
Q 3453 2484 3469 1600 
z
M 2791 1931 
Q 2772 2513 2545 2808 
Q 2319 3103 1894 3103 
Q 1497 3103 1269 2806 
Q 1041 2509 991 1931 
L 2791 1931 
z
" transform="scale(0.015625)"/>
       <path id="DejaVuSerif-20" transform="scale(0.015625)"/>
       <path id="DejaVuSerif-e0" d="M 2547 1044 
L 2547 1747 
L 1806 1747 
Q 1378 1747 1168 1562 
Q 959 1378 959 997 
Q 959 650 1171 447 
Q 1384 244 1747 244 
Q 2106 244 2326 466 
Q 2547 688 2547 1044 
z
M 3122 2075 
L 3122 331 
L 3634 331 
L 3634 0 
L 2547 0 
L 2547 359 
Q 2356 128 2106 18 
Q 1856 -91 1522 -91 
Q 969 -91 644 203 
Q 319 497 319 997 
Q 319 1513 691 1797 
Q 1063 2081 1741 2081 
L 2547 2081 
L 2547 2309 
Q 2547 2688 2317 2895 
Q 2088 3103 1672 3103 
Q 1328 3103 1125 2947 
Q 922 2791 872 2484 
L 575 2484 
L 575 3156 
Q 875 3284 1158 3348 
Q 1441 3413 1709 3413 
Q 2400 3413 2761 3070 
Q 3122 2728 3122 2075 
z
M 1323 5113 
L 2135 3938 
L 1770 3938 
L 707 5113 
L 1323 5113 
z
" transform="scale(0.015625)"/>
       <path id="DejaVuSerif-6c" d="M 1313 331 
L 1856 331 
L 1856 0 
L 184 0 
L 184 331 
L 738 331 
L 738 4531 
L 184 4531 
L 184 4863 
L 1313 4863 
L 1313 331 
z
" transform="scale(0.015625)"/>
       <path id="DejaVuSerif-6f" d="M 1925 219 
Q 2388 219 2623 584 
Q 2859 950 2859 1663 
Q 2859 2375 2623 2739 
Q 2388 3103 1925 3103 
Q 1463 3103 1227 2739 
Q 991 2375 991 1663 
Q 991 950 1228 584 
Q 1466 219 1925 219 
z
M 1925 -91 
Q 1200 -91 759 389 
Q 319 869 319 1663 
Q 319 2456 758 2934 
Q 1197 3413 1925 3413 
Q 2653 3413 3092 2934 
Q 3531 2456 3531 1663 
Q 3531 869 3092 389 
Q 2653 -91 1925 -91 
z
" transform="scale(0.015625)"/>
       <path id="DejaVuSerif-75" d="M 2266 3322 
L 3341 3322 
L 3341 331 
L 3884 331 
L 3884 0 
L 2766 0 
L 2766 588 
Q 2606 256 2353 82 
Q 2100 -91 1766 -91 
Q 1213 -91 952 223 
Q 691 538 691 1209 
L 691 2988 
L 172 2988 
L 172 3322 
L 1269 3322 
L 1269 1388 
Q 1269 781 1417 556 
Q 1566 331 1947 331 
Q 2347 331 2556 625 
Q 2766 919 2766 1478 
L 2766 2988 
L 2266 2988 
L 2266 3322 
z
" transform="scale(0.015625)"/>
      </defs>
      <use xlink:href="#DejaVuSerif-44"/>
      <use xlink:href="#DejaVuSerif-69" x="80.175781"/>
      <use xlink:href="#DejaVuSerif-73" x="112.158203"/>
      <use xlink:href="#DejaVuSerif-74" x="163.476562"/>
      <use xlink:href="#DejaVuSerif-61" x="203.662109"/>
      <use xlink:href="#DejaVuSerif-6e" x="263.28125"/>
      <use xlink:href="#DejaVuSerif-63" x="327.685547"/>
      <use xlink:href="#DejaVuSerif-65" x="383.691406"/>
      <use xlink:href="#DejaVuSerif-20" x="442.871094"/>
      <use xlink:href="#DejaVuSerif-e0" x="474.658203"/>
      <use xlink:href="#DejaVuSerif-20" x="534.277344"/>
      <use xlink:href="#DejaVuSerif-6c" x="566.064453"/>
      <use xlink:href="#DejaVuSerif-61" x="598.046875"/>
      <use xlink:href="#DejaVuSerif-20" x="657.666016"/>
      <use xlink:href="#DejaVuSerif-6e" x="689.453125"/>
      <use xlink:href="#DejaVuSerif-6f" x="753.857422"/>
      <use xlink:href="#DejaVuSerif-74" x="814.0625"/>
      <use xlink:href="#DejaVuSerif-65" x="854.248047"/>
      <use xlink:href="#DejaVuSerif-20" x="913.427734"/>
      <use xlink:href="#DejaVuSerif-73" x="945.214844"/>
      <use xlink:href="#DejaVuSerif-65" x="996.533203"/>
      <use xlink:href="#DejaVuSerif-75" x="1055.712891"/>
      <use xlink:href="#DejaVuSerif-69" x="1120.117188"/>
      <use xlink:href="#DejaVuSerif-6c" x="1152.099609"/>
     </g>
    </g>
   </g>
   <g id="matplotlib.axis_2">
    <g id="ytick_1">
     <g id="line2d_10">
      <defs>
       <path id="m0c0daaff2c" d="M 0 0 
L -3.5 0 
" style="stroke: #000000; stroke-width: 0.8"/>
      </defs>
      <g>
       <use xlink:href="#m0c0daaff2c" x="80.168437" y="276.86672" style="stroke: #000000; stroke-width: 0.8"/>
      </g>
     </g>
     <g id="text_11">
      <!-- 0.0 -->
      <g transform="translate(57.265312 280.665939)scale(0.1 -0.1)">
       <use xlink:href="#DejaVuSerif-30"/>
       <use xlink:href="#DejaVuSerif-2e" x="63.623047"/>
       <use xlink:href="#DejaVuSerif-30" x="95.410156"/>
      </g>
     </g>
    </g>
    <g id="ytick_2">
     <g id="line2d_11">
      <g>
       <use xlink:href="#m0c0daaff2c" x="80.168437" y="228.472201" style="stroke: #000000; stroke-width: 0.8"/>
      </g>
     </g>
     <g id="text_12">
      <!-- 0.2 -->
      <g transform="translate(57.265312 232.27142)scale(0.1 -0.1)">
       <use xlink:href="#DejaVuSerif-30"/>
       <use xlink:href="#DejaVuSerif-2e" x="63.623047"/>
       <use xlink:href="#DejaVuSerif-32" x="95.410156"/>
      </g>
     </g>
    </g>
    <g id="ytick_3">
     <g id="line2d_12">
      <g>
       <use xlink:href="#m0c0daaff2c" x="80.168437" y="180.077682" style="stroke: #000000; stroke-width: 0.8"/>
      </g>
     </g>
     <g id="text_13">
      <!-- 0.4 -->
      <g transform="translate(57.265312 183.876901)scale(0.1 -0.1)">
       <defs>
        <path id="DejaVuSerif-34" d="M 2234 1581 
L 2234 4063 
L 641 1581 
L 2234 1581 
z
M 3609 0 
L 1484 0 
L 1484 331 
L 2234 331 
L 2234 1247 
L 197 1247 
L 197 1588 
L 2241 4750 
L 2859 4750 
L 2859 1581 
L 3750 1581 
L 3750 1247 
L 2859 1247 
L 2859 331 
L 3609 331 
L 3609 0 
z
" transform="scale(0.015625)"/>
       </defs>
       <use xlink:href="#DejaVuSerif-30"/>
       <use xlink:href="#DejaVuSerif-2e" x="63.623047"/>
       <use xlink:href="#DejaVuSerif-34" x="95.410156"/>
      </g>
     </g>
    </g>
    <g id="ytick_4">
     <g id="line2d_13">
      <g>
       <use xlink:href="#m0c0daaff2c" x="80.168437" y="131.683163" style="stroke: #000000; stroke-width: 0.8"/>
      </g>
     </g>
     <g id="text_14">
      <!-- 0.6 -->
      <g transform="translate(57.265312 135.482382)scale(0.1 -0.1)">
       <defs>
        <path id="DejaVuSerif-36" d="M 2094 219 
Q 2534 219 2771 542 
Q 3009 866 3009 1472 
Q 3009 2078 2771 2401 
Q 2534 2725 2094 2725 
Q 1647 2725 1412 2412 
Q 1178 2100 1178 1509 
Q 1178 888 1415 553 
Q 1653 219 2094 219 
z
M 1075 2569 
Q 1288 2803 1556 2918 
Q 1825 3034 2163 3034 
Q 2859 3034 3264 2615 
Q 3669 2197 3669 1472 
Q 3669 763 3233 336 
Q 2797 -91 2069 -91 
Q 1278 -91 853 498 
Q 428 1088 428 2181 
Q 428 3406 931 4078 
Q 1434 4750 2350 4750 
Q 2597 4750 2869 4703 
Q 3141 4656 3425 4563 
L 3425 3794 
L 3072 3794 
Q 3034 4109 2831 4275 
Q 2628 4441 2284 4441 
Q 1678 4441 1381 3981 
Q 1084 3522 1075 2569 
z
" transform="scale(0.015625)"/>
       </defs>
       <use xlink:href="#DejaVuSerif-30"/>
       <use xlink:href="#DejaVuSerif-2e" x="63.623047"/>
       <use xlink:href="#DejaVuSerif-36" x="95.410156"/>
      </g>
     </g>
    </g>
    <g id="ytick_5">
     <g id="line2d_14">
      <g>
       <use xlink:href="#m0c0daaff2c" x="80.168437" y="83.288644" style="stroke: #000000; stroke-width: 0.8"/>
      </g>
     </g>
     <g id="text_15">
      <!-- 0.8 -->
      <g transform="translate(57.265312 87.087863)scale(0.1 -0.1)">
       <defs>
        <path id="DejaVuSerif-38" d="M 2981 1275 
Q 2981 1775 2732 2051 
Q 2484 2328 2034 2328 
Q 1584 2328 1336 2051 
Q 1088 1775 1088 1275 
Q 1088 772 1336 495 
Q 1584 219 2034 219 
Q 2484 219 2732 495 
Q 2981 772 2981 1275 
z
M 2853 3541 
Q 2853 3966 2637 4203 
Q 2422 4441 2034 4441 
Q 1650 4441 1433 4203 
Q 1216 3966 1216 3541 
Q 1216 3113 1433 2875 
Q 1650 2638 2034 2638 
Q 2422 2638 2637 2875 
Q 2853 3113 2853 3541 
z
M 2516 2484 
Q 3047 2413 3344 2092 
Q 3641 1772 3641 1275 
Q 3641 619 3225 264 
Q 2809 -91 2034 -91 
Q 1263 -91 845 264 
Q 428 619 428 1275 
Q 428 1772 725 2092 
Q 1022 2413 1556 2484 
Q 1084 2569 832 2842 
Q 581 3116 581 3541 
Q 581 4103 968 4426 
Q 1356 4750 2034 4750 
Q 2713 4750 3100 4426 
Q 3488 4103 3488 3541 
Q 3488 3116 3236 2842 
Q 2984 2569 2516 2484 
z
" transform="scale(0.015625)"/>
       </defs>
       <use xlink:href="#DejaVuSerif-30"/>
       <use xlink:href="#DejaVuSerif-2e" x="63.623047"/>
       <use xlink:href="#DejaVuSerif-38" x="95.410156"/>
      </g>
     </g>
    </g>
    <g id="ytick_6">
     <g id="line2d_15">
      <g>
       <use xlink:href="#m0c0daaff2c" x="80.168437" y="34.894125" style="stroke: #000000; stroke-width: 0.8"/>
      </g>
     </g>
     <g id="text_16">
      <!-- 1.0 -->
      <g transform="translate(57.265312 38.693344)scale(0.1 -0.1)">
       <use xlink:href="#DejaVuSerif-31"/>
       <use xlink:href="#DejaVuSerif-2e" x="63.623047"/>
       <use xlink:href="#DejaVuSerif-30" x="95.410156"/>
      </g>
     </g>
    </g>
    <g id="text_17">
     <!-- Probabilité de voir sa moyenne arrondie -->
     <g transform="translate(51.043437 257.930687)rotate(-90)scale(0.1 -0.1)">
      <defs>
       <path id="DejaVuSerif-50" d="M 1581 2375 
L 2406 2375 
Q 2872 2375 3115 2626 
Q 3359 2878 3359 3353 
Q 3359 3831 3115 4081 
Q 2872 4331 2406 4331 
L 1581 4331 
L 1581 2375 
z
M 353 0 
L 353 331 
L 947 331 
L 947 4331 
L 353 4331 
L 353 4666 
L 2559 4666 
Q 3259 4666 3668 4311 
Q 4078 3956 4078 3353 
Q 4078 2753 3668 2397 
Q 3259 2041 2559 2041 
L 1581 2041 
L 1581 331 
L 2303 331 
L 2303 0 
L 353 0 
z
" transform="scale(0.015625)"/>
       <path id="DejaVuSerif-72" d="M 3059 3328 
L 3059 2497 
L 2728 2497 
Q 2713 2744 2591 2866 
Q 2469 2988 2234 2988 
Q 1809 2988 1582 2694 
Q 1356 2400 1356 1850 
L 1356 331 
L 2022 331 
L 2022 0 
L 263 0 
L 263 331 
L 781 331 
L 781 2994 
L 231 2994 
L 231 3322 
L 1356 3322 
L 1356 2731 
Q 1525 3078 1790 3245 
Q 2056 3413 2438 3413 
Q 2578 3413 2733 3391 
Q 2888 3369 3059 3328 
z
" transform="scale(0.015625)"/>
       <path id="DejaVuSerif-62" d="M 738 331 
L 738 4531 
L 184 4531 
L 184 4863 
L 1313 4863 
L 1313 2803 
Q 1481 3116 1742 3264 
Q 2003 3413 2388 3413 
Q 3000 3413 3387 2928 
Q 3775 2444 3775 1663 
Q 3775 881 3387 395 
Q 3000 -91 2388 -91 
Q 2003 -91 1742 57 
Q 1481 206 1313 519 
L 1313 0 
L 184 0 
L 184 331 
L 738 331 
z
M 1313 1497 
Q 1313 897 1542 583 
Q 1772 269 2209 269 
Q 2650 269 2876 622 
Q 3103 975 3103 1663 
Q 3103 2353 2876 2703 
Q 2650 3053 2209 3053 
Q 1772 3053 1542 2737 
Q 1313 2422 1313 1825 
L 1313 1497 
z
" transform="scale(0.015625)"/>
       <path id="DejaVuSerif-e9" d="M 3469 1600 
L 991 1600 
L 991 1575 
Q 991 903 1244 561 
Q 1497 219 1991 219 
Q 2369 219 2611 417 
Q 2853 616 2950 1006 
L 3413 1006 
Q 3275 459 2904 184 
Q 2534 -91 1931 -91 
Q 1203 -91 761 389 
Q 319 869 319 1663 
Q 319 2450 753 2931 
Q 1188 3413 1894 3413 
Q 2647 3413 3050 2948 
Q 3453 2484 3469 1600 
z
M 2791 1931 
Q 2772 2513 2545 2808 
Q 2319 3103 1894 3103 
Q 1497 3103 1269 2806 
Q 1041 2509 991 1931 
L 2791 1931 
z
M 2330 5119 
L 2952 5119 
L 1890 3944 
L 1524 3944 
L 2330 5119 
z
" transform="scale(0.015625)"/>
       <path id="DejaVuSerif-64" d="M 3359 331 
L 3909 331 
L 3909 0 
L 2784 0 
L 2784 519 
Q 2616 206 2355 57 
Q 2094 -91 1709 -91 
Q 1097 -91 708 395 
Q 319 881 319 1663 
Q 319 2444 706 2928 
Q 1094 3413 1709 3413 
Q 2094 3413 2355 3264 
Q 2616 3116 2784 2803 
L 2784 4531 
L 2241 4531 
L 2241 4863 
L 3359 4863 
L 3359 331 
z
M 2784 1497 
L 2784 1825 
Q 2784 2422 2554 2737 
Q 2325 3053 1888 3053 
Q 1444 3053 1217 2703 
Q 991 2353 991 1663 
Q 991 975 1217 622 
Q 1444 269 1888 269 
Q 2325 269 2554 583 
Q 2784 897 2784 1497 
z
" transform="scale(0.015625)"/>
       <path id="DejaVuSerif-76" d="M 1581 0 
L 359 2988 
L -19 2988 
L -19 3322 
L 1509 3322 
L 1509 2988 
L 978 2988 
L 1913 703 
L 2847 2988 
L 2350 2988 
L 2350 3322 
L 3597 3322 
L 3597 2988 
L 3225 2988 
L 2003 0 
L 1581 0 
z
" transform="scale(0.015625)"/>
       <path id="DejaVuSerif-6d" d="M 3316 2675 
Q 3481 3041 3739 3227 
Q 3997 3413 4341 3413 
Q 4863 3413 5119 3089 
Q 5375 2766 5375 2113 
L 5375 331 
L 5894 331 
L 5894 0 
L 4300 0 
L 4300 331 
L 4800 331 
L 4800 2047 
Q 4800 2556 4650 2772 
Q 4500 2988 4153 2988 
Q 3769 2988 3567 2697 
Q 3366 2406 3366 1850 
L 3366 331 
L 3866 331 
L 3866 0 
L 2291 0 
L 2291 331 
L 2791 331 
L 2791 2069 
Q 2791 2566 2641 2777 
Q 2491 2988 2144 2988 
Q 1759 2988 1557 2697 
Q 1356 2406 1356 1850 
L 1356 331 
L 1856 331 
L 1856 0 
L 263 0 
L 263 331 
L 781 331 
L 781 2994 
L 231 2994 
L 231 3322 
L 1356 3322 
L 1356 2731 
Q 1516 3063 1762 3238 
Q 2009 3413 2322 3413 
Q 2709 3413 2968 3220 
Q 3228 3028 3316 2675 
z
" transform="scale(0.015625)"/>
       <path id="DejaVuSerif-79" d="M 1381 -609 
L 1600 -56 
L 359 2988 
L -19 2988 
L -19 3322 
L 1509 3322 
L 1509 2988 
L 978 2988 
L 1913 703 
L 2847 2988 
L 2350 2988 
L 2350 3322 
L 3597 3322 
L 3597 2988 
L 3225 2988 
L 1703 -750 
Q 1547 -1138 1356 -1280 
Q 1166 -1422 819 -1422 
Q 672 -1422 517 -1397 
Q 363 -1372 206 -1325 
L 206 -691 
L 500 -691 
Q 519 -903 608 -995 
Q 697 -1088 884 -1088 
Q 1056 -1088 1161 -992 
Q 1266 -897 1381 -609 
z
" transform="scale(0.015625)"/>
      </defs>
      <use xlink:href="#DejaVuSerif-50"/>
      <use xlink:href="#DejaVuSerif-72" x="67.285156"/>
      <use xlink:href="#DejaVuSerif-6f" x="115.087891"/>
      <use xlink:href="#DejaVuSerif-62" x="175.292969"/>
      <use xlink:href="#DejaVuSerif-61" x="239.306641"/>
      <use xlink:href="#DejaVuSerif-62" x="298.925781"/>
      <use xlink:href="#DejaVuSerif-69" x="362.939453"/>
      <use xlink:href="#DejaVuSerif-6c" x="394.921875"/>
      <use xlink:href="#DejaVuSerif-69" x="426.904297"/>
      <use xlink:href="#DejaVuSerif-74" x="458.886719"/>
      <use xlink:href="#DejaVuSerif-e9" x="499.072266"/>
      <use xlink:href="#DejaVuSerif-20" x="558.251953"/>
      <use xlink:href="#DejaVuSerif-64" x="590.039062"/>
      <use xlink:href="#DejaVuSerif-65" x="654.052734"/>
      <use xlink:href="#DejaVuSerif-20" x="713.232422"/>
      <use xlink:href="#DejaVuSerif-76" x="745.019531"/>
      <use xlink:href="#DejaVuSerif-6f" x="801.513672"/>
      <use xlink:href="#DejaVuSerif-69" x="861.71875"/>
      <use xlink:href="#DejaVuSerif-72" x="893.701172"/>
      <use xlink:href="#DejaVuSerif-20" x="941.503906"/>
      <use xlink:href="#DejaVuSerif-73" x="973.291016"/>
      <use xlink:href="#DejaVuSerif-61" x="1024.609375"/>
      <use xlink:href="#DejaVuSerif-20" x="1084.228516"/>
      <use xlink:href="#DejaVuSerif-6d" x="1116.015625"/>
      <use xlink:href="#DejaVuSerif-6f" x="1210.839844"/>
      <use xlink:href="#DejaVuSerif-79" x="1271.044922"/>
      <use xlink:href="#DejaVuSerif-65" x="1327.539062"/>
      <use xlink:href="#DejaVuSerif-6e" x="1386.71875"/>
      <use xlink:href="#DejaVuSerif-6e" x="1451.123047"/>
      <use xlink:href="#DejaVuSerif-65" x="1515.527344"/>
      <use xlink:href="#DejaVuSerif-20" x="1574.707031"/>
      <use xlink:href="#DejaVuSerif-61" x="1606.494141"/>
      <use xlink:href="#DejaVuSerif-72" x="1666.113281"/>
      <use xlink:href="#DejaVuSerif-72" x="1713.916016"/>
      <use xlink:href="#DejaVuSerif-6f" x="1761.71875"/>
      <use xlink:href="#DejaVuSerif-6e" x="1821.923828"/>
      <use xlink:href="#DejaVuSerif-64" x="1886.328125"/>
      <use xlink:href="#DejaVuSerif-69" x="1950.341797"/>
      <use xlink:href="#DejaVuSerif-65" x="1982.324219"/>
     </g>
    </g>
   </g>
   <g id="line2d_16">
    <path d="M 421.05571 274.173608 
L 417.776371 274.056531 
L 414.497033 273.934211 
L 411.217694 273.806407 
L 407.938355 273.672865 
L 404.659016 273.533321 
L 401.379677 273.387496 
L 398.100338 273.235099 
L 394.820999 273.075826 
L 391.541661 272.909356 
L 388.262322 272.735354 
L 384.982983 272.55347 
L 381.703644 272.363336 
L 378.424305 272.164566 
L 375.144966 271.956756 
L 371.865628 271.739482 
L 368.586289 271.512301 
L 365.30695 271.274747 
L 362.027611 271.026332 
L 358.748272 270.766545 
L 355.468933 270.494848 
L 352.189595 270.21068 
L 348.910256 269.91345 
L 345.630917 269.602541 
L 342.351578 269.277302 
L 339.072239 268.937053 
L 335.7929 268.581081 
L 332.513561 268.208636 
L 329.234223 267.818933 
L 325.954884 267.411148 
L 322.675545 266.984416 
L 319.396206 266.537829 
L 316.116867 266.070435 
L 312.837528 265.581235 
L 309.55819 265.06918 
L 306.278851 264.533169 
L 302.999512 263.972047 
L 299.720173 263.384601 
L 296.440834 262.769558 
L 293.161495 262.12558 
L 289.882157 261.451265 
L 286.602818 260.745139 
L 283.323479 260.005654 
L 280.04414 259.231185 
L 276.764801 258.420025 
L 273.485462 257.570382 
L 270.206123 256.680373 
L 266.926785 255.74802 
L 263.647446 254.771245 
L 260.368107 253.747865 
L 257.088768 252.675587 
L 253.809429 251.552 
L 250.53009 250.374572 
L 247.250752 249.140642 
L 243.971413 247.847412 
L 240.692074 246.491942 
L 237.412735 245.071142 
L 234.133396 243.581764 
L 230.854057 242.020393 
L 227.574718 240.383437 
L 224.29538 238.667121 
L 221.016041 236.867475 
L 217.736702 234.980324 
L 214.457363 233.001278 
L 211.178024 230.925719 
L 207.898685 228.748789 
L 204.619347 226.465379 
L 201.340008 224.070113 
L 198.060669 221.557336 
L 194.78133 218.921097 
L 191.501991 216.155135 
L 188.222652 213.25286 
L 184.943314 210.207339 
L 181.663975 207.011272 
L 178.384636 203.656977 
L 175.105297 200.136366 
L 171.825958 196.440927 
L 168.546619 192.561695 
L 165.26728 188.489233 
L 161.987942 184.213602 
L 158.708603 179.724336 
L 155.429264 175.010412 
L 152.149925 170.060222 
L 148.870586 164.861537 
L 145.591247 159.401473 
L 142.311909 153.666459 
L 139.03257 147.642195 
L 135.753231 141.313614 
L 132.473892 134.664839 
L 129.194553 127.679135 
L 125.915214 120.338867 
L 122.635876 112.625445 
L 119.356537 104.519273 
L 116.077198 95.999693 
L 112.797859 87.044924 
L 109.51852 77.632001 
L 106.239181 67.736705 
L 102.959842 57.333497 
L 99.680504 46.395441 
L 96.401165 34.894125 
" clip-path="url(#p46ad3fa546)" style="fill: none; stroke: #1f77b4; stroke-width: 1.5; stroke-linecap: square"/>
   </g>
   <g id="line2d_17">
    <path d="M 421.05571 276.08174 
L 417.776371 276.036136 
L 414.497033 275.987857 
L 411.217694 275.936747 
L 407.938355 275.882636 
L 404.659016 275.825348 
L 401.379677 275.764695 
L 398.100338 275.700476 
L 394.820999 275.63248 
L 391.541661 275.560484 
L 388.262322 275.484248 
L 384.982983 275.403523 
L 381.703644 275.31804 
L 378.424305 275.227517 
L 375.144966 275.131654 
L 371.865628 275.030133 
L 368.586289 274.922617 
L 365.30695 274.808748 
L 362.027611 274.688149 
L 358.748272 274.560417 
L 355.468933 274.425126 
L 352.189595 274.281827 
L 348.910256 274.130038 
L 345.630917 273.969255 
L 342.351578 273.798938 
L 339.072239 273.618516 
L 335.7929 273.427386 
L 332.513561 273.224905 
L 329.234223 273.010393 
L 325.954884 272.783129 
L 322.675545 272.542348 
L 319.396206 272.287239 
L 316.116867 272.01694 
L 312.837528 271.730539 
L 309.55819 271.427068 
L 306.278851 271.1055 
L 302.999512 270.764747 
L 299.720173 270.403652 
L 296.440834 270.020991 
L 293.161495 269.615463 
L 289.882157 269.18569 
L 286.602818 268.730208 
L 283.323479 268.247465 
L 280.04414 267.735814 
L 276.764801 267.193509 
L 273.485462 266.618696 
L 270.206123 266.009408 
L 266.926785 265.363559 
L 263.647446 264.678933 
L 260.368107 263.953181 
L 257.088768 263.18381 
L 253.809429 262.368174 
L 250.53009 261.503465 
L 247.250752 260.586703 
L 243.971413 259.614725 
L 240.692074 258.584174 
L 237.412735 257.491488 
L 234.133396 256.332886 
L 230.854057 255.104355 
L 227.574718 253.801633 
L 224.29538 252.420199 
L 221.016041 250.955253 
L 217.736702 249.401698 
L 214.457363 247.754126 
L 211.178024 246.006792 
L 207.898685 244.153599 
L 204.619347 242.188075 
L 201.340008 240.103346 
L 198.060669 237.892114 
L 194.78133 235.546632 
L 191.501991 233.058672 
L 188.222652 230.419497 
L 184.943314 227.61983 
L 181.663975 224.649819 
L 178.384636 221.499002 
L 175.105297 218.156268 
L 171.825958 214.609818 
L 168.546619 210.847117 
L 165.26728 206.854856 
L 161.987942 202.618896 
L 158.708603 198.12422 
L 155.429264 193.354877 
L 152.149925 188.293922 
L 148.870586 182.923357 
L 145.591247 177.224059 
L 142.311909 171.175716 
L 139.03257 164.756748 
L 135.753231 157.944226 
L 132.473892 150.713792 
L 129.194553 143.039563 
L 125.915214 134.89404 
L 122.635876 126.248002 
L 119.356537 117.070399 
L 116.077198 107.328239 
L 112.797859 96.986457 
L 109.51852 86.007795 
L 106.239181 74.352653 
L 102.959842 61.978948 
L 99.680504 48.841951 
L 96.401165 34.894125 
" clip-path="url(#p46ad3fa546)" style="fill: none; stroke: #ff7f0e; stroke-width: 1.5; stroke-linecap: square"/>
   </g>
   <g id="line2d_18">
    <path d="M 421.05571 276.814125 
L 417.776371 276.809567 
L 414.497033 276.804611 
L 411.217694 276.799223 
L 407.938355 276.793365 
L 404.659016 276.786995 
L 401.379677 276.780068 
L 398.100338 276.772536 
L 394.820999 276.764345 
L 391.541661 276.755436 
L 388.262322 276.745748 
L 384.982983 276.735211 
L 381.703644 276.723751 
L 378.424305 276.711285 
L 375.144966 276.697726 
L 371.865628 276.682976 
L 368.586289 276.66693 
L 365.30695 276.649475 
L 362.027611 276.630485 
L 358.748272 276.609824 
L 355.468933 276.587344 
L 352.189595 276.562885 
L 348.910256 276.536271 
L 345.630917 276.507311 
L 342.351578 276.475797 
L 339.072239 276.441502 
L 335.7929 276.404178 
L 332.513561 276.363558 
L 329.234223 276.319347 
L 325.954884 276.271227 
L 322.675545 276.218849 
L 319.396206 276.161835 
L 316.116867 276.099771 
L 312.837528 276.032207 
L 309.55819 275.958652 
L 306.278851 275.878573 
L 302.999512 275.791386 
L 299.720173 275.696456 
L 296.440834 275.593092 
L 293.161495 275.480539 
L 289.882157 275.357975 
L 286.602818 275.224503 
L 283.323479 275.079148 
L 280.04414 274.920843 
L 276.764801 274.748427 
L 273.485462 274.560635 
L 270.206123 274.356086 
L 266.926785 274.133275 
L 263.647446 273.890561 
L 260.368107 273.626155 
L 257.088768 273.338104 
L 253.809429 273.024282 
L 250.53009 272.682366 
L 247.250752 272.309825 
L 243.971413 271.903898 
L 240.692074 271.461574 
L 237.412735 270.979568 
L 234.133396 270.454295 
L 230.854057 269.881846 
L 227.574718 269.257956 
L 224.29538 268.577972 
L 221.016041 267.836817 
L 217.736702 267.028952 
L 214.457363 266.148332 
L 211.178024 265.188361 
L 207.898685 264.141841 
L 204.619347 263.000918 
L 201.340008 261.757018 
L 198.060669 260.400786 
L 194.78133 258.922008 
L 191.501991 257.309538 
L 188.222652 255.551208 
L 184.943314 253.633735 
L 181.663975 251.542618 
L 178.384636 249.262028 
L 175.105297 246.77468 
L 171.825958 244.061703 
L 168.546619 241.102493 
L 165.26728 237.87455 
L 161.987942 234.353305 
L 158.708603 230.511927 
L 155.429264 226.321113 
L 152.149925 221.748863 
L 148.870586 216.760223 
L 145.591247 211.317014 
L 142.311909 205.377536 
L 139.03257 198.896233 
L 135.753231 191.823342 
L 132.473892 184.104496 
L 129.194553 175.680298 
L 125.915214 166.485853 
L 122.635876 156.450253 
L 119.356537 145.496019 
L 116.077198 133.538484 
L 112.797859 120.485125 
L 109.51852 106.234827 
L 106.239181 90.677084 
L 102.959842 73.691111 
L 99.680504 55.144893 
L 96.401165 34.894125 
" clip-path="url(#p46ad3fa546)" style="fill: none; stroke: #2ca02c; stroke-width: 1.5; stroke-linecap: square"/>
   </g>
   <g id="line2d_19">
    <path d="M 421.05571 276.7639 
L 417.776371 276.755702 
L 414.497033 276.746846 
L 411.217694 276.73728 
L 407.938355 276.726946 
L 404.659016 276.715782 
L 401.379677 276.703721 
L 398.100338 276.690691 
L 394.820999 276.676613 
L 391.541661 276.661402 
L 388.262322 276.644966 
L 384.982983 276.627208 
L 381.703644 276.608018 
L 378.424305 276.587282 
L 375.144966 276.564874 
L 371.865628 276.540658 
L 368.586289 276.514488 
L 365.30695 276.486204 
L 362.027611 276.455636 
L 358.748272 276.422597 
L 355.468933 276.386887 
L 352.189595 276.348288 
L 348.910256 276.306565 
L 345.630917 276.261464 
L 342.351578 276.212709 
L 339.072239 276.160003 
L 335.7929 276.103024 
L 332.513561 276.041423 
L 329.234223 275.974822 
L 325.954884 275.902813 
L 322.675545 275.824955 
L 319.396206 275.74077 
L 316.116867 275.649739 
L 312.837528 275.551303 
L 309.55819 275.444856 
L 306.278851 275.329741 
L 302.999512 275.205249 
L 299.720173 275.07061 
L 296.440834 274.924993 
L 293.161495 274.767496 
L 289.882157 274.597145 
L 286.602818 274.412883 
L 283.323479 274.213567 
L 280.04414 273.99796 
L 276.764801 273.764721 
L 273.485462 273.5124 
L 270.206123 273.239425 
L 266.926785 272.944094 
L 263.647446 272.624566 
L 260.368107 272.278844 
L 257.088768 271.904768 
L 253.809429 271.499997 
L 250.53009 271.061996 
L 247.250752 270.58802 
L 243.971413 270.075093 
L 240.692074 269.519996 
L 237.412735 268.919237 
L 234.133396 268.269037 
L 230.854057 267.5653 
L 227.574718 266.803588 
L 224.29538 265.979094 
L 221.016041 265.086611 
L 217.736702 264.120493 
L 214.457363 263.074626 
L 211.178024 261.942384 
L 207.898685 260.716585 
L 204.619347 259.389448 
L 201.340008 257.952539 
L 198.060669 256.396719 
L 194.78133 254.71208 
L 191.501991 252.887887 
L 188.222652 250.9125 
L 184.943314 248.773305 
L 181.663975 246.456626 
L 178.384636 243.947639 
L 175.105297 241.230273 
L 171.825958 238.287104 
L 168.546619 235.099241 
L 165.26728 231.646204 
L 161.987942 227.905784 
L 158.708603 223.853901 
L 155.429264 219.464442 
L 152.149925 214.70909 
L 148.870586 209.557138 
L 145.591247 203.97528 
L 142.311909 197.927398 
L 139.03257 191.374316 
L 135.753231 184.273541 
L 132.473892 176.578981 
L 129.194553 168.24064 
L 125.915214 159.20428 
L 122.635876 149.411062 
L 119.356537 138.797154 
L 116.077198 127.293299 
L 112.797859 114.824357 
L 109.51852 101.308797 
L 106.239181 86.658151 
L 102.959842 70.776421 
L 99.680504 53.559431 
L 96.401165 34.894125 
" clip-path="url(#p46ad3fa546)" style="fill: none; stroke: #d62728; stroke-width: 1.5; stroke-linecap: square"/>
   </g>
   <g id="line2d_20">
    <path d="M 421.05571 276.246788 
L 417.776371 276.209368 
L 414.497033 276.169666 
L 411.217694 276.127542 
L 407.938355 276.082849 
L 404.659016 276.035426 
L 401.379677 275.985106 
L 398.100338 275.93171 
L 394.820999 275.875048 
L 391.541661 275.814919 
L 388.262322 275.751108 
L 384.982983 275.683387 
L 381.703644 275.611515 
L 378.424305 275.535235 
L 375.144966 275.454272 
L 371.865628 275.368338 
L 368.586289 275.277124 
L 365.30695 275.180302 
L 362.027611 275.077524 
L 358.748272 274.96842 
L 355.468933 274.852597 
L 352.189595 274.729636 
L 348.910256 274.599094 
L 345.630917 274.460498 
L 342.351578 274.313346 
L 339.072239 274.157106 
L 335.7929 273.991209 
L 332.513561 273.815054 
L 329.234223 273.627999 
L 325.954884 273.429363 
L 322.675545 273.218422 
L 319.396206 272.994407 
L 316.116867 272.756497 
L 312.837528 272.503824 
L 309.55819 272.235461 
L 306.278851 271.950424 
L 302.999512 271.647667 
L 299.720173 271.326078 
L 296.440834 270.984471 
L 293.161495 270.62159 
L 289.882157 270.236096 
L 286.602818 269.826564 
L 283.323479 269.391482 
L 280.04414 268.929238 
L 276.764801 268.43812 
L 273.485462 267.916305 
L 270.206123 267.361855 
L 266.926785 266.772708 
L 263.647446 266.146671 
L 260.368107 265.481409 
L 257.088768 264.774441 
L 253.809429 264.023124 
L 250.53009 263.224648 
L 247.250752 262.376022 
L 243.971413 261.474064 
L 240.692074 260.515387 
L 237.412735 259.496388 
L 234.133396 258.413233 
L 230.854057 257.261839 
L 227.574718 256.037863 
L 224.29538 254.736683 
L 221.016041 253.353379 
L 217.736702 251.882711 
L 214.457363 250.319107 
L 211.178024 248.656632 
L 207.898685 246.888969 
L 204.619347 245.009392 
L 201.340008 243.010743 
L 198.060669 240.885399 
L 194.78133 238.625245 
L 191.501991 236.22164 
L 188.222652 233.665385 
L 184.943314 230.946682 
L 181.663975 228.055101 
L 178.384636 224.979532 
L 175.105297 221.708145 
L 171.825958 218.228341 
L 168.546619 214.526702 
L 165.26728 210.588938 
L 161.987942 206.399827 
L 158.708603 201.943155 
L 155.429264 197.201653 
L 152.149925 192.156924 
L 148.870586 186.78937 
L 145.591247 181.078115 
L 142.311909 175.000914 
L 139.03257 168.534073 
L 135.753231 161.652342 
L 132.473892 154.32882 
L 129.194553 146.534843 
L 125.915214 138.239867 
L 122.635876 129.411343 
L 119.356537 120.014585 
L 116.077198 110.012629 
L 112.797859 99.366078 
L 109.51852 88.032944 
L 106.239181 75.968477 
L 102.959842 63.124974 
L 99.680504 49.45159 
L 96.401165 34.894125 
" clip-path="url(#p46ad3fa546)" style="fill: none; stroke: #9467bd; stroke-width: 1.5; stroke-linecap: square"/>
   </g>
   <g id="line2d_21">
    <path d="M 258.728438 288.910125 
L 258.728438 22.798125 
" clip-path="url(#p46ad3fa546)" style="fill: none; stroke-dasharray: 1.85,0.8; stroke-dashoffset: 0; stroke: #000000; stroke-width: 0.5"/>
   </g>
   <g id="patch_3">
    <path d="M 80.168437 276.86672 
L 80.168437 34.894125 
" style="fill: none; stroke: #000000; stroke-width: 0.8; stroke-linejoin: miter; stroke-linecap: square"/>
   </g>
   <g id="patch_4">
    <path d="M 96.401165 288.910125 
L 421.05571 288.910125 
" style="fill: none; stroke: #000000; stroke-width: 0.8; stroke-linejoin: miter; stroke-linecap: square"/>
   </g>
   <g id="text_18">
    <!-- Probabilité d'intervention du jury en fonction de la distance à la note seuil -->
    <g transform="translate(7.2 16.798125)scale(0.12 -0.12)">
     <defs>
      <path id="DejaVuSerif-Bold-50" d="M 300 0 
L 300 378 
L 897 378 
L 897 4288 
L 300 4288 
L 300 4666 
L 2956 4666 
Q 3734 4666 4193 4295 
Q 4653 3925 4653 3303 
Q 4653 2678 4192 2304 
Q 3731 1931 2956 1931 
L 2100 1931 
L 2100 378 
L 2853 378 
L 2853 0 
L 300 0 
z
M 2100 2309 
L 2450 2309 
Q 2856 2309 3098 2579 
Q 3341 2850 3341 3303 
Q 3341 3753 3100 4020 
Q 2859 4288 2450 4288 
L 2100 4288 
L 2100 2309 
z
" transform="scale(0.015625)"/>
      <path id="DejaVuSerif-Bold-72" d="M 3438 3359 
L 3438 2369 
L 3084 2369 
Q 3066 2634 2941 2764 
Q 2816 2894 2578 2894 
Q 2216 2894 2006 2575 
Q 1797 2256 1797 1691 
L 1797 378 
L 2400 378 
L 2400 0 
L 219 0 
L 219 378 
L 691 378 
L 691 2944 
L 184 2944 
L 184 3322 
L 1797 3322 
L 1797 2731 
Q 1959 3078 2226 3245 
Q 2494 3413 2881 3413 
Q 2978 3413 3117 3398 
Q 3256 3384 3438 3359 
z
" transform="scale(0.015625)"/>
      <path id="DejaVuSerif-Bold-6f" d="M 2138 263 
Q 2488 263 2630 563 
Q 2772 863 2772 1663 
Q 2772 2463 2631 2761 
Q 2491 3059 2138 3059 
Q 1784 3059 1640 2757 
Q 1497 2456 1497 1663 
Q 1497 869 1640 566 
Q 1784 263 2138 263 
z
M 2138 -91 
Q 1259 -91 761 376 
Q 263 844 263 1663 
Q 263 2484 761 2948 
Q 1259 3413 2138 3413 
Q 3019 3413 3516 2948 
Q 4013 2484 4013 1663 
Q 4013 844 3514 376 
Q 3016 -91 2138 -91 
z
" transform="scale(0.015625)"/>
      <path id="DejaVuSerif-Bold-62" d="M 622 378 
L 622 4488 
L 147 4488 
L 147 4863 
L 1728 4863 
L 1728 2900 
Q 1869 3159 2106 3286 
Q 2344 3413 2694 3413 
Q 3403 3413 3811 2945 
Q 4219 2478 4219 1663 
Q 4219 847 3811 378 
Q 3403 -91 2694 -91 
Q 2344 -91 2106 36 
Q 1869 163 1728 422 
L 1728 0 
L 147 0 
L 147 378 
L 622 378 
z
M 1728 1497 
Q 1728 916 1876 656 
Q 2025 397 2356 397 
Q 2697 397 2836 672 
Q 2975 947 2975 1663 
Q 2975 2378 2836 2651 
Q 2697 2925 2356 2925 
Q 2025 2925 1876 2665 
Q 1728 2406 1728 1825 
L 1728 1497 
z
" transform="scale(0.015625)"/>
      <path id="DejaVuSerif-Bold-61" d="M 3525 2041 
L 3525 378 
L 4000 378 
L 4000 0 
L 2419 0 
L 2419 422 
Q 2200 159 1931 34 
Q 1663 -91 1319 -91 
Q 809 -91 536 182 
Q 263 456 263 966 
Q 263 1525 655 1803 
Q 1047 2081 1838 2081 
L 2419 2081 
L 2419 2278 
Q 2419 2681 2228 2873 
Q 2038 3066 1638 3066 
Q 1306 3066 1126 2930 
Q 947 2794 872 2484 
L 519 2484 
L 519 3200 
Q 816 3306 1134 3359 
Q 1453 3413 1806 3413 
Q 2697 3413 3111 3081 
Q 3525 2750 3525 2041 
z
M 2419 1044 
L 2419 1709 
L 2003 1709 
Q 1694 1709 1528 1540 
Q 1363 1372 1363 1056 
Q 1363 741 1483 584 
Q 1603 428 1850 428 
Q 2106 428 2262 597 
Q 2419 766 2419 1044 
z
" transform="scale(0.015625)"/>
      <path id="DejaVuSerif-Bold-69" d="M 588 4263 
Q 588 4516 763 4689 
Q 938 4863 1191 4863 
Q 1438 4863 1611 4689 
Q 1784 4516 1784 4263 
Q 1784 4016 1611 3842 
Q 1438 3669 1191 3669 
Q 938 3669 763 3841 
Q 588 4013 588 4263 
z
M 1797 378 
L 2272 378 
L 2272 0 
L 219 0 
L 219 378 
L 691 378 
L 691 2944 
L 219 2944 
L 219 3322 
L 1797 3322 
L 1797 378 
z
" transform="scale(0.015625)"/>
      <path id="DejaVuSerif-Bold-6c" d="M 1797 378 
L 2272 378 
L 2272 0 
L 219 0 
L 219 378 
L 691 378 
L 691 4488 
L 219 4488 
L 219 4863 
L 1797 4863 
L 1797 378 
z
" transform="scale(0.015625)"/>
      <path id="DejaVuSerif-Bold-74" d="M 634 2944 
L 153 2944 
L 153 3322 
L 634 3322 
L 634 4353 
L 1741 4353 
L 1741 3322 
L 2663 3322 
L 2663 2944 
L 1741 2944 
L 1741 909 
Q 1741 475 1809 369 
Q 1878 263 2059 263 
Q 2259 263 2356 397 
Q 2453 531 2459 813 
L 2925 813 
Q 2897 313 2651 111 
Q 2406 -91 1806 -91 
Q 1122 -91 878 123 
Q 634 338 634 909 
L 634 2944 
z
" transform="scale(0.015625)"/>
      <path id="DejaVuSerif-Bold-e9" d="M 2566 1875 
Q 2566 2531 2444 2795 
Q 2322 3059 2028 3059 
Q 1744 3059 1620 2800 
Q 1497 2541 1497 1931 
L 1497 1875 
L 2566 1875 
z
M 3781 1503 
L 1497 1503 
L 1497 1478 
Q 1497 834 1690 548 
Q 1884 263 2316 263 
Q 2675 263 2897 453 
Q 3119 644 3181 1006 
L 3700 1006 
Q 3566 441 3166 175 
Q 2766 -91 2047 -91 
Q 1184 -91 723 364 
Q 263 819 263 1663 
Q 263 2488 734 2950 
Q 1206 3413 2047 3413 
Q 2872 3413 3312 2927 
Q 3753 2441 3781 1503 
z
M 2320 5119 
L 3191 5119 
L 2026 3944 
L 1513 3944 
L 2320 5119 
z
" transform="scale(0.015625)"/>
      <path id="DejaVuSerif-Bold-20" transform="scale(0.015625)"/>
      <path id="DejaVuSerif-Bold-64" d="M 2747 1497 
L 2747 1825 
Q 2747 2406 2597 2665 
Q 2447 2925 2119 2925 
Q 1775 2925 1636 2651 
Q 1497 2378 1497 1663 
Q 1497 947 1637 672 
Q 1778 397 2119 397 
Q 2447 397 2597 656 
Q 2747 916 2747 1497 
z
M 3853 378 
L 4325 378 
L 4325 0 
L 2747 0 
L 2747 422 
Q 2606 163 2367 36 
Q 2128 -91 1778 -91 
Q 1072 -91 667 378 
Q 263 847 263 1663 
Q 263 2481 667 2947 
Q 1072 3413 1778 3413 
Q 2128 3413 2367 3286 
Q 2606 3159 2747 2900 
L 2747 4488 
L 2272 4488 
L 2272 4863 
L 3853 4863 
L 3853 378 
z
" transform="scale(0.015625)"/>
      <path id="DejaVuSerif-Bold-27" d="M 1350 4666 
L 1350 2931 
L 609 2931 
L 609 4666 
L 1350 4666 
z
" transform="scale(0.015625)"/>
      <path id="DejaVuSerif-Bold-6e" d="M 219 0 
L 219 378 
L 691 378 
L 691 2944 
L 219 2944 
L 219 3322 
L 1797 3322 
L 1797 2853 
Q 1997 3150 2253 3281 
Q 2509 3413 2900 3413 
Q 3459 3413 3745 3083 
Q 4031 2753 4031 2113 
L 4031 378 
L 4506 378 
L 4506 0 
L 2522 0 
L 2522 378 
L 2925 378 
L 2925 2144 
Q 2925 2566 2817 2730 
Q 2709 2894 2444 2894 
Q 2109 2894 1953 2648 
Q 1797 2403 1797 1869 
L 1797 378 
L 2203 378 
L 2203 0 
L 219 0 
z
" transform="scale(0.015625)"/>
      <path id="DejaVuSerif-Bold-65" d="M 2566 1875 
Q 2566 2531 2444 2795 
Q 2322 3059 2028 3059 
Q 1744 3059 1620 2800 
Q 1497 2541 1497 1931 
L 1497 1875 
L 2566 1875 
z
M 3781 1503 
L 1497 1503 
L 1497 1478 
Q 1497 834 1690 548 
Q 1884 263 2316 263 
Q 2675 263 2897 453 
Q 3119 644 3181 1006 
L 3700 1006 
Q 3566 441 3166 175 
Q 2766 -91 2047 -91 
Q 1184 -91 723 364 
Q 263 819 263 1663 
Q 263 2488 734 2950 
Q 1206 3413 2047 3413 
Q 2872 3413 3312 2927 
Q 3753 2441 3781 1503 
z
" transform="scale(0.015625)"/>
      <path id="DejaVuSerif-Bold-76" d="M 1428 0 
L 250 2944 
L -116 2944 
L -116 3322 
L 1791 3322 
L 1791 2944 
L 1388 2944 
L 2228 844 
L 3066 2944 
L 2631 2944 
L 2631 3322 
L 3878 3322 
L 3878 2944 
L 3494 2944 
L 2316 0 
L 1428 0 
z
" transform="scale(0.015625)"/>
      <path id="DejaVuSerif-Bold-75" d="M 3963 3322 
L 3963 378 
L 4434 378 
L 4434 0 
L 2853 0 
L 2853 469 
Q 2656 172 2400 40 
Q 2144 -91 1753 -91 
Q 1194 -91 908 239 
Q 622 569 622 1209 
L 622 2944 
L 147 2944 
L 147 3322 
L 1728 3322 
L 1728 1381 
Q 1728 763 1831 595 
Q 1934 428 2209 428 
Q 2544 428 2698 675 
Q 2853 922 2853 1459 
L 2853 2944 
L 2450 2944 
L 2450 3322 
L 3963 3322 
z
" transform="scale(0.015625)"/>
      <path id="DejaVuSerif-Bold-6a" d="M 556 4263 
Q 556 4516 729 4689 
Q 903 4863 1159 4863 
Q 1403 4863 1578 4688 
Q 1753 4513 1753 4263 
Q 1753 4016 1579 3842 
Q 1406 3669 1159 3669 
Q 906 3669 731 3841 
Q 556 4013 556 4263 
z
M 684 2944 
L 213 2944 
L 213 3322 
L 1791 3322 
L 1791 -391 
Q 1791 -900 1430 -1161 
Q 1069 -1422 366 -1422 
Q 178 -1422 -34 -1390 
Q -247 -1359 -475 -1300 
L -475 -594 
L -122 -597 
Q -116 -847 -23 -958 
Q 69 -1069 275 -1069 
Q 503 -1069 593 -922 
Q 684 -775 684 -391 
L 684 2944 
z
" transform="scale(0.015625)"/>
      <path id="DejaVuSerif-Bold-79" d="M 1997 -750 
Q 1847 -1116 1634 -1269 
Q 1422 -1422 1063 -1422 
Q 909 -1422 721 -1387 
Q 534 -1353 313 -1288 
L 313 -594 
L 666 -597 
Q 675 -838 779 -953 
Q 884 -1069 1094 -1069 
Q 1297 -1069 1422 -958 
Q 1547 -847 1672 -538 
L 1722 -422 
L 275 2944 
L -84 2944 
L -84 3322 
L 1831 3322 
L 1831 2944 
L 1434 2944 
L 2278 978 
L 3066 2944 
L 2625 2944 
L 2625 3322 
L 3872 3322 
L 3872 2944 
L 3469 2944 
L 1997 -750 
z
" transform="scale(0.015625)"/>
      <path id="DejaVuSerif-Bold-66" d="M 3097 4031 
L 2747 4031 
Q 2722 4275 2605 4394 
Q 2488 4513 2272 4513 
Q 2022 4513 1909 4333 
Q 1797 4153 1797 3750 
L 1797 3322 
L 2631 3322 
L 2631 2944 
L 1797 2944 
L 1797 378 
L 2438 378 
L 2438 0 
L 219 0 
L 219 378 
L 691 378 
L 691 2944 
L 197 2944 
L 197 3322 
L 691 3322 
L 691 3738 
Q 691 4291 1044 4577 
Q 1397 4863 2081 4863 
Q 2347 4863 2600 4833 
Q 2853 4803 3097 4744 
L 3097 4031 
z
" transform="scale(0.015625)"/>
      <path id="DejaVuSerif-Bold-63" d="M 3609 1038 
Q 3491 469 3123 189 
Q 2756 -91 2125 -91 
Q 1238 -91 750 368 
Q 263 828 263 1663 
Q 263 2488 744 2950 
Q 1225 3413 2081 3413 
Q 2428 3413 2781 3347 
Q 3134 3281 3500 3150 
L 3500 2228 
L 3150 2228 
Q 3100 2650 2903 2854 
Q 2706 3059 2350 3059 
Q 1888 3059 1692 2746 
Q 1497 2434 1497 1663 
Q 1497 909 1687 586 
Q 1878 263 2309 263 
Q 2644 263 2845 463 
Q 3047 663 3091 1038 
L 3609 1038 
z
" transform="scale(0.015625)"/>
      <path id="DejaVuSerif-Bold-73" d="M 300 97 
L 300 1025 
L 653 1025 
Q 697 653 931 458 
Q 1166 263 1569 263 
Q 1906 263 2086 380 
Q 2266 497 2266 716 
Q 2266 916 2152 1025 
Q 2038 1134 1709 1216 
L 1253 1331 
Q 738 1459 506 1698 
Q 275 1938 275 2344 
Q 275 2884 650 3148 
Q 1025 3413 1806 3413 
Q 2100 3413 2433 3364 
Q 2766 3316 3169 3213 
L 3169 2375 
L 2816 2375 
Q 2788 2716 2573 2887 
Q 2359 3059 1959 3059 
Q 1622 3059 1448 2951 
Q 1275 2844 1275 2638 
Q 1275 2469 1375 2372 
Q 1475 2275 1734 2209 
L 2188 2094 
Q 2841 1928 3091 1684 
Q 3341 1441 3341 1006 
Q 3341 444 2939 176 
Q 2538 -91 1691 -91 
Q 1381 -91 1034 -44 
Q 688 3 300 97 
z
" transform="scale(0.015625)"/>
      <path id="DejaVuSerif-Bold-e0" d="M 3525 2041 
L 3525 378 
L 4000 378 
L 4000 0 
L 2419 0 
L 2419 422 
Q 2200 159 1931 34 
Q 1663 -91 1319 -91 
Q 809 -91 536 182 
Q 263 456 263 966 
Q 263 1525 655 1803 
Q 1047 2081 1838 2081 
L 2419 2081 
L 2419 2278 
Q 2419 2681 2228 2873 
Q 2038 3066 1638 3066 
Q 1306 3066 1126 2930 
Q 947 2794 872 2484 
L 519 2484 
L 519 3200 
Q 816 3306 1134 3359 
Q 1453 3413 1806 3413 
Q 2697 3413 3111 3081 
Q 3525 2750 3525 2041 
z
M 2419 1044 
L 2419 1709 
L 2003 1709 
Q 1694 1709 1528 1540 
Q 1363 1372 1363 1056 
Q 1363 741 1483 584 
Q 1603 428 1850 428 
Q 2106 428 2262 597 
Q 2419 766 2419 1044 
z
M 1585 5119 
L 2391 3944 
L 1878 3944 
L 713 5119 
L 1585 5119 
z
" transform="scale(0.015625)"/>
     </defs>
     <use xlink:href="#DejaVuSerif-Bold-50"/>
     <use xlink:href="#DejaVuSerif-Bold-72" x="75.195312"/>
     <use xlink:href="#DejaVuSerif-Bold-6f" x="127.880859"/>
     <use xlink:href="#DejaVuSerif-Bold-62" x="194.580078"/>
     <use xlink:href="#DejaVuSerif-Bold-61" x="264.501953"/>
     <use xlink:href="#DejaVuSerif-Bold-62" x="329.296875"/>
     <use xlink:href="#DejaVuSerif-Bold-69" x="399.21875"/>
     <use xlink:href="#DejaVuSerif-Bold-6c" x="437.207031"/>
     <use xlink:href="#DejaVuSerif-Bold-69" x="475.195312"/>
     <use xlink:href="#DejaVuSerif-Bold-74" x="513.183594"/>
     <use xlink:href="#DejaVuSerif-Bold-e9" x="559.375"/>
     <use xlink:href="#DejaVuSerif-Bold-20" x="622.998047"/>
     <use xlink:href="#DejaVuSerif-Bold-64" x="657.8125"/>
     <use xlink:href="#DejaVuSerif-Bold-27" x="727.734375"/>
     <use xlink:href="#DejaVuSerif-Bold-69" x="758.349609"/>
     <use xlink:href="#DejaVuSerif-Bold-6e" x="796.337891"/>
     <use xlink:href="#DejaVuSerif-Bold-74" x="869.042969"/>
     <use xlink:href="#DejaVuSerif-Bold-65" x="915.234375"/>
     <use xlink:href="#DejaVuSerif-Bold-72" x="978.857422"/>
     <use xlink:href="#DejaVuSerif-Bold-76" x="1031.542969"/>
     <use xlink:href="#DejaVuSerif-Bold-65" x="1089.648438"/>
     <use xlink:href="#DejaVuSerif-Bold-6e" x="1153.271484"/>
     <use xlink:href="#DejaVuSerif-Bold-74" x="1225.976562"/>
     <use xlink:href="#DejaVuSerif-Bold-69" x="1272.167969"/>
     <use xlink:href="#DejaVuSerif-Bold-6f" x="1310.15625"/>
     <use xlink:href="#DejaVuSerif-Bold-6e" x="1376.855469"/>
     <use xlink:href="#DejaVuSerif-Bold-20" x="1449.560547"/>
     <use xlink:href="#DejaVuSerif-Bold-64" x="1484.375"/>
     <use xlink:href="#DejaVuSerif-Bold-75" x="1554.296875"/>
     <use xlink:href="#DejaVuSerif-Bold-20" x="1627.001953"/>
     <use xlink:href="#DejaVuSerif-Bold-6a" x="1661.816406"/>
     <use xlink:href="#DejaVuSerif-Bold-75" x="1697.998047"/>
     <use xlink:href="#DejaVuSerif-Bold-72" x="1770.703125"/>
     <use xlink:href="#DejaVuSerif-Bold-79" x="1823.388672"/>
     <use xlink:href="#DejaVuSerif-Bold-20" x="1881.494141"/>
     <use xlink:href="#DejaVuSerif-Bold-65" x="1916.308594"/>
     <use xlink:href="#DejaVuSerif-Bold-6e" x="1979.931641"/>
     <use xlink:href="#DejaVuSerif-Bold-20" x="2052.636719"/>
     <use xlink:href="#DejaVuSerif-Bold-66" x="2087.451172"/>
     <use xlink:href="#DejaVuSerif-Bold-6f" x="2130.46875"/>
     <use xlink:href="#DejaVuSerif-Bold-6e" x="2197.167969"/>
     <use xlink:href="#DejaVuSerif-Bold-63" x="2269.873047"/>
     <use xlink:href="#DejaVuSerif-Bold-74" x="2330.761719"/>
     <use xlink:href="#DejaVuSerif-Bold-69" x="2376.953125"/>
     <use xlink:href="#DejaVuSerif-Bold-6f" x="2414.941406"/>
     <use xlink:href="#DejaVuSerif-Bold-6e" x="2481.640625"/>
     <use xlink:href="#DejaVuSerif-Bold-20" x="2554.345703"/>
     <use xlink:href="#DejaVuSerif-Bold-64" x="2589.160156"/>
     <use xlink:href="#DejaVuSerif-Bold-65" x="2659.082031"/>
     <use xlink:href="#DejaVuSerif-Bold-20" x="2722.705078"/>
     <use xlink:href="#DejaVuSerif-Bold-6c" x="2757.519531"/>
     <use xlink:href="#DejaVuSerif-Bold-61" x="2795.507812"/>
     <use xlink:href="#DejaVuSerif-Bold-20" x="2860.302734"/>
     <use xlink:href="#DejaVuSerif-Bold-64" x="2895.117188"/>
     <use xlink:href="#DejaVuSerif-Bold-69" x="2965.039062"/>
     <use xlink:href="#DejaVuSerif-Bold-73" x="3003.027344"/>
     <use xlink:href="#DejaVuSerif-Bold-74" x="3059.326172"/>
     <use xlink:href="#DejaVuSerif-Bold-61" x="3105.517578"/>
     <use xlink:href="#DejaVuSerif-Bold-6e" x="3170.3125"/>
     <use xlink:href="#DejaVuSerif-Bold-63" x="3243.017578"/>
     <use xlink:href="#DejaVuSerif-Bold-65" x="3303.90625"/>
     <use xlink:href="#DejaVuSerif-Bold-20" x="3367.529297"/>
     <use xlink:href="#DejaVuSerif-Bold-e0" x="3402.34375"/>
     <use xlink:href="#DejaVuSerif-Bold-20" x="3467.138672"/>
     <use xlink:href="#DejaVuSerif-Bold-6c" x="3501.953125"/>
     <use xlink:href="#DejaVuSerif-Bold-61" x="3539.941406"/>
     <use xlink:href="#DejaVuSerif-Bold-20" x="3604.736328"/>
     <use xlink:href="#DejaVuSerif-Bold-6e" x="3639.550781"/>
     <use xlink:href="#DejaVuSerif-Bold-6f" x="3712.255859"/>
     <use xlink:href="#DejaVuSerif-Bold-74" x="3778.955078"/>
     <use xlink:href="#DejaVuSerif-Bold-65" x="3825.146484"/>
     <use xlink:href="#DejaVuSerif-Bold-20" x="3888.769531"/>
     <use xlink:href="#DejaVuSerif-Bold-73" x="3923.583984"/>
     <use xlink:href="#DejaVuSerif-Bold-65" x="3979.882812"/>
     <use xlink:href="#DejaVuSerif-Bold-75" x="4043.505859"/>
     <use xlink:href="#DejaVuSerif-Bold-69" x="4116.210938"/>
     <use xlink:href="#DejaVuSerif-Bold-6c" x="4154.199219"/>
    </g>
   </g>
   <g id="legend_1">
    <g id="line2d_22">
     <path d="M 325.763438 35.896562 
L 335.763438 35.896562 
L 345.763438 35.896562 
" style="fill: none; stroke: #1f77b4; stroke-width: 1.5; stroke-linecap: square"/>
    </g>
    <g id="text_19">
     <!-- 8 (Rattrapage) -->
     <g transform="translate(353.763438 39.396562)scale(0.1 -0.1)">
      <defs>
       <path id="DejaVuSerif-28" d="M 2041 -997 
Q 1281 -656 893 83 
Q 506 822 506 1931 
Q 506 3044 893 3783 
Q 1281 4522 2041 4863 
L 2041 4556 
Q 1559 4225 1350 3623 
Q 1141 3022 1141 1931 
Q 1141 844 1350 242 
Q 1559 -359 2041 -691 
L 2041 -997 
z
" transform="scale(0.015625)"/>
       <path id="DejaVuSerif-52" d="M 3066 2316 
Q 3284 2256 3442 2114 
Q 3600 1972 3725 1716 
L 4403 331 
L 4972 331 
L 4972 0 
L 3872 0 
L 3144 1484 
Q 2934 1916 2759 2042 
Q 2584 2169 2278 2169 
L 1581 2169 
L 1581 331 
L 2241 331 
L 2241 0 
L 353 0 
L 353 331 
L 947 331 
L 947 4331 
L 353 4331 
L 353 4666 
L 2719 4666 
Q 3400 4666 3770 4341 
Q 4141 4016 4141 3419 
Q 4141 2938 3870 2661 
Q 3600 2384 3066 2316 
z
M 1581 2503 
L 2503 2503 
Q 2975 2503 3200 2726 
Q 3425 2950 3425 3419 
Q 3425 3888 3200 4109 
Q 2975 4331 2503 4331 
L 1581 4331 
L 1581 2503 
z
" transform="scale(0.015625)"/>
       <path id="DejaVuSerif-70" d="M 1313 1825 
L 1313 1497 
Q 1313 897 1542 583 
Q 1772 269 2209 269 
Q 2650 269 2876 622 
Q 3103 975 3103 1663 
Q 3103 2353 2876 2703 
Q 2650 3053 2209 3053 
Q 1772 3053 1542 2737 
Q 1313 2422 1313 1825 
z
M 738 2988 
L 184 2988 
L 184 3322 
L 1313 3322 
L 1313 2803 
Q 1481 3116 1742 3264 
Q 2003 3413 2388 3413 
Q 3000 3413 3387 2928 
Q 3775 2444 3775 1663 
Q 3775 881 3387 395 
Q 3000 -91 2388 -91 
Q 2003 -91 1742 57 
Q 1481 206 1313 519 
L 1313 -997 
L 1856 -997 
L 1856 -1331 
L 184 -1331 
L 184 -997 
L 738 -997 
L 738 2988 
z
" transform="scale(0.015625)"/>
       <path id="DejaVuSerif-67" d="M 3359 2988 
L 3359 72 
Q 3359 -644 2965 -1033 
Q 2572 -1422 1844 -1422 
Q 1516 -1422 1216 -1362 
Q 916 -1303 641 -1184 
L 641 -488 
L 941 -488 
Q 997 -813 1206 -963 
Q 1416 -1113 1806 -1113 
Q 2313 -1113 2548 -827 
Q 2784 -541 2784 72 
L 2784 519 
Q 2616 206 2355 57 
Q 2094 -91 1709 -91 
Q 1097 -91 708 395 
Q 319 881 319 1663 
Q 319 2444 706 2928 
Q 1094 3413 1709 3413 
Q 2094 3413 2355 3264 
Q 2616 3116 2784 2803 
L 2784 3322 
L 3909 3322 
L 3909 2988 
L 3359 2988 
z
M 2784 1825 
Q 2784 2422 2554 2737 
Q 2325 3053 1888 3053 
Q 1444 3053 1217 2703 
Q 991 2353 991 1663 
Q 991 975 1217 622 
Q 1444 269 1888 269 
Q 2325 269 2554 583 
Q 2784 897 2784 1497 
L 2784 1825 
z
" transform="scale(0.015625)"/>
       <path id="DejaVuSerif-29" d="M 453 -997 
L 453 -691 
Q 934 -359 1145 242 
Q 1356 844 1356 1931 
Q 1356 3022 1145 3623 
Q 934 4225 453 4556 
L 453 4863 
Q 1216 4522 1603 3783 
Q 1991 3044 1991 1931 
Q 1991 822 1603 83 
Q 1216 -656 453 -997 
z
" transform="scale(0.015625)"/>
      </defs>
      <use xlink:href="#DejaVuSerif-38"/>
      <use xlink:href="#DejaVuSerif-20" x="63.623047"/>
      <use xlink:href="#DejaVuSerif-28" x="95.410156"/>
      <use xlink:href="#DejaVuSerif-52" x="134.423828"/>
      <use xlink:href="#DejaVuSerif-61" x="211.966797"/>
      <use xlink:href="#DejaVuSerif-74" x="271.585938"/>
      <use xlink:href="#DejaVuSerif-74" x="311.771484"/>
      <use xlink:href="#DejaVuSerif-72" x="351.957031"/>
      <use xlink:href="#DejaVuSerif-61" x="399.759766"/>
      <use xlink:href="#DejaVuSerif-70" x="459.378906"/>
      <use xlink:href="#DejaVuSerif-61" x="523.392578"/>
      <use xlink:href="#DejaVuSerif-67" x="583.011719"/>
      <use xlink:href="#DejaVuSerif-65" x="647.025391"/>
      <use xlink:href="#DejaVuSerif-29" x="706.205078"/>
     </g>
    </g>
    <g id="line2d_23">
     <path d="M 325.763438 50.716875 
L 335.763438 50.716875 
L 345.763438 50.716875 
" style="fill: none; stroke: #ff7f0e; stroke-width: 1.5; stroke-linecap: square"/>
    </g>
    <g id="text_20">
     <!-- 10 (Admis) -->
     <g transform="translate(353.763438 54.216875)scale(0.1 -0.1)">
      <defs>
       <path id="DejaVuSerif-41" d="M 1281 1691 
L 2994 1691 
L 2138 3909 
L 1281 1691 
z
M -38 0 
L -38 331 
L 372 331 
L 2034 4666 
L 2559 4666 
L 4225 331 
L 4684 331 
L 4684 0 
L 2988 0 
L 2988 331 
L 3506 331 
L 3116 1356 
L 1153 1356 
L 763 331 
L 1275 331 
L 1275 0 
L -38 0 
z
" transform="scale(0.015625)"/>
      </defs>
      <use xlink:href="#DejaVuSerif-31"/>
      <use xlink:href="#DejaVuSerif-30" x="63.623047"/>
      <use xlink:href="#DejaVuSerif-20" x="127.246094"/>
      <use xlink:href="#DejaVuSerif-28" x="159.033203"/>
      <use xlink:href="#DejaVuSerif-41" x="198.046875"/>
      <use xlink:href="#DejaVuSerif-64" x="270.263672"/>
      <use xlink:href="#DejaVuSerif-6d" x="334.277344"/>
      <use xlink:href="#DejaVuSerif-69" x="429.101562"/>
      <use xlink:href="#DejaVuSerif-73" x="461.083984"/>
      <use xlink:href="#DejaVuSerif-29" x="512.402344"/>
     </g>
    </g>
    <g id="line2d_24">
     <path d="M 325.763438 65.395 
L 335.763438 65.395 
L 345.763438 65.395 
" style="fill: none; stroke: #2ca02c; stroke-width: 1.5; stroke-linecap: square"/>
    </g>
    <g id="text_21">
     <!-- 12 (AB) -->
     <g transform="translate(353.763438 68.895)scale(0.1 -0.1)">
      <defs>
       <path id="DejaVuSerif-42" d="M 1581 331 
L 2516 331 
Q 3078 331 3337 575 
Q 3597 819 3597 1350 
Q 3597 1878 3339 2120 
Q 3081 2363 2516 2363 
L 1581 2363 
L 1581 331 
z
M 1581 2694 
L 2375 2694 
Q 2888 2694 3123 2891 
Q 3359 3088 3359 3513 
Q 3359 3941 3123 4136 
Q 2888 4331 2375 4331 
L 1581 4331 
L 1581 2694 
z
M 353 0 
L 353 331 
L 947 331 
L 947 4331 
L 353 4331 
L 353 4666 
L 2656 4666 
Q 3363 4666 3720 4377 
Q 4078 4088 4078 3513 
Q 4078 3097 3829 2850 
Q 3581 2603 3103 2547 
Q 3697 2472 4005 2167 
Q 4313 1863 4313 1350 
Q 4313 656 3875 328 
Q 3438 0 2509 0 
L 353 0 
z
" transform="scale(0.015625)"/>
      </defs>
      <use xlink:href="#DejaVuSerif-31"/>
      <use xlink:href="#DejaVuSerif-32" x="63.623047"/>
      <use xlink:href="#DejaVuSerif-20" x="127.246094"/>
      <use xlink:href="#DejaVuSerif-28" x="159.033203"/>
      <use xlink:href="#DejaVuSerif-41" x="198.046875"/>
      <use xlink:href="#DejaVuSerif-42" x="270.263672"/>
      <use xlink:href="#DejaVuSerif-29" x="343.75"/>
     </g>
    </g>
    <g id="line2d_25">
     <path d="M 325.763438 80.073125 
L 335.763438 80.073125 
L 345.763438 80.073125 
" style="fill: none; stroke: #d62728; stroke-width: 1.5; stroke-linecap: square"/>
    </g>
    <g id="text_22">
     <!-- 14 (B) -->
     <g transform="translate(353.763438 83.573125)scale(0.1 -0.1)">
      <use xlink:href="#DejaVuSerif-31"/>
      <use xlink:href="#DejaVuSerif-34" x="63.623047"/>
      <use xlink:href="#DejaVuSerif-20" x="127.246094"/>
      <use xlink:href="#DejaVuSerif-28" x="159.033203"/>
      <use xlink:href="#DejaVuSerif-42" x="198.046875"/>
      <use xlink:href="#DejaVuSerif-29" x="271.533203"/>
     </g>
    </g>
    <g id="line2d_26">
     <path d="M 325.763438 94.75125 
L 335.763438 94.75125 
L 345.763438 94.75125 
" style="fill: none; stroke: #9467bd; stroke-width: 1.5; stroke-linecap: square"/>
    </g>
    <g id="text_23">
     <!-- 16 (TB) -->
     <g transform="translate(353.763438 98.25125)scale(0.1 -0.1)">
      <defs>
       <path id="DejaVuSerif-54" d="M 1222 0 
L 1222 331 
L 1819 331 
L 1819 4294 
L 447 4294 
L 447 3566 
L 63 3566 
L 63 4666 
L 4206 4666 
L 4206 3566 
L 3822 3566 
L 3822 4294 
L 2450 4294 
L 2450 331 
L 3047 331 
L 3047 0 
L 1222 0 
z
" transform="scale(0.015625)"/>
      </defs>
      <use xlink:href="#DejaVuSerif-31"/>
      <use xlink:href="#DejaVuSerif-36" x="63.623047"/>
      <use xlink:href="#DejaVuSerif-20" x="127.246094"/>
      <use xlink:href="#DejaVuSerif-28" x="159.033203"/>
      <use xlink:href="#DejaVuSerif-54" x="198.046875"/>
      <use xlink:href="#DejaVuSerif-42" x="264.746094"/>
      <use xlink:href="#DejaVuSerif-29" x="338.232422"/>
     </g>
    </g>
   </g>
  </g>
  <g id="text_24">
   <!-- auteur: @remilouf -->
   <g transform="translate(22.568437 327.119437)scale(0.06 -0.06)">
    <defs>
     <path id="DejaVuSerif-3a" d="M 666 325 
Q 666 500 786 622 
Q 906 744 1081 744 
Q 1256 744 1376 622 
Q 1497 500 1497 325 
Q 1497 150 1378 29 
Q 1259 -91 1081 -91 
Q 903 -91 784 29 
Q 666 150 666 325 
z
M 666 2363 
Q 666 2538 786 2658 
Q 906 2778 1081 2778 
Q 1259 2778 1378 2659 
Q 1497 2541 1497 2363 
Q 1497 2184 1378 2065 
Q 1259 1947 1081 1947 
Q 906 1947 786 2067 
Q 666 2188 666 2363 
z
" transform="scale(0.015625)"/>
     <path id="DejaVuSerif-40" d="M 4044 775 
Q 3859 519 3629 394 
Q 3400 269 3109 269 
Q 2563 269 2222 659 
Q 1881 1050 1881 1678 
Q 1881 2306 2222 2695 
Q 2563 3084 3109 3084 
Q 3400 3084 3629 2959 
Q 3859 2834 4044 2578 
L 4044 3022 
L 4531 3022 
L 4531 609 
Q 5063 725 5356 1115 
Q 5650 1506 5650 2094 
Q 5650 2441 5544 2750 
Q 5438 3059 5228 3322 
Q 4897 3738 4420 3958 
Q 3944 4178 3384 4178 
Q 3103 4178 2828 4118 
Q 2553 4059 2284 3938 
Q 1653 3647 1303 3058 
Q 953 2469 953 1697 
Q 953 1175 1109 736 
Q 1266 297 1563 -25 
Q 1903 -397 2370 -592 
Q 2838 -788 3378 -788 
Q 3781 -788 4131 -669 
Q 4481 -550 4781 -313 
L 4947 -531 
Q 4609 -822 4181 -967 
Q 3753 -1113 3244 -1113 
Q 2672 -1113 2151 -905 
Q 1631 -697 1241 -313 
Q 838 84 630 595 
Q 422 1106 422 1697 
Q 422 2272 631 2781 
Q 841 3291 1241 3688 
Q 1638 4081 2177 4293 
Q 2716 4506 3322 4506 
Q 3991 4506 4542 4247 
Q 5094 3988 5466 3500 
Q 5703 3194 5825 2834 
Q 5947 2475 5947 2088 
Q 5947 1250 5437 764 
Q 4928 278 4047 269 
L 4044 775 
z
M 4044 1516 
L 4044 1844 
Q 4044 2234 3820 2476 
Q 3597 2719 3238 2719 
Q 2859 2719 2648 2445 
Q 2438 2172 2438 1678 
Q 2438 1181 2650 907 
Q 2863 634 3244 634 
Q 3600 634 3822 879 
Q 4044 1125 4044 1516 
z
" transform="scale(0.015625)"/>
     <path id="DejaVuSerif-66" d="M 2753 4078 
L 2450 4078 
Q 2447 4313 2317 4434 
Q 2188 4556 1941 4556 
Q 1619 4556 1487 4379 
Q 1356 4203 1356 3750 
L 1356 3322 
L 2284 3322 
L 2284 2988 
L 1356 2988 
L 1356 331 
L 2094 331 
L 2094 0 
L 231 0 
L 231 331 
L 781 331 
L 781 2988 
L 231 2988 
L 231 3322 
L 781 3322 
L 781 3738 
Q 781 4294 1070 4578 
Q 1359 4863 1919 4863 
Q 2128 4863 2337 4825 
Q 2547 4788 2753 4709 
L 2753 4078 
z
" transform="scale(0.015625)"/>
    </defs>
    <use xlink:href="#DejaVuSerif-61"/>
    <use xlink:href="#DejaVuSerif-75" x="59.619141"/>
    <use xlink:href="#DejaVuSerif-74" x="124.023438"/>
    <use xlink:href="#DejaVuSerif-65" x="164.208984"/>
    <use xlink:href="#DejaVuSerif-75" x="223.388672"/>
    <use xlink:href="#DejaVuSerif-72" x="287.792969"/>
    <use xlink:href="#DejaVuSerif-3a" x="335.595703"/>
    <use xlink:href="#DejaVuSerif-20" x="369.287109"/>
    <use xlink:href="#DejaVuSerif-40" x="401.074219"/>
    <use xlink:href="#DejaVuSerif-72" x="501.074219"/>
    <use xlink:href="#DejaVuSerif-65" x="548.876953"/>
    <use xlink:href="#DejaVuSerif-6d" x="608.056641"/>
    <use xlink:href="#DejaVuSerif-69" x="702.880859"/>
    <use xlink:href="#DejaVuSerif-6c" x="734.863281"/>
    <use xlink:href="#DejaVuSerif-6f" x="766.845703"/>
    <use xlink:href="#DejaVuSerif-75" x="827.050781"/>
    <use xlink:href="#DejaVuSerif-66" x="891.455078"/>
   </g>
   <!-- source: MESNER-DEPP, Résultats définitifs de la session 2016 du baccalauréat -->
   <g transform="translate(22.568437 333.838125)scale(0.06 -0.06)">
    <defs>
     <path id="DejaVuSerif-4d" d="M 353 0 
L 353 331 
L 947 331 
L 947 4331 
L 319 4331 
L 319 4666 
L 1678 4666 
L 3316 1344 
L 4953 4666 
L 6228 4666 
L 6228 4331 
L 5606 4331 
L 5606 331 
L 6203 331 
L 6203 0 
L 4378 0 
L 4378 331 
L 4972 331 
L 4972 3938 
L 3372 684 
L 2931 684 
L 1331 3938 
L 1331 331 
L 1925 331 
L 1925 0 
L 353 0 
z
" transform="scale(0.015625)"/>
     <path id="DejaVuSerif-45" d="M 353 0 
L 353 331 
L 947 331 
L 947 4331 
L 353 4331 
L 353 4666 
L 4109 4666 
L 4109 3628 
L 3725 3628 
L 3725 4281 
L 1581 4281 
L 1581 2719 
L 3109 2719 
L 3109 3303 
L 3494 3303 
L 3494 1753 
L 3109 1753 
L 3109 2338 
L 1581 2338 
L 1581 384 
L 3775 384 
L 3775 1038 
L 4159 1038 
L 4159 0 
L 353 0 
z
" transform="scale(0.015625)"/>
     <path id="DejaVuSerif-53" d="M 594 225 
L 594 1288 
L 953 1284 
Q 969 753 1261 498 
Q 1553 244 2150 244 
Q 2706 244 2998 464 
Q 3291 684 3291 1106 
Q 3291 1444 3114 1625 
Q 2938 1806 2369 1978 
L 1753 2163 
Q 1084 2366 811 2669 
Q 538 2972 538 3500 
Q 538 4094 959 4422 
Q 1381 4750 2144 4750 
Q 2469 4750 2856 4679 
Q 3244 4609 3681 4475 
L 3681 3481 
L 3328 3481 
Q 3275 3975 2998 4195 
Q 2722 4416 2156 4416 
Q 1663 4416 1405 4214 
Q 1147 4013 1147 3628 
Q 1147 3294 1340 3103 
Q 1534 2913 2163 2725 
L 2741 2553 
Q 3375 2363 3645 2067 
Q 3916 1772 3916 1275 
Q 3916 597 3481 253 
Q 3047 -91 2188 -91 
Q 1803 -91 1404 -12 
Q 1006 66 594 225 
z
" transform="scale(0.015625)"/>
     <path id="DejaVuSerif-4e" d="M 313 0 
L 313 331 
L 941 331 
L 941 4331 
L 313 4331 
L 313 4666 
L 1509 4666 
L 4306 984 
L 4306 4331 
L 3681 4331 
L 3681 4666 
L 5319 4666 
L 5319 4331 
L 4691 4331 
L 4691 -91 
L 4313 -91 
L 1325 3841 
L 1325 331 
L 1953 331 
L 1953 0 
L 313 0 
z
" transform="scale(0.015625)"/>
     <path id="DejaVuSerif-2d" d="M 281 1959 
L 1881 1959 
L 1881 1472 
L 281 1472 
L 281 1959 
z
" transform="scale(0.015625)"/>
     <path id="DejaVuSerif-2c" d="M 231 -622 
Q 525 -406 662 -114 
Q 800 178 800 594 
L 800 709 
L 1416 709 
Q 1391 175 1164 -208 
Q 938 -591 481 -872 
L 231 -622 
z
" transform="scale(0.015625)"/>
    </defs>
    <use xlink:href="#DejaVuSerif-73"/>
    <use xlink:href="#DejaVuSerif-6f" x="51.318359"/>
    <use xlink:href="#DejaVuSerif-75" x="111.523438"/>
    <use xlink:href="#DejaVuSerif-72" x="175.927734"/>
    <use xlink:href="#DejaVuSerif-63" x="223.730469"/>
    <use xlink:href="#DejaVuSerif-65" x="279.736328"/>
    <use xlink:href="#DejaVuSerif-3a" x="338.916016"/>
    <use xlink:href="#DejaVuSerif-20" x="372.607422"/>
    <use xlink:href="#DejaVuSerif-4d" x="404.394531"/>
    <use xlink:href="#DejaVuSerif-45" x="506.787109"/>
    <use xlink:href="#DejaVuSerif-53" x="579.785156"/>
    <use xlink:href="#DejaVuSerif-4e" x="648.291016"/>
    <use xlink:href="#DejaVuSerif-45" x="735.791016"/>
    <use xlink:href="#DejaVuSerif-52" x="808.789062"/>
    <use xlink:href="#DejaVuSerif-2d" x="884.082031"/>
    <use xlink:href="#DejaVuSerif-44" x="917.871094"/>
    <use xlink:href="#DejaVuSerif-45" x="998.046875"/>
    <use xlink:href="#DejaVuSerif-50" x="1071.044922"/>
    <use xlink:href="#DejaVuSerif-50" x="1138.330078"/>
    <use xlink:href="#DejaVuSerif-2c" x="1185.365234"/>
    <use xlink:href="#DejaVuSerif-20" x="1217.152344"/>
    <use xlink:href="#DejaVuSerif-52" x="1248.939453"/>
    <use xlink:href="#DejaVuSerif-e9" x="1324.232422"/>
    <use xlink:href="#DejaVuSerif-73" x="1383.412109"/>
    <use xlink:href="#DejaVuSerif-75" x="1434.730469"/>
    <use xlink:href="#DejaVuSerif-6c" x="1499.134766"/>
    <use xlink:href="#DejaVuSerif-74" x="1531.117188"/>
    <use xlink:href="#DejaVuSerif-61" x="1571.302734"/>
    <use xlink:href="#DejaVuSerif-74" x="1630.921875"/>
    <use xlink:href="#DejaVuSerif-73" x="1671.107422"/>
    <use xlink:href="#DejaVuSerif-20" x="1722.425781"/>
    <use xlink:href="#DejaVuSerif-64" x="1754.212891"/>
    <use xlink:href="#DejaVuSerif-e9" x="1818.226562"/>
    <use xlink:href="#DejaVuSerif-66" x="1877.40625"/>
    <use xlink:href="#DejaVuSerif-69" x="1914.417969"/>
    <use xlink:href="#DejaVuSerif-6e" x="1946.400391"/>
    <use xlink:href="#DejaVuSerif-69" x="2010.804688"/>
    <use xlink:href="#DejaVuSerif-74" x="2042.787109"/>
    <use xlink:href="#DejaVuSerif-69" x="2082.972656"/>
    <use xlink:href="#DejaVuSerif-66" x="2114.955078"/>
    <use xlink:href="#DejaVuSerif-73" x="2151.966797"/>
    <use xlink:href="#DejaVuSerif-20" x="2203.285156"/>
    <use xlink:href="#DejaVuSerif-64" x="2235.072266"/>
    <use xlink:href="#DejaVuSerif-65" x="2299.085938"/>
    <use xlink:href="#DejaVuSerif-20" x="2358.265625"/>
    <use xlink:href="#DejaVuSerif-6c" x="2390.052734"/>
    <use xlink:href="#DejaVuSerif-61" x="2422.035156"/>
    <use xlink:href="#DejaVuSerif-20" x="2481.654297"/>
    <use xlink:href="#DejaVuSerif-73" x="2513.441406"/>
    <use xlink:href="#DejaVuSerif-65" x="2564.759766"/>
    <use xlink:href="#DejaVuSerif-73" x="2623.939453"/>
    <use xlink:href="#DejaVuSerif-73" x="2675.257812"/>
    <use xlink:href="#DejaVuSerif-69" x="2726.576172"/>
    <use xlink:href="#DejaVuSerif-6f" x="2758.558594"/>
    <use xlink:href="#DejaVuSerif-6e" x="2818.763672"/>
    <use xlink:href="#DejaVuSerif-20" x="2883.167969"/>
    <use xlink:href="#DejaVuSerif-32" x="2914.955078"/>
    <use xlink:href="#DejaVuSerif-30" x="2978.578125"/>
    <use xlink:href="#DejaVuSerif-31" x="3042.201172"/>
    <use xlink:href="#DejaVuSerif-36" x="3105.824219"/>
    <use xlink:href="#DejaVuSerif-20" x="3169.447266"/>
    <use xlink:href="#DejaVuSerif-64" x="3201.234375"/>
    <use xlink:href="#DejaVuSerif-75" x="3265.248047"/>
    <use xlink:href="#DejaVuSerif-20" x="3329.652344"/>
    <use xlink:href="#DejaVuSerif-62" x="3361.439453"/>
    <use xlink:href="#DejaVuSerif-61" x="3425.453125"/>
    <use xlink:href="#DejaVuSerif-63" x="3485.072266"/>
    <use xlink:href="#DejaVuSerif-63" x="3541.078125"/>
    <use xlink:href="#DejaVuSerif-61" x="3597.083984"/>
    <use xlink:href="#DejaVuSerif-6c" x="3656.703125"/>
    <use xlink:href="#DejaVuSerif-61" x="3688.685547"/>
    <use xlink:href="#DejaVuSerif-75" x="3748.304688"/>
    <use xlink:href="#DejaVuSerif-72" x="3812.708984"/>
    <use xlink:href="#DejaVuSerif-e9" x="3860.511719"/>
    <use xlink:href="#DejaVuSerif-61" x="3919.691406"/>
    <use xlink:href="#DejaVuSerif-74" x="3979.310547"/>
   </g>
  </g>
 </g>
 <defs>
  <clipPath id="p46ad3fa546">
   <rect x="80.168437" y="22.798125" width="357.12" height="266.112"/>
  </clipPath>
 </defs>
</svg>
