<?xml version="1.0" encoding="utf-8" standalone="no"?>
<!DOCTYPE svg PUBLIC "-//W3C//DTD SVG 1.1//EN"
  "http://www.w3.org/Graphics/SVG/1.1/DTD/svg11.dtd">
<svg xmlns:xlink="http://www.w3.org/1999/xlink" width="429.12pt" height="326.687812pt" viewBox="0 0 429.12 326.687812" xmlns="http://www.w3.org/2000/svg" version="1.1">
 <metadata>
  <rdf:RDF xmlns:dc="http://purl.org/dc/elements/1.1/" xmlns:cc="http://creativecommons.org/ns#" xmlns:rdf="http://www.w3.org/1999/02/22-rdf-syntax-ns#">
   <cc:Work>
    <dc:type rdf:resource="http://purl.org/dc/dcmitype/StillImage"/>
    <dc:date>2021-12-03T10:30:30.648531</dc:date>
    <dc:format>image/svg+xml</dc:format>
    <dc:creator>
     <cc:Agent>
      <dc:title>Matplotlib v3.5.0, https://matplotlib.org/</dc:title>
     </cc:Agent>
    </dc:creator>
   </cc:Work>
  </rdf:RDF>
 </metadata>
 <defs>
  <style type="text/css">*{stroke-linejoin: round; stroke-linecap: butt}</style>
 </defs>
 <g id="figure_1">
  <g id="patch_1">
   <path d="M 0 326.687812 
L 429.12 326.687812 
L 429.12 0 
L 0 0 
z
" style="fill: #ffffff"/>
  </g>
  <g id="axes_1">
   <g id="patch_2">
    <path d="M 64.8 273.312 
L 421.92 273.312 
L 421.92 7.2 
L 64.8 7.2 
z
" style="fill: #ffffff"/>
   </g>
   <g id="patch_3">
    <path d="M 81.032727 273.312 
L 82.647924 273.312 
L 82.647924 270.183873 
L 81.032727 270.183873 
z
" clip-path="url(#pef1aaa9acd)"/>
   </g>
   <g id="patch_4">
    <path d="M 82.647924 273.312 
L 84.263121 273.312 
L 84.263121 273.003303 
L 82.647924 273.003303 
z
" clip-path="url(#pef1aaa9acd)"/>
   </g>
   <g id="patch_5">
    <path d="M 84.263121 273.312 
L 85.878318 273.312 
L 85.878318 273.003303 
L 84.263121 273.003303 
z
" clip-path="url(#pef1aaa9acd)"/>
   </g>
   <g id="patch_6">
    <path d="M 85.878318 273.312 
L 87.493514 273.312 
L 87.493514 272.941564 
L 85.878318 272.941564 
z
" clip-path="url(#pef1aaa9acd)"/>
   </g>
   <g id="patch_7">
    <path d="M 87.493514 273.312 
L 89.108711 273.312 
L 89.108711 272.859245 
L 87.493514 272.859245 
z
" clip-path="url(#pef1aaa9acd)"/>
   </g>
   <g id="patch_8">
    <path d="M 89.108711 273.312 
L 90.723908 273.312 
L 90.723908 272.612287 
L 89.108711 272.612287 
z
" clip-path="url(#pef1aaa9acd)"/>
   </g>
   <g id="patch_9">
    <path d="M 90.723908 273.312 
L 92.339104 273.312 
L 92.339104 272.632867 
L 90.723908 272.632867 
z
" clip-path="url(#pef1aaa9acd)"/>
   </g>
   <g id="patch_10">
    <path d="M 92.339104 273.312 
L 93.954301 273.312 
L 93.954301 272.838665 
L 92.339104 272.838665 
z
" clip-path="url(#pef1aaa9acd)"/>
   </g>
   <g id="patch_11">
    <path d="M 93.954301 273.312 
L 95.569498 273.312 
L 95.569498 272.756346 
L 93.954301 272.756346 
z
" clip-path="url(#pef1aaa9acd)"/>
   </g>
   <g id="patch_12">
    <path d="M 95.569498 273.312 
L 97.184695 273.312 
L 97.184695 273.003303 
L 95.569498 273.003303 
z
" clip-path="url(#pef1aaa9acd)"/>
   </g>
   <g id="patch_13">
    <path d="M 97.184695 273.312 
L 98.799891 273.312 
L 98.799891 272.529968 
L 97.184695 272.529968 
z
" clip-path="url(#pef1aaa9acd)"/>
   </g>
   <g id="patch_14">
    <path d="M 98.799891 273.312 
L 100.415088 273.312 
L 100.415088 272.756346 
L 98.799891 272.756346 
z
" clip-path="url(#pef1aaa9acd)"/>
   </g>
   <g id="patch_15">
    <path d="M 100.415088 273.312 
L 102.030285 273.312 
L 102.030285 272.674027 
L 100.415088 272.674027 
z
" clip-path="url(#pef1aaa9acd)"/>
   </g>
   <g id="patch_16">
    <path d="M 102.030285 273.312 
L 103.645482 273.312 
L 103.645482 272.447649 
L 102.030285 272.447649 
z
" clip-path="url(#pef1aaa9acd)"/>
   </g>
   <g id="patch_17">
    <path d="M 103.645482 273.312 
L 105.260678 273.312 
L 105.260678 272.776926 
L 103.645482 272.776926 
z
" clip-path="url(#pef1aaa9acd)"/>
   </g>
   <g id="patch_18">
    <path d="M 105.260678 273.312 
L 106.875875 273.312 
L 106.875875 272.571128 
L 105.260678 272.571128 
z
" clip-path="url(#pef1aaa9acd)"/>
   </g>
   <g id="patch_19">
    <path d="M 106.875875 273.312 
L 108.491072 273.312 
L 108.491072 272.653447 
L 106.875875 272.653447 
z
" clip-path="url(#pef1aaa9acd)"/>
   </g>
   <g id="patch_20">
    <path d="M 108.491072 273.312 
L 110.106269 273.312 
L 110.106269 272.591708 
L 108.491072 272.591708 
z
" clip-path="url(#pef1aaa9acd)"/>
   </g>
   <g id="patch_21">
    <path d="M 110.106269 273.312 
L 111.721465 273.312 
L 111.721465 272.735766 
L 110.106269 272.735766 
z
" clip-path="url(#pef1aaa9acd)"/>
   </g>
   <g id="patch_22">
    <path d="M 111.721465 273.312 
L 113.336662 273.312 
L 113.336662 272.859245 
L 111.721465 272.859245 
z
" clip-path="url(#pef1aaa9acd)"/>
   </g>
   <g id="patch_23">
    <path d="M 113.336662 273.312 
L 114.951859 273.312 
L 114.951859 272.262431 
L 113.336662 272.262431 
z
" clip-path="url(#pef1aaa9acd)"/>
   </g>
   <g id="patch_24">
    <path d="M 114.951859 273.312 
L 116.567056 273.312 
L 116.567056 272.674027 
L 114.951859 272.674027 
z
" clip-path="url(#pef1aaa9acd)"/>
   </g>
   <g id="patch_25">
    <path d="M 116.567056 273.312 
L 118.182252 273.312 
L 118.182252 272.488809 
L 116.567056 272.488809 
z
" clip-path="url(#pef1aaa9acd)"/>
   </g>
   <g id="patch_26">
    <path d="M 118.182252 273.312 
L 119.797449 273.312 
L 119.797449 272.38591 
L 118.182252 272.38591 
z
" clip-path="url(#pef1aaa9acd)"/>
   </g>
   <g id="patch_27">
    <path d="M 119.797449 273.312 
L 121.412646 273.312 
L 121.412646 272.591708 
L 119.797449 272.591708 
z
" clip-path="url(#pef1aaa9acd)"/>
   </g>
   <g id="patch_28">
    <path d="M 121.412646 273.312 
L 123.027843 273.312 
L 123.027843 272.509389 
L 121.412646 272.509389 
z
" clip-path="url(#pef1aaa9acd)"/>
   </g>
   <g id="patch_29">
    <path d="M 123.027843 273.312 
L 124.643039 273.312 
L 124.643039 272.591708 
L 123.027843 272.591708 
z
" clip-path="url(#pef1aaa9acd)"/>
   </g>
   <g id="patch_30">
    <path d="M 124.643039 273.312 
L 126.258236 273.312 
L 126.258236 272.468229 
L 124.643039 272.468229 
z
" clip-path="url(#pef1aaa9acd)"/>
   </g>
   <g id="patch_31">
    <path d="M 126.258236 273.312 
L 127.873433 273.312 
L 127.873433 272.447649 
L 126.258236 272.447649 
z
" clip-path="url(#pef1aaa9acd)"/>
   </g>
   <g id="patch_32">
    <path d="M 127.873433 273.312 
L 129.48863 273.312 
L 129.48863 272.632867 
L 127.873433 272.632867 
z
" clip-path="url(#pef1aaa9acd)"/>
   </g>
   <g id="patch_33">
    <path d="M 129.48863 273.312 
L 131.103826 273.312 
L 131.103826 272.38591 
L 129.48863 272.38591 
z
" clip-path="url(#pef1aaa9acd)"/>
   </g>
   <g id="patch_34">
    <path d="M 131.103826 273.312 
L 132.719023 273.312 
L 132.719023 272.509389 
L 131.103826 272.509389 
z
" clip-path="url(#pef1aaa9acd)"/>
   </g>
   <g id="patch_35">
    <path d="M 132.719023 273.312 
L 134.33422 273.312 
L 134.33422 272.38591 
L 132.719023 272.38591 
z
" clip-path="url(#pef1aaa9acd)"/>
   </g>
   <g id="patch_36">
    <path d="M 134.33422 273.312 
L 135.949417 273.312 
L 135.949417 272.303591 
L 134.33422 272.303591 
z
" clip-path="url(#pef1aaa9acd)"/>
   </g>
   <g id="patch_37">
    <path d="M 135.949417 273.312 
L 137.564613 273.312 
L 137.564613 272.529968 
L 135.949417 272.529968 
z
" clip-path="url(#pef1aaa9acd)"/>
   </g>
   <g id="patch_38">
    <path d="M 137.564613 273.312 
L 139.17981 273.312 
L 139.17981 272.138952 
L 137.564613 272.138952 
z
" clip-path="url(#pef1aaa9acd)"/>
   </g>
   <g id="patch_39">
    <path d="M 139.17981 273.312 
L 140.795007 273.312 
L 140.795007 272.262431 
L 139.17981 272.262431 
z
" clip-path="url(#pef1aaa9acd)"/>
   </g>
   <g id="patch_40">
    <path d="M 140.795007 273.312 
L 142.410204 273.312 
L 142.410204 272.262431 
L 140.795007 272.262431 
z
" clip-path="url(#pef1aaa9acd)"/>
   </g>
   <g id="patch_41">
    <path d="M 142.410204 273.312 
L 144.0254 273.312 
L 144.0254 272.138952 
L 142.410204 272.138952 
z
" clip-path="url(#pef1aaa9acd)"/>
   </g>
   <g id="patch_42">
    <path d="M 144.0254 273.312 
L 145.640597 273.312 
L 145.640597 272.38591 
L 144.0254 272.38591 
z
" clip-path="url(#pef1aaa9acd)"/>
   </g>
   <g id="patch_43">
    <path d="M 145.640597 273.312 
L 147.255794 273.312 
L 147.255794 271.747937 
L 145.640597 271.747937 
z
" clip-path="url(#pef1aaa9acd)"/>
   </g>
   <g id="patch_44">
    <path d="M 147.255794 273.312 
L 148.870991 273.312 
L 148.870991 272.015474 
L 147.255794 272.015474 
z
" clip-path="url(#pef1aaa9acd)"/>
   </g>
   <g id="patch_45">
    <path d="M 148.870991 273.312 
L 150.486187 273.312 
L 150.486187 272.200692 
L 148.870991 272.200692 
z
" clip-path="url(#pef1aaa9acd)"/>
   </g>
   <g id="patch_46">
    <path d="M 150.486187 273.312 
L 152.101384 273.312 
L 152.101384 272.097793 
L 150.486187 272.097793 
z
" clip-path="url(#pef1aaa9acd)"/>
   </g>
   <g id="patch_47">
    <path d="M 152.101384 273.312 
L 153.716581 273.312 
L 153.716581 272.138952 
L 152.101384 272.138952 
z
" clip-path="url(#pef1aaa9acd)"/>
   </g>
   <g id="patch_48">
    <path d="M 153.716581 273.312 
L 155.331777 273.312 
L 155.331777 270.842426 
L 153.716581 270.842426 
z
" clip-path="url(#pef1aaa9acd)"/>
   </g>
   <g id="patch_49">
    <path d="M 155.331777 273.312 
L 156.946974 273.312 
L 156.946974 271.336341 
L 155.331777 271.336341 
z
" clip-path="url(#pef1aaa9acd)"/>
   </g>
   <g id="patch_50">
    <path d="M 156.946974 273.312 
L 158.562171 273.312 
L 158.562171 271.151123 
L 156.946974 271.151123 
z
" clip-path="url(#pef1aaa9acd)"/>
   </g>
   <g id="patch_51">
    <path d="M 158.562171 273.312 
L 160.177368 273.312 
L 160.177368 271.356921 
L 158.562171 271.356921 
z
" clip-path="url(#pef1aaa9acd)"/>
   </g>
   <g id="patch_52">
    <path d="M 160.177368 273.312 
L 161.792564 273.312 
L 161.792564 271.274602 
L 160.177368 271.274602 
z
" clip-path="url(#pef1aaa9acd)"/>
   </g>
   <g id="patch_53">
    <path d="M 161.792564 273.312 
L 163.407761 273.312 
L 163.407761 270.183873 
L 161.792564 270.183873 
z
" clip-path="url(#pef1aaa9acd)"/>
   </g>
   <g id="patch_54">
    <path d="M 163.407761 273.312 
L 165.022958 273.312 
L 165.022958 270.554309 
L 163.407761 270.554309 
z
" clip-path="url(#pef1aaa9acd)"/>
   </g>
   <g id="patch_55">
    <path d="M 165.022958 273.312 
L 166.638155 273.312 
L 166.638155 270.142714 
L 165.022958 270.142714 
z
" clip-path="url(#pef1aaa9acd)"/>
   </g>
   <g id="patch_56">
    <path d="M 166.638155 273.312 
L 168.253351 273.312 
L 168.253351 270.286772 
L 166.638155 270.286772 
z
" clip-path="url(#pef1aaa9acd)"/>
   </g>
   <g id="patch_57">
    <path d="M 168.253351 273.312 
L 169.868548 273.312 
L 169.868548 270.142714 
L 168.253351 270.142714 
z
" clip-path="url(#pef1aaa9acd)"/>
   </g>
   <g id="patch_58">
    <path d="M 169.868548 273.312 
L 171.483745 273.312 
L 171.483745 268.249374 
L 169.868548 268.249374 
z
" clip-path="url(#pef1aaa9acd)"/>
   </g>
   <g id="patch_59">
    <path d="M 171.483745 273.312 
L 173.098942 273.312 
L 173.098942 269.772278 
L 171.483745 269.772278 
z
" clip-path="url(#pef1aaa9acd)"/>
   </g>
   <g id="patch_60">
    <path d="M 173.098942 273.312 
L 174.714138 273.312 
L 174.714138 268.372853 
L 173.098942 268.372853 
z
" clip-path="url(#pef1aaa9acd)"/>
   </g>
   <g id="patch_61">
    <path d="M 174.714138 273.312 
L 176.329335 273.312 
L 176.329335 268.702129 
L 174.714138 268.702129 
z
" clip-path="url(#pef1aaa9acd)"/>
   </g>
   <g id="patch_62">
    <path d="M 176.329335 273.312 
L 177.944532 273.312 
L 177.944532 268.846188 
L 176.329335 268.846188 
z
" clip-path="url(#pef1aaa9acd)"/>
   </g>
   <g id="patch_63">
    <path d="M 177.944532 273.312 
L 179.559729 273.312 
L 179.559729 265.347625 
L 177.944532 265.347625 
z
" clip-path="url(#pef1aaa9acd)"/>
   </g>
   <g id="patch_64">
    <path d="M 179.559729 273.312 
L 181.174925 273.312 
L 181.174925 266.70589 
L 179.559729 266.70589 
z
" clip-path="url(#pef1aaa9acd)"/>
   </g>
   <g id="patch_65">
    <path d="M 181.174925 273.312 
L 182.790122 273.312 
L 182.790122 265.100667 
L 181.174925 265.100667 
z
" clip-path="url(#pef1aaa9acd)"/>
   </g>
   <g id="patch_66">
    <path d="M 182.790122 273.312 
L 184.405319 273.312 
L 184.405319 265.450524 
L 182.790122 265.450524 
z
" clip-path="url(#pef1aaa9acd)"/>
   </g>
   <g id="patch_67">
    <path d="M 184.405319 273.312 
L 186.020516 273.312 
L 186.020516 266.026758 
L 184.405319 266.026758 
z
" clip-path="url(#pef1aaa9acd)"/>
   </g>
   <g id="patch_68">
    <path d="M 186.020516 273.312 
L 187.635712 273.312 
L 187.635712 261.828482 
L 186.020516 261.828482 
z
" clip-path="url(#pef1aaa9acd)"/>
   </g>
   <g id="patch_69">
    <path d="M 187.635712 273.312 
L 189.250909 273.312 
L 189.250909 262.836892 
L 187.635712 262.836892 
z
" clip-path="url(#pef1aaa9acd)"/>
   </g>
   <g id="patch_70">
    <path d="M 189.250909 273.312 
L 190.866106 273.312 
L 190.866106 261.869642 
L 189.250909 261.869642 
z
" clip-path="url(#pef1aaa9acd)"/>
   </g>
   <g id="patch_71">
    <path d="M 190.866106 273.312 
L 192.481303 273.312 
L 192.481303 260.387898 
L 190.866106 260.387898 
z
" clip-path="url(#pef1aaa9acd)"/>
   </g>
   <g id="patch_72">
    <path d="M 192.481303 273.312 
L 194.096499 273.312 
L 194.096499 262.198918 
L 192.481303 262.198918 
z
" clip-path="url(#pef1aaa9acd)"/>
   </g>
   <g id="patch_73">
    <path d="M 194.096499 273.312 
L 195.711696 273.312 
L 195.711696 255.304692 
L 194.096499 255.304692 
z
" clip-path="url(#pef1aaa9acd)"/>
   </g>
   <g id="patch_74">
    <path d="M 195.711696 273.312 
L 197.326893 273.312 
L 197.326893 258.30934 
L 195.711696 258.30934 
z
" clip-path="url(#pef1aaa9acd)"/>
   </g>
   <g id="patch_75">
    <path d="M 197.326893 273.312 
L 198.94209 273.312 
L 198.94209 254.604979 
L 197.326893 254.604979 
z
" clip-path="url(#pef1aaa9acd)"/>
   </g>
   <g id="patch_76">
    <path d="M 198.94209 273.312 
L 200.557286 273.312 
L 200.557286 254.008166 
L 198.94209 254.008166 
z
" clip-path="url(#pef1aaa9acd)"/>
   </g>
   <g id="patch_77">
    <path d="M 200.557286 273.312 
L 202.172483 273.312 
L 202.172483 256.971654 
L 200.557286 256.971654 
z
" clip-path="url(#pef1aaa9acd)"/>
   </g>
   <g id="patch_78">
    <path d="M 202.172483 273.312 
L 203.78768 273.312 
L 203.78768 249.357135 
L 202.172483 249.357135 
z
" clip-path="url(#pef1aaa9acd)"/>
   </g>
   <g id="patch_79">
    <path d="M 203.78768 273.312 
L 205.402877 273.312 
L 205.402877 254.172804 
L 203.78768 254.172804 
z
" clip-path="url(#pef1aaa9acd)"/>
   </g>
   <g id="patch_80">
    <path d="M 205.402877 273.312 
L 207.018073 273.312 
L 207.018073 255.983825 
L 205.402877 255.983825 
z
" clip-path="url(#pef1aaa9acd)"/>
   </g>
   <g id="patch_81">
    <path d="M 207.018073 273.312 
L 208.63327 273.312 
L 208.63327 260.964132 
L 207.018073 260.964132 
z
" clip-path="url(#pef1aaa9acd)"/>
   </g>
   <g id="patch_82">
    <path d="M 208.63327 273.312 
L 210.248467 273.312 
L 210.248467 267.261544 
L 208.63327 267.261544 
z
" clip-path="url(#pef1aaa9acd)"/>
   </g>
   <g id="patch_83">
    <path d="M 210.248467 273.312 
L 211.863664 273.312 
L 211.863664 183.851693 
L 210.248467 183.851693 
z
" clip-path="url(#pef1aaa9acd)"/>
   </g>
   <g id="patch_84">
    <path d="M 211.863664 273.312 
L 213.47886 273.312 
L 213.47886 241.084063 
L 211.863664 241.084063 
z
" clip-path="url(#pef1aaa9acd)"/>
   </g>
   <g id="patch_85">
    <path d="M 213.47886 273.312 
L 215.094057 273.312 
L 215.094057 233.510704 
L 213.47886 233.510704 
z
" clip-path="url(#pef1aaa9acd)"/>
   </g>
   <g id="patch_86">
    <path d="M 215.094057 273.312 
L 216.709254 273.312 
L 216.709254 234.333895 
L 215.094057 234.333895 
z
" clip-path="url(#pef1aaa9acd)"/>
   </g>
   <g id="patch_87">
    <path d="M 216.709254 273.312 
L 218.32445 273.312 
L 218.32445 240.013915 
L 216.709254 240.013915 
z
" clip-path="url(#pef1aaa9acd)"/>
   </g>
   <g id="patch_88">
    <path d="M 218.32445 273.312 
L 219.939647 273.312 
L 219.939647 221.471532 
L 218.32445 221.471532 
z
" clip-path="url(#pef1aaa9acd)"/>
   </g>
   <g id="patch_89">
    <path d="M 219.939647 273.312 
L 221.554844 273.312 
L 221.554844 229.250689 
L 219.939647 229.250689 
z
" clip-path="url(#pef1aaa9acd)"/>
   </g>
   <g id="patch_90">
    <path d="M 221.554844 273.312 
L 223.170041 273.312 
L 223.170041 222.58284 
L 221.554844 222.58284 
z
" clip-path="url(#pef1aaa9acd)"/>
   </g>
   <g id="patch_91">
    <path d="M 223.170041 273.312 
L 224.785237 273.312 
L 224.785237 222.541681 
L 223.170041 222.541681 
z
" clip-path="url(#pef1aaa9acd)"/>
   </g>
   <g id="patch_92">
    <path d="M 224.785237 273.312 
L 226.400434 273.312 
L 226.400434 227.501408 
L 224.785237 227.501408 
z
" clip-path="url(#pef1aaa9acd)"/>
   </g>
   <g id="patch_93">
    <path d="M 226.400434 273.312 
L 228.015631 273.312 
L 228.015631 202.064799 
L 226.400434 202.064799 
z
" clip-path="url(#pef1aaa9acd)"/>
   </g>
   <g id="patch_94">
    <path d="M 228.015631 273.312 
L 229.630828 273.312 
L 229.630828 218.178767 
L 228.015631 218.178767 
z
" clip-path="url(#pef1aaa9acd)"/>
   </g>
   <g id="patch_95">
    <path d="M 229.630828 273.312 
L 231.246024 273.312 
L 231.246024 205.501622 
L 229.630828 205.501622 
z
" clip-path="url(#pef1aaa9acd)"/>
   </g>
   <g id="patch_96">
    <path d="M 231.246024 273.312 
L 232.861221 273.312 
L 232.861221 211.860775 
L 231.246024 211.860775 
z
" clip-path="url(#pef1aaa9acd)"/>
   </g>
   <g id="patch_97">
    <path d="M 232.861221 273.312 
L 234.476418 273.312 
L 234.476418 218.940219 
L 232.861221 218.940219 
z
" clip-path="url(#pef1aaa9acd)"/>
   </g>
   <g id="patch_98">
    <path d="M 234.476418 273.312 
L 236.091615 273.312 
L 236.091615 194.820716 
L 234.476418 194.820716 
z
" clip-path="url(#pef1aaa9acd)"/>
   </g>
   <g id="patch_99">
    <path d="M 236.091615 273.312 
L 237.706811 273.312 
L 237.706811 215.688614 
L 236.091615 215.688614 
z
" clip-path="url(#pef1aaa9acd)"/>
   </g>
   <g id="patch_100">
    <path d="M 237.706811 273.312 
L 239.322008 273.312 
L 239.322008 228.098222 
L 237.706811 228.098222 
z
" clip-path="url(#pef1aaa9acd)"/>
   </g>
   <g id="patch_101">
    <path d="M 239.322008 273.312 
L 240.937205 273.312 
L 240.937205 245.570456 
L 239.322008 245.570456 
z
" clip-path="url(#pef1aaa9acd)"/>
   </g>
   <g id="patch_102">
    <path d="M 240.937205 273.312 
L 242.552402 273.312 
L 242.552402 262.157759 
L 240.937205 262.157759 
z
" clip-path="url(#pef1aaa9acd)"/>
   </g>
   <g id="patch_103">
    <path d="M 242.552402 273.312 
L 244.167598 273.312 
L 244.167598 19.872 
L 242.552402 19.872 
z
" clip-path="url(#pef1aaa9acd)"/>
   </g>
   <g id="patch_104">
    <path d="M 244.167598 273.312 
L 245.782795 273.312 
L 245.782795 188.049968 
L 244.167598 188.049968 
z
" clip-path="url(#pef1aaa9acd)"/>
   </g>
   <g id="patch_105">
    <path d="M 245.782795 273.312 
L 247.397992 273.312 
L 247.397992 179.982694 
L 245.782795 179.982694 
z
" clip-path="url(#pef1aaa9acd)"/>
   </g>
   <g id="patch_106">
    <path d="M 247.397992 273.312 
L 249.013189 273.312 
L 249.013189 188.626202 
L 247.397992 188.626202 
z
" clip-path="url(#pef1aaa9acd)"/>
   </g>
   <g id="patch_107">
    <path d="M 249.013189 273.312 
L 250.628385 273.312 
L 250.628385 199.14247 
L 249.013189 199.14247 
z
" clip-path="url(#pef1aaa9acd)"/>
   </g>
   <g id="patch_108">
    <path d="M 250.628385 273.312 
L 252.243582 273.312 
L 252.243582 163.271912 
L 250.628385 163.271912 
z
" clip-path="url(#pef1aaa9acd)"/>
   </g>
   <g id="patch_109">
    <path d="M 252.243582 273.312 
L 253.858779 273.312 
L 253.858779 188.79084 
L 252.243582 188.79084 
z
" clip-path="url(#pef1aaa9acd)"/>
   </g>
   <g id="patch_110">
    <path d="M 253.858779 273.312 
L 255.473976 273.312 
L 255.473976 170.98933 
L 253.858779 170.98933 
z
" clip-path="url(#pef1aaa9acd)"/>
   </g>
   <g id="patch_111">
    <path d="M 255.473976 273.312 
L 257.089172 273.312 
L 257.089172 179.365301 
L 255.473976 179.365301 
z
" clip-path="url(#pef1aaa9acd)"/>
   </g>
   <g id="patch_112">
    <path d="M 257.089172 273.312 
L 258.704369 273.312 
L 258.704369 194.018105 
L 257.089172 194.018105 
z
" clip-path="url(#pef1aaa9acd)"/>
   </g>
   <g id="patch_113">
    <path d="M 258.704369 273.312 
L 260.319566 273.312 
L 260.319566 149.771576 
L 258.704369 149.771576 
z
" clip-path="url(#pef1aaa9acd)"/>
   </g>
   <g id="patch_114">
    <path d="M 260.319566 273.312 
L 261.934763 273.312 
L 261.934763 180.991104 
L 260.319566 180.991104 
z
" clip-path="url(#pef1aaa9acd)"/>
   </g>
   <g id="patch_115">
    <path d="M 261.934763 273.312 
L 263.549959 273.312 
L 263.549959 166.029603 
L 261.934763 166.029603 
z
" clip-path="url(#pef1aaa9acd)"/>
   </g>
   <g id="patch_116">
    <path d="M 263.549959 273.312 
L 265.165156 273.312 
L 265.165156 177.307323 
L 263.549959 177.307323 
z
" clip-path="url(#pef1aaa9acd)"/>
   </g>
   <g id="patch_117">
    <path d="M 265.165156 273.312 
L 266.780353 273.312 
L 266.780353 190.107946 
L 265.165156 190.107946 
z
" clip-path="url(#pef1aaa9acd)"/>
   </g>
   <g id="patch_118">
    <path d="M 266.780353 273.312 
L 268.39555 273.312 
L 268.39555 153.331878 
L 266.780353 153.331878 
z
" clip-path="url(#pef1aaa9acd)"/>
   </g>
   <g id="patch_119">
    <path d="M 268.39555 273.312 
L 270.010746 273.312 
L 270.010746 184.057491 
L 268.39555 184.057491 
z
" clip-path="url(#pef1aaa9acd)"/>
   </g>
   <g id="patch_120">
    <path d="M 270.010746 273.312 
L 271.625943 273.312 
L 271.625943 191.116356 
L 270.010746 191.116356 
z
" clip-path="url(#pef1aaa9acd)"/>
   </g>
   <g id="patch_121">
    <path d="M 271.625943 273.312 
L 273.24114 273.312 
L 273.24114 221.018777 
L 271.625943 221.018777 
z
" clip-path="url(#pef1aaa9acd)"/>
   </g>
   <g id="patch_122">
    <path d="M 273.24114 273.312 
L 274.856336 273.312 
L 274.856336 250.900619 
L 273.24114 250.900619 
z
" clip-path="url(#pef1aaa9acd)"/>
   </g>
   <g id="patch_123">
    <path d="M 274.856336 273.312 
L 276.471533 273.312 
L 276.471533 19.974899 
L 274.856336 19.974899 
z
" clip-path="url(#pef1aaa9acd)"/>
   </g>
   <g id="patch_124">
    <path d="M 276.471533 273.312 
L 278.08673 273.312 
L 278.08673 173.479484 
L 276.471533 173.479484 
z
" clip-path="url(#pef1aaa9acd)"/>
   </g>
   <g id="patch_125">
    <path d="M 278.08673 273.312 
L 279.701927 273.312 
L 279.701927 167.593666 
L 278.08673 167.593666 
z
" clip-path="url(#pef1aaa9acd)"/>
   </g>
   <g id="patch_126">
    <path d="M 279.701927 273.312 
L 281.317123 273.312 
L 281.317123 179.44762 
L 279.701927 179.44762 
z
" clip-path="url(#pef1aaa9acd)"/>
   </g>
   <g id="patch_127">
    <path d="M 281.317123 273.312 
L 282.93232 273.312 
L 282.93232 191.075196 
L 281.317123 191.075196 
z
" clip-path="url(#pef1aaa9acd)"/>
   </g>
   <g id="patch_128">
    <path d="M 282.93232 273.312 
L 284.547517 273.312 
L 284.547517 155.01942 
L 282.93232 155.01942 
z
" clip-path="url(#pef1aaa9acd)"/>
   </g>
   <g id="patch_129">
    <path d="M 284.547517 273.312 
L 286.162714 273.312 
L 286.162714 183.913432 
L 284.547517 183.913432 
z
" clip-path="url(#pef1aaa9acd)"/>
   </g>
   <g id="patch_130">
    <path d="M 286.162714 273.312 
L 287.77791 273.312 
L 287.77791 172.738611 
L 286.162714 172.738611 
z
" clip-path="url(#pef1aaa9acd)"/>
   </g>
   <g id="patch_131">
    <path d="M 287.77791 273.312 
L 289.393107 273.312 
L 289.393107 181.073423 
L 287.77791 181.073423 
z
" clip-path="url(#pef1aaa9acd)"/>
   </g>
   <g id="patch_132">
    <path d="M 289.393107 273.312 
L 291.008304 273.312 
L 291.008304 197.681306 
L 289.393107 197.681306 
z
" clip-path="url(#pef1aaa9acd)"/>
   </g>
   <g id="patch_133">
    <path d="M 291.008304 273.312 
L 292.623501 273.312 
L 292.623501 157.262616 
L 291.008304 157.262616 
z
" clip-path="url(#pef1aaa9acd)"/>
   </g>
   <g id="patch_134">
    <path d="M 292.623501 273.312 
L 294.238697 273.312 
L 294.238697 190.354904 
L 292.623501 190.354904 
z
" clip-path="url(#pef1aaa9acd)"/>
   </g>
   <g id="patch_135">
    <path d="M 294.238697 273.312 
L 295.853894 273.312 
L 295.853894 177.080945 
L 294.238697 177.080945 
z
" clip-path="url(#pef1aaa9acd)"/>
   </g>
   <g id="patch_136">
    <path d="M 295.853894 273.312 
L 297.469091 273.312 
L 297.469091 187.247357 
L 295.853894 187.247357 
z
" clip-path="url(#pef1aaa9acd)"/>
   </g>
   <g id="patch_137">
    <path d="M 297.469091 273.312 
L 299.084288 273.312 
L 299.084288 203.443644 
L 297.469091 203.443644 
z
" clip-path="url(#pef1aaa9acd)"/>
   </g>
   <g id="patch_138">
    <path d="M 299.084288 273.312 
L 300.699484 273.312 
L 300.699484 169.651644 
L 299.084288 169.651644 
z
" clip-path="url(#pef1aaa9acd)"/>
   </g>
   <g id="patch_139">
    <path d="M 300.699484 273.312 
L 302.314681 273.312 
L 302.314681 199.965661 
L 300.699484 199.965661 
z
" clip-path="url(#pef1aaa9acd)"/>
   </g>
   <g id="patch_140">
    <path d="M 302.314681 273.312 
L 303.929878 273.312 
L 303.929878 213.857013 
L 302.314681 213.857013 
z
" clip-path="url(#pef1aaa9acd)"/>
   </g>
   <g id="patch_141">
    <path d="M 303.929878 273.312 
L 305.545075 273.312 
L 305.545075 240.590149 
L 303.929878 240.590149 
z
" clip-path="url(#pef1aaa9acd)"/>
   </g>
   <g id="patch_142">
    <path d="M 305.545075 273.312 
L 307.160271 273.312 
L 307.160271 264.421535 
L 305.545075 264.421535 
z
" clip-path="url(#pef1aaa9acd)"/>
   </g>
   <g id="patch_143">
    <path d="M 307.160271 273.312 
L 308.775468 273.312 
L 308.775468 44.135562 
L 307.160271 44.135562 
z
" clip-path="url(#pef1aaa9acd)"/>
   </g>
   <g id="patch_144">
    <path d="M 308.775468 273.312 
L 310.390665 273.312 
L 310.390665 197.537247 
L 308.775468 197.537247 
z
" clip-path="url(#pef1aaa9acd)"/>
   </g>
   <g id="patch_145">
    <path d="M 310.390665 273.312 
L 312.005862 273.312 
L 312.005862 194.512019 
L 310.390665 194.512019 
z
" clip-path="url(#pef1aaa9acd)"/>
   </g>
   <g id="patch_146">
    <path d="M 312.005862 273.312 
L 313.621058 273.312 
L 313.621058 202.332336 
L 312.005862 202.332336 
z
" clip-path="url(#pef1aaa9acd)"/>
   </g>
   <g id="patch_147">
    <path d="M 313.621058 273.312 
L 315.236255 273.312 
L 315.236255 213.733535 
L 313.621058 213.733535 
z
" clip-path="url(#pef1aaa9acd)"/>
   </g>
   <g id="patch_148">
    <path d="M 315.236255 273.312 
L 316.851452 273.312 
L 316.851452 186.671123 
L 315.236255 186.671123 
z
" clip-path="url(#pef1aaa9acd)"/>
   </g>
   <g id="patch_149">
    <path d="M 316.851452 273.312 
L 318.466649 273.312 
L 318.466649 210.255552 
L 316.851452 210.255552 
z
" clip-path="url(#pef1aaa9acd)"/>
   </g>
   <g id="patch_150">
    <path d="M 318.466649 273.312 
L 320.081845 273.312 
L 320.081845 202.641033 
L 318.466649 202.641033 
z
" clip-path="url(#pef1aaa9acd)"/>
   </g>
   <g id="patch_151">
    <path d="M 320.081845 273.312 
L 321.697042 273.312 
L 321.697042 210.193812 
L 320.081845 210.193812 
z
" clip-path="url(#pef1aaa9acd)"/>
   </g>
   <g id="patch_152">
    <path d="M 321.697042 273.312 
L 323.312239 273.312 
L 323.312239 223.159074 
L 321.697042 223.159074 
z
" clip-path="url(#pef1aaa9acd)"/>
   </g>
   <g id="patch_153">
    <path d="M 323.312239 273.312 
L 324.927436 273.312 
L 324.927436 197.24913 
L 323.312239 197.24913 
z
" clip-path="url(#pef1aaa9acd)"/>
   </g>
   <g id="patch_154">
    <path d="M 324.927436 273.312 
L 326.542632 273.312 
L 326.542632 219.392974 
L 324.927436 219.392974 
z
" clip-path="url(#pef1aaa9acd)"/>
   </g>
   <g id="patch_155">
    <path d="M 326.542632 273.312 
L 328.157829 273.312 
L 328.157829 211.243381 
L 326.542632 211.243381 
z
" clip-path="url(#pef1aaa9acd)"/>
   </g>
   <g id="patch_156">
    <path d="M 328.157829 273.312 
L 329.773026 273.312 
L 329.773026 218.363985 
L 328.157829 218.363985 
z
" clip-path="url(#pef1aaa9acd)"/>
   </g>
   <g id="patch_157">
    <path d="M 329.773026 273.312 
L 331.388223 273.312 
L 331.388223 228.962572 
L 329.773026 228.962572 
z
" clip-path="url(#pef1aaa9acd)"/>
   </g>
   <g id="patch_158">
    <path d="M 331.388223 273.312 
L 333.003419 273.312 
L 333.003419 207.003946 
L 331.388223 207.003946 
z
" clip-path="url(#pef1aaa9acd)"/>
   </g>
   <g id="patch_159">
    <path d="M 333.003419 273.312 
L 334.618616 273.312 
L 334.618616 229.929822 
L 333.003419 229.929822 
z
" clip-path="url(#pef1aaa9acd)"/>
   </g>
   <g id="patch_160">
    <path d="M 334.618616 273.312 
L 336.233813 273.312 
L 336.233813 240.713627 
L 334.618616 240.713627 
z
" clip-path="url(#pef1aaa9acd)"/>
   </g>
   <g id="patch_161">
    <path d="M 336.233813 273.312 
L 337.849009 273.312 
L 337.849009 260.449637 
L 336.233813 260.449637 
z
" clip-path="url(#pef1aaa9acd)"/>
   </g>
   <g id="patch_162">
    <path d="M 337.849009 273.312 
L 339.464206 273.312 
L 339.464206 271.274602 
L 337.849009 271.274602 
z
" clip-path="url(#pef1aaa9acd)"/>
   </g>
   <g id="patch_163">
    <path d="M 339.464206 273.312 
L 341.079403 273.312 
L 341.079403 118.181613 
L 339.464206 118.181613 
z
" clip-path="url(#pef1aaa9acd)"/>
   </g>
   <g id="patch_164">
    <path d="M 341.079403 273.312 
L 342.6946 273.312 
L 342.6946 229.127211 
L 341.079403 229.127211 
z
" clip-path="url(#pef1aaa9acd)"/>
   </g>
   <g id="patch_165">
    <path d="M 342.6946 273.312 
L 344.309796 273.312 
L 344.309796 225.669808 
L 342.6946 225.669808 
z
" clip-path="url(#pef1aaa9acd)"/>
   </g>
   <g id="patch_166">
    <path d="M 344.309796 273.312 
L 345.924993 273.312 
L 345.924993 230.938231 
L 344.309796 230.938231 
z
" clip-path="url(#pef1aaa9acd)"/>
   </g>
   <g id="patch_167">
    <path d="M 345.924993 273.312 
L 347.54019 273.312 
L 347.54019 238.923186 
L 345.924993 238.923186 
z
" clip-path="url(#pef1aaa9acd)"/>
   </g>
   <g id="patch_168">
    <path d="M 347.54019 273.312 
L 349.155387 273.312 
L 349.155387 225.48459 
L 347.54019 225.48459 
z
" clip-path="url(#pef1aaa9acd)"/>
   </g>
   <g id="patch_169">
    <path d="M 349.155387 273.312 
L 350.770583 273.312 
L 350.770583 239.417101 
L 349.155387 239.417101 
z
" clip-path="url(#pef1aaa9acd)"/>
   </g>
   <g id="patch_170">
    <path d="M 350.770583 273.312 
L 352.38578 273.312 
L 352.38578 236.988687 
L 350.770583 236.988687 
z
" clip-path="url(#pef1aaa9acd)"/>
   </g>
   <g id="patch_171">
    <path d="M 352.38578 273.312 
L 354.000977 273.312 
L 354.000977 238.449851 
L 352.38578 238.449851 
z
" clip-path="url(#pef1aaa9acd)"/>
   </g>
   <g id="patch_172">
    <path d="M 354.000977 273.312 
L 355.616174 273.312 
L 355.616174 247.649013 
L 354.000977 247.649013 
z
" clip-path="url(#pef1aaa9acd)"/>
   </g>
   <g id="patch_173">
    <path d="M 355.616174 273.312 
L 357.23137 273.312 
L 357.23137 232.378816 
L 355.616174 232.378816 
z
" clip-path="url(#pef1aaa9acd)"/>
   </g>
   <g id="patch_174">
    <path d="M 357.23137 273.312 
L 358.846567 273.312 
L 358.846567 246.06437 
L 357.23137 246.06437 
z
" clip-path="url(#pef1aaa9acd)"/>
   </g>
   <g id="patch_175">
    <path d="M 358.846567 273.312 
L 360.461764 273.312 
L 360.461764 242.442329 
L 358.846567 242.442329 
z
" clip-path="url(#pef1aaa9acd)"/>
   </g>
   <g id="patch_176">
    <path d="M 360.461764 273.312 
L 362.076961 273.312 
L 362.076961 245.364658 
L 360.461764 245.364658 
z
" clip-path="url(#pef1aaa9acd)"/>
   </g>
   <g id="patch_177">
    <path d="M 362.076961 273.312 
L 363.692157 273.312 
L 363.692157 252.62932 
L 362.076961 252.62932 
z
" clip-path="url(#pef1aaa9acd)"/>
   </g>
   <g id="patch_178">
    <path d="M 363.692157 273.312 
L 365.307354 273.312 
L 365.307354 242.195371 
L 363.692157 242.195371 
z
" clip-path="url(#pef1aaa9acd)"/>
   </g>
   <g id="patch_179">
    <path d="M 365.307354 273.312 
L 366.922551 273.312 
L 366.922551 252.238305 
L 365.307354 252.238305 
z
" clip-path="url(#pef1aaa9acd)"/>
   </g>
   <g id="patch_180">
    <path d="M 366.922551 273.312 
L 368.537748 273.312 
L 368.537748 250.735981 
L 366.922551 250.735981 
z
" clip-path="url(#pef1aaa9acd)"/>
   </g>
   <g id="patch_181">
    <path d="M 368.537748 273.312 
L 370.152944 273.312 
L 370.152944 251.991347 
L 368.537748 251.991347 
z
" clip-path="url(#pef1aaa9acd)"/>
   </g>
   <g id="patch_182">
    <path d="M 370.152944 273.312 
L 371.768141 273.312 
L 371.768141 258.000643 
L 370.152944 258.000643 
z
" clip-path="url(#pef1aaa9acd)"/>
   </g>
   <g id="patch_183">
    <path d="M 371.768141 273.312 
L 373.383338 273.312 
L 373.383338 250.365544 
L 371.768141 250.365544 
z
" clip-path="url(#pef1aaa9acd)"/>
   </g>
   <g id="patch_184">
    <path d="M 373.383338 273.312 
L 374.998535 273.312 
L 374.998535 258.515138 
L 373.383338 258.515138 
z
" clip-path="url(#pef1aaa9acd)"/>
   </g>
   <g id="patch_185">
    <path d="M 374.998535 273.312 
L 376.613731 273.312 
L 376.613731 257.506728 
L 374.998535 257.506728 
z
" clip-path="url(#pef1aaa9acd)"/>
   </g>
   <g id="patch_186">
    <path d="M 376.613731 273.312 
L 378.228928 273.312 
L 378.228928 259.770504 
L 376.613731 259.770504 
z
" clip-path="url(#pef1aaa9acd)"/>
   </g>
   <g id="patch_187">
    <path d="M 378.228928 273.312 
L 379.844125 273.312 
L 379.844125 261.993121 
L 378.228928 261.993121 
z
" clip-path="url(#pef1aaa9acd)"/>
   </g>
   <g id="patch_188">
    <path d="M 379.844125 273.312 
L 381.459322 273.312 
L 381.459322 257.444989 
L 379.844125 257.444989 
z
" clip-path="url(#pef1aaa9acd)"/>
   </g>
   <g id="patch_189">
    <path d="M 381.459322 273.312 
L 383.074518 273.312 
L 383.074518 264.112838 
L 381.459322 264.112838 
z
" clip-path="url(#pef1aaa9acd)"/>
   </g>
   <g id="patch_190">
    <path d="M 383.074518 273.312 
L 384.689715 273.312 
L 384.689715 263.042689 
L 383.074518 263.042689 
z
" clip-path="url(#pef1aaa9acd)"/>
   </g>
   <g id="patch_191">
    <path d="M 384.689715 273.312 
L 386.304912 273.312 
L 386.304912 264.771391 
L 384.689715 264.771391 
z
" clip-path="url(#pef1aaa9acd)"/>
   </g>
   <g id="patch_192">
    <path d="M 386.304912 273.312 
L 387.920109 273.312 
L 387.920109 266.685311 
L 386.304912 266.685311 
z
" clip-path="url(#pef1aaa9acd)"/>
   </g>
   <g id="patch_193">
    <path d="M 387.920109 273.312 
L 389.535305 273.312 
L 389.535305 264.195157 
L 387.920109 264.195157 
z
" clip-path="url(#pef1aaa9acd)"/>
   </g>
   <g id="patch_194">
    <path d="M 389.535305 273.312 
L 391.150502 273.312 
L 391.150502 267.796619 
L 389.535305 267.796619 
z
" clip-path="url(#pef1aaa9acd)"/>
   </g>
   <g id="patch_195">
    <path d="M 391.150502 273.312 
L 392.765699 273.312 
L 392.765699 267.796619 
L 391.150502 267.796619 
z
" clip-path="url(#pef1aaa9acd)"/>
   </g>
   <g id="patch_196">
    <path d="M 392.765699 273.312 
L 394.380896 273.312 
L 394.380896 268.125895 
L 392.765699 268.125895 
z
" clip-path="url(#pef1aaa9acd)"/>
   </g>
   <g id="patch_197">
    <path d="M 394.380896 273.312 
L 395.996092 273.312 
L 395.996092 269.916336 
L 394.380896 269.916336 
z
" clip-path="url(#pef1aaa9acd)"/>
   </g>
   <g id="patch_198">
    <path d="M 395.996092 273.312 
L 397.611289 273.312 
L 397.611289 269.134305 
L 395.996092 269.134305 
z
" clip-path="url(#pef1aaa9acd)"/>
   </g>
   <g id="patch_199">
    <path d="M 397.611289 273.312 
L 399.226486 273.312 
L 399.226486 270.760107 
L 397.611289 270.760107 
z
" clip-path="url(#pef1aaa9acd)"/>
   </g>
   <g id="patch_200">
    <path d="M 399.226486 273.312 
L 400.841682 273.312 
L 400.841682 270.636629 
L 399.226486 270.636629 
z
" clip-path="url(#pef1aaa9acd)"/>
   </g>
   <g id="patch_201">
    <path d="M 400.841682 273.312 
L 402.456879 273.312 
L 402.456879 271.007065 
L 400.841682 271.007065 
z
" clip-path="url(#pef1aaa9acd)"/>
   </g>
   <g id="patch_202">
    <path d="M 402.456879 273.312 
L 404.072076 273.312 
L 404.072076 271.747937 
L 402.456879 271.747937 
z
" clip-path="url(#pef1aaa9acd)"/>
   </g>
   <g id="patch_203">
    <path d="M 404.072076 273.312 
L 405.687273 273.312 
L 405.687273 266.891108 
L 404.072076 266.891108 
z
" clip-path="url(#pef1aaa9acd)"/>
   </g>
   <g id="matplotlib.axis_1">
    <g id="xtick_1">
     <g id="line2d_1">
      <defs>
       <path id="m91955c12ef" d="M 0 0 
L 0 3.5 
" style="stroke: #000000; stroke-width: 0.8"/>
      </defs>
      <g>
       <use xlink:href="#m91955c12ef" x="81.840326" y="273.312" style="stroke: #000000; stroke-width: 0.8"/>
      </g>
     </g>
     <g id="text_1">
      <!-- 0 -->
      <g transform="translate(78.659076 287.910437)scale(0.1 -0.1)">
       <defs>
        <path id="DejaVuSerif-30" d="M 2034 219 
Q 2513 219 2750 744 
Q 2988 1269 2988 2328 
Q 2988 3391 2750 3916 
Q 2513 4441 2034 4441 
Q 1556 4441 1318 3916 
Q 1081 3391 1081 2328 
Q 1081 1269 1318 744 
Q 1556 219 2034 219 
z
M 2034 -91 
Q 1275 -91 848 546 
Q 422 1184 422 2328 
Q 422 3475 848 4112 
Q 1275 4750 2034 4750 
Q 2797 4750 3222 4112 
Q 3647 3475 3647 2328 
Q 3647 1184 3222 546 
Q 2797 -91 2034 -91 
z
" transform="scale(0.015625)"/>
       </defs>
       <use xlink:href="#DejaVuSerif-30"/>
      </g>
     </g>
    </g>
    <g id="xtick_2">
     <g id="line2d_2">
      <g>
       <use xlink:href="#m91955c12ef" x="211.056065" y="273.312" style="stroke: #000000; stroke-width: 0.8"/>
      </g>
     </g>
     <g id="text_2">
      <!-- 8 -->
      <g transform="translate(207.874815 287.910437)scale(0.1 -0.1)">
       <defs>
        <path id="DejaVuSerif-38" d="M 2981 1275 
Q 2981 1775 2732 2051 
Q 2484 2328 2034 2328 
Q 1584 2328 1336 2051 
Q 1088 1775 1088 1275 
Q 1088 772 1336 495 
Q 1584 219 2034 219 
Q 2484 219 2732 495 
Q 2981 772 2981 1275 
z
M 2853 3541 
Q 2853 3966 2637 4203 
Q 2422 4441 2034 4441 
Q 1650 4441 1433 4203 
Q 1216 3966 1216 3541 
Q 1216 3113 1433 2875 
Q 1650 2638 2034 2638 
Q 2422 2638 2637 2875 
Q 2853 3113 2853 3541 
z
M 2516 2484 
Q 3047 2413 3344 2092 
Q 3641 1772 3641 1275 
Q 3641 619 3225 264 
Q 2809 -91 2034 -91 
Q 1263 -91 845 264 
Q 428 619 428 1275 
Q 428 1772 725 2092 
Q 1022 2413 1556 2484 
Q 1084 2569 832 2842 
Q 581 3116 581 3541 
Q 581 4103 968 4426 
Q 1356 4750 2034 4750 
Q 2713 4750 3100 4426 
Q 3488 4103 3488 3541 
Q 3488 3116 3236 2842 
Q 2984 2569 2516 2484 
z
" transform="scale(0.015625)"/>
       </defs>
       <use xlink:href="#DejaVuSerif-38"/>
      </g>
     </g>
    </g>
    <g id="xtick_3">
     <g id="line2d_3">
      <g>
       <use xlink:href="#m91955c12ef" x="243.36" y="273.312" style="stroke: #000000; stroke-width: 0.8"/>
      </g>
     </g>
     <g id="text_3">
      <!-- 10 -->
      <g transform="translate(236.9975 287.910437)scale(0.1 -0.1)">
       <defs>
        <path id="DejaVuSerif-31" d="M 909 0 
L 909 331 
L 1722 331 
L 1722 4213 
L 781 3603 
L 781 4013 
L 1919 4750 
L 2350 4750 
L 2350 331 
L 3163 331 
L 3163 0 
L 909 0 
z
" transform="scale(0.015625)"/>
       </defs>
       <use xlink:href="#DejaVuSerif-31"/>
       <use xlink:href="#DejaVuSerif-30" x="63.623047"/>
      </g>
     </g>
    </g>
    <g id="xtick_4">
     <g id="line2d_4">
      <g>
       <use xlink:href="#m91955c12ef" x="275.663935" y="273.312" style="stroke: #000000; stroke-width: 0.8"/>
      </g>
     </g>
     <g id="text_4">
      <!-- 12 -->
      <g transform="translate(269.301435 287.910437)scale(0.1 -0.1)">
       <defs>
        <path id="DejaVuSerif-32" d="M 819 3553 
L 469 3553 
L 469 4384 
Q 803 4563 1142 4656 
Q 1481 4750 1806 4750 
Q 2534 4750 2956 4397 
Q 3378 4044 3378 3438 
Q 3378 2753 2422 1800 
Q 2347 1728 2309 1691 
L 1131 513 
L 3078 513 
L 3078 1088 
L 3444 1088 
L 3444 0 
L 434 0 
L 434 341 
L 1850 1753 
Q 2319 2222 2519 2614 
Q 2719 3006 2719 3438 
Q 2719 3909 2473 4175 
Q 2228 4441 1797 4441 
Q 1350 4441 1106 4219 
Q 863 3997 819 3553 
z
" transform="scale(0.015625)"/>
       </defs>
       <use xlink:href="#DejaVuSerif-31"/>
       <use xlink:href="#DejaVuSerif-32" x="63.623047"/>
      </g>
     </g>
    </g>
    <g id="xtick_5">
     <g id="line2d_5">
      <g>
       <use xlink:href="#m91955c12ef" x="307.96787" y="273.312" style="stroke: #000000; stroke-width: 0.8"/>
      </g>
     </g>
     <g id="text_5">
      <!-- 14 -->
      <g transform="translate(301.60537 287.910437)scale(0.1 -0.1)">
       <defs>
        <path id="DejaVuSerif-34" d="M 2234 1581 
L 2234 4063 
L 641 1581 
L 2234 1581 
z
M 3609 0 
L 1484 0 
L 1484 331 
L 2234 331 
L 2234 1247 
L 197 1247 
L 197 1588 
L 2241 4750 
L 2859 4750 
L 2859 1581 
L 3750 1581 
L 3750 1247 
L 2859 1247 
L 2859 331 
L 3609 331 
L 3609 0 
z
" transform="scale(0.015625)"/>
       </defs>
       <use xlink:href="#DejaVuSerif-31"/>
       <use xlink:href="#DejaVuSerif-34" x="63.623047"/>
      </g>
     </g>
    </g>
    <g id="xtick_6">
     <g id="line2d_6">
      <g>
       <use xlink:href="#m91955c12ef" x="340.271805" y="273.312" style="stroke: #000000; stroke-width: 0.8"/>
      </g>
     </g>
     <g id="text_6">
      <!-- 16 -->
      <g transform="translate(333.909305 287.910437)scale(0.1 -0.1)">
       <defs>
        <path id="DejaVuSerif-36" d="M 2094 219 
Q 2534 219 2771 542 
Q 3009 866 3009 1472 
Q 3009 2078 2771 2401 
Q 2534 2725 2094 2725 
Q 1647 2725 1412 2412 
Q 1178 2100 1178 1509 
Q 1178 888 1415 553 
Q 1653 219 2094 219 
z
M 1075 2569 
Q 1288 2803 1556 2918 
Q 1825 3034 2163 3034 
Q 2859 3034 3264 2615 
Q 3669 2197 3669 1472 
Q 3669 763 3233 336 
Q 2797 -91 2069 -91 
Q 1278 -91 853 498 
Q 428 1088 428 2181 
Q 428 3406 931 4078 
Q 1434 4750 2350 4750 
Q 2597 4750 2869 4703 
Q 3141 4656 3425 4563 
L 3425 3794 
L 3072 3794 
Q 3034 4109 2831 4275 
Q 2628 4441 2284 4441 
Q 1678 4441 1381 3981 
Q 1084 3522 1075 2569 
z
" transform="scale(0.015625)"/>
       </defs>
       <use xlink:href="#DejaVuSerif-31"/>
       <use xlink:href="#DejaVuSerif-36" x="63.623047"/>
      </g>
     </g>
    </g>
    <g id="xtick_7">
     <g id="line2d_7">
      <g>
       <use xlink:href="#m91955c12ef" x="404.879674" y="273.312" style="stroke: #000000; stroke-width: 0.8"/>
      </g>
     </g>
     <g id="text_7">
      <!-- 20 -->
      <g transform="translate(398.517174 287.910437)scale(0.1 -0.1)">
       <use xlink:href="#DejaVuSerif-32"/>
       <use xlink:href="#DejaVuSerif-30" x="63.623047"/>
      </g>
     </g>
    </g>
    <g id="text_8">
     <!-- Moyenne à l'issue de la première session -->
     <g transform="translate(139.220937 301.979187)scale(0.1 -0.1)">
      <defs>
       <path id="DejaVuSerif-4d" d="M 353 0 
L 353 331 
L 947 331 
L 947 4331 
L 319 4331 
L 319 4666 
L 1678 4666 
L 3316 1344 
L 4953 4666 
L 6228 4666 
L 6228 4331 
L 5606 4331 
L 5606 331 
L 6203 331 
L 6203 0 
L 4378 0 
L 4378 331 
L 4972 331 
L 4972 3938 
L 3372 684 
L 2931 684 
L 1331 3938 
L 1331 331 
L 1925 331 
L 1925 0 
L 353 0 
z
" transform="scale(0.015625)"/>
       <path id="DejaVuSerif-6f" d="M 1925 219 
Q 2388 219 2623 584 
Q 2859 950 2859 1663 
Q 2859 2375 2623 2739 
Q 2388 3103 1925 3103 
Q 1463 3103 1227 2739 
Q 991 2375 991 1663 
Q 991 950 1228 584 
Q 1466 219 1925 219 
z
M 1925 -91 
Q 1200 -91 759 389 
Q 319 869 319 1663 
Q 319 2456 758 2934 
Q 1197 3413 1925 3413 
Q 2653 3413 3092 2934 
Q 3531 2456 3531 1663 
Q 3531 869 3092 389 
Q 2653 -91 1925 -91 
z
" transform="scale(0.015625)"/>
       <path id="DejaVuSerif-79" d="M 1381 -609 
L 1600 -56 
L 359 2988 
L -19 2988 
L -19 3322 
L 1509 3322 
L 1509 2988 
L 978 2988 
L 1913 703 
L 2847 2988 
L 2350 2988 
L 2350 3322 
L 3597 3322 
L 3597 2988 
L 3225 2988 
L 1703 -750 
Q 1547 -1138 1356 -1280 
Q 1166 -1422 819 -1422 
Q 672 -1422 517 -1397 
Q 363 -1372 206 -1325 
L 206 -691 
L 500 -691 
Q 519 -903 608 -995 
Q 697 -1088 884 -1088 
Q 1056 -1088 1161 -992 
Q 1266 -897 1381 -609 
z
" transform="scale(0.015625)"/>
       <path id="DejaVuSerif-65" d="M 3469 1600 
L 991 1600 
L 991 1575 
Q 991 903 1244 561 
Q 1497 219 1991 219 
Q 2369 219 2611 417 
Q 2853 616 2950 1006 
L 3413 1006 
Q 3275 459 2904 184 
Q 2534 -91 1931 -91 
Q 1203 -91 761 389 
Q 319 869 319 1663 
Q 319 2450 753 2931 
Q 1188 3413 1894 3413 
Q 2647 3413 3050 2948 
Q 3453 2484 3469 1600 
z
M 2791 1931 
Q 2772 2513 2545 2808 
Q 2319 3103 1894 3103 
Q 1497 3103 1269 2806 
Q 1041 2509 991 1931 
L 2791 1931 
z
" transform="scale(0.015625)"/>
       <path id="DejaVuSerif-6e" d="M 263 0 
L 263 331 
L 781 331 
L 781 2988 
L 231 2988 
L 231 3322 
L 1356 3322 
L 1356 2731 
Q 1516 3069 1770 3241 
Q 2025 3413 2363 3413 
Q 2913 3413 3172 3097 
Q 3431 2781 3431 2113 
L 3431 331 
L 3944 331 
L 3944 0 
L 2356 0 
L 2356 331 
L 2853 331 
L 2853 1931 
Q 2853 2541 2703 2767 
Q 2553 2994 2175 2994 
Q 1775 2994 1565 2701 
Q 1356 2409 1356 1850 
L 1356 331 
L 1856 331 
L 1856 0 
L 263 0 
z
" transform="scale(0.015625)"/>
       <path id="DejaVuSerif-20" transform="scale(0.015625)"/>
       <path id="DejaVuSerif-e0" d="M 2547 1044 
L 2547 1747 
L 1806 1747 
Q 1378 1747 1168 1562 
Q 959 1378 959 997 
Q 959 650 1171 447 
Q 1384 244 1747 244 
Q 2106 244 2326 466 
Q 2547 688 2547 1044 
z
M 3122 2075 
L 3122 331 
L 3634 331 
L 3634 0 
L 2547 0 
L 2547 359 
Q 2356 128 2106 18 
Q 1856 -91 1522 -91 
Q 969 -91 644 203 
Q 319 497 319 997 
Q 319 1513 691 1797 
Q 1063 2081 1741 2081 
L 2547 2081 
L 2547 2309 
Q 2547 2688 2317 2895 
Q 2088 3103 1672 3103 
Q 1328 3103 1125 2947 
Q 922 2791 872 2484 
L 575 2484 
L 575 3156 
Q 875 3284 1158 3348 
Q 1441 3413 1709 3413 
Q 2400 3413 2761 3070 
Q 3122 2728 3122 2075 
z
M 1323 5113 
L 2135 3938 
L 1770 3938 
L 707 5113 
L 1323 5113 
z
" transform="scale(0.015625)"/>
       <path id="DejaVuSerif-6c" d="M 1313 331 
L 1856 331 
L 1856 0 
L 184 0 
L 184 331 
L 738 331 
L 738 4531 
L 184 4531 
L 184 4863 
L 1313 4863 
L 1313 331 
z
" transform="scale(0.015625)"/>
       <path id="DejaVuSerif-27" d="M 1125 4666 
L 1125 2931 
L 628 2931 
L 628 4666 
L 1125 4666 
z
" transform="scale(0.015625)"/>
       <path id="DejaVuSerif-69" d="M 622 4353 
Q 622 4497 726 4603 
Q 831 4709 978 4709 
Q 1122 4709 1226 4603 
Q 1331 4497 1331 4353 
Q 1331 4206 1228 4103 
Q 1125 4000 978 4000 
Q 831 4000 726 4103 
Q 622 4206 622 4353 
z
M 1356 331 
L 1900 331 
L 1900 0 
L 231 0 
L 231 331 
L 781 331 
L 781 2988 
L 231 2988 
L 231 3322 
L 1356 3322 
L 1356 331 
z
" transform="scale(0.015625)"/>
       <path id="DejaVuSerif-73" d="M 359 184 
L 359 959 
L 691 959 
Q 703 588 923 403 
Q 1144 219 1575 219 
Q 1963 219 2166 364 
Q 2369 509 2369 788 
Q 2369 1006 2220 1140 
Q 2072 1275 1594 1428 
L 1178 1569 
Q 750 1706 558 1912 
Q 366 2119 366 2438 
Q 366 2894 700 3153 
Q 1034 3413 1625 3413 
Q 1888 3413 2178 3344 
Q 2469 3275 2778 3144 
L 2778 2419 
L 2447 2419 
Q 2434 2741 2221 2922 
Q 2009 3103 1644 3103 
Q 1281 3103 1095 2975 
Q 909 2847 909 2591 
Q 909 2381 1050 2254 
Q 1191 2128 1613 1997 
L 2069 1856 
Q 2541 1709 2748 1489 
Q 2956 1269 2956 922 
Q 2956 450 2595 179 
Q 2234 -91 1600 -91 
Q 1278 -91 972 -22 
Q 666 47 359 184 
z
" transform="scale(0.015625)"/>
       <path id="DejaVuSerif-75" d="M 2266 3322 
L 3341 3322 
L 3341 331 
L 3884 331 
L 3884 0 
L 2766 0 
L 2766 588 
Q 2606 256 2353 82 
Q 2100 -91 1766 -91 
Q 1213 -91 952 223 
Q 691 538 691 1209 
L 691 2988 
L 172 2988 
L 172 3322 
L 1269 3322 
L 1269 1388 
Q 1269 781 1417 556 
Q 1566 331 1947 331 
Q 2347 331 2556 625 
Q 2766 919 2766 1478 
L 2766 2988 
L 2266 2988 
L 2266 3322 
z
" transform="scale(0.015625)"/>
       <path id="DejaVuSerif-64" d="M 3359 331 
L 3909 331 
L 3909 0 
L 2784 0 
L 2784 519 
Q 2616 206 2355 57 
Q 2094 -91 1709 -91 
Q 1097 -91 708 395 
Q 319 881 319 1663 
Q 319 2444 706 2928 
Q 1094 3413 1709 3413 
Q 2094 3413 2355 3264 
Q 2616 3116 2784 2803 
L 2784 4531 
L 2241 4531 
L 2241 4863 
L 3359 4863 
L 3359 331 
z
M 2784 1497 
L 2784 1825 
Q 2784 2422 2554 2737 
Q 2325 3053 1888 3053 
Q 1444 3053 1217 2703 
Q 991 2353 991 1663 
Q 991 975 1217 622 
Q 1444 269 1888 269 
Q 2325 269 2554 583 
Q 2784 897 2784 1497 
z
" transform="scale(0.015625)"/>
       <path id="DejaVuSerif-61" d="M 2547 1044 
L 2547 1747 
L 1806 1747 
Q 1378 1747 1168 1562 
Q 959 1378 959 997 
Q 959 650 1171 447 
Q 1384 244 1747 244 
Q 2106 244 2326 466 
Q 2547 688 2547 1044 
z
M 3122 2075 
L 3122 331 
L 3634 331 
L 3634 0 
L 2547 0 
L 2547 359 
Q 2356 128 2106 18 
Q 1856 -91 1522 -91 
Q 969 -91 644 203 
Q 319 497 319 997 
Q 319 1513 691 1797 
Q 1063 2081 1741 2081 
L 2547 2081 
L 2547 2309 
Q 2547 2688 2317 2895 
Q 2088 3103 1672 3103 
Q 1328 3103 1125 2947 
Q 922 2791 872 2484 
L 575 2484 
L 575 3156 
Q 875 3284 1158 3348 
Q 1441 3413 1709 3413 
Q 2400 3413 2761 3070 
Q 3122 2728 3122 2075 
z
" transform="scale(0.015625)"/>
       <path id="DejaVuSerif-70" d="M 1313 1825 
L 1313 1497 
Q 1313 897 1542 583 
Q 1772 269 2209 269 
Q 2650 269 2876 622 
Q 3103 975 3103 1663 
Q 3103 2353 2876 2703 
Q 2650 3053 2209 3053 
Q 1772 3053 1542 2737 
Q 1313 2422 1313 1825 
z
M 738 2988 
L 184 2988 
L 184 3322 
L 1313 3322 
L 1313 2803 
Q 1481 3116 1742 3264 
Q 2003 3413 2388 3413 
Q 3000 3413 3387 2928 
Q 3775 2444 3775 1663 
Q 3775 881 3387 395 
Q 3000 -91 2388 -91 
Q 2003 -91 1742 57 
Q 1481 206 1313 519 
L 1313 -997 
L 1856 -997 
L 1856 -1331 
L 184 -1331 
L 184 -997 
L 738 -997 
L 738 2988 
z
" transform="scale(0.015625)"/>
       <path id="DejaVuSerif-72" d="M 3059 3328 
L 3059 2497 
L 2728 2497 
Q 2713 2744 2591 2866 
Q 2469 2988 2234 2988 
Q 1809 2988 1582 2694 
Q 1356 2400 1356 1850 
L 1356 331 
L 2022 331 
L 2022 0 
L 263 0 
L 263 331 
L 781 331 
L 781 2994 
L 231 2994 
L 231 3322 
L 1356 3322 
L 1356 2731 
Q 1525 3078 1790 3245 
Q 2056 3413 2438 3413 
Q 2578 3413 2733 3391 
Q 2888 3369 3059 3328 
z
" transform="scale(0.015625)"/>
       <path id="DejaVuSerif-6d" d="M 3316 2675 
Q 3481 3041 3739 3227 
Q 3997 3413 4341 3413 
Q 4863 3413 5119 3089 
Q 5375 2766 5375 2113 
L 5375 331 
L 5894 331 
L 5894 0 
L 4300 0 
L 4300 331 
L 4800 331 
L 4800 2047 
Q 4800 2556 4650 2772 
Q 4500 2988 4153 2988 
Q 3769 2988 3567 2697 
Q 3366 2406 3366 1850 
L 3366 331 
L 3866 331 
L 3866 0 
L 2291 0 
L 2291 331 
L 2791 331 
L 2791 2069 
Q 2791 2566 2641 2777 
Q 2491 2988 2144 2988 
Q 1759 2988 1557 2697 
Q 1356 2406 1356 1850 
L 1356 331 
L 1856 331 
L 1856 0 
L 263 0 
L 263 331 
L 781 331 
L 781 2994 
L 231 2994 
L 231 3322 
L 1356 3322 
L 1356 2731 
Q 1516 3063 1762 3238 
Q 2009 3413 2322 3413 
Q 2709 3413 2968 3220 
Q 3228 3028 3316 2675 
z
" transform="scale(0.015625)"/>
       <path id="DejaVuSerif-e8" d="M 3469 1600 
L 991 1600 
L 991 1575 
Q 991 903 1244 561 
Q 1497 219 1991 219 
Q 2369 219 2611 417 
Q 2853 616 2950 1006 
L 3413 1006 
Q 3275 459 2904 184 
Q 2534 -91 1931 -91 
Q 1203 -91 761 389 
Q 319 869 319 1663 
Q 319 2450 753 2931 
Q 1188 3413 1894 3413 
Q 2647 3413 3050 2948 
Q 3453 2484 3469 1600 
z
M 2791 1931 
Q 2772 2513 2545 2808 
Q 2319 3103 1894 3103 
Q 1497 3103 1269 2806 
Q 1041 2509 991 1931 
L 2791 1931 
z
M 1443 5113 
L 2255 3938 
L 1890 3938 
L 827 5113 
L 1443 5113 
z
" transform="scale(0.015625)"/>
      </defs>
      <use xlink:href="#DejaVuSerif-4d"/>
      <use xlink:href="#DejaVuSerif-6f" x="102.392578"/>
      <use xlink:href="#DejaVuSerif-79" x="162.597656"/>
      <use xlink:href="#DejaVuSerif-65" x="219.091797"/>
      <use xlink:href="#DejaVuSerif-6e" x="278.271484"/>
      <use xlink:href="#DejaVuSerif-6e" x="342.675781"/>
      <use xlink:href="#DejaVuSerif-65" x="407.080078"/>
      <use xlink:href="#DejaVuSerif-20" x="466.259766"/>
      <use xlink:href="#DejaVuSerif-e0" x="498.046875"/>
      <use xlink:href="#DejaVuSerif-20" x="557.666016"/>
      <use xlink:href="#DejaVuSerif-6c" x="589.453125"/>
      <use xlink:href="#DejaVuSerif-27" x="621.435547"/>
      <use xlink:href="#DejaVuSerif-69" x="648.925781"/>
      <use xlink:href="#DejaVuSerif-73" x="680.908203"/>
      <use xlink:href="#DejaVuSerif-73" x="732.226562"/>
      <use xlink:href="#DejaVuSerif-75" x="783.544922"/>
      <use xlink:href="#DejaVuSerif-65" x="847.949219"/>
      <use xlink:href="#DejaVuSerif-20" x="907.128906"/>
      <use xlink:href="#DejaVuSerif-64" x="938.916016"/>
      <use xlink:href="#DejaVuSerif-65" x="1002.929688"/>
      <use xlink:href="#DejaVuSerif-20" x="1062.109375"/>
      <use xlink:href="#DejaVuSerif-6c" x="1093.896484"/>
      <use xlink:href="#DejaVuSerif-61" x="1125.878906"/>
      <use xlink:href="#DejaVuSerif-20" x="1185.498047"/>
      <use xlink:href="#DejaVuSerif-70" x="1217.285156"/>
      <use xlink:href="#DejaVuSerif-72" x="1281.298828"/>
      <use xlink:href="#DejaVuSerif-65" x="1329.101562"/>
      <use xlink:href="#DejaVuSerif-6d" x="1388.28125"/>
      <use xlink:href="#DejaVuSerif-69" x="1483.105469"/>
      <use xlink:href="#DejaVuSerif-e8" x="1515.087891"/>
      <use xlink:href="#DejaVuSerif-72" x="1574.267578"/>
      <use xlink:href="#DejaVuSerif-65" x="1622.070312"/>
      <use xlink:href="#DejaVuSerif-20" x="1681.25"/>
      <use xlink:href="#DejaVuSerif-73" x="1713.037109"/>
      <use xlink:href="#DejaVuSerif-65" x="1764.355469"/>
      <use xlink:href="#DejaVuSerif-73" x="1823.535156"/>
      <use xlink:href="#DejaVuSerif-73" x="1874.853516"/>
      <use xlink:href="#DejaVuSerif-69" x="1926.171875"/>
      <use xlink:href="#DejaVuSerif-6f" x="1958.154297"/>
      <use xlink:href="#DejaVuSerif-6e" x="2018.359375"/>
     </g>
    </g>
   </g>
   <g id="matplotlib.axis_2">
    <g id="ytick_1">
     <g id="line2d_8">
      <defs>
       <path id="m9b94aabdc4" d="M 0 0 
L -3.5 0 
" style="stroke: #000000; stroke-width: 0.8"/>
      </defs>
      <g>
       <use xlink:href="#m9b94aabdc4" x="64.8" y="273.312" style="stroke: #000000; stroke-width: 0.8"/>
      </g>
     </g>
     <g id="text_9">
      <!-- 0 -->
      <g transform="translate(51.4375 277.111219)scale(0.1 -0.1)">
       <use xlink:href="#DejaVuSerif-30"/>
      </g>
     </g>
    </g>
    <g id="ytick_2">
     <g id="line2d_9">
      <g>
       <use xlink:href="#m9b94aabdc4" x="64.8" y="232.152438" style="stroke: #000000; stroke-width: 0.8"/>
      </g>
     </g>
     <g id="text_10">
      <!-- 2000 -->
      <g transform="translate(32.35 235.951657)scale(0.1 -0.1)">
       <use xlink:href="#DejaVuSerif-32"/>
       <use xlink:href="#DejaVuSerif-30" x="63.623047"/>
       <use xlink:href="#DejaVuSerif-30" x="127.246094"/>
       <use xlink:href="#DejaVuSerif-30" x="190.869141"/>
      </g>
     </g>
    </g>
    <g id="ytick_3">
     <g id="line2d_10">
      <g>
       <use xlink:href="#m9b94aabdc4" x="64.8" y="190.992877" style="stroke: #000000; stroke-width: 0.8"/>
      </g>
     </g>
     <g id="text_11">
      <!-- 4000 -->
      <g transform="translate(32.35 194.792096)scale(0.1 -0.1)">
       <use xlink:href="#DejaVuSerif-34"/>
       <use xlink:href="#DejaVuSerif-30" x="63.623047"/>
       <use xlink:href="#DejaVuSerif-30" x="127.246094"/>
       <use xlink:href="#DejaVuSerif-30" x="190.869141"/>
      </g>
     </g>
    </g>
    <g id="ytick_4">
     <g id="line2d_11">
      <g>
       <use xlink:href="#m9b94aabdc4" x="64.8" y="149.833315" style="stroke: #000000; stroke-width: 0.8"/>
      </g>
     </g>
     <g id="text_12">
      <!-- 6000 -->
      <g transform="translate(32.35 153.632534)scale(0.1 -0.1)">
       <use xlink:href="#DejaVuSerif-36"/>
       <use xlink:href="#DejaVuSerif-30" x="63.623047"/>
       <use xlink:href="#DejaVuSerif-30" x="127.246094"/>
       <use xlink:href="#DejaVuSerif-30" x="190.869141"/>
      </g>
     </g>
    </g>
    <g id="ytick_5">
     <g id="line2d_12">
      <g>
       <use xlink:href="#m9b94aabdc4" x="64.8" y="108.673754" style="stroke: #000000; stroke-width: 0.8"/>
      </g>
     </g>
     <g id="text_13">
      <!-- 8000 -->
      <g transform="translate(32.35 112.472973)scale(0.1 -0.1)">
       <use xlink:href="#DejaVuSerif-38"/>
       <use xlink:href="#DejaVuSerif-30" x="63.623047"/>
       <use xlink:href="#DejaVuSerif-30" x="127.246094"/>
       <use xlink:href="#DejaVuSerif-30" x="190.869141"/>
      </g>
     </g>
    </g>
    <g id="ytick_6">
     <g id="line2d_13">
      <g>
       <use xlink:href="#m9b94aabdc4" x="64.8" y="67.514192" style="stroke: #000000; stroke-width: 0.8"/>
      </g>
     </g>
     <g id="text_14">
      <!-- 10000 -->
      <g transform="translate(25.9875 71.313411)scale(0.1 -0.1)">
       <use xlink:href="#DejaVuSerif-31"/>
       <use xlink:href="#DejaVuSerif-30" x="63.623047"/>
       <use xlink:href="#DejaVuSerif-30" x="127.246094"/>
       <use xlink:href="#DejaVuSerif-30" x="190.869141"/>
       <use xlink:href="#DejaVuSerif-30" x="254.492188"/>
      </g>
     </g>
    </g>
    <g id="ytick_7">
     <g id="line2d_14">
      <g>
       <use xlink:href="#m9b94aabdc4" x="64.8" y="26.354631" style="stroke: #000000; stroke-width: 0.8"/>
      </g>
     </g>
     <g id="text_15">
      <!-- 12000 -->
      <g transform="translate(25.9875 30.15385)scale(0.1 -0.1)">
       <use xlink:href="#DejaVuSerif-31"/>
       <use xlink:href="#DejaVuSerif-32" x="63.623047"/>
       <use xlink:href="#DejaVuSerif-30" x="127.246094"/>
       <use xlink:href="#DejaVuSerif-30" x="190.869141"/>
       <use xlink:href="#DejaVuSerif-30" x="254.492188"/>
      </g>
     </g>
    </g>
    <g id="text_16">
     <!-- Nombre de candidats -->
     <g transform="translate(19.907812 194.829437)rotate(-90)scale(0.1 -0.1)">
      <defs>
       <path id="DejaVuSerif-4e" d="M 313 0 
L 313 331 
L 941 331 
L 941 4331 
L 313 4331 
L 313 4666 
L 1509 4666 
L 4306 984 
L 4306 4331 
L 3681 4331 
L 3681 4666 
L 5319 4666 
L 5319 4331 
L 4691 4331 
L 4691 -91 
L 4313 -91 
L 1325 3841 
L 1325 331 
L 1953 331 
L 1953 0 
L 313 0 
z
" transform="scale(0.015625)"/>
       <path id="DejaVuSerif-62" d="M 738 331 
L 738 4531 
L 184 4531 
L 184 4863 
L 1313 4863 
L 1313 2803 
Q 1481 3116 1742 3264 
Q 2003 3413 2388 3413 
Q 3000 3413 3387 2928 
Q 3775 2444 3775 1663 
Q 3775 881 3387 395 
Q 3000 -91 2388 -91 
Q 2003 -91 1742 57 
Q 1481 206 1313 519 
L 1313 0 
L 184 0 
L 184 331 
L 738 331 
z
M 1313 1497 
Q 1313 897 1542 583 
Q 1772 269 2209 269 
Q 2650 269 2876 622 
Q 3103 975 3103 1663 
Q 3103 2353 2876 2703 
Q 2650 3053 2209 3053 
Q 1772 3053 1542 2737 
Q 1313 2422 1313 1825 
L 1313 1497 
z
" transform="scale(0.015625)"/>
       <path id="DejaVuSerif-63" d="M 3291 997 
Q 3169 466 2822 187 
Q 2475 -91 1925 -91 
Q 1200 -91 759 389 
Q 319 869 319 1663 
Q 319 2459 759 2936 
Q 1200 3413 1925 3413 
Q 2241 3413 2553 3339 
Q 2866 3266 3181 3116 
L 3181 2266 
L 2847 2266 
Q 2781 2703 2561 2903 
Q 2341 3103 1931 3103 
Q 1466 3103 1228 2742 
Q 991 2381 991 1663 
Q 991 944 1227 581 
Q 1463 219 1931 219 
Q 2303 219 2525 412 
Q 2747 606 2828 997 
L 3291 997 
z
" transform="scale(0.015625)"/>
       <path id="DejaVuSerif-74" d="M 691 2988 
L 184 2988 
L 184 3322 
L 691 3322 
L 691 4353 
L 1269 4353 
L 1269 3322 
L 2350 3322 
L 2350 2988 
L 1269 2988 
L 1269 878 
Q 1269 456 1350 337 
Q 1431 219 1650 219 
Q 1875 219 1978 351 
Q 2081 484 2088 781 
L 2522 781 
Q 2497 328 2275 118 
Q 2053 -91 1600 -91 
Q 1103 -91 897 129 
Q 691 350 691 878 
L 691 2988 
z
" transform="scale(0.015625)"/>
      </defs>
      <use xlink:href="#DejaVuSerif-4e"/>
      <use xlink:href="#DejaVuSerif-6f" x="87.5"/>
      <use xlink:href="#DejaVuSerif-6d" x="147.705078"/>
      <use xlink:href="#DejaVuSerif-62" x="242.529297"/>
      <use xlink:href="#DejaVuSerif-72" x="306.542969"/>
      <use xlink:href="#DejaVuSerif-65" x="354.345703"/>
      <use xlink:href="#DejaVuSerif-20" x="413.525391"/>
      <use xlink:href="#DejaVuSerif-64" x="445.3125"/>
      <use xlink:href="#DejaVuSerif-65" x="509.326172"/>
      <use xlink:href="#DejaVuSerif-20" x="568.505859"/>
      <use xlink:href="#DejaVuSerif-63" x="600.292969"/>
      <use xlink:href="#DejaVuSerif-61" x="656.298828"/>
      <use xlink:href="#DejaVuSerif-6e" x="715.917969"/>
      <use xlink:href="#DejaVuSerif-64" x="780.322266"/>
      <use xlink:href="#DejaVuSerif-69" x="844.335938"/>
      <use xlink:href="#DejaVuSerif-64" x="876.318359"/>
      <use xlink:href="#DejaVuSerif-61" x="940.332031"/>
      <use xlink:href="#DejaVuSerif-74" x="999.951172"/>
      <use xlink:href="#DejaVuSerif-73" x="1040.136719"/>
     </g>
    </g>
   </g>
   <g id="patch_204">
    <path d="M 64.8 273.312 
L 64.8 19.872 
" style="fill: none; stroke: #000000; stroke-width: 0.8; stroke-linejoin: miter; stroke-linecap: square"/>
   </g>
   <g id="patch_205">
    <path d="M 81.840326 273.312 
L 404.879674 273.312 
" style="fill: none; stroke: #000000; stroke-width: 0.8; stroke-linejoin: miter; stroke-linecap: square"/>
   </g>
  </g>
  <g id="text_17">
   <!-- auteur: @remilouf -->
   <g transform="translate(7.2 311.521312)scale(0.06 -0.06)">
    <defs>
     <path id="DejaVuSerif-3a" d="M 666 325 
Q 666 500 786 622 
Q 906 744 1081 744 
Q 1256 744 1376 622 
Q 1497 500 1497 325 
Q 1497 150 1378 29 
Q 1259 -91 1081 -91 
Q 903 -91 784 29 
Q 666 150 666 325 
z
M 666 2363 
Q 666 2538 786 2658 
Q 906 2778 1081 2778 
Q 1259 2778 1378 2659 
Q 1497 2541 1497 2363 
Q 1497 2184 1378 2065 
Q 1259 1947 1081 1947 
Q 906 1947 786 2067 
Q 666 2188 666 2363 
z
" transform="scale(0.015625)"/>
     <path id="DejaVuSerif-40" d="M 4044 775 
Q 3859 519 3629 394 
Q 3400 269 3109 269 
Q 2563 269 2222 659 
Q 1881 1050 1881 1678 
Q 1881 2306 2222 2695 
Q 2563 3084 3109 3084 
Q 3400 3084 3629 2959 
Q 3859 2834 4044 2578 
L 4044 3022 
L 4531 3022 
L 4531 609 
Q 5063 725 5356 1115 
Q 5650 1506 5650 2094 
Q 5650 2441 5544 2750 
Q 5438 3059 5228 3322 
Q 4897 3738 4420 3958 
Q 3944 4178 3384 4178 
Q 3103 4178 2828 4118 
Q 2553 4059 2284 3938 
Q 1653 3647 1303 3058 
Q 953 2469 953 1697 
Q 953 1175 1109 736 
Q 1266 297 1563 -25 
Q 1903 -397 2370 -592 
Q 2838 -788 3378 -788 
Q 3781 -788 4131 -669 
Q 4481 -550 4781 -313 
L 4947 -531 
Q 4609 -822 4181 -967 
Q 3753 -1113 3244 -1113 
Q 2672 -1113 2151 -905 
Q 1631 -697 1241 -313 
Q 838 84 630 595 
Q 422 1106 422 1697 
Q 422 2272 631 2781 
Q 841 3291 1241 3688 
Q 1638 4081 2177 4293 
Q 2716 4506 3322 4506 
Q 3991 4506 4542 4247 
Q 5094 3988 5466 3500 
Q 5703 3194 5825 2834 
Q 5947 2475 5947 2088 
Q 5947 1250 5437 764 
Q 4928 278 4047 269 
L 4044 775 
z
M 4044 1516 
L 4044 1844 
Q 4044 2234 3820 2476 
Q 3597 2719 3238 2719 
Q 2859 2719 2648 2445 
Q 2438 2172 2438 1678 
Q 2438 1181 2650 907 
Q 2863 634 3244 634 
Q 3600 634 3822 879 
Q 4044 1125 4044 1516 
z
" transform="scale(0.015625)"/>
     <path id="DejaVuSerif-66" d="M 2753 4078 
L 2450 4078 
Q 2447 4313 2317 4434 
Q 2188 4556 1941 4556 
Q 1619 4556 1487 4379 
Q 1356 4203 1356 3750 
L 1356 3322 
L 2284 3322 
L 2284 2988 
L 1356 2988 
L 1356 331 
L 2094 331 
L 2094 0 
L 231 0 
L 231 331 
L 781 331 
L 781 2988 
L 231 2988 
L 231 3322 
L 781 3322 
L 781 3738 
Q 781 4294 1070 4578 
Q 1359 4863 1919 4863 
Q 2128 4863 2337 4825 
Q 2547 4788 2753 4709 
L 2753 4078 
z
" transform="scale(0.015625)"/>
    </defs>
    <use xlink:href="#DejaVuSerif-61"/>
    <use xlink:href="#DejaVuSerif-75" x="59.619141"/>
    <use xlink:href="#DejaVuSerif-74" x="124.023438"/>
    <use xlink:href="#DejaVuSerif-65" x="164.208984"/>
    <use xlink:href="#DejaVuSerif-75" x="223.388672"/>
    <use xlink:href="#DejaVuSerif-72" x="287.792969"/>
    <use xlink:href="#DejaVuSerif-3a" x="335.595703"/>
    <use xlink:href="#DejaVuSerif-20" x="369.287109"/>
    <use xlink:href="#DejaVuSerif-40" x="401.074219"/>
    <use xlink:href="#DejaVuSerif-72" x="501.074219"/>
    <use xlink:href="#DejaVuSerif-65" x="548.876953"/>
    <use xlink:href="#DejaVuSerif-6d" x="608.056641"/>
    <use xlink:href="#DejaVuSerif-69" x="702.880859"/>
    <use xlink:href="#DejaVuSerif-6c" x="734.863281"/>
    <use xlink:href="#DejaVuSerif-6f" x="766.845703"/>
    <use xlink:href="#DejaVuSerif-75" x="827.050781"/>
    <use xlink:href="#DejaVuSerif-66" x="891.455078"/>
   </g>
   <!-- source: MESNER-DEPP, Résultats définitifs de la session 2016 du baccalauréat -->
   <g transform="translate(7.2 318.24)scale(0.06 -0.06)">
    <defs>
     <path id="DejaVuSerif-45" d="M 353 0 
L 353 331 
L 947 331 
L 947 4331 
L 353 4331 
L 353 4666 
L 4109 4666 
L 4109 3628 
L 3725 3628 
L 3725 4281 
L 1581 4281 
L 1581 2719 
L 3109 2719 
L 3109 3303 
L 3494 3303 
L 3494 1753 
L 3109 1753 
L 3109 2338 
L 1581 2338 
L 1581 384 
L 3775 384 
L 3775 1038 
L 4159 1038 
L 4159 0 
L 353 0 
z
" transform="scale(0.015625)"/>
     <path id="DejaVuSerif-53" d="M 594 225 
L 594 1288 
L 953 1284 
Q 969 753 1261 498 
Q 1553 244 2150 244 
Q 2706 244 2998 464 
Q 3291 684 3291 1106 
Q 3291 1444 3114 1625 
Q 2938 1806 2369 1978 
L 1753 2163 
Q 1084 2366 811 2669 
Q 538 2972 538 3500 
Q 538 4094 959 4422 
Q 1381 4750 2144 4750 
Q 2469 4750 2856 4679 
Q 3244 4609 3681 4475 
L 3681 3481 
L 3328 3481 
Q 3275 3975 2998 4195 
Q 2722 4416 2156 4416 
Q 1663 4416 1405 4214 
Q 1147 4013 1147 3628 
Q 1147 3294 1340 3103 
Q 1534 2913 2163 2725 
L 2741 2553 
Q 3375 2363 3645 2067 
Q 3916 1772 3916 1275 
Q 3916 597 3481 253 
Q 3047 -91 2188 -91 
Q 1803 -91 1404 -12 
Q 1006 66 594 225 
z
" transform="scale(0.015625)"/>
     <path id="DejaVuSerif-52" d="M 3066 2316 
Q 3284 2256 3442 2114 
Q 3600 1972 3725 1716 
L 4403 331 
L 4972 331 
L 4972 0 
L 3872 0 
L 3144 1484 
Q 2934 1916 2759 2042 
Q 2584 2169 2278 2169 
L 1581 2169 
L 1581 331 
L 2241 331 
L 2241 0 
L 353 0 
L 353 331 
L 947 331 
L 947 4331 
L 353 4331 
L 353 4666 
L 2719 4666 
Q 3400 4666 3770 4341 
Q 4141 4016 4141 3419 
Q 4141 2938 3870 2661 
Q 3600 2384 3066 2316 
z
M 1581 2503 
L 2503 2503 
Q 2975 2503 3200 2726 
Q 3425 2950 3425 3419 
Q 3425 3888 3200 4109 
Q 2975 4331 2503 4331 
L 1581 4331 
L 1581 2503 
z
" transform="scale(0.015625)"/>
     <path id="DejaVuSerif-2d" d="M 281 1959 
L 1881 1959 
L 1881 1472 
L 281 1472 
L 281 1959 
z
" transform="scale(0.015625)"/>
     <path id="DejaVuSerif-44" d="M 1581 331 
L 2163 331 
Q 3072 331 3558 850 
Q 4044 1369 4044 2338 
Q 4044 3306 3559 3818 
Q 3075 4331 2163 4331 
L 1581 4331 
L 1581 331 
z
M 353 0 
L 353 331 
L 947 331 
L 947 4331 
L 353 4331 
L 353 4666 
L 2209 4666 
Q 3416 4666 4089 4050 
Q 4763 3434 4763 2338 
Q 4763 1238 4088 619 
Q 3413 0 2209 0 
L 353 0 
z
" transform="scale(0.015625)"/>
     <path id="DejaVuSerif-50" d="M 1581 2375 
L 2406 2375 
Q 2872 2375 3115 2626 
Q 3359 2878 3359 3353 
Q 3359 3831 3115 4081 
Q 2872 4331 2406 4331 
L 1581 4331 
L 1581 2375 
z
M 353 0 
L 353 331 
L 947 331 
L 947 4331 
L 353 4331 
L 353 4666 
L 2559 4666 
Q 3259 4666 3668 4311 
Q 4078 3956 4078 3353 
Q 4078 2753 3668 2397 
Q 3259 2041 2559 2041 
L 1581 2041 
L 1581 331 
L 2303 331 
L 2303 0 
L 353 0 
z
" transform="scale(0.015625)"/>
     <path id="DejaVuSerif-2c" d="M 231 -622 
Q 525 -406 662 -114 
Q 800 178 800 594 
L 800 709 
L 1416 709 
Q 1391 175 1164 -208 
Q 938 -591 481 -872 
L 231 -622 
z
" transform="scale(0.015625)"/>
     <path id="DejaVuSerif-e9" d="M 3469 1600 
L 991 1600 
L 991 1575 
Q 991 903 1244 561 
Q 1497 219 1991 219 
Q 2369 219 2611 417 
Q 2853 616 2950 1006 
L 3413 1006 
Q 3275 459 2904 184 
Q 2534 -91 1931 -91 
Q 1203 -91 761 389 
Q 319 869 319 1663 
Q 319 2450 753 2931 
Q 1188 3413 1894 3413 
Q 2647 3413 3050 2948 
Q 3453 2484 3469 1600 
z
M 2791 1931 
Q 2772 2513 2545 2808 
Q 2319 3103 1894 3103 
Q 1497 3103 1269 2806 
Q 1041 2509 991 1931 
L 2791 1931 
z
M 2330 5119 
L 2952 5119 
L 1890 3944 
L 1524 3944 
L 2330 5119 
z
" transform="scale(0.015625)"/>
    </defs>
    <use xlink:href="#DejaVuSerif-73"/>
    <use xlink:href="#DejaVuSerif-6f" x="51.318359"/>
    <use xlink:href="#DejaVuSerif-75" x="111.523438"/>
    <use xlink:href="#DejaVuSerif-72" x="175.927734"/>
    <use xlink:href="#DejaVuSerif-63" x="223.730469"/>
    <use xlink:href="#DejaVuSerif-65" x="279.736328"/>
    <use xlink:href="#DejaVuSerif-3a" x="338.916016"/>
    <use xlink:href="#DejaVuSerif-20" x="372.607422"/>
    <use xlink:href="#DejaVuSerif-4d" x="404.394531"/>
    <use xlink:href="#DejaVuSerif-45" x="506.787109"/>
    <use xlink:href="#DejaVuSerif-53" x="579.785156"/>
    <use xlink:href="#DejaVuSerif-4e" x="648.291016"/>
    <use xlink:href="#DejaVuSerif-45" x="735.791016"/>
    <use xlink:href="#DejaVuSerif-52" x="808.789062"/>
    <use xlink:href="#DejaVuSerif-2d" x="884.082031"/>
    <use xlink:href="#DejaVuSerif-44" x="917.871094"/>
    <use xlink:href="#DejaVuSerif-45" x="998.046875"/>
    <use xlink:href="#DejaVuSerif-50" x="1071.044922"/>
    <use xlink:href="#DejaVuSerif-50" x="1138.330078"/>
    <use xlink:href="#DejaVuSerif-2c" x="1185.365234"/>
    <use xlink:href="#DejaVuSerif-20" x="1217.152344"/>
    <use xlink:href="#DejaVuSerif-52" x="1248.939453"/>
    <use xlink:href="#DejaVuSerif-e9" x="1324.232422"/>
    <use xlink:href="#DejaVuSerif-73" x="1383.412109"/>
    <use xlink:href="#DejaVuSerif-75" x="1434.730469"/>
    <use xlink:href="#DejaVuSerif-6c" x="1499.134766"/>
    <use xlink:href="#DejaVuSerif-74" x="1531.117188"/>
    <use xlink:href="#DejaVuSerif-61" x="1571.302734"/>
    <use xlink:href="#DejaVuSerif-74" x="1630.921875"/>
    <use xlink:href="#DejaVuSerif-73" x="1671.107422"/>
    <use xlink:href="#DejaVuSerif-20" x="1722.425781"/>
    <use xlink:href="#DejaVuSerif-64" x="1754.212891"/>
    <use xlink:href="#DejaVuSerif-e9" x="1818.226562"/>
    <use xlink:href="#DejaVuSerif-66" x="1877.40625"/>
    <use xlink:href="#DejaVuSerif-69" x="1914.417969"/>
    <use xlink:href="#DejaVuSerif-6e" x="1946.400391"/>
    <use xlink:href="#DejaVuSerif-69" x="2010.804688"/>
    <use xlink:href="#DejaVuSerif-74" x="2042.787109"/>
    <use xlink:href="#DejaVuSerif-69" x="2082.972656"/>
    <use xlink:href="#DejaVuSerif-66" x="2114.955078"/>
    <use xlink:href="#DejaVuSerif-73" x="2151.966797"/>
    <use xlink:href="#DejaVuSerif-20" x="2203.285156"/>
    <use xlink:href="#DejaVuSerif-64" x="2235.072266"/>
    <use xlink:href="#DejaVuSerif-65" x="2299.085938"/>
    <use xlink:href="#DejaVuSerif-20" x="2358.265625"/>
    <use xlink:href="#DejaVuSerif-6c" x="2390.052734"/>
    <use xlink:href="#DejaVuSerif-61" x="2422.035156"/>
    <use xlink:href="#DejaVuSerif-20" x="2481.654297"/>
    <use xlink:href="#DejaVuSerif-73" x="2513.441406"/>
    <use xlink:href="#DejaVuSerif-65" x="2564.759766"/>
    <use xlink:href="#DejaVuSerif-73" x="2623.939453"/>
    <use xlink:href="#DejaVuSerif-73" x="2675.257812"/>
    <use xlink:href="#DejaVuSerif-69" x="2726.576172"/>
    <use xlink:href="#DejaVuSerif-6f" x="2758.558594"/>
    <use xlink:href="#DejaVuSerif-6e" x="2818.763672"/>
    <use xlink:href="#DejaVuSerif-20" x="2883.167969"/>
    <use xlink:href="#DejaVuSerif-32" x="2914.955078"/>
    <use xlink:href="#DejaVuSerif-30" x="2978.578125"/>
    <use xlink:href="#DejaVuSerif-31" x="3042.201172"/>
    <use xlink:href="#DejaVuSerif-36" x="3105.824219"/>
    <use xlink:href="#DejaVuSerif-20" x="3169.447266"/>
    <use xlink:href="#DejaVuSerif-64" x="3201.234375"/>
    <use xlink:href="#DejaVuSerif-75" x="3265.248047"/>
    <use xlink:href="#DejaVuSerif-20" x="3329.652344"/>
    <use xlink:href="#DejaVuSerif-62" x="3361.439453"/>
    <use xlink:href="#DejaVuSerif-61" x="3425.453125"/>
    <use xlink:href="#DejaVuSerif-63" x="3485.072266"/>
    <use xlink:href="#DejaVuSerif-63" x="3541.078125"/>
    <use xlink:href="#DejaVuSerif-61" x="3597.083984"/>
    <use xlink:href="#DejaVuSerif-6c" x="3656.703125"/>
    <use xlink:href="#DejaVuSerif-61" x="3688.685547"/>
    <use xlink:href="#DejaVuSerif-75" x="3748.304688"/>
    <use xlink:href="#DejaVuSerif-72" x="3812.708984"/>
    <use xlink:href="#DejaVuSerif-e9" x="3860.511719"/>
    <use xlink:href="#DejaVuSerif-61" x="3919.691406"/>
    <use xlink:href="#DejaVuSerif-74" x="3979.310547"/>
   </g>
  </g>
 </g>
 <defs>
  <clipPath id="pef1aaa9acd">
   <rect x="64.8" y="7.2" width="357.12" height="266.112"/>
  </clipPath>
 </defs>
</svg>
