<?xml version="1.0" encoding="UTF-8" standalone="no"?>
<svg
   width="736.04425"
   height="414.28555"
   viewBox="0 0 736.04425 414.28555"
   version="1.2"
   id="svg10"
   sodipodi:docname="Figures notes - page 1.svg"
   inkscape:version="1.1.1 (3bf5ae0d25, 2021-09-20, custom)"
   xmlns:inkscape="http://www.inkscape.org/namespaces/inkscape"
   xmlns:sodipodi="http://sodipodi.sourceforge.net/DTD/sodipodi-0.dtd"
   xmlns="http://www.w3.org/2000/svg"
   xmlns:svg="http://www.w3.org/2000/svg"
   xmlns:rdf="http://www.w3.org/1999/02/22-rdf-syntax-ns#"
   xmlns:cc="http://creativecommons.org/ns#"
   xmlns:dc="http://purl.org/dc/elements/1.1/">
  <defs
     id="defs14" />
  <sodipodi:namedview
     id="namedview12"
     pagecolor="#ffffff"
     bordercolor="#cccccc"
     borderopacity="1"
     inkscape:pageshadow="0"
     inkscape:pageopacity="1"
     inkscape:pagecheckerboard="0"
     showgrid="false"
     fit-margin-top="0"
     fit-margin-left="0"
     fit-margin-right="0"
     fit-margin-bottom="0"
     inkscape:zoom="0.46207265"
     inkscape:cx="436.07861"
     inkscape:cy="793.16532"
     inkscape:window-width="1920"
     inkscape:window-height="1080"
     inkscape:window-x="0"
     inkscape:window-y="0"
     inkscape:window-maximized="1"
     inkscape:current-layer="svg10" />
  <title
     id="title2">Figures notes</title>
  <g
     id="g8"
     transform="translate(-265.82963,-143.88682)">
    <path
       fill="#000000"
       d="m 987.943,557.919 c 0,0 0,0 0,0 3.834,-20.948 7.995,-41.838 11.504,-62.843 1.133,-6.791 2.333,-13.628 2.423,-20.512 0.08,-6.131 -1.09,-12.22 -1.914,-18.297 -0.153,-1.131 -0.228,-2.433 -0.998,-3.276 -0.707,-0.776 -1.935,-0.856 -2.964,-1.066 -4.041,-0.822 -8.108,-1.55 -12.204,-2.022 -4.932,-0.569 -9.896,-0.851 -14.855,-1.098 -18.95,-0.942 -37.921,-1.465 -56.868,-2.47 -15.452,-0.82 -30.895,-1.818 -46.323,-3.003 -10.406,-0.798 -20.805,-1.741 -31.173,-2.945 -9.254,-1.076 -18.431,-2.75 -27.677,-3.893 -9.222,-1.139 -18.466,-2.099 -27.718,-2.953 -8.826,-0.814 -17.667,-1.478 -26.512,-2.05 -11.182,-0.723 -22.371,-1.368 -33.567,-1.834 -25.046,-1.044 -50.095,-2.087 -75.155,-2.696 -38.808,-0.943 -77.624,-1.659 -116.442,-1.96 -45.332,-0.352 -90.668,-0.321 -136,0 -1.7,0.012 -3.302,0.918 -5,0.998 -5.326,0.25 -10.671,0.257 -15.997,-0.014 -1.049,-0.054 -1.953,-0.915 -3.003,-0.954 -0.714,-0.027 -1.286,0.74 -2,0.768 -0.39,0.015 -0.596,-0.551 -0.974,-0.652 -0.654,-0.174 -1.349,-0.141 -2.026,-0.146 -5.665,-0.039 -11.336,-0.224 -16.997,0.014 -0.716,0.03 -1.287,0.74 -2.003,0.784 -0.388,0.024 -0.612,-0.598 -1,-0.598 -0.389,0 -0.612,0.607 -1,0.598 -0.388,-0.008 -0.602,-0.525 -0.973,-0.642 -0.335,-0.106 -0.715,-0.092 -1.054,0 -0.689,0.188 -1.273,0.705 -1.977,0.827 -0.665,0.115 -1.371,0.049 -2.022,-0.132 -0.377,-0.105 -0.561,-0.631 -0.947,-0.694 -0.462,-0.076 -1.197,-0.121 -1.369,0.314 -0.292,0.739 -0.436,2.099 0.313,2.363 1.294,0.455 2.658,-0.801 4.029,-0.834 9.996,-0.241 20.002,-0.284 29.996,0.014 1.053,0.031 1.956,0.909 3.007,0.97 4.658,0.27 9.332,0.049 13.997,0.015 1.343,-0.01 2.702,0.079 4.026,-0.148 0.388,-0.066 0.569,-0.596 0.948,-0.704 0.651,-0.186 1.349,-0.146 2.026,-0.147 40.333,-0.048 80.67,-0.497 121,0 52.947,0.652 105.886,1.918 158.814,3.449 24.311,0.703 48.601,2.001 72.89,3.251 9.232,0.475 18.458,1.101 27.666,1.923 12.93,1.154 25.854,2.41 38.737,4.004 6.647,0.822 13.189,2.377 19.831,3.241 2.17,0.283 4.645,-0.863 6.561,0.193 1.408,0.775 1.846,2.841 1.858,4.448 0.042,5.677 -1.382,11.279 -1.699,16.947 -0.023,0.41 0.639,0.61 0.694,1.017 0.184,1.338 0.188,2.714 0,4.052 -0.055,0.389 -0.569,0.576 -0.704,0.946 -0.192,0.53 0.042,1.19 -0.248,1.673 -0.472,0.787 -1.211,1.392 -1.931,1.96 -0.897,0.707 -2.278,0.877 -2.89,1.841 -0.461,0.726 -0.201,1.766 0.083,2.578 0.09,0.255 0.575,0.108 0.811,-0.023 1.16,-0.643 2.255,-3.084 3.284,-2.247 1.655,1.348 1.318,4.088 1.579,6.206 0.05,0.406 -0.582,0.619 -0.689,1.014 -0.176,0.651 -0.2,1.348 -0.132,2.019 0.503,4.968 1.11,9.926 1.843,14.865 0.28,1.888 0.358,3.884 1.194,5.599 0.217,0.445 1.084,0.182 1.479,-0.117 0.377,-0.285 0.429,-0.872 0.453,-1.344 0.085,-1.672 0.094,-3.363 -0.132,-5.022 -0.096,-0.706 -0.812,-1.261 -0.821,-1.974 -0.01,-0.714 0.728,-1.287 0.768,-2 0.022,-0.388 -0.599,-0.611 -0.599,-1 0,-0.389 0.599,-0.611 0.599,-1 10e-4,-0.388 -0.528,-0.616 -0.597,-0.998 -0.035,-0.199 0.144,-0.425 0.328,-0.511 1.616,-0.758 3.237,-1.576 4.976,-1.977 0.982,-0.226 2.075,-0.216 3.02,0.134 0.741,0.275 1.307,0.956 1.723,1.627 0.707,1.137 1.316,2.379 1.58,3.691 0.08,0.395 -0.631,0.63 -0.628,1.034 0.002,0.388 0.522,0.601 0.641,0.97 0.112,0.347 0.113,0.74 0.023,1.093 -0.852,3.354 -2.672,6.53 -2.837,9.987 -0.05,1.049 1.238,2.464 2.255,2.201 1.149,-0.297 1.373,-2.023 1.577,-3.192 0.124,-0.71 -0.736,-1.343 -0.659,-2.06 0.056,-0.526 0.859,-0.717 1.009,-1.224 0.748,-2.538 1.817,-5.126 1.643,-7.766 -0.159,-2.4 -1.412,-4.64 -2.602,-6.73 -0.624,-1.098 -1.708,-1.882 -2.725,-2.631 -0.279,-0.205 -0.683,-0.133 -1.029,-0.133 -1.675,0 -3.401,-0.28 -5.024,0.134 -0.83,0.211 -1.165,1.364 -1.973,1.65 -0.365,0.13 -0.611,-0.573 -0.997,-0.596 -0.294,-0.018 -0.576,0.74 -0.733,0.491 -0.806,-1.267 -1.661,-2.7 -1.625,-4.201 0.068,-2.891 -0.239,-6.54 1.923,-8.461 1.868,-1.658 5.031,-0.325 7.492,0.1 3.051,0.528 5.863,2.027 8.878,2.731 0.466,0.108 1.057,0.003 1.397,-0.334 0.25,-0.248 0.182,-0.751 0.007,-1.057 -0.384,-0.67 -0.87,-1.395 -1.582,-1.693 -2.802,-1.169 -5.749,-2.015 -8.726,-2.608 -0.395,-0.078 -0.622,0.545 -1.005,0.671 -0.345,0.115 -0.739,0.112 -1.092,0.023 -2.157,-0.544 -4.57,-0.638 -6.394,-1.911 -0.679,-0.474 -0.084,-1.674 0.104,-2.48 0.089,-0.381 0.707,-0.555 0.696,-0.947 -0.031,-1.044 -0.803,-1.982 -0.812,-3.027 -0.007,-0.714 0.728,-1.287 0.768,-2 0.022,-0.388 -0.622,-0.612 -0.598,-1 0.044,-0.716 0.668,-1.296 0.783,-2.004 0.108,-0.667 0.045,-1.37 -0.132,-2.022 -0.107,-0.396 -0.724,-0.607 -0.693,-1.016 0.306,-4 1.361,-7.918 1.681,-11.916 0.033,-0.408 -0.536,-0.652 -0.641,-1.047 -0.036,-0.14 0.133,-0.322 0.277,-0.333 2,-0.153 4.017,-0.304 6.017,-0.148 6.881,0.535 13.704,1.691 20.585,2.218 15.828,1.214 31.677,2.15 47.529,3.005 19.625,1.058 39.253,2.113 58.896,2.733 0.731,0.023 1.309,-0.863 2.039,-0.81 4.023,0.292 7.95,1.426 11.965,1.826 2.537,0.253 5.393,-1.061 7.649,0.128 1.763,0.928 1.903,3.505 2.709,5.327 0.145,0.327 0.119,0.708 0.121,1.065 0.038,7.996 1.064,16.063 0,23.987 -2.897,21.484 -8.349,42.552 -11.856,63.945 -0.489,2.98 -0.229,6.041 -0.114,9.058 0.018,0.493 0.243,0.974 0.512,1.387 m -29.738,-0.359 c 0,0 0,0 0,0 -0.183,-0.249 -0.259,-0.64 -0.549,-0.748 -1.194,-0.445 -2.458,-0.727 -3.727,-0.844 -17.416,-1.609 -34.88,-2.671 -52.291,-4.331 -6.726,-0.641 -14.28,0.85 -20.108,-2.57 -2.288,-1.343 2.878,-4.466 4.132,-6.804 0.985,-1.837 1.994,-3.697 2.575,-5.699 0.112,-0.385 -0.788,-0.664 -0.622,-1.029 0.728,-1.59 2.252,-2.714 3.047,-4.272 1.761,-3.455 3.343,-7.018 4.582,-10.693 0.129,-0.382 -0.633,-0.631 -0.628,-1.034 0.004,-0.391 0.569,-0.592 0.651,-0.974 0.144,-0.669 0.143,-1.383 0,-2.052 -0.082,-0.382 -0.679,-0.586 -0.649,-0.976 0.023,-0.305 0.637,-0.23 0.762,-0.509 0.784,-1.749 1.587,-3.536 1.899,-5.427 0.118,-0.712 -0.661,-1.34 -0.663,-2.062 -0.002,-0.391 0.568,-0.593 0.651,-0.974 0.148,-0.68 0.194,-1.415 0.015,-2.087 -0.695,-2.606 -1.371,-5.263 -2.614,-7.657 -0.582,-1.122 -1.62,-2.024 -2.727,-2.633 -0.608,-0.334 -1.422,-0.23 -2.08,-0.011 -0.972,0.323 -1.843,0.93 -2.636,1.577 -1.132,0.923 -2.19,1.954 -3.097,3.099 -0.739,0.932 -0.791,3.709 -1.802,3.081 -1.615,-1.004 -1.106,-3.651 -1.897,-5.381 -0.75,-1.637 -1.497,-3.34 -2.704,-4.676 -1.348,-1.491 -3.029,-2.706 -4.81,-3.637 -0.344,-0.181 -0.612,0.622 -1,0.598 -0.716,-0.044 -1.292,-0.692 -2.003,-0.784 -1.001,-0.129 -2.071,-0.2 -3.023,0.133 -0.596,0.209 -1.408,0.759 -1.297,1.38 0.224,1.253 0.912,2.76 2.114,3.179 0.864,0.301 1.307,-1.373 2.166,-1.689 0.649,-0.238 1.437,-0.148 2.069,0.13 0.784,0.346 1.18,1.322 1.971,1.65 0.289,0.12 0.619,-0.768 0.79,-0.507 1.465,2.227 2.702,4.633 3.579,7.15 0.338,0.971 0.152,2.07 -0.014,3.085 -0.062,0.384 -0.613,0.583 -0.649,0.971 -0.028,0.29 0.748,0.59 0.489,0.722 -1.6,0.818 -3.367,1.311 -5.131,1.649 -1.329,0.256 -2.707,0.206 -4.058,0.117 -0.519,-0.035 -1.085,-0.149 -1.485,-0.483 -1.421,-1.183 -3.141,-2.276 -3.87,-3.976 -0.663,-1.548 -0.524,-3.452 0,-5.052 0.391,-1.193 2.452,-1.51 2.56,-2.76 0.077,-0.888 -1.319,-1.336 -2.187,-1.535 -0.354,-0.081 0.392,0.78 0.179,1.075 -0.547,0.761 -1.588,1.038 -2.206,1.742 -0.63,0.72 -1.308,1.519 -1.477,2.461 -0.3,1.673 -0.263,3.441 0.121,5.097 0.243,1.051 0.878,2.056 1.7,2.756 1.114,0.947 2.554,1.439 3.902,2.009 1.547,0.653 3.08,1.666 4.76,1.652 2.327,-0.02 4.66,-0.745 6.759,-1.75 1.257,-0.602 1.6,-2.995 2.992,-2.92 1.177,0.063 1.327,2.013 1.577,3.165 0.086,0.394 -0.545,0.622 -0.671,1.005 -0.112,0.343 -0.164,0.755 -0.014,1.084 0.48,1.048 1.023,2.119 1.849,2.922 0.378,0.366 1.036,0.531 1.535,0.365 0.591,-0.196 1.126,-0.726 1.324,-1.316 0.322,-0.955 0.374,-2.042 0.134,-3.02 -0.345,-1.411 -1.344,-2.585 -1.841,-3.95 -0.127,-0.348 -0.144,-0.77 0,-1.112 0.395,-0.943 0.945,-1.826 1.571,-2.634 0.605,-0.78 1.31,-1.495 2.095,-2.095 0.814,-0.621 1.7,-1.179 2.66,-1.537 0.199,-0.074 0.409,0.175 0.533,0.347 0.46,0.642 0.884,1.321 1.186,2.051 0.657,1.584 1.394,3.172 1.678,4.863 0.284,1.684 0.268,3.436 0.002,5.123 -0.568,3.599 -1.55,7.122 -2.489,10.642 -0.521,1.95 -1.073,3.906 -1.885,5.754 -2.818,6.418 -5.775,12.781 -8.991,19.008 -0.913,1.77 -2.137,3.369 -3.371,4.932 -0.123,0.155 -0.39,0.097 -0.588,0.084 -16.871,-1.113 -33.727,-2.466 -50.606,-3.462 -13.214,-0.78 -26.438,-1.41 -39.667,-1.863 -35.663,-1.223 -71.342,-1.984 -107.007,-3.164 -31.262,-1.035 -62.494,-3.208 -93.772,-3.479 -35.082,-0.304 -70.16,1.037 -105.237,1.755 -29.59,0.606 -59.17,1.748 -88.763,2.217 -17.329,0.275 -34.662,0.056 -51.993,0.013 -0.677,-0.002 -1.375,0.037 -2.026,-0.147 -0.377,-0.107 -0.56,-0.636 -0.947,-0.694 -0.47,-0.071 -1.506,-0.115 -1.384,0.345 0.255,0.965 1.249,1.587 2.052,2.18 0.361,0.266 0.862,0.301 1.311,0.303 26.664,0.103 53.332,0.407 79.994,0.013 40.344,-0.597 80.665,-2.297 121.007,-2.985 17.993,-0.307 35.995,-0.39 53.986,0 12.353,0.267 24.672,1.393 37.014,1.972 1.661,0.078 3.338,0.193 4.99,-10e-4 0.73,-0.086 1.31,-0.835 2.045,-0.827 4.047,0.049 8.059,0.781 12.1,0.995 10.485,0.555 20.978,0.951 31.471,1.311 42.766,1.468 85.55,2.45 128.307,4.172 14.91,0.601 29.798,1.678 44.677,2.799 8.137,0.613 16.221,1.853 24.363,2.402 0.407,0.028 0.61,-0.624 1.014,-0.69 1.323,-0.216 2.682,-0.238 4.019,-0.133 19.35,1.509 38.65,3.654 58.014,4.972 4.985,0.339 9.994,0.139 14.989,-0.002 M 337,527.543 c 0,0 0,0 0,0 0.049,-1.356 -0.067,-2.729 0.148,-4.069 0.113,-0.704 0.84,-1.262 0.821,-1.974 -0.028,-1.05 -0.937,-1.953 -0.954,-3.003 -0.306,-18.664 -0.311,-37.334 -0.014,-55.997 0.027,-1.696 1.05,-3.298 0.984,-4.993 -0.305,-7.852 -1.197,-15.673 -2.09,-23.48 -0.1,-0.876 -0.31,-1.823 -0.88,-2.496 -0.342,-0.404 -1.166,-0.737 -1.544,-0.366 -0.564,0.554 -0.5,1.538 -0.456,2.328 0.466,8.349 1.708,16.65 1.983,25.007 0.056,1.698 -0.969,3.301 -0.997,5 -0.305,18.331 -0.047,36.667 0,55 0.002,0.677 -0.028,1.372 0.146,2.026 0.101,0.378 0.669,0.584 0.652,0.974 -0.032,0.716 -0.733,1.288 -0.784,2.003 -0.213,2.99 -0.138,5.999 0,8.993 0.024,0.52 0.208,1.043 0.482,1.484 0.229,0.369 0.553,0.763 0.975,0.862 0.457,0.106 1.274,0.144 1.37,-0.314 m 391.11,-13.008 c 0,0 0,0 0,0 0.3,-0.33 0.835,-0.548 0.9,-0.989 0.293,-1.987 0.361,-4.029 0.134,-6.024 -0.346,-3.043 -1.799,-5.939 -1.841,-9.002 -0.024,-1.74 0.988,-3.343 1.649,-4.953 0.531,-1.295 1.179,-2.547 1.918,-3.737 0.266,-0.427 0.612,-0.852 1.067,-1.066 2.177,-1.025 4.328,-2.487 6.731,-2.602 3.163,-0.152 6.273,0.973 9.321,1.83 1.212,0.341 2.299,1.049 3.354,1.736 0.518,0.337 1.07,0.739 1.317,1.305 0.338,0.774 0.678,1.731 0.349,2.508 -0.592,1.399 -1.66,2.636 -2.898,3.518 -2.26,1.61 -4.765,2.944 -7.399,3.818 -1.291,0.428 -2.811,0.478 -4.08,-0.011 -1.242,-0.478 -1.782,-2.05 -2.947,-2.693 -0.409,-0.226 -1.095,-0.068 -1.368,0.312 -0.325,0.455 -0.403,1.238 -0.055,1.675 1.185,1.492 2.598,2.949 4.342,3.717 1.255,0.552 2.822,0.467 4.113,0.004 3.063,-1.1 5.901,-2.795 8.625,-4.577 1.222,-0.801 2.177,-1.967 3.101,-3.099 0.647,-0.793 1.254,-1.664 1.577,-2.636 0.222,-0.667 0.222,-1.441 0,-2.108 -0.323,-0.972 -0.949,-1.828 -1.577,-2.636 -0.61,-0.784 -1.259,-1.589 -2.108,-2.103 -1.762,-1.066 -3.675,-1.889 -5.617,-2.572 -0.552,-0.194 -1.205,-0.217 -1.756,-0.02 -0.538,0.191 -0.733,1.127 -1.304,1.11 -0.767,-0.023 -1.225,-0.988 -1.96,-1.207 -0.664,-0.199 -1.416,-0.199 -2.08,0 -0.736,0.22 -1.194,1.186 -1.962,1.209 -0.757,0.023 -1.244,-1.196 -1.993,-1.089 -0.859,0.123 -1.184,1.38 -2.005,1.661 -0.367,0.126 -0.602,-0.526 -0.973,-0.642 -0.335,-0.105 -0.754,-0.174 -1.054,0.009 -0.316,0.193 -0.276,0.714 -0.546,0.967 -1,0.942 -1.864,2.809 -3.218,2.577 -1.445,-0.249 -1.362,-2.738 -2.568,-3.571 -0.486,-0.336 -1.058,0.732 -1.644,0.66 -0.362,-0.045 -0.296,-0.692 -0.569,-0.933 -0.734,-0.647 -1.441,-1.494 -2.4,-1.688 -0.711,-0.144 -1.302,0.791 -2.028,0.791 -0.726,0 -1.313,-0.918 -2.028,-0.791 -0.876,0.156 -1.661,0.816 -2.18,1.538 -0.183,0.255 0.443,0.485 0.507,0.791 0.029,0.139 -0.136,0.287 -0.272,0.328 -0.465,0.14 -1.298,-0.274 -1.446,0.189 -1.076,3.362 -1.931,6.881 -1.948,10.412 -0.009,1.925 0.726,3.918 1.872,5.465 0.349,0.47 1.125,-0.468 1.497,-0.92 0.331,-0.402 0.459,-0.965 0.483,-1.485 0.138,-2.994 0.213,-6.003 0,-8.993 -0.051,-0.714 -0.738,-1.286 -0.783,-2.001 -0.02,-0.33 0.341,-0.589 0.609,-0.784 0.827,-0.603 1.663,-1.256 2.635,-1.58 0.666,-0.222 1.451,-0.249 2.108,0 2.505,0.952 5.59,1.413 7.217,3.542 0.83,1.087 -1.36,2.422 -1.637,3.761 -0.276,1.334 -0.169,2.736 0.013,4.085 0.054,0.399 0.776,0.612 0.676,1.003 -0.28,1.087 -1.328,1.852 -1.685,2.917 -0.221,0.657 -0.137,1.402 0.01,2.08 0.082,0.382 0.647,0.583 0.651,0.974 0.005,0.403 -0.708,0.639 -0.628,1.034 0.605,2.975 1.584,5.869 2.612,8.726 0.102,0.283 0.43,0.475 0.724,0.54 m 188.271,-2.092 c 0,0 0,0 0,0 1.895,-0.558 3.913,-0.799 5.684,-1.674 1.27,-0.629 2.008,-2.058 3.248,-2.745 0.275,-0.152 0.483,0.457 0.792,0.509 0.184,0.03 0.337,-0.171 0.472,-0.298 0.318,-0.3 0.755,-0.554 0.877,-0.974 0.19,-0.657 0.365,-1.474 0,-2.052 -0.934,-1.481 -2.243,-2.743 -3.667,-3.762 -1.96,-1.403 -4.325,-2.146 -6.368,-3.424 -0.64,-0.4 -1.012,-1.135 -1.626,-1.573 -1.731,-1.236 -3.688,-2.142 -5.38,-3.43 -0.958,-0.729 -3.221,-1.606 -2.522,-2.586 1.292,-1.81 4.023,-1.965 6.175,-2.532 0.391,-0.103 0.632,0.626 1.037,0.632 0.389,0.007 0.655,-0.776 1,-0.598 1.179,0.606 1.805,2.013 2.972,2.641 0.411,0.22 1.034,0.019 1.362,-0.312 0.255,-0.257 0.194,-0.767 0.022,-1.085 -0.635,-1.176 -1.308,-2.416 -2.358,-3.243 -0.304,-0.24 -0.611,0.621 -0.998,0.597 -0.716,-0.044 -1.291,-0.705 -2.003,-0.784 -1.346,-0.148 -2.727,-0.124 -4.059,0.116 -1.945,0.352 -3.905,0.814 -5.697,1.648 -0.698,0.325 -1.774,0.987 -1.541,1.721 0.692,2.176 2.099,4.216 3.881,5.644 4.652,3.728 10.122,6.305 15.109,9.573 0.278,0.183 0.538,0.444 0.651,0.758 0.119,0.329 0.12,0.721 0,1.05 -0.116,0.318 -0.367,0.608 -0.665,0.766 -1.819,0.967 -3.642,1.993 -5.617,2.575 -0.987,0.29 -2.071,0.153 -3.085,-0.014 -0.386,-0.063 -0.584,-0.649 -0.974,-0.651 -0.389,-0.002 -0.602,0.525 -0.973,0.642 -0.335,0.106 -0.714,0.089 -1.055,0 -0.572,-0.151 -1.059,-0.864 -1.63,-0.706 -0.706,0.194 -0.845,1.315 -1.528,1.576 -0.29,0.11 -0.156,-0.641 -0.389,-0.845 -1.609,-1.414 -3.549,-2.44 -5.069,-3.948 -1.051,-1.044 -1.329,-2.814 -2.565,-3.63 -0.458,-0.302 -1,0.654 -1.143,1.184 -0.264,0.981 -0.574,2.211 10e-4,3.05 1.132,1.651 2.966,2.726 4.674,3.769 1.773,1.083 3.613,2.391 5.683,2.558 2.009,0.161 3.806,-1.593 5.821,-1.632 m -490.315,-0.743 c 0,0 0,0 0,0 0.416,-0.409 0.956,-0.722 1.249,-1.227 0.674,-1.16 1.46,-2.357 1.605,-3.691 0.399,-3.684 0.402,-7.433 0,-11.117 -0.145,-1.327 -0.958,-2.504 -1.616,-3.666 -0.247,-0.435 -0.653,-0.77 -1.06,-1.06 -0.833,-0.595 -1.632,-1.374 -2.636,-1.577 -1.659,-0.337 -3.546,-0.705 -5.08,0.01 -1.843,0.86 -3.122,2.676 -4.273,4.351 -0.22,0.32 0.578,0.612 0.597,0.999 0.015,0.315 -0.631,0.506 -0.51,0.797 0.256,0.617 1.276,0.758 1.424,1.409 0.142,0.627 -0.621,1.161 -0.697,1.799 -0.119,1.011 -0.245,2.102 0.123,3.051 0.487,1.256 1.199,2.577 2.338,3.296 0.673,0.426 1.91,0.33 2.367,-0.322 0.589,-0.842 0.349,-2.109 0.019,-3.082 -0.598,-1.767 -1.949,-3.191 -2.718,-4.89 -0.153,-0.338 -0.174,-0.785 0,-1.112 0.629,-1.19 1.199,-2.569 2.332,-3.295 0.849,-0.544 2.016,-0.216 3.021,-0.134 0.528,0.044 1.1,0.166 1.507,0.506 0.458,0.382 0.801,0.946 0.929,1.528 0.826,3.767 1.845,7.554 1.907,11.41 0.014,0.876 -1.414,1.183 -1.691,2.015 -0.322,0.964 -0.214,2.057 0,3.051 m 51.308,-0.711 c 0,0 0,0 0,0 0.461,-0.452 1.397,-0.71 1.383,-1.356 -0.078,-3.622 -0.904,-7.198 -1.642,-10.745 -0.059,-0.283 -0.431,-0.611 -0.702,-0.51 -0.579,0.215 -1.239,0.663 -1.347,1.271 -0.412,2.305 -0.302,4.687 -0.134,7.022 0.051,0.715 0.712,1.289 0.783,2.002 0.031,0.31 -0.687,0.532 -0.506,0.786 m -22.34,1.236 c 0,0 0,0 0,0 0.3,-0.33 0.754,-0.568 0.9,-0.989 0.222,-0.641 0.147,-1.352 0.147,-2.031 0,-1.343 0.065,-2.7 -0.147,-4.026 -0.061,-0.386 -0.641,-0.584 -0.651,-0.974 -0.011,-0.388 0.598,-0.612 0.598,-1 0,-0.389 -0.598,-0.611 -0.598,-1 0,-0.388 0.609,-0.612 0.598,-1 -0.01,-0.39 -0.569,-0.592 -0.651,-0.974 -0.144,-0.669 -0.258,-1.419 10e-4,-2.052 0.325,-0.794 1.823,-1.136 1.65,-1.977 -0.224,-1.09 -1.422,-2.442 -2.509,-2.204 -1.26,0.277 -2.096,1.935 -2.141,3.224 -0.115,3.359 1.385,6.594 1.69,9.942 0.038,0.406 -0.583,0.618 -0.69,1.013 -0.147,0.543 -0.247,1.163 -0.042,1.687 0.28,0.715 1.09,1.123 1.415,1.819 0.086,0.186 -0.447,0.367 -0.319,0.527 m 60.266,-1.681 c 0,0 0,0 0,0 0.899,-0.506 1.927,-0.832 2.697,-1.519 0.489,-0.437 0.728,-1.107 0.941,-1.727 0.681,-1.98 1.409,-3.97 1.728,-6.039 0.062,-0.401 -0.654,-0.634 -0.634,-1.039 0.035,-0.716 0.693,-1.292 0.784,-2.004 0.128,-1.001 0.274,-2.105 -0.143,-3.024 -0.193,-0.427 -0.931,-0.477 -1.37,-0.314 -0.583,0.217 -1.095,0.737 -1.323,1.316 -0.25,0.636 -0.155,1.385 -10e-4,2.052 0.088,0.381 0.565,0.576 0.694,0.945 0.119,0.341 0.142,0.746 0.014,1.084 -0.83,2.178 -1.525,4.469 -2.858,6.382 -0.291,0.418 -1.083,0.162 -1.528,-0.088 -1.186,-0.669 -2.341,-1.492 -3.178,-2.565 -0.201,-0.258 0.612,-0.502 0.536,-0.82 -0.326,-1.384 -1.381,-2.535 -1.657,-3.93 -0.079,-0.398 0.593,-0.612 0.681,-1.008 0.148,-0.668 0.19,-1.395 -10e-4,-2.052 -0.122,-0.42 -0.488,-0.775 -0.877,-0.974 -0.29,-0.148 -0.743,-0.202 -0.977,0.025 -0.99,0.959 -1.387,2.464 -2.472,3.316 -0.358,0.281 -1.118,0.07 -1.325,-0.336 -0.179,-0.349 0.569,-0.596 0.652,-0.979 0.148,-0.679 0.201,-1.416 0.013,-2.085 -0.383,-1.366 -1.395,-2.519 -1.694,-3.907 -0.085,-0.394 0.631,-0.631 0.628,-1.034 -0.002,-0.408 -0.679,-0.636 -0.639,-1.042 0.658,-6.66 2.087,-13.231 2.707,-19.895 0.067,-0.719 -0.661,-1.34 -0.666,-2.063 -0.003,-0.388 0.642,-0.584 0.642,-0.973 0,-0.709 -0.664,-1.319 -0.642,-2.027 0.022,-0.714 0.768,-1.286 0.768,-2 0,-0.714 -0.728,-1.287 -0.768,-2 -0.022,-0.388 0.598,-0.612 0.598,-1 0,-0.389 -0.62,-0.612 -0.598,-1 0.04,-0.713 0.706,-1.289 0.768,-2 0.045,-0.516 -0.123,-1.094 -0.467,-1.481 -0.411,-0.463 -1.065,-1.132 -1.633,-0.884 -0.881,0.385 -1.5,1.394 -1.691,2.337 -0.145,0.714 0.754,1.305 0.807,2.031 0.219,2.99 0.213,6.003 0,8.993 -0.051,0.716 -0.782,1.287 -0.784,2.004 -0.003,0.713 0.851,1.288 0.769,1.997 -0.275,2.382 -1.47,4.59 -1.805,6.964 -0.057,0.402 0.551,0.626 0.678,1.011 0.11,0.334 0.114,0.723 0,1.055 -0.127,0.368 -0.68,0.557 -0.686,0.946 -0.01,0.708 0.667,1.319 0.642,2.027 -0.025,0.717 -0.741,1.288 -0.784,2.003 -0.182,3.014 -0.469,6.096 0.117,9.058 0.664,3.354 2.247,6.465 3.577,9.616 0.132,0.311 0.428,0.649 0.766,0.664 0.63,0.028 1.297,-0.917 1.809,-0.549 1.29,0.925 1.623,2.785 2.797,3.853 m -67.344,1.581 c 0,0 0,0 0,0 2.144,-0.809 4.397,-1.373 6.432,-2.427 0.721,-0.374 1.35,-1.027 1.673,-1.772 0.186,-0.429 0.042,-1.061 -0.311,-1.368 -0.382,-0.331 -1.241,0.225 -1.503,-0.207 -0.989,-1.629 -1.432,-3.544 -1.896,-5.391 -0.17,-0.675 -0.139,-1.409 0.016,-2.087 0.091,-0.399 0.731,-0.608 0.691,-1.015 -0.299,-3.01 -1.379,-5.908 -1.678,-8.918 -0.04,-0.407 0.608,-0.614 0.691,-1.015 0.206,-0.989 0.148,-2.016 0.148,-3.026 0,-1.343 0.072,-2.701 -0.148,-4.026 -0.066,-0.403 -0.741,-0.609 -0.689,-1.014 0.301,-2.349 1.429,-4.545 1.702,-6.897 0.083,-0.717 -0.626,-1.341 -0.663,-2.061 -0.016,-0.321 0.586,-0.5 0.515,-0.813 -0.111,-0.493 -1.004,-0.668 -0.961,-1.171 0.065,-0.773 1.041,-1.224 1.226,-1.978 0.241,-0.983 0.158,-2.036 0.003,-3.037 -0.11,-0.708 -0.746,-1.287 -0.784,-2.003 -0.022,-0.4 0.722,-0.641 0.622,-1.029 -0.281,-1.088 -1.64,-1.819 -1.646,-2.943 -0.004,-0.866 1.82,-1.188 1.622,-2.031 -0.271,-1.153 -1.619,-1.787 -2.655,-2.362 -0.304,-0.169 -0.764,0.071 -0.986,0.34 -0.22,0.267 -0.141,0.682 -0.142,1.029 -0.003,1.008 -0.06,2.032 0.132,3.022 0.136,0.703 0.794,1.263 0.837,1.977 0.239,3.99 0.205,7.999 10e-4,11.99 -0.395,7.744 -0.609,15.53 -1.796,23.193 -0.093,0.6 -1.087,-0.643 -1.694,-0.67 -0.84,-0.038 -1.774,0.021 -2.478,0.482 -1.291,0.844 -2.45,1.969 -3.267,3.277 -0.891,1.425 -1.396,3.086 -1.737,4.731 -0.206,0.996 -0.179,2.077 0.124,3.048 0.395,1.268 0.836,2.718 1.915,3.492 m 129.899,1.474 c 0,0 0,0 0,0 0.299,-0.329 0.749,-0.568 0.898,-0.987 0.186,-0.523 0.396,-1.234 0.046,-1.666 -1.473,-1.819 -3.801,-2.838 -5.209,-4.709 -1.233,-1.638 -2.066,-3.606 -2.548,-5.599 -0.168,-0.696 0.673,-1.316 0.704,-2.032 0.026,-0.618 -0.923,-1.289 -0.542,-1.776 0.727,-0.929 2.015,-1.319 3.165,-1.58 0.393,-0.089 0.631,0.634 1.034,0.628 0.592,-0.008 1.074,-0.818 1.646,-0.666 0.939,0.251 1.378,1.642 2.346,1.731 0.639,0.059 1.465,-0.764 1.331,-1.392 -0.279,-1.308 -1.279,-2.436 -2.325,-3.27 -0.303,-0.242 -0.601,0.524 -0.971,0.641 -0.335,0.106 -0.72,0.108 -1.055,0 -0.381,-0.123 -0.621,-0.794 -1,-0.666 -1.925,0.649 -4.224,1.167 -5.4,2.823 -1.491,2.099 -2.056,4.912 -1.921,7.484 0.093,1.781 1.491,3.272 2.56,4.7 0.879,1.173 3.258,1.541 3.211,3.007 -0.041,1.25 -2.131,1.442 -3.361,1.671 -0.709,0.132 -1.34,-0.657 -2.061,-0.661 -0.388,-0.003 -0.602,0.524 -0.971,0.641 -0.344,0.11 -0.75,0.153 -1.084,0.014 -0.935,-0.388 -1.848,-0.884 -2.611,-1.549 -0.7,-0.609 -0.919,-1.703 -1.701,-2.203 -0.466,-0.298 -1.169,-0.2 -1.66,0.056 -0.308,0.161 -0.47,0.664 -0.338,0.985 0.452,1.103 1.163,2.106 1.967,2.986 0.656,0.717 1.406,1.479 2.344,1.731 1.314,0.352 2.732,0.167 4.08,-0.01 0.387,-0.05 0.584,-0.669 0.974,-0.651 0.716,0.032 1.29,0.707 2.003,0.784 1.334,0.144 2.698,0.075 4.023,-0.133 0.386,-0.06 0.583,-0.641 0.974,-0.651 0.39,-0.01 0.624,0.517 1.005,0.601 m -25.049,0.013 c 0,0 0,0 0,0 0.469,-0.441 1.595,-0.708 1.409,-1.325 -0.387,-1.281 -2.08,-1.782 -2.706,-2.965 -0.241,-0.455 0.086,-1.058 0.339,-1.506 0.33,-0.585 1.012,-0.914 1.353,-1.493 0.176,-0.298 0.128,-0.683 0.134,-1.029 0.038,-2.331 0.126,-4.666 -10e-4,-6.993 -0.026,-0.473 -0.059,-1.085 -0.455,-1.345 -0.465,-0.306 -1.201,-0.352 -1.669,-0.051 -0.685,0.441 -1.126,1.242 -1.381,2.016 -0.987,2.997 -0.769,6.425 -2.306,9.181 -0.647,1.159 -2.346,1.59 -3.673,1.542 -1.288,-0.047 -2.888,-0.628 -3.422,-1.801 -0.772,-1.7 -0.304,-3.769 0.06,-5.6 0.199,-1.005 0.949,-1.828 1.577,-2.636 0.494,-0.635 0.966,-1.513 1.757,-1.652 1.029,-0.181 1.987,0.722 3.028,0.81 0.467,0.04 1.246,0.021 1.335,-0.439 0.138,-0.722 -0.271,-1.592 -0.861,-2.029 -0.403,-0.298 -1.026,0.524 -1.475,0.299 -1.015,-0.509 -1.61,-1.612 -2.515,-2.299 -0.291,-0.22 -0.768,-0.645 -1.026,-0.386 -0.911,0.914 -1.199,2.291 -1.93,3.353 -0.346,0.502 -0.971,0.781 -1.277,1.308 -0.672,1.154 -1.4,2.348 -1.617,3.666 -0.329,2.002 -0.235,4.072 0.014,6.085 0.077,0.623 0.423,1.276 0.94,1.631 1.607,1.105 3.318,2.247 5.233,2.615 0.687,0.132 0.981,-1.098 1.653,-1.292 0.511,-0.148 1.026,0.431 1.553,0.363 0.386,-0.05 0.577,-0.56 0.946,-0.686 0.332,-0.114 0.744,-0.165 1.054,0.001 m 304.992,1.888 c 0,0 0,0 0,0 -0.411,-0.416 -0.675,-1.075 -1.234,-1.249 -3.848,-1.196 -8.076,-1.168 -11.764,-2.793 -0.789,-0.347 -0.589,-1.721 -0.383,-2.558 0.268,-1.09 1.251,-1.874 1.724,-2.892 0.149,-0.32 0.204,-0.714 0.109,-1.054 -0.452,-1.614 -1.027,-3.2 -1.724,-4.725 -0.132,-0.289 -0.417,-0.531 -0.721,-0.623 -0.502,-0.153 -1.196,-0.437 -1.572,-0.072 -0.915,0.887 -1.451,2.142 -1.819,3.362 -0.295,0.975 -0.249,2.044 -0.12,3.054 0.117,0.919 1.073,1.749 0.845,2.646 -0.186,0.734 -1.211,0.912 -1.851,1.316 -0.797,0.504 -1.562,1.101 -2.455,1.404 -0.648,0.22 -1.378,0.26 -2.047,0.123 -1.948,-0.4 -4.009,-0.692 -5.713,-1.716 -0.908,-0.547 -1.406,-1.685 -1.656,-2.715 -0.323,-1.331 -0.312,-2.775 0,-4.108 0.233,-0.997 0.959,-1.82 1.577,-2.636 0.511,-0.676 1.174,-1.222 1.785,-1.809 0.309,-0.297 0.576,-0.678 0.972,-0.843 0.325,-0.135 0.767,-0.201 1.055,0 1.566,1.087 2.702,2.742 4.327,3.738 0.476,0.293 1.221,0.27 1.675,-0.055 0.381,-0.273 0.568,-0.977 0.313,-1.369 -0.954,-1.463 -2.32,-2.627 -3.652,-3.757 -0.781,-0.662 -1.664,-1.254 -2.636,-1.577 -0.667,-0.222 -1.468,-0.291 -2.108,0 -1.379,0.627 -2.847,1.387 -3.697,2.641 -1.34,1.974 -1.934,4.376 -2.615,6.662 -0.201,0.677 -0.189,1.438 0,2.117 0.36,1.287 0.993,2.486 1.616,3.667 0.368,0.697 0.795,1.38 1.344,1.945 0.415,0.427 0.939,0.765 1.495,0.976 1.931,0.733 3.898,1.404 5.918,1.839 0.668,0.144 1.407,0.117 2.047,-0.123 1.051,-0.393 1.83,-1.36 2.892,-1.724 0.656,-0.225 1.433,-0.23 2.08,0.02 0.356,0.137 0.282,0.738 0.561,1 0.491,0.462 1.071,0.842 1.689,1.114 1.534,0.677 3.068,1.49 4.73,1.714 2.64,0.355 5.33,0.137 7.99,-0.002 0.464,-0.024 0.965,-0.169 1.307,-0.483 m -148.006,-0.809 c 0,0 0,0 0,0 0.883,-0.517 1.633,-1.423 2.647,-1.549 1.05,-0.13 2.006,0.748 3.059,0.842 1.678,0.148 3.428,0.327 5.051,-0.123 1.692,-0.468 3.264,-1.422 4.608,-2.552 0.826,-0.695 1.472,-1.701 1.7,-2.756 0.36,-1.664 0.34,-3.44 0,-5.108 -0.204,-1.004 -0.943,-1.832 -1.577,-2.636 -1.343,-1.702 -2.69,-3.436 -4.331,-4.853 -0.972,-0.84 -2.167,-1.448 -3.396,-1.822 -0.858,-0.262 -1.886,-0.429 -2.692,-0.033 -0.822,0.405 -0.933,1.642 -1.675,2.18 -1.086,0.788 -2.487,1.029 -3.656,1.689 -0.341,0.192 -0.602,0.515 -0.82,0.839 -0.58,0.863 -1.732,1.675 -1.561,2.7 0.583,3.49 2.955,6.493 3.675,9.956 0.128,0.614 -0.728,1.153 -1.329,1.333 -0.372,0.112 -0.602,-0.525 -0.973,-0.642 -0.335,-0.106 -0.72,-0.11 -1.055,0 -0.385,0.127 -0.612,0.755 -1.011,0.678 -2.95,-0.571 -6.029,-1.072 -8.646,-2.549 -1.477,-0.834 -2.211,-2.597 -3.065,-4.062 -1.047,-1.796 -2.605,-3.588 -2.606,-5.668 -10e-4,-3.371 1.072,-6.769 2.603,-9.773 2.052,-4.028 5.174,-7.42 7.968,-10.973 0.902,-1.147 1.964,-2.174 3.095,-3.095 0.793,-0.645 1.669,-1.232 2.634,-1.571 0.43,-0.151 0.939,-0.011 1.358,0.169 0.938,0.401 1.666,1.249 2.643,1.543 0.455,0.138 1.142,0.079 1.389,-0.327 0.251,-0.411 -0.057,-1.011 -0.335,-1.404 -0.692,-0.981 -1.524,-1.89 -2.492,-2.602 -0.434,-0.319 -1.04,-0.491 -1.568,-0.386 -1.622,0.323 -3.425,0.56 -4.685,1.631 -3.431,2.92 -6.227,6.528 -9.041,10.047 -1.203,1.503 -2.066,3.253 -2.96,4.958 -0.967,1.844 -2.206,3.631 -2.615,5.673 -0.528,2.633 -0.14,5.369 -0.137,8.054 10e-4,0.676 -0.218,1.455 0.148,2.024 0.607,0.945 1.922,1.267 2.559,2.192 0.177,0.257 -0.455,0.479 -0.506,0.787 -0.03,0.183 0.169,0.338 0.298,0.472 1.731,1.785 3.305,3.757 5.275,5.274 1.058,0.816 2.34,1.458 3.666,1.617 M 541.729,510.66 c 0,0 0,0 0,0 0.04,-1.396 0.282,-2.801 0.121,-4.188 -0.082,-0.71 -0.788,-1.262 -0.835,-1.976 -0.239,-3.657 -0.051,-7.331 -0.014,-10.996 0.007,-0.677 -0.031,-1.373 0.146,-2.026 0.106,-0.389 0.772,-0.611 0.676,-1.003 -0.269,-1.091 -1.652,-1.819 -1.646,-2.943 0.005,-0.87 1.342,-1.198 1.674,-2.002 0.261,-0.632 0.15,-1.385 10e-4,-2.052 -0.089,-0.398 -0.744,-0.609 -0.687,-1.013 0.288,-2.031 1.382,-3.891 1.67,-5.922 0.057,-0.404 -0.58,-0.619 -0.688,-1.013 -0.179,-0.653 -0.145,-1.349 -0.145,-2.026 0,-0.677 -0.016,-1.369 0.146,-2.026 0.17,-0.695 0.751,-1.267 0.837,-1.978 0.198,-1.652 0.193,-3.34 0,-4.993 -0.085,-0.729 -0.895,-1.313 -0.823,-2.044 0.275,-2.8 0.96,-5.565 1.832,-8.241 0.259,-0.798 0.777,-1.603 1.507,-2.016 0.339,-0.191 0.624,0.508 1.003,0.596 0.135,0.032 0.378,-0.183 0.295,-0.295 -0.653,-0.874 -1.4,-1.7 -2.273,-2.354 -0.276,-0.207 -0.69,-0.192 -1.026,-0.118 -0.61,0.134 -1.402,0.191 -1.729,0.723 -0.867,1.413 -1.341,3.072 -1.604,4.709 -0.067,0.419 0.698,0.656 0.675,1.08 -0.318,5.989 -1.368,11.925 -1.684,17.914 -0.022,0.407 0.554,0.627 0.684,1.013 0.117,0.345 0.076,0.732 0.025,1.093 -0.559,3.99 -1.36,7.945 -1.852,11.944 -0.083,0.669 -0.039,1.367 0.132,2.019 0.099,0.378 0.669,0.584 0.652,0.974 -0.032,0.716 -0.752,1.287 -0.784,2.003 -0.192,4.348 -0.331,8.727 0.119,13.056 0.138,1.328 0.978,2.494 1.619,3.666 0.151,0.277 0.413,0.547 0.721,0.615 m -75.621,-0.296 c 0,0 0,0 0,0 0.377,-1.016 0.921,-1.985 1.131,-3.048 0.13,-0.663 0.039,-1.369 -0.132,-2.022 -0.098,-0.378 -0.716,-0.589 -0.651,-0.975 0.088,-0.528 0.831,-0.739 1.02,-1.24 0.702,-1.853 1.341,-3.758 1.614,-5.72 0.056,-0.402 -0.55,-0.625 -0.678,-1.01 -0.113,-0.343 -0.156,-0.752 -0.014,-1.084 0.442,-1.03 1.355,-1.831 1.719,-2.891 0.225,-0.656 0.25,-1.438 -0.011,-2.08 -0.232,-0.573 -0.761,-1.081 -1.348,-1.272 -0.304,-0.098 -0.67,0.28 -0.758,0.588 -1.691,5.917 -2.331,12.149 -4.526,17.898 -0.322,0.846 -1.151,-1.45 -1.421,-2.314 -1.18,-3.775 -1.419,-7.839 -2.898,-11.507 -0.448,-1.11 -2.15,-1.305 -2.698,-2.369 -0.257,-0.499 1.035,-1.102 0.684,-1.54 -0.793,-0.988 -2.093,-1.657 -3.353,-1.787 -0.628,-0.064 -1.057,0.757 -1.375,1.302 -0.177,0.302 -0.26,0.817 10e-4,1.051 1.113,1.002 2.616,1.476 3.811,2.378 0.667,0.504 1.335,1.076 1.736,1.81 0.117,0.214 -0.491,0.365 -0.42,0.599 0.147,0.482 1.001,0.668 0.958,1.17 -0.065,0.773 -1.023,1.23 -1.226,1.979 -0.18,0.666 -0.042,1.398 0.129,2.066 0.098,0.378 0.646,0.583 0.652,0.974 0.006,0.4 -0.736,0.644 -0.621,1.028 0.687,2.304 1.553,4.612 2.899,6.604 0.811,1.199 2.092,2.079 3.395,2.71 0.464,0.224 1.056,-0.093 1.508,-0.339 m 25.789,-1.783 c 0,0 0,0 0,0 1.232,-0.564 2.55,-0.97 3.697,-1.691 0.575,-0.362 1.14,-0.865 1.376,-1.502 0.162,-0.439 0.091,-1.134 -0.315,-1.369 -0.601,-0.349 -1.417,-0.215 -2.086,-0.024 -1.362,0.39 -2.521,1.339 -3.883,1.731 -0.676,0.195 -1.447,0.229 -2.112,-0.003 -1.018,-0.356 -1.997,-0.928 -2.754,-1.697 -0.711,-0.722 -1.629,-1.629 -1.515,-2.637 0.116,-1.026 1.54,-1.419 2.073,-2.304 1.088,-1.807 1.258,-4.207 2.749,-5.7 0.597,-0.599 1.653,0.409 2.499,0.445 0.418,0.018 1.183,0.127 1.22,-0.289 0.064,-0.724 -0.437,-1.497 -1.024,-1.926 -1.117,-0.817 -2.556,-2.175 -3.823,-1.619 -1.737,0.763 -2.401,2.985 -3.203,4.704 -1.129,2.42 -1.863,5.016 -2.535,7.6 -0.175,0.674 -0.319,1.477 0.016,2.087 0.607,1.105 1.588,2.007 2.626,2.723 1.099,0.759 2.359,1.342 3.666,1.617 m -84.479,-0.355 c 0,0 0,0 0,0 0.631,-1.672 1.886,-3.229 1.893,-5.016 0.011,-3.063 -1.443,-5.965 -1.841,-9.002 -0.174,-1.329 -0.075,-2.695 0.133,-4.019 0.061,-0.386 0.753,-0.597 0.652,-0.975 -0.159,-0.595 -0.692,-1.132 -1.272,-1.341 -0.484,-0.175 -1.06,0.082 -1.506,0.339 -0.374,0.216 -0.813,0.571 -0.82,1.002 -0.012,0.715 0.777,1.287 0.768,2.001 -0.013,1.056 -0.959,2.011 -0.83,3.059 0.174,1.408 1.405,2.517 1.69,3.907 0.082,0.397 -0.576,0.616 -0.682,1.008 -0.175,0.652 -0.223,1.353 -0.131,2.022 0.143,1.038 0.943,1.991 0.826,3.031 -0.07,0.619 -0.709,1.185 -1.316,1.324 -1.632,0.376 -3.356,0.299 -5.023,0.134 -0.71,-0.071 -1.262,-0.799 -1.976,-0.828 -0.72,-0.029 -1.349,0.807 -2.056,0.666 -1.119,-0.224 -1.847,-1.688 -2.989,-1.674 -3.958,0.048 -7.847,1.087 -11.731,1.852 -0.921,0.182 -2.256,0.123 -2.641,0.98 -0.316,0.701 0.607,1.718 1.363,1.861 1.347,0.255 2.657,-0.781 4.027,-0.841 4.994,-0.217 10.003,-0.22 14.996,0.014 0.717,0.034 1.288,0.74 2.004,0.784 0.388,0.024 0.612,-0.598 1,-0.598 0.388,0 0.612,0.62 1,0.598 0.713,-0.04 1.286,-0.769 2,-0.768 0.717,10e-4 1.304,0.636 2.008,0.773 m 386.261,-1.084 c 0,0 0,0 0,0 1.232,-0.564 2.556,-0.961 3.697,-1.691 0.569,-0.365 1.156,-0.876 1.333,-1.529 0.107,-0.391 -0.702,-0.639 -0.634,-1.039 0.611,-3.627 1.582,-7.189 2.616,-10.719 0.085,-0.289 0.407,-0.486 0.693,-0.582 0.343,-0.117 0.742,-0.135 1.085,-0.021 1.348,0.45 2.5,1.549 3.914,1.689 0.449,0.044 -0.335,-0.88 -0.272,-1.328 0.053,-0.384 0.599,-0.611 0.597,-0.998 -0.002,-0.331 -0.341,-0.59 -0.609,-0.784 -0.827,-0.602 -1.615,-1.486 -2.634,-1.574 -1.566,-0.136 -3.639,-0.284 -4.62,0.944 -1.831,2.294 -2.219,5.472 -2.799,8.35 -0.146,0.721 0.805,1.369 0.693,2.096 -0.203,1.323 -0.951,2.51 -1.582,3.691 -0.15,0.281 -0.411,0.562 -0.724,0.626 -0.987,0.2 -2.015,0.211 -3.02,0.134 -0.518,-0.04 -1.048,-0.197 -1.483,-0.481 -1.043,-0.681 -2.398,-1.227 -2.886,-2.373 -0.364,-0.856 0.839,-1.77 0.73,-2.693 -0.245,-2.075 -1.051,-4.05 -1.758,-6.016 -0.246,-0.685 -0.634,-1.324 -1.085,-1.896 -0.419,-0.529 -0.855,-1.149 -1.494,-1.368 -0.487,-0.167 -1.083,0.048 -1.508,0.339 -0.748,0.513 -1.369,1.221 -1.87,1.977 -0.19,0.286 -0.214,0.693 -0.119,1.023 0.826,2.886 2.991,5.543 2.855,8.542 -0.057,1.262 -2.09,1.554 -3.326,1.821 -0.705,0.152 -1.338,-0.653 -2.059,-0.659 -0.405,-0.004 -0.64,0.708 -1.037,0.632 -1.935,-0.373 -3.893,-0.917 -5.594,-1.911 -0.843,-0.492 -1.291,-1.492 -1.725,-2.366 -0.165,-0.333 -0.132,-0.767 -0.004,-1.116 0.672,-1.843 1.39,-3.688 2.376,-5.383 0.47,-0.807 1.043,-1.754 1.937,-2.028 0.693,-0.213 1.302,0.707 2.02,0.813 0.46,0.068 1.113,0.081 1.361,-0.313 0.243,-0.386 0.036,-1.051 -0.326,-1.328 -0.241,-0.184 -0.529,0.695 -0.76,0.499 -0.784,-0.667 -0.712,-2.264 -1.69,-2.583 -1.062,-0.346 -2.422,0.189 -3.201,0.989 -1.453,1.492 -2.205,3.549 -3.064,5.446 -0.715,1.58 -1.819,3.213 -1.639,4.937 0.191,1.817 1.174,3.729 2.659,4.794 2.181,1.565 5.041,1.863 7.626,2.584 0.661,0.185 1.387,0.277 2.055,0.118 1.634,-0.39 3.208,-1.027 4.731,-1.735 0.51,-0.238 0.767,-1.244 1.303,-1.073 2.489,0.792 4.475,2.753 6.913,3.688 m -159.442,-0.342 c 0,0 0,0 0,0 1.186,0.114 2.388,0.563 3.559,0.342 2.98,-0.56 5.853,-1.61 8.702,-2.648 0.281,-0.103 0.637,-0.438 0.537,-0.72 -0.206,-0.582 -0.699,-1.116 -1.271,-1.348 -0.645,-0.262 -1.406,-0.156 -2.087,-0.018 -2.348,0.478 -4.562,1.609 -6.946,1.855 -3.644,0.377 -7.329,0.141 -10.99,-10e-4 -0.52,-0.02 -1.069,-0.17 -1.485,-0.483 -0.72,-0.541 -2.052,-1.132 -1.817,-2.002 0.592,-2.201 2.348,-3.94 3.873,-5.634 2.105,-2.34 4.776,-4.116 6.949,-6.394 0.726,-0.761 1.036,-1.84 1.692,-2.662 0.503,-0.631 0.983,-1.44 1.759,-1.662 1.307,-0.374 2.757,-0.327 4.08,-0.01 1.094,0.261 1.888,1.247 2.924,1.685 0.143,0.061 0.325,-0.147 0.357,-0.299 0.115,-0.541 0.374,-1.202 0.061,-1.657 -0.551,-0.798 -1.443,-1.399 -2.368,-1.689 -0.382,-0.121 -0.642,0.727 -1.028,0.621 -0.594,-0.162 -1.087,-0.709 -1.342,-1.27 -0.185,-0.408 -0.024,-0.927 0.158,-1.337 0.716,-1.613 1.952,-2.988 2.507,-4.664 0.126,-0.381 -0.704,-0.638 -0.622,-1.032 0.076,-0.365 0.705,-0.306 0.957,-0.582 0.454,-0.499 0.842,-1.072 1.114,-1.69 0.676,-1.535 1.431,-3.077 1.713,-4.73 0.141,-0.829 0.053,-1.828 -0.483,-2.476 -1.038,-1.255 -2.477,-2.18 -3.948,-2.88 -0.635,-0.302 -1.452,-0.251 -2.108,0 -1.65,0.63 -3.149,1.614 -4.631,2.575 -1.424,0.922 -2.97,1.766 -4.065,3.062 -0.861,1.021 -1.345,2.359 -1.616,3.666 -0.278,1.343 -0.306,2.778 0.004,4.113 0.228,0.987 0.847,1.886 1.554,2.611 0.722,0.741 1.9,0.923 2.616,1.669 0.701,0.732 1.676,1.637 1.515,2.638 -0.239,1.481 -1.526,2.611 -2.538,3.718 -3.37,3.686 -7.196,6.938 -10.57,10.62 -0.692,0.755 -1.254,1.664 -1.577,2.636 -0.219,0.658 -0.178,1.413 0.011,2.08 0.117,0.414 0.496,0.728 0.851,0.972 1.757,1.21 3.391,2.791 5.446,3.364 2.264,0.632 4.701,0.216 7.05,0.123 m -182.949,-0.156 c 0,0 0,0 0,0 -0.69,0.105 -1.406,0.099 -2.07,0.315 -0.388,0.126 -0.61,0.753 -1.014,0.689 -1.639,-0.262 -3.22,-0.879 -4.712,-1.605 -0.949,-0.461 -2.521,-0.859 -2.521,-1.913 0,-2.335 1.442,-4.465 2.519,-6.536 0.363,-0.7 1.015,-1.272 1.722,-1.621 0.392,-0.193 0.896,-0.025 1.305,0.129 1.02,0.384 2.118,0.73 2.923,1.465 0.221,0.202 -0.523,0.452 -0.497,0.75 0.035,0.388 0.589,0.587 0.65,0.972 0.246,1.541 -0.178,3.173 0.25,4.674 0.268,0.942 1.291,1.493 1.756,2.356 m -26.645,0.018 c 0,0 0,0 0,0 0.437,-0.119 0.926,-0.597 1.311,-0.359 0.396,0.245 0.468,0.926 0.306,1.362 -0.094,0.251 -0.576,0.116 -0.803,-0.025 m 467.5,-1.71 c 0,0 0,0 0,0 -0.12,-0.437 -0.352,-0.858 -0.359,-1.31 -0.002,-0.146 0.255,-0.405 0.332,-0.282 0.245,0.387 0.325,0.875 0.332,1.332 m -184.258,-0.68 c 0,0 0,0 0,0 -1.906,0.016 -3.868,0.503 -5.719,0.048 -0.892,-0.219 -1.444,-1.176 -1.962,-1.934 -0.555,-0.81 -0.864,-1.768 -1.203,-2.69 -0.571,-1.557 -1.704,-3.089 -1.523,-4.737 0.121,-1.098 1.281,-1.968 2.305,-2.379 0.658,-0.264 1.326,0.545 2.028,0.641 0.185,0.025 0.341,-0.167 0.473,-0.299 0.306,-0.306 0.778,-0.57 0.826,-0.999 0.044,-0.388 -0.508,-0.627 -0.6,-1.007 -0.033,-0.14 0.133,-0.332 0.277,-0.331 0.843,10e-4 1.81,-0.14 2.506,0.335 1.677,1.144 2.991,2.762 4.303,4.312 0.661,0.781 1.345,1.639 1.577,2.636 0.309,1.324 0.61,2.868 -0.011,4.078 m -201.675,0.021 c 0,0 0,0 0,0 0.108,-0.783 -0.465,-2.321 0.324,-2.347 0.783,-0.026 0.444,1.549 0.337,2.325 M 475.52,492.007 c 0,0 0,0 0,0 0.107,-0.493 0.321,-0.975 0.322,-1.48 0.002,-0.468 0.09,-1.134 -0.314,-1.369 -0.592,-0.344 -1.416,-0.258 -2.054,-0.009 -0.58,0.226 -1.113,0.735 -1.316,1.324 -0.168,0.486 0.09,1.056 0.339,1.507 0.212,0.381 0.557,0.752 0.977,0.871 0.657,0.186 1.418,0.247 2.049,-0.014 m -89.798,-7.047 c 0,0 0,0 0,0 2.571,-0.552 5.096,-1.391 7.712,-1.656 0.719,-0.073 1.341,0.686 2.063,0.665 0.717,-0.021 1.287,-0.764 2.003,-0.784 8.661,-0.242 17.333,-0.243 25.994,0 0.716,0.02 1.287,0.74 2.003,0.784 0.388,0.024 0.612,-0.62 1,-0.598 0.713,0.04 1.289,0.698 2,0.767 0.466,0.046 1.022,-0.091 1.335,-0.439 0.235,-0.261 0.117,-0.72 0.006,-1.053 -0.098,-0.292 -0.309,-0.594 -0.595,-0.705 -1.869,-0.725 -3.75,-1.65 -5.752,-1.757 -8.983,-0.482 -18.011,-0.596 -26.987,0 -5,0.332 -9.886,1.671 -14.774,2.773 -0.291,0.066 -0.48,0.405 -0.574,0.689 -0.11,0.333 -0.171,0.745 -10e-4,1.051 0.301,0.545 0.737,1.096 1.316,1.324 0.637,0.25 1.402,0.212 2.052,0 m 243.622,-4.394 c 0,0 0,0 0,0 -0.153,0.421 -0.106,1.54 -0.459,1.263 -1.807,-1.421 -3.609,-3.091 -4.541,-5.194 -0.682,-1.539 -0.399,-3.416 0,-5.052 0.192,-0.784 1.011,-1.283 1.662,-1.759 1.795,-1.313 3.639,-2.592 5.634,-3.576 0.505,-0.249 1.222,-0.35 1.689,-0.035 0.802,0.542 1.289,1.474 1.722,2.34 0.167,0.333 0.146,0.772 0.005,1.116 -1.097,2.693 -2.694,5.175 -3.682,7.91 -0.11,0.304 0.712,0.546 0.53,0.814 m 229.29,-5.812 c 0,0 0,0 0,0 0.509,0.122 1.004,0.349 1.527,0.365 0.147,0.005 0.275,-0.167 0.316,-0.308 0.157,-0.543 -0.032,-1.192 0.259,-1.677 0.42,-0.703 1.382,-0.983 1.765,-1.707 0.163,-0.307 -0.006,-0.889 -0.34,-0.987 -0.976,-0.286 -2.057,-0.222 -3.051,-0.009 -0.427,0.091 -0.818,0.464 -0.977,0.87 -0.308,0.785 -0.469,1.672 -0.348,2.506 M 524.952,387.52 c 0,0 0,0 0,0 0.3,-0.33 0.773,-0.562 0.899,-0.989 0.195,-0.658 0.145,-1.387 10e-4,-2.057 -0.082,-0.382 -0.649,-0.583 -0.651,-0.974 -0.002,-0.389 0.525,-0.602 0.642,-0.973 0.106,-0.335 0.149,-0.737 -10e-4,-1.055 -0.232,-0.493 -0.911,-0.711 -1.076,-1.23 -0.906,-2.869 -1.756,-5.79 -2.089,-8.78 -1.255,-11.288 -2.123,-22.624 -2.663,-33.969 -0.349,-7.32 -0.453,-14.672 0,-21.986 0.168,-2.714 1.605,-5.237 1.851,-7.944 0.096,-1.057 -0.721,-2.014 -0.85,-3.067 -0.162,-1.322 -0.043,-2.664 -0.014,-3.996 0.015,-0.677 -0.012,-1.368 0.147,-2.026 0.167,-0.693 0.748,-1.265 0.821,-1.974 0.049,-0.485 -0.209,-0.977 -0.479,-1.383 -0.715,-1.073 -1.41,-2.226 -2.44,-3.003 -0.293,-0.221 -0.738,0.166 -1.032,0.386 -0.345,0.258 -0.771,0.572 -0.817,0.999 -0.042,0.389 0.508,0.627 0.599,1.007 0.034,0.14 -0.135,0.302 -0.276,0.332 -0.66,0.138 -1.344,0.187 -2.017,0.147 -6.099,-0.359 -12.179,-1.013 -18.28,-1.344 -22.952,-1.245 -45.921,-2.154 -68.873,-3.386 -11.27,-0.605 -22.512,-1.735 -33.791,-2.124 -1.06,-0.036 -2.007,0.797 -3.067,0.854 -4.323,0.23 -8.664,0.195 -12.989,10e-4 -3.545,-0.159 -7.051,-0.835 -10.592,-1.06 -12.131,-0.771 -24.272,-1.365 -36.415,-1.925 -1.664,-0.077 -3.343,-0.186 -4.997,0.014 -0.709,0.086 -1.262,0.811 -1.976,0.828 -1.057,0.024 -2.034,-0.744 -3.09,-0.712 -11.325,0.345 -22.615,1.502 -33.94,1.839 -0.713,0.021 -1.285,-0.729 -1.997,-0.769 -0.388,-0.022 -0.611,0.598 -1,0.598 -0.389,0 -0.611,-0.598 -1,-0.598 -0.389,0 -0.612,0.62 -1,0.598 -0.712,-0.04 -1.293,-0.884 -1.997,-0.769 -1.892,0.309 -3.727,1.043 -5.402,1.976 -0.264,0.147 0.112,0.673 0.372,0.826 0.313,0.185 0.727,0.05 1.09,0.037 14.959,-0.554 29.908,-1.418 44.874,-1.738 1.057,-0.023 2.033,0.707 3.09,0.712 0.392,10e-4 0.559,-0.641 0.947,-0.695 1.659,-0.23 3.355,-0.288 5.022,-0.133 0.715,0.066 1.288,0.751 2.004,0.784 0.408,0.019 0.635,-0.657 1.043,-0.642 11.797,0.434 23.566,1.451 35.359,1.983 16.064,0.724 32.145,1.032 48.208,1.787 23.312,1.096 46.619,2.31 69.911,3.765 10.016,0.626 20.043,1.263 30.005,2.476 0.532,0.065 0.916,0.759 0.955,1.294 0.292,4.002 0.053,8.025 0.019,12.038 -0.009,1.01 0.047,2.035 -0.148,3.026 -0.138,0.702 -0.811,1.262 -0.837,1.977 -0.255,6.992 -0.276,13.999 -10e-4,20.99 0.374,9.532 1.04,19.056 1.948,28.553 0.414,4.322 4.504,9.313 2.012,12.868 -2.42,3.454 -8.296,1.549 -12.481,2.072 -1,0.125 -2.031,0.061 -3.019,-0.134 -0.383,-0.075 -0.584,-0.641 -0.974,-0.651 -0.388,-0.011 -0.612,0.622 -1,0.598 -0.716,-0.044 -1.289,-0.722 -2.004,-0.784 -2.321,-0.203 -4.67,-0.225 -6.989,-10e-4 -4.016,0.386 -7.934,1.67 -11.966,1.826 -0.634,0.024 -1.412,-0.676 -1.383,-1.311 0.081,-1.754 1.383,-3.263 1.671,-4.995 0.069,-0.414 -0.74,-0.659 -0.661,-1.071 2.289,-12.023 5.275,-23.905 7.701,-35.901 0.138,-0.682 0.245,-1.444 -0.018,-2.088 -0.234,-0.573 -0.755,-1.441 -1.351,-1.273 -1.043,0.293 -1.812,1.331 -2.299,2.299 -0.181,0.357 0.772,0.657 0.622,1.028 -1.22,3.02 -2.839,5.875 -4.535,8.656 -0.421,0.69 -0.984,1.444 -1.762,1.667 -1.298,0.373 -2.796,0.495 -4.052,0 -1.2,-0.472 -2.199,-1.54 -2.78,-2.691 -1.28,-2.537 -0.897,-5.872 -2.664,-8.098 -0.63,-0.793 -1.511,1.456 -1.852,2.41 -0.135,0.377 0.627,0.627 0.621,1.028 -0.006,0.391 -0.569,0.592 -0.651,0.974 -0.147,0.678 -0.229,1.422 -0.01,2.08 0.323,0.972 0.906,1.863 1.577,2.636 1.456,1.677 2.753,3.708 4.759,4.661 1.521,0.723 3.384,0.233 5.052,10e-4 0.621,-0.086 1.147,-0.538 1.635,-0.931 0.584,-0.47 0.805,-1.525 1.547,-1.632 0.554,-0.08 1.224,0.696 1.125,1.247 -1.455,8.066 -4.057,15.89 -5.666,23.927 -0.082,0.412 0.744,0.659 0.662,1.071 -0.278,1.395 -1.37,2.539 -1.658,3.932 -0.082,0.396 0.528,0.647 0.629,1.039 0.036,0.14 -0.132,0.325 -0.276,0.333 -3.002,0.155 -6.016,0.32 -9.017,0.148 -36.685,-2.103 -73.315,-5.131 -110.014,-6.972 -9.65,-0.484 -19.328,-0.262 -28.986,0 -12.618,0.341 -25.222,1.093 -37.824,1.807 -0.168,0.01 -0.526,0.351 -0.358,0.356 30.825,0.906 61.673,1.075 92.484,2.351 28.459,1.178 56.883,3.11 85.303,5.008 8.816,0.589 17.575,1.907 26.395,2.45 3.666,0.226 7.368,0.272 11.017,-0.148 0.373,-0.043 -0.014,-0.845 -0.303,-1.085 -0.608,-0.504 -2.778,-0.463 -2.166,-0.962 1.455,-1.186 3.549,-1.257 5.383,-1.661 0.679,-0.149 1.408,-0.131 2.088,0.018 0.381,0.083 0.583,0.649 0.974,0.651 0.388,0.002 0.602,-0.525 0.973,-0.642 0.335,-0.106 0.722,-0.115 1.054,0 0.37,0.129 0.561,0.63 0.947,0.695 1.537,0.26 3.332,-0.544 4.67,0.256 1.378,0.824 1.635,2.77 2.57,4.075 0.195,0.272 0.469,0.53 0.792,0.618 m 296.322,-3.249 c 0,0 0,0 0,0 0.024,-0.547 0.387,-1.193 0.073,-1.642 -0.384,-0.551 -1.163,-0.727 -1.821,-0.865 -5.227,-1.098 -10.657,-1.288 -15.771,-2.829 -0.59,-0.178 0.628,-1.105 0.676,-1.719 0.18,-2.323 0.269,-4.676 10e-4,-6.99 -0.392,-3.38 -1.733,-6.62 -1.972,-10.014 -0.422,-5.98 -0.784,-12.042 0,-17.986 1.698,-12.883 5.138,-25.478 7.415,-38.272 1.048,-5.882 1.899,-11.803 2.557,-17.742 0.148,-1.331 0.132,-2.706 -0.145,-4.017 -0.061,-0.287 -0.727,-0.679 -0.788,-0.392 -4.253,20.061 -8.812,40.084 -11.924,60.354 -0.913,5.949 -0.512,12.05 -0.115,18.055 0.224,3.395 1.58,6.634 1.972,10.014 0.268,2.314 0.126,4.663 -0.002,6.989 -0.026,0.473 -0.007,1.197 -0.456,1.347 -1.273,0.423 -2.688,0.285 -4.021,0.143 -5.664,-0.604 -11.254,-1.801 -16.92,-2.376 -18.778,-1.908 -37.575,-3.643 -56.395,-5.074 -18.882,-1.435 -37.774,-2.867 -56.699,-3.522 -14.986,-0.519 -30.002,-0.574 -44.986,0 -8.855,0.339 -17.661,1.551 -26.443,2.736 -2.969,0.4 -5.988,0.875 -8.76,2.013 -0.505,0.207 0.692,1.12 1.236,1.075 6.699,-0.553 13.249,-2.584 19.967,-2.824 19.649,-0.703 39.33,-0.496 58.986,0 14.832,0.374 29.632,1.594 44.433,2.608 12.128,0.83 24.245,1.827 36.351,2.922 13.192,1.194 26.391,2.362 39.542,3.946 9.909,1.192 19.731,3.02 29.618,4.38 1.011,0.139 2.041,0.188 3.059,0.114 M 291.829,372.55 c 0,0 0,0 0,0 0.052,-1.016 0.292,-2.039 0.156,-3.047 -0.097,-0.709 -0.723,-1.271 -0.837,-1.977 -0.214,-1.323 -0.309,-2.69 -0.134,-4.019 0.4,-3.041 1.885,-5.946 1.847,-9.012 -0.239,-19.288 -1.225,-38.571 -2.675,-57.806 -0.087,-1.147 -1.171,-1.99 -1.901,-2.879 -0.508,-0.619 -0.989,-1.524 -1.785,-1.609 -0.615,-0.066 -1.016,0.753 -1.351,1.273 -0.188,0.291 -0.133,0.683 -0.134,1.03 -0.043,14.33 -0.257,28.664 0,42.992 0.019,1.047 0.793,1.985 0.828,3.031 0.013,0.391 -0.631,0.561 -0.695,0.947 -0.221,1.322 -0.258,2.684 -0.134,4.019 0.466,5.009 1.111,10.003 1.9,14.971 0.419,2.635 1.061,5.233 1.722,7.819 0.363,1.42 0.56,2.949 1.347,4.185 0.285,0.449 1.02,0.346 1.551,0.369 m 291.418,-4.317 c 0,0 0,0 0,0 0.3,-0.33 0.697,-0.592 0.9,-0.989 0.158,-0.31 0.127,-0.687 0.133,-1.035 0.039,-2.329 0.07,-4.66 10e-4,-6.989 -0.671,-22.866 -1.037,-45.747 -2.22,-68.592 -0.087,-1.67 -0.864,-3.25 -1.581,-4.761 -0.098,-0.206 -0.536,-0.181 -0.685,-0.008 -0.315,0.363 -0.453,0.878 -0.484,1.358 -0.132,1.992 -0.059,3.993 -0.002,5.989 0.658,23.271 1.225,46.546 2.146,69.808 0.068,1.741 0.253,3.514 0.819,5.162 m -136.227,-14.73 c 0,0 0,0 0,0 1.522,-0.525 3.269,-0.624 4.568,-1.577 1.189,-0.872 2.139,-2.208 2.531,-3.63 0.535,-1.935 0.296,-4.021 0.134,-6.023 -0.058,-0.714 -0.75,-1.287 -0.784,-2.003 -0.019,-0.388 0.59,-0.588 0.642,-0.973 0.06,-0.452 0.034,-1.06 -0.336,-1.326 -0.256,-0.185 -0.5,0.615 -0.797,0.51 -0.851,-0.302 -1.302,-1.514 -2.203,-1.575 -0.631,-0.042 -1.438,0.709 -1.349,1.335 0.4,2.79 2.385,5.216 2.688,8.018 0.11,1.02 -0.737,2.021 -1.532,2.671 -1.067,0.871 -2.433,1.378 -3.78,1.669 -0.394,0.085 -0.631,-0.631 -1.034,-0.628 -0.389,0.002 -0.602,0.525 -0.973,0.642 -0.335,0.106 -0.774,0.212 -1.054,-0.001 -1.392,-1.056 -2.635,-2.314 -3.758,-3.652 -0.658,-0.785 -1.301,-1.665 -1.538,-2.661 -0.093,-0.39 0.543,-0.62 0.666,-1.002 0.108,-0.334 0.115,-0.722 0,-1.054 -0.129,-0.37 -0.633,-0.561 -0.695,-0.947 -0.194,-1.209 -0.419,-2.507 -0.046,-3.674 0.249,-0.779 1.402,-0.973 1.765,-1.707 0.174,-0.354 -0.146,-0.799 -0.367,-1.127 -0.242,-0.361 -0.561,-0.732 -0.974,-0.869 -0.641,-0.215 -1.35,-0.202 -2.022,-0.132 -0.461,0.048 -1.119,0.053 -1.305,0.477 -0.163,0.374 0.706,0.643 0.638,1.046 -0.372,2.187 0.214,5.704 -1.899,6.378 -3.293,1.051 -6.75,-1.53 -10.049,-2.565 -0.862,-0.271 -1.649,-0.775 -2.362,-1.331 -0.83,-0.648 -2.86,-1.41 -2.22,-2.245 1.104,-1.44 3.379,-1.632 5.193,-1.631 1.996,0 3.893,0.926 5.759,1.633 0.502,0.19 0.709,1.058 1.244,1.02 0.371,-0.027 -0.377,-0.76 -0.215,-1.094 0.29,-0.601 1.367,-0.743 1.424,-1.408 0.047,-0.542 -0.687,-0.942 -1.209,-1.095 -0.302,-0.088 -0.509,0.642 -0.793,0.509 -0.674,-0.316 -0.819,-1.471 -1.551,-1.605 -2.51,-0.462 -5.11,-0.274 -7.656,-0.091 -0.715,0.051 -1.287,0.74 -2.003,0.784 -0.388,0.024 -0.653,-0.772 -1.001,-0.598 -0.975,0.487 -1.83,1.315 -2.35,2.273 -0.327,0.601 -0.261,1.42 0,2.052 0.415,1.002 1.172,1.844 1.932,2.618 0.549,0.559 1.258,0.943 1.942,1.325 1.151,0.643 2.314,1.285 3.551,1.741 2.661,0.981 7.026,-0.059 8.114,2.56 0.834,2.01 -4.012,1.991 -6.186,2.083 -1.671,0.071 -3.367,-0.678 -4.748,-1.621 -1.505,-1.029 -2.311,-2.832 -3.623,-4.098 -0.149,-0.143 -0.453,-0.119 -0.622,10e-4 -0.523,0.373 -1.361,0.751 -1.332,1.393 0.046,1.013 0.812,1.908 1.516,2.638 1.134,1.178 2.451,2.215 3.895,2.983 1.518,0.808 3.182,1.383 4.875,1.684 0.398,0.071 0.632,-0.632 1.037,-0.633 0.403,0 0.652,0.758 1.034,0.629 2.76,-0.93 5.043,-3.978 7.936,-3.651 2.03,0.23 2.252,3.424 3.604,4.955 0.579,0.656 1.291,1.285 2.129,1.538 0.451,0.136 0.871,-0.621 1.326,-0.494 1.08,0.302 1.862,1.291 2.914,1.679 m 12.967,-0.874 c 0,0 0,0 0,0 0.908,-5.113 1.673,-10.254 2.724,-15.34 0.116,-0.56 0.278,-1.234 0.764,-1.537 0.462,-0.287 1.142,-0.192 1.631,0.046 0.783,0.381 1.115,1.576 1.976,1.711 0.749,0.117 1.237,-1.089 1.995,-1.091 0.757,-0.002 1.277,0.849 1.999,1.079 0.145,0.046 0.39,-0.224 0.3,-0.347 -0.755,-1.025 -1.631,-1.974 -2.609,-2.788 -0.787,-0.655 -1.639,-1.345 -2.636,-1.577 -1.324,-0.309 -2.772,-0.362 -4.08,0.011 -0.767,0.218 -1.479,0.89 -1.735,1.645 -1.202,3.53 -1.425,7.335 -2.536,10.895 -0.085,0.275 -0.43,-0.429 -0.712,-0.487 -0.137,-0.029 -0.306,0.132 -0.321,0.272 -0.047,0.448 -0.006,0.922 0.152,1.344 0.783,2.083 1.659,4.135 2.656,6.125 m -46.19,-2.425 c 0,0 0,0 0,0 -0.197,-0.338 -0.593,-0.622 -0.591,-1.014 0.002,-0.39 0.624,-0.614 0.602,-1.004 -0.039,-0.713 -0.778,-1.286 -0.768,-2 0.009,-0.713 0.725,-1.268 0.821,-1.974 0.226,-1.659 0.178,-3.347 0.134,-5.02 -0.012,-0.449 -0.088,-0.917 -0.303,-1.311 -0.415,-0.762 -0.818,-1.625 -1.55,-2.091 -0.468,-0.297 -1.161,-0.191 -1.661,0.047 -0.558,0.265 -1.112,0.752 -1.271,1.348 -0.101,0.378 0.568,0.593 0.651,0.975 0.148,0.68 0.159,1.406 0.016,2.087 -0.406,1.936 -0.959,3.846 -1.649,5.698 -0.107,0.285 -0.394,0.556 -0.696,0.592 -1.545,0.184 -3.274,0.737 -4.668,0.047 -1.617,-0.8 -3.142,-2.342 -3.529,-4.104 -0.387,-1.767 0.862,-3.521 1.485,-5.219 0.272,-0.741 0.609,-1.51 1.183,-2.053 0.383,-0.363 0.979,-0.528 1.506,-0.491 1.042,0.073 1.991,0.94 3.027,0.811 0.613,-0.076 1.475,-0.762 1.272,-1.345 -0.367,-1.052 -1.519,-1.698 -2.51,-2.208 -0.278,-0.143 -0.478,0.534 -0.791,0.509 -0.389,-0.031 -0.591,-0.568 -0.972,-0.65 -0.669,-0.144 -1.425,-0.273 -2.052,10e-4 -0.741,0.324 -1.304,1.001 -1.763,1.667 -1.001,1.454 -2.122,2.923 -2.573,4.63 -0.436,1.647 -0.312,3.436 -0.004,5.113 0.242,1.313 0.756,2.645 1.616,3.666 0.976,1.157 2.246,2.203 3.696,2.637 1.631,0.489 3.442,0.35 5.108,0 1.1,-0.231 1.821,-1.456 2.922,-1.684 0.368,-0.076 0.319,0.702 0.596,0.955 0.647,0.591 1.351,1.14 2.132,1.538 m -20.414,-0.992 c 0,0 0,0 0,0 1.017,-0.718 2.31,-1.154 3.051,-2.154 0.306,-0.413 -0.082,-1.059 -0.339,-1.505 -0.215,-0.373 -0.586,-0.934 -1.002,-0.819 -0.825,0.227 -1.143,1.434 -1.973,1.641 -0.687,0.172 -1.319,-0.664 -2.027,-0.641 -0.714,0.022 -1.286,0.768 -2,0.768 -0.714,0 -1.286,-0.738 -2,-0.768 -0.388,-0.017 -0.602,0.524 -0.971,0.641 -0.344,0.11 -0.77,0.193 -1.084,0.014 -1.815,-1.035 -3.813,-1.968 -5.153,-3.572 -0.408,-0.488 0.7,-1.148 0.677,-1.784 -0.025,-0.711 -0.71,-1.269 -0.811,-1.973 -0.065,-0.452 -0.065,-1.11 0.336,-1.327 0.343,-0.187 0.616,0.605 1.006,0.599 0.403,-0.005 0.639,-0.711 1.034,-0.628 1.403,0.293 2.527,1.647 3.959,1.672 1.038,0.018 1.871,-0.93 2.697,-1.558 0.642,-0.489 1.398,-0.997 1.661,-1.759 0.332,-0.961 0.531,-2.183 0,-3.05 -0.703,-1.149 -2.031,-1.876 -3.297,-2.338 -0.964,-0.352 -2.067,-0.156 -3.08,0.009 -0.386,0.063 -0.583,0.642 -0.974,0.652 -0.388,0.011 -0.612,-0.62 -1,-0.598 -0.712,0.04 -1.292,0.877 -1.997,0.769 -1.737,-0.266 -3.211,-1.541 -4.944,-1.831 -0.711,-0.118 -1.338,0.658 -2.059,0.66 -0.391,0.001 -0.588,-0.589 -0.974,-0.652 -1.004,-0.162 -2.109,-0.38 -3.052,0.002 -1.5,0.606 -2.797,1.686 -3.945,2.827 -0.996,0.99 -2.107,2.094 -2.391,3.47 -0.548,2.648 -0.371,5.433 -0.004,8.113 0.182,1.323 0.978,2.494 1.619,3.666 0.152,0.278 0.409,0.57 0.722,0.616 0.463,0.067 1.018,-0.002 1.367,-0.313 0.26,-0.231 0.142,-0.685 0.142,-1.032 0.003,-1.341 0.082,-2.698 -0.132,-4.022 -0.114,-0.707 -0.753,-1.267 -0.837,-1.978 -0.156,-1.332 -0.115,-2.704 0.133,-4.022 0.115,-0.612 0.534,-1.137 0.926,-1.62 0.573,-0.707 1.155,-1.464 1.944,-1.919 1.392,-0.802 2.872,-1.748 4.478,-1.784 1.353,-0.03 2.536,0.965 3.729,1.602 0.281,0.15 0.562,0.411 0.626,0.724 0.2,0.987 0.251,2.019 0.134,3.019 -0.123,1.052 -1.052,2.024 -0.846,3.063 0.401,2.02 1.58,3.812 2.568,5.618 0.252,0.461 0.655,0.863 1.116,1.116 1.807,0.99 3.664,1.923 5.618,2.572 0.66,0.22 1.406,0.135 2.085,-0.013 0.382,-0.083 0.583,-0.641 0.974,-0.651 0.388,-0.011 0.612,0.607 1,0.598 0.388,-0.008 0.584,-0.628 0.973,-0.642 M 349.83,347.55 c 0,0 0,0 0,0 0.013,-1.038 0.184,-2.085 0.04,-3.113 -0.421,-3.006 -1.758,-5.905 -1.731,-8.94 0.05,-5.532 -2.338,-13 1.962,-16.481 4.765,-3.858 12.269,-0.252 18.395,-0.001 0.716,0.029 1.277,0.691 1.978,0.837 0.67,0.139 1.383,0.144 2.052,0 0.382,-0.082 0.583,-0.641 0.974,-0.651 0.388,-0.011 0.629,0.712 1.001,0.598 0.585,-0.178 1.395,-0.694 1.298,-1.299 -0.142,-0.891 -0.974,-1.697 -1.824,-2 -0.791,-0.281 -1.639,0.543 -2.475,0.469 -1.046,-0.093 -1.954,-0.919 -3.004,-0.954 -8.658,-0.285 -17.336,-0.42 -25.989,-10e-4 -4.039,0.195 -7.947,1.801 -11.989,1.837 -1.161,0.01 -1.877,-1.719 -3.037,-1.703 -5.194,0.069 -10.389,0.83 -15.462,1.95 -0.468,0.104 -0.156,1.056 0.141,1.433 0.292,0.372 0.873,0.407 1.344,0.452 0.672,0.064 1.369,0.04 2.022,-0.131 0.378,-0.098 0.583,-0.651 0.974,-0.651 0.391,0 0.591,0.575 0.974,0.651 0.99,0.198 2.016,0.147 3.026,0.147 0.677,0 1.372,0.028 2.026,-0.147 0.378,-0.1 0.583,-0.641 0.974,-0.651 0.388,-0.011 0.612,0.607 1,0.598 0.388,-0.008 0.584,-0.646 0.973,-0.642 1.043,0.011 2.011,0.712 3.054,0.686 0.711,-0.018 1.262,-0.814 1.973,-0.812 0.713,0.002 1.281,0.654 1.974,0.821 0.658,0.159 1.349,0.146 2.026,0.146 0.677,0 1.375,0.038 2.026,-0.146 0.377,-0.106 0.555,-0.688 0.947,-0.695 0.708,-0.012 1.318,0.632 2.027,0.642 0.388,0.006 0.611,-0.598 1,-0.598 0.388,0 0.612,0.609 1,0.598 0.391,-0.01 0.594,-0.563 0.974,-0.652 0.786,-0.182 2.263,-0.928 2.415,-0.136 1.836,9.525 1.48,19.374 3.135,28.933 m 409.444,-0.965 c 0,0 0,0 0,0 0.503,-0.158 1.096,-0.146 1.51,-0.472 1.084,-0.854 2.28,-1.735 2.873,-2.981 0.442,-0.927 0.283,-2.09 0.011,-3.08 -0.27,-0.988 -0.945,-1.831 -1.577,-2.636 -0.673,-0.856 -1.348,-1.799 -2.31,-2.31 -0.444,-0.235 -0.998,0.447 -1.478,0.299 -0.348,-0.108 -0.284,-0.706 -0.569,-0.933 -1.631,-1.294 -3.512,-2.257 -5.118,-3.581 -0.983,-0.81 -2.138,-1.608 -2.611,-2.79 -0.171,-0.43 0.842,-0.46 1.304,-0.479 2.851,-0.119 5.799,-0.657 8.558,0.066 1.004,0.263 0.756,2.154 1.684,2.618 0.489,0.245 1.139,-0.689 1.084,-1.234 -0.135,-1.332 -0.951,-2.51 -1.582,-3.691 -0.15,-0.281 -0.407,-0.59 -0.724,-0.626 -1.994,-0.225 -4.02,-0.307 -6.02,-0.134 -0.711,0.062 -1.262,0.8 -1.976,0.828 -0.722,0.028 -1.353,-0.816 -2.061,-0.672 -1.25,0.255 -2.322,1.082 -3.388,1.783 -0.137,0.09 -0.066,0.324 -0.062,0.488 0.019,0.696 -0.202,1.474 0.132,2.084 0.553,1.008 1.51,1.745 2.38,2.497 1.359,1.175 2.787,2.279 4.288,3.266 1.391,0.914 3.028,1.435 4.368,2.422 1.03,0.76 2.047,1.643 2.667,2.763 0.331,0.598 0.25,1.415 0,2.052 -0.228,0.582 -0.794,0.996 -1.325,1.325 -0.294,0.183 -0.683,0.133 -1.03,0.134 -1.35,0.003 -2.741,0.211 -4.05,-0.123 -0.993,-0.253 -1.808,-0.977 -2.635,-1.58 -0.268,-0.195 -0.615,-0.453 -0.609,-0.784 0.007,-0.387 0.587,-0.587 0.641,-0.971 0.064,-0.461 0.131,-1.223 -0.314,-1.362 -0.677,-0.21 -1.321,0.635 -2.029,0.634 -0.406,0 -0.637,-0.69 -1.04,-0.636 -2.347,0.317 -4.557,1.345 -6.898,1.706 -1.356,0.209 -2.786,0.329 -4.116,-0.007 -0.863,-0.219 -1.645,-0.848 -2.154,-1.578 -0.178,-0.256 0.526,-0.475 0.506,-0.786 -0.025,-0.399 -0.721,-0.64 -0.621,-1.027 0.281,-1.088 1.365,-1.854 1.646,-2.942 0.1,-0.388 -0.628,-0.628 -0.622,-1.029 0.005,-0.391 0.552,-0.596 0.651,-0.974 0.171,-0.653 0.311,-1.369 0.132,-2.02 -0.359,-1.308 -1.034,-2.515 -1.701,-3.696 -0.165,-0.292 -0.427,-0.615 -0.759,-0.661 -1.659,-0.228 -3.349,-0.223 -5.021,-0.134 -0.519,0.028 -1.039,0.213 -1.485,0.483 -0.514,0.31 -0.729,1.171 -1.327,1.216 -0.425,0.032 -0.593,-0.654 -0.712,-1.064 -0.78,-2.685 -1.67,-5.375 -1.965,-8.157 -0.317,-2.99 -0.338,-6.052 0.143,-9.021 0.075,-0.462 0.907,-0.385 1.37,-0.314 0.706,0.108 1.265,0.771 1.976,0.827 2.346,0.184 4.736,0.262 7.057,-0.117 1.942,-0.318 3.878,-0.945 5.571,-1.946 0.842,-0.497 1.265,-1.508 1.731,-2.368 0.169,-0.313 0.125,-0.704 0.124,-1.06 -0.006,-2.007 0.168,-4.036 -0.144,-6.019 -0.053,-0.338 -0.677,-0.248 -0.885,-0.519 -1.017,-1.327 -1.495,-3.081 -2.732,-4.206 -0.988,-0.897 -2.349,-1.392 -3.666,-1.611 -0.711,-0.118 -1.338,0.653 -2.059,0.66 -0.404,0.004 -0.639,-0.708 -1.034,-0.628 -1.312,0.264 -2.56,0.864 -3.691,1.58 -0.821,0.519 -1.453,1.301 -2.06,2.059 -0.744,0.929 -1.568,1.857 -1.971,2.977 -1.13,3.14 -2.081,6.373 -2.581,9.673 -0.109,0.723 0.809,1.309 0.806,2.04 -0.003,0.713 -0.656,1.281 -0.821,1.974 -0.157,0.656 -0.229,1.352 -0.133,2.019 0.479,3.337 1.529,6.588 1.851,9.944 0.071,0.733 -0.809,1.37 -0.695,2.097 0.272,1.74 1.553,3.224 1.799,4.969 0.099,0.705 -0.726,1.265 -0.822,1.971 -0.227,1.658 -0.406,3.368 -0.134,5.02 0.273,1.658 0.916,3.266 1.739,4.731 0.236,0.421 0.922,0.975 1.289,0.661 0.961,-0.823 1.422,-2.128 1.823,-3.328 0.22,-0.659 0.129,-1.404 -0.013,-2.084 -0.147,-0.7 -0.765,-1.265 -0.837,-1.978 -0.167,-1.666 -0.515,-3.478 0.134,-5.022 0.604,-1.44 2.02,-2.456 3.35,-3.273 0.331,-0.204 0.612,0.607 1.001,0.598 0.388,-0.008 0.602,-0.526 0.973,-0.642 0.335,-0.104 0.885,-0.296 1.052,0.013 0.217,0.401 -0.389,0.878 -0.324,1.33 0.055,0.387 0.588,0.588 0.651,0.974 0.167,1.015 0.243,2.082 0.014,3.085 -0.393,1.716 -1.481,3.226 -1.852,4.947 -0.212,0.984 -0.061,2.03 0.135,3.017 0.061,0.304 0.322,0.58 0.605,0.706 1.513,0.67 3.084,1.221 4.685,1.638 0.664,0.173 1.376,0.221 2.054,0.118 2.969,-0.45 5.849,-2.104 8.833,-1.769 1.292,0.144 1.415,2.247 2.449,3.034 1.063,0.808 2.356,1.355 3.666,1.616 m -108.699,-0.143 c 0,0 0,0 0,0 3.741,-1.404 7.547,-2.646 11.224,-4.213 2.147,-0.915 4.245,-1.975 6.218,-3.222 0.683,-0.432 1.343,-1.021 1.667,-1.762 0.274,-0.627 0.168,-1.389 10e-4,-2.052 -0.152,-0.599 -0.494,-1.165 -0.926,-1.608 -0.799,-0.819 -1.666,-1.635 -2.704,-2.116 -1.824,-0.844 -3.779,-1.43 -5.754,-1.801 -4.348,-0.817 -9.57,0.841 -13.156,-1.75 -1.743,-1.259 3.336,-2.725 4.852,-4.249 1.153,-1.158 2.17,-2.45 3.129,-3.773 0.431,-0.595 0.716,-1.284 1.021,-1.951 0.553,-1.207 1.18,-2.393 1.552,-3.667 0.192,-0.659 0.188,-1.373 0.118,-2.055 -0.053,-0.518 -0.201,-1.048 -0.482,-1.486 -0.326,-0.508 -0.725,-1.054 -1.288,-1.274 -2.806,-1.097 -5.7,-2.011 -8.653,-2.613 -1.335,-0.272 -2.736,-0.162 -4.087,0.016 -0.387,0.052 -0.583,0.646 -0.974,0.652 -0.401,0.006 -0.642,-0.726 -1.029,-0.622 -1.083,0.29 -1.816,1.459 -2.916,1.679 -0.716,0.144 -1.354,-0.723 -2.082,-0.678 -0.698,0.044 -1.218,0.711 -1.883,0.927 -4.822,1.56 -9.741,2.812 -14.557,4.394 -1.711,0.562 -3.38,1.257 -5.006,2.032 -0.632,0.301 -1.366,0.587 -1.736,1.181 -0.165,0.266 0.626,0.501 0.507,0.791 -0.328,0.791 -1.301,1.188 -1.649,1.971 -0.276,0.617 -0.197,1.35 -0.132,2.022 0.045,0.472 0.119,1.013 0.455,1.346 0.245,0.244 0.686,0.171 1.028,0.126 0.464,-0.062 1.213,0.013 1.335,-0.439 0.183,-0.68 -0.676,-1.297 -0.678,-2.002 -0.002,-0.645 0.104,-1.502 0.666,-1.818 3.364,-1.888 6.988,-3.316 10.649,-4.531 0.391,-0.13 0.658,0.753 1.056,0.644 3.403,-0.932 6.529,-2.73 9.935,-3.655 0.406,-0.11 0.658,0.734 1.074,0.666 2.053,-0.336 3.934,-1.389 5.969,-1.818 0.661,-0.139 1.367,-0.038 2.02,0.132 0.378,0.1 0.583,0.649 0.974,0.652 0.406,0.003 0.637,-0.687 1.04,-0.636 2.289,0.292 4.529,0.929 6.728,1.625 0.287,0.091 0.519,0.396 0.582,0.69 0.146,0.678 0.202,1.412 0.015,2.08 -0.358,1.287 -0.919,2.528 -1.616,3.667 -0.927,1.516 -1.907,3.053 -3.225,4.246 -2.229,2.016 -4.407,4.498 -7.309,5.282 -1.119,0.302 -1.251,-2.004 -2.156,-2.727 -0.285,-0.228 -0.826,-0.121 -1.089,0.133 -0.339,0.327 -0.474,0.872 -0.439,1.341 0.049,0.636 1.069,1.286 0.678,1.789 -1.137,1.461 -3.289,1.83 -4.55,3.186 -0.319,0.342 -0.097,1.143 0.313,1.368 0.782,0.427 1.894,-0.196 2.661,0.259 0.833,0.495 1.541,1.391 1.723,2.343 0.14,0.732 -0.287,1.606 -0.882,2.055 -0.482,0.363 -1.407,-0.473 -1.811,-0.024 -0.458,0.508 -0.261,1.413 -0.014,2.05 0.226,0.581 0.76,1.053 1.322,1.323 0.474,0.228 1.198,0.437 1.575,0.071 0.913,-0.887 1.549,-2.116 1.814,-3.361 0.15,-0.705 -0.655,-1.338 -0.659,-2.059 -0.002,-0.389 0.525,-0.602 0.642,-0.973 0.106,-0.335 0.106,-0.719 0,-1.054 -0.117,-0.371 -0.75,-0.6 -0.642,-0.974 0.17,-0.588 0.71,-1.131 1.298,-1.298 0.376,-0.107 0.597,0.551 0.975,0.651 0.654,0.174 1.349,0.146 2.026,0.146 0.677,0 1.372,0.028 2.026,-0.146 0.378,-0.1 0.583,-0.641 0.974,-0.651 0.388,-0.011 0.612,0.606 1,0.598 0.407,-0.007 0.636,-0.68 1.041,-0.638 3.008,0.314 5.909,1.372 8.918,1.678 0.417,0.042 0.669,-0.785 1.069,-0.662 1.613,0.495 3.048,1.464 4.474,2.364 0.587,0.37 1.876,0.822 1.522,1.418 -0.93,1.567 -2.807,2.34 -4.338,3.327 -1.264,0.815 -2.6,1.545 -4.013,2.058 -2.812,1.021 -5.647,2.126 -8.612,2.525 -3.343,0.45 -6.786,0.511 -10.12,-0.003 -2.344,-0.362 -4.569,-1.41 -6.63,-2.583 -0.79,-0.45 -0.955,-1.601 -1.681,-2.148 -0.253,-0.19 -0.658,0.023 -0.932,0.182 -0.745,0.431 -1.699,0.773 -2.063,1.552 -0.222,0.473 0.284,1.068 0.676,1.414 0.767,0.679 1.666,1.292 2.66,1.54 0.389,0.097 0.631,-0.657 1.031,-0.621 0.304,0.028 0.226,0.646 0.509,0.762 2.75,1.127 5.521,2.295 8.43,2.901 1.977,0.413 4.044,0.286 6.056,0.12 0.714,-0.059 1.288,-0.727 2.003,-0.784 m 61.459,-0.678 c 0,0 0,0 0,0 0.968,-1.323 2.404,-2.408 2.903,-3.969 0.519,-1.622 0.494,-3.479 0,-5.108 -0.526,-1.736 -1.739,-3.218 -2.936,-4.58 -1.388,-1.578 -3.035,-2.929 -4.742,-4.155 -1.435,-1.029 -2.929,-2.099 -4.63,-2.573 -1.622,-0.452 -3.377,-0.312 -5.051,-0.123 -0.857,0.097 -2.136,0.145 -2.402,0.966 -1.348,4.168 -0.579,8.867 -2.107,12.973 -0.352,0.946 -1.497,-1.468 -1.816,-2.426 -0.128,-0.382 0.621,-0.603 0.674,-1.002 0.179,-1.339 0.374,-2.755 -10e-4,-4.052 -0.291,-1.01 -1.091,-1.844 -1.897,-2.518 -1.004,-0.839 -2.337,-1.194 -3.421,-1.928 -0.497,-0.337 -0.747,-0.998 -1.287,-1.26 -1.489,-0.721 -3.066,-1.298 -4.686,-1.636 -1.007,-0.209 -2.113,-0.316 -3.086,0.017 -1.031,0.352 -1.988,1.06 -2.632,1.939 -1.181,1.614 -2.207,3.417 -2.708,5.353 -0.426,1.65 -0.337,3.443 0.004,5.113 0.204,1.003 0.951,1.826 1.577,2.636 0.588,0.761 1.193,1.585 2.039,2.041 1.472,0.795 3.077,1.668 4.748,1.622 2.311,-0.064 4.538,-1.015 6.658,-1.936 0.687,-0.298 0.832,-1.848 1.548,-1.628 1.896,0.581 3.092,2.498 4.766,3.562 0.29,0.185 0.689,0.187 1.026,0.118 0.595,-0.122 1.552,-0.083 1.694,-0.674 1.123,-4.668 -0.065,-9.897 1.902,-14.277 0.609,-1.356 3.012,-0.226 4.458,0.12 0.996,0.238 1.843,0.929 2.636,1.577 1.203,0.984 2.211,2.186 3.31,3.285 0.599,0.599 1.274,1.134 1.785,1.81 0.617,0.817 1.345,1.639 1.577,2.636 0.309,1.324 0.361,2.772 -0.011,4.08 -0.235,0.83 -1.252,1.212 -1.702,1.948 -0.18,0.293 -0.164,0.685 -0.118,1.026 0.064,0.464 0.026,1.115 0.44,1.335 m -29.932,-6 c 0,0 0,0 0,0 -1.254,-0.529 -2.604,-0.874 -3.764,-1.586 -0.673,-0.413 -1.442,-0.955 -1.627,-1.723 -0.397,-1.648 -0.319,-3.417 -0.014,-5.085 0.241,-1.314 0.979,-2.493 1.619,-3.666 0.153,-0.28 0.409,-0.573 0.724,-0.626 1.014,-0.171 2.072,-0.198 3.085,-0.018 2.083,0.37 4.178,0.836 6.129,1.655 0.27,0.114 -0.485,0.405 -0.542,0.692 -0.136,0.678 -0.237,1.422 -0.011,2.076 0.366,1.061 1.358,1.831 1.724,2.892 0.226,0.655 0.366,1.497 -0.012,2.078 -0.535,0.822 -1.533,1.261 -2.426,1.666 m -295.417,-1.67 c 0,0 0,0 0,0 -0.512,0.101 -1.04,0.466 -1.535,0.302 -0.844,-0.28 -1.87,-0.703 -2.181,-1.536 -0.191,-0.512 0.654,-0.996 1.183,-1.137 0.982,-0.264 2.081,-0.304 3.052,0 0.591,0.184 1.28,0.732 1.273,1.351 -0.007,0.614 -0.769,0.999 -1.303,1.303 m 252.328,-14.295 c 0,0 0,0 0,0 -0.219,-0.013 -0.603,-0.251 -0.656,-0.039 -0.112,0.444 -0.125,1.306 0.332,1.333 m -2.333,-1.311 c 0,0 0,0 0,0 0.234,0.004 0.525,0.166 0.702,0.014 0.787,-0.676 1.685,-1.381 2.029,-2.359 0.404,-1.145 0.176,-2.431 0.086,-3.642 -0.035,-0.47 -0.036,-1.124 -0.455,-1.339 -0.458,-0.235 -1.062,0.076 -1.509,0.332 -0.374,0.215 -0.781,0.573 -0.819,1.002 -0.035,0.388 0.525,0.603 0.642,0.974 0.106,0.335 0.115,0.722 0,1.054 -0.129,0.37 -0.629,0.561 -0.695,0.947 m 95.396,-11.636 c 0,0 0,0 0,0 -1.338,-0.608 -2.832,-0.951 -4.015,-1.824 -0.43,-0.317 -0.455,-0.987 -0.513,-1.518 -0.075,-0.68 -0.134,-1.415 0.122,-2.05 0.66,-1.637 1.621,-3.143 2.573,-4.63 0.28,-0.436 0.678,-0.799 1.099,-1.101 0.832,-0.597 1.648,-1.307 2.636,-1.577 0.99,-0.272 2.108,-0.32 3.08,0.011 1.023,0.348 1.849,1.156 2.607,1.925 1.355,1.372 3.282,2.57 3.69,4.454 0.292,1.351 -1.143,2.535 -1.932,3.67 -0.264,0.379 -0.709,0.641 -1.152,0.766 m 57.985,-24.209 c 0,0 0,0 0,0 3.838,-0.841 7.72,-1.498 11.513,-2.522 0.297,-0.08 0.495,-0.435 0.56,-0.736 0.04,-0.181 -0.17,-0.336 -0.297,-0.471 -0.3,-0.318 -0.584,-0.681 -0.974,-0.877 -0.309,-0.156 -0.688,-0.185 -1.03,-0.133 -3.683,0.563 -7.28,1.807 -11.003,1.97 -11.318,0.496 -22.665,0.422 -33.986,0 -24.355,-0.907 -48.647,-3.229 -73.007,-3.985 -18.322,-0.569 -36.67,-0.541 -54.993,0.013 -16.011,0.483 -31.986,1.851 -47.955,3.096 -1.045,0.081 -2.051,0.474 -3.019,0.876 -0.188,0.078 -0.475,0.374 -0.329,0.515 0.964,0.928 2.023,1.846 3.274,2.321 0.365,0.138 -0.304,-0.778 -0.199,-1.155 0.073,-0.266 0.384,-0.475 0.658,-0.501 9.178,-0.863 18.354,-1.963 27.57,-2.152 25.992,-0.533 51.998,-0.392 77.993,-0.013 6.45,0.094 12.859,1.062 19.299,1.429 16.896,0.962 33.79,2.098 50.708,2.556 m 120.989,-20.134 c 0,0 0,0 0,0 0.252,-0.212 0.597,-0.347 0.755,-0.634 0.645,-1.168 1.293,-2.366 1.614,-3.659 0.28,-1.125 -0.873,-2.946 0.159,-3.474 3.303,-1.687 7.338,-1.184 10.91,-2.18 0.274,-0.076 -0.17,-0.597 -0.411,-0.746 -0.294,-0.182 -0.681,-0.137 -1.027,-0.143 -2.793,-0.05 -7.524,2.635 -8.381,-0.024 -3.33,-10.332 -1.845,-21.646 -2.101,-32.499 -0.407,-17.225 -2.784,-34.704 0.114,-51.689 0.533,-3.125 6.149,-1.572 9.148,-2.599 0.278,-0.095 0.67,-0.458 0.52,-0.711 -0.64,-1.079 -1.42,-2.252 -2.572,-2.749 -3.22,-1.387 -7.297,-0.706 -10.156,-2.735 -1.226,-0.869 -0.221,-3.013 -0.053,-4.507 0.08,-0.712 0.894,-1.295 0.784,-2.004 -0.093,-0.603 -0.724,-1.081 -1.296,-1.296 -0.28,-0.106 -0.609,0.259 -0.72,0.537 -1.056,2.658 0.088,7.625 -2.726,8.136 -10.702,1.945 -21.715,-1.386 -32.587,-1.718 -0.389,-0.012 -0.575,0.561 -0.942,0.693 -0.531,0.192 -1.192,-0.044 -1.675,0.249 -0.707,0.428 -0.897,1.634 -1.706,1.798 -2.499,0.508 -5.103,0.258 -7.647,0.101 -3.742,-0.231 -7.437,-0.978 -11.174,-1.263 -11.055,-0.843 -22.119,-1.605 -33.194,-2.119 -17.498,-0.812 -35.004,-1.517 -52.518,-1.86 -58.566,-1.145 -117.146,-1.457 -175.712,-2.603 -39.474,-0.773 -78.924,-2.606 -118.402,-3.153 -36.33,-0.504 -72.667,-0.048 -109,0 -0.677,0.001 -1.372,-0.028 -2.026,0.146 -0.378,0.101 -0.583,0.642 -0.974,0.652 -0.388,0.011 -0.612,-0.609 -1,-0.598 -0.391,0.01 -0.592,0.569 -0.974,0.651 -0.669,0.144 -1.383,0.144 -2.052,0 -0.382,-0.082 -0.584,-0.641 -0.974,-0.651 -0.388,-0.011 -0.611,0.598 -1,0.598 -0.389,0 -0.612,-0.607 -1,-0.598 -0.388,0.008 -0.602,0.525 -0.973,0.642 -0.335,0.106 -0.719,0.106 -1.054,0 -0.371,-0.117 -0.585,-0.642 -0.973,-0.642 -0.408,-0.001 -0.636,0.673 -1.042,0.64 -4.193,-0.338 -13.068,2.434 -12.5,-1.734 0.594,-4.361 17.386,-1.527 13.029,-2.15 -13.721,-1.964 -27.683,-2.321 -41.538,-1.929 -1.505,0.042 -1.898,2.425 -3.191,3.195 -1.578,0.939 -3.741,0.697 -5.205,1.805 -0.496,0.374 -0.081,1.446 0.419,1.815 0.551,0.406 1.384,0.151 2.054,0.009 0.384,-0.081 0.603,-0.543 0.98,-0.652 0.136,-0.04 0.345,0.135 0.324,0.275 -0.153,1.034 -0.768,1.984 -0.815,3.028 -0.226,4.992 -0.622,10.033 -10e-4,14.99 0.738,5.885 2.512,11.598 4.052,17.326 0.126,0.468 0.813,1.611 0.911,1.136 1.019,-4.939 -0.44,-10.562 1.95,-15.003 1.237,-2.297 1.883,4.95 2.059,7.554 0.515,7.645 0.346,15.332 0,22.987 -0.273,6.049 -1.98,12.017 -1.853,18.071 0.163,7.706 2.125,15.278 2.719,22.962 0.041,0.536 -0.326,1.213 -0.837,1.381 -3.346,1.098 -12.636,-0.37 -10.317,2.281 3.042,3.477 9.15,1.354 13.76,1.653 0.409,0.027 0.62,-0.585 1.016,-0.694 0.652,-0.18 1.349,-0.145 2.026,-0.145 0.677,0 1.368,-0.016 2.026,0.146 0.695,0.171 1.262,0.824 1.978,0.837 14.996,0.272 29.997,0.056 44.996,0.015 1.343,-0.004 2.701,0.069 4.026,-0.148 0.706,-0.116 1.262,-0.805 1.977,-0.837 5.66,-0.254 11.334,-0.19 16.997,-0.014 15.673,0.486 31.32,1.846 47,1.998 52.997,0.514 106,0.048 159,0 0.677,-0.001 1.375,0.039 2.026,-0.147 0.378,-0.108 0.563,-0.622 0.948,-0.704 0.987,-0.212 2.016,-0.147 3.026,-0.148 51.667,-0.048 103.334,-0.317 155,0.001 1.697,0.01 3.299,0.947 4.996,0.983 0.716,0.015 1.269,-0.738 1.978,-0.836 1.658,-0.23 3.346,-0.179 5.019,-0.134 46.485,1.251 93.133,-0.162 139.446,4.022 3.084,0.278 1.444,6.084 2.866,8.834 m 1.034,-3.376 c 0,0 0,0 0,0 -0.226,0.012 -0.633,0.257 -0.679,0.036 -0.271,-1.316 -0.222,-2.686 -0.144,-4.026 0.027,-0.471 0.102,-1.027 0.455,-1.339 0.264,-0.233 0.794,-0.233 1.058,0 0.353,0.313 0.409,0.87 0.454,1.339 0.065,0.672 0.055,1.373 -0.131,2.022 m -0.307,-5.703 c 0,0 0,0 0,0 -0.507,-0.106 -1.066,-0.071 -1.522,-0.317 -0.385,-0.209 -0.853,-0.542 -0.875,-0.98 -0.245,-5.068 -1.618,-10.444 0.092,-15.221 1.157,-3.233 0.94,6.811 1.722,10.154 0.102,0.438 0.8,0.574 0.889,1.014 0.267,1.315 0.21,2.684 0.133,4.023 m -5.418,0.346 c 0,0 0,0 0,0 -0.697,10e-4 -1.594,0.491 -2.091,0.002 -0.567,-0.558 -0.444,-1.582 -0.312,-2.368 0.039,-0.232 0.538,-0.14 0.705,0.025 m -6.259,2.488 c 0,0 0,0 0,0 -3.7,-0.001 -7.404,0.133 -11.102,-0.003 -23.341,-0.86 -46.651,-2.743 -70.007,-2.985 -72.663,-0.753 -145.334,-0.325 -218,0 -1.7,0.008 -3.3,0.988 -5,0.998 -52.999,0.323 -106.004,0.62 -159,0 -28,-0.328 -55.964,-2.132 -83.957,-2.843 -0.408,-0.01 -0.607,0.687 -1.016,0.687 -0.704,0 -1.295,-0.686 -2,-0.686 -1.043,0 -2.011,0.688 -3.054,0.686 -0.392,-10e-4 -0.564,-0.615 -0.947,-0.695 -0.987,-0.206 -2.023,-0.27 -3.022,-0.133 -0.73,0.1 -1.311,0.849 -2.047,0.828 -8.244,-0.235 -16.594,-0.022 -24.691,-1.59 -1.145,-0.222 -0.759,-2.219 -0.933,-3.372 -1.073,-7.108 -2.821,-14.193 -2.804,-21.381 0.034,-14.702 2.138,-29.328 2.957,-44.007 0.167,-2.991 0.232,-6 0,-8.986 -0.401,-5.178 -2.909,-10.37 -1.897,-15.464 0.369,-1.857 3.47,-1.679 5.35,-1.912 3.657,-0.452 7.372,-0.267 11.054,-0.117 1.688,0.068 3.32,0.738 5.009,0.77 60.329,1.136 120.669,1.621 180.998,2.734 37.559,0.692 75.106,1.919 112.663,2.682 46.218,0.94 92.445,1.358 138.66,2.426 17.909,0.414 35.811,1.17 53.705,2.021 10.644,0.506 21.28,1.19 31.901,2.05 11.375,0.92 22.698,2.427 34.078,3.289 3.506,0.266 7.122,-0.702 10.547,0.093 1.234,0.287 1.525,2.035 2.43,2.921 0.162,0.159 0.551,-0.077 0.671,0.115 1.051,1.692 2.35,3.367 2.71,5.326 0.607,3.296 0.534,6.727 0.121,10.052 -1.59,12.788 -4.419,25.397 -6.116,38.171 -0.963,7.244 -1.387,14.551 -1.856,21.843 -0.108,1.679 -1.529,4.746 0.127,5.045 1.651,0.299 1.59,-3.031 1.817,-4.693 1.29,-9.44 1.524,-19.001 2.713,-28.454 0.708,-5.63 1.862,-11.197 2.975,-16.76 0.286,-1.43 0.646,-2.861 1.218,-4.202 0.14,-0.328 0.114,0.707 0.122,1.063 0.033,1.662 0.103,3.328 0,4.987 -0.943,15.192 -1.798,30.394 -3.139,45.556 m 6.68,1.741 c 0,0 0,0 0,0 -0.175,-0.764 -0.478,-1.509 -0.526,-2.291 -0.123,-1.994 -0.121,-4.001 0.015,-5.995 0.032,-0.464 0.158,-1.637 0.484,-1.306 0.552,0.559 0.453,1.518 0.499,2.302 0.116,1.995 0.114,4.001 -0.015,5.996 m -3.457,-3.706 c 0,0 0,0 0,0 -0.17,-0.429 -0.505,-0.825 -0.508,-1.286 -0.006,-0.786 -0.064,-1.741 0.481,-2.306 0.322,-0.335 0.479,0.842 0.483,1.306 m -1.51,2.706 c 0,0 0,0 0,0 0.169,0.429 0.505,0.825 0.508,1.286 0.006,0.785 0.064,1.741 -0.481,2.306 -0.322,0.335 -0.48,-0.842 -0.483,-1.306 m 3.51,-23.706 c 0,0 0,0 0,0 -0.176,-1.097 -0.506,-2.18 -0.527,-3.29 -0.15,-7.997 -0.142,-15.999 0.016,-23.996 0.009,-0.465 0.279,-1.723 0.484,-1.306 0.492,0.998 0.48,2.189 0.5,3.302 0.142,7.997 0.134,15.999 -0.016,23.996 m -371.493,0.337 c 0,0 0,0 0,0 -0.006,-0.554 -0.509,-1.41 -0.016,-1.663 0.63,-0.324 1.337,0.779 2.029,0.629 0.341,-0.074 0.071,-0.87 -0.245,-1.016 -1.817,-0.846 -3.916,-0.952 -5.746,-1.771 -0.93,-0.416 -1.94,-0.975 -2.411,-1.879 -0.409,-0.786 -0.268,-1.83 0.046,-2.659 0.307,-0.806 1.482,-1.114 1.703,-1.948 0.43,-1.62 0.144,-3.35 0.148,-5.026 0.002,-0.688 0.049,-1.397 -0.132,-2.061 -0.516,-1.897 -0.936,-3.882 -1.945,-5.57 -0.501,-0.838 -1.469,-1.372 -2.392,-1.69 -0.309,-0.107 -0.6,0.322 -0.776,0.596 -0.839,1.303 -1.108,3.01 -2.231,4.075 -0.502,0.477 -1.422,0.237 -2.077,0.012 -1.06,-0.364 -1.837,-1.334 -2.89,-1.718 -0.429,-0.156 -0.94,-0.014 -1.358,0.169 -0.896,0.392 -1.823,0.823 -2.506,1.521 -1.035,1.058 -1.807,2.356 -2.544,3.64 -0.172,0.3 -0.133,0.683 -0.133,1.029 0,2.009 -0.333,4.07 0.133,6.023 0.253,1.055 1.105,1.918 1.933,2.619 1.308,1.108 2.711,2.266 4.365,2.717 1.946,0.531 4.039,0.269 6.051,0.123 0.637,-0.047 1.193,-0.929 1.788,-0.693 0.787,0.312 0.912,1.456 1.548,2.015 1.112,0.977 2.235,2.081 3.641,2.544 m -37.685,-0.168 c 0,0 0,0 0,0 1.464,-0.798 3.026,-1.439 4.393,-2.393 0.89,-0.621 1.675,-1.413 2.316,-2.288 1.231,-1.68 2.609,-3.35 3.266,-5.326 0.544,-1.638 0.362,-3.453 0.221,-5.172 -0.099,-1.196 -1.703,-2.557 -0.932,-3.476 1.225,-1.461 3.502,-1.818 5.409,-1.863 0.875,-0.021 1.203,1.353 2.012,1.686 0.632,0.26 1.646,0.538 2.05,-0.014 0.405,-0.554 -0.163,-1.439 -0.598,-1.97 -0.619,-0.757 -1.461,-1.411 -2.398,-1.689 -0.401,-0.12 -0.653,0.713 -1.068,0.659 -2.348,-0.308 -4.539,-1.487 -6.897,-1.702 -0.746,-0.068 -1.536,0.355 -2.066,0.885 -0.371,0.371 -0.508,1.033 -0.353,1.535 0.33,1.071 1.508,1.79 1.718,2.891 0.383,2.001 0.44,4.122 0.004,6.113 -0.441,2.012 -1.53,3.842 -2.573,5.618 -0.528,0.898 -1.666,1.372 -2.092,2.322 -0.16,0.357 0.507,0.627 0.599,1.007 0.034,0.138 -0.134,0.343 -0.275,0.324 -0.701,-0.093 -1.319,-0.654 -2.025,-0.629 -0.714,0.024 -1.286,0.774 -2,0.768 -1.045,-0.009 -1.983,-0.776 -3.027,-0.812 -0.404,-0.014 -0.614,0.762 -1.007,0.672 -1.405,-0.321 -2.839,-0.859 -3.931,-1.8 -1.423,-1.226 -2.791,-2.722 -3.387,-4.503 -0.636,-1.904 -0.22,-4.016 -0.132,-6.022 0.02,-0.471 0.103,-1.026 0.455,-1.339 0.263,-0.234 0.751,-0.182 1.057,-0.007 0.534,0.307 1.341,0.73 1.271,1.342 -0.097,0.852 -1.399,1.154 -1.65,1.974 -0.233,0.759 -0.318,1.891 0.322,2.361 0.571,0.419 1.32,-0.626 2.029,-0.634 0.389,-0.005 0.729,0.873 1.004,0.597 0.314,-0.314 -0.371,-0.859 -0.303,-1.298 0.059,-0.386 0.601,-0.587 0.651,-0.974 0.174,-1.339 0.619,-2.851 -10e-4,-4.05 -0.618,-1.196 -1.986,-2.025 -3.296,-2.332 -0.923,-0.217 -1.929,0.362 -2.688,0.93 -0.784,0.586 -1.519,1.417 -1.729,2.372 -0.433,1.97 -0.555,4.079 -0.124,6.048 0.45,2.05 1.493,3.97 2.697,5.69 0.839,1.197 2.052,2.13 3.306,2.882 1.368,0.82 2.884,1.443 4.446,1.767 0.396,0.082 0.632,-0.634 1.037,-0.632 0.388,0.002 0.584,0.642 0.973,0.642 0.709,0 1.319,-0.608 2.027,-0.642 m 189.453,-0.681 c 0,0 0,0 0,0 0.766,-0.766 1.781,-1.347 2.298,-2.299 1.14,-2.1 2.007,-4.367 2.578,-6.687 0.101,-0.41 -0.719,-0.656 -0.668,-1.075 0.38,-3.173 0.772,-6.41 1.923,-9.391 0.191,-0.496 0.904,0.6 1.42,0.731 0.135,0.034 0.37,-0.179 0.295,-0.296 -0.998,-1.538 -1.625,-3.699 -3.327,-4.381 -0.884,-0.355 -1.222,1.545 -1.428,2.476 -1.216,5.489 -1.452,11.175 -2.803,16.633 -0.189,0.763 -0.97,1.367 -1.715,1.62 -0.963,0.328 -2.091,0.333 -3.052,0 -0.764,-0.264 -1.272,-1.024 -1.762,-1.667 -0.519,-0.68 -0.865,-1.478 -1.229,-2.253 -0.83,-1.769 -1.88,-3.475 -2.349,-5.372 -0.326,-1.322 -0.164,-2.735 0.013,-4.085 0.052,-0.389 0.813,-0.621 0.653,-0.98 -0.189,-0.422 -0.841,-0.474 -1.304,-0.477 -0.794,-0.005 -2.027,-0.276 -2.339,0.455 -0.665,1.56 -0.384,3.43 -0.023,5.087 0.506,2.318 1.627,4.461 2.582,6.633 0.278,0.632 0.688,1.2 1.104,1.75 0.626,0.825 1.224,1.696 2.014,2.365 0.773,0.656 1.649,1.238 2.612,1.555 0.658,0.217 1.402,0.137 2.08,-0.01 0.382,-0.083 0.583,-0.641 0.974,-0.651 0.39,-0.01 0.624,0.517 1.005,0.601 m -262.044,0.066 c 0,0 0,0 0,0 0.46,-0.447 1.243,-0.714 1.381,-1.341 0.152,-0.692 -0.664,-1.319 -0.641,-2.027 0.022,-0.714 0.776,-1.286 0.768,-2 -0.008,-0.711 -0.782,-1.262 -0.812,-1.973 -0.03,-0.708 0.641,-1.318 0.642,-2.027 0.001,-0.406 -0.687,-0.637 -0.636,-1.04 0.292,-2.289 0.928,-4.529 1.625,-6.729 0.09,-0.284 0.405,-0.479 0.688,-0.572 0.333,-0.11 0.72,-0.115 1.051,-0.002 0.368,0.126 0.577,0.559 0.946,0.686 0.332,0.114 0.719,0.106 1.054,0 0.371,-0.117 0.585,-0.659 0.973,-0.642 0.714,0.03 1.286,0.768 2,0.768 0.714,0 1.286,-0.738 2,-0.768 0.388,-0.017 0.602,0.525 0.973,0.642 0.335,0.106 0.749,0.173 1.054,-10e-4 0.556,-0.315 1.652,-0.801 1.347,-1.362 -0.646,-1.19 -2.036,-1.946 -3.34,-2.309 -0.705,-0.196 -1.31,0.745 -2.038,0.814 -2.128,0.202 -5.08,1.66 -6.414,-0.011 -2.206,-2.763 -1.544,-6.917 -1.922,-10.432 -0.044,-0.408 0.585,-0.62 0.692,-1.016 0.177,-0.652 0.224,-1.353 0.132,-2.022 -0.143,-1.038 -1.162,-2.04 -0.826,-3.031 0.441,-1.303 1.653,-2.316 2.86,-2.975 1.027,-0.561 2.314,-0.624 3.475,-0.484 5.366,0.645 10.606,2.133 15.967,2.823 0.403,0.051 0.634,-0.629 1.04,-0.636 0.388,-0.008 0.612,0.606 1,0.598 0.407,-0.008 0.636,-0.677 1.041,-0.638 3.35,0.321 6.587,1.679 9.952,1.695 1.674,0.008 3.223,-0.948 4.753,-1.628 0.279,-0.124 0.488,-0.432 0.551,-0.731 0.039,-0.182 -0.17,-0.336 -0.297,-0.471 -0.3,-0.318 -0.554,-0.755 -0.974,-0.877 -0.657,-0.191 -1.385,-0.155 -2.052,-0.001 -0.38,0.088 -0.576,0.564 -0.944,0.694 -0.344,0.121 -0.731,0.065 -1.093,0.026 -7.788,-0.84 -15.583,-1.628 -23.347,-2.662 -1.554,-0.207 -3.02,-1.171 -4.584,-1.057 -1.434,0.105 -2.563,1.395 -3.972,1.68 -0.395,0.08 -0.607,-0.619 -1.007,-0.672 -0.511,-0.067 -1.098,0.029 -1.508,0.341 -1.245,0.947 -2.507,1.984 -3.312,3.325 -1.236,2.06 -2.331,4.309 -2.693,6.683 -0.551,3.622 -0.22,7.334 10e-4,10.99 0.043,0.716 0.752,1.288 0.784,2.004 0.017,0.39 -0.568,0.593 -0.651,0.974 -0.149,0.68 -0.123,1.4 -0.019,2.088 0.529,3.468 1.14,6.927 1.913,10.348 0.128,0.568 0.748,0.982 0.779,1.564 0.021,0.411 -0.765,0.661 -0.643,1.054 0.283,0.92 1.017,1.653 1.689,2.341 M 624.5,218.872 c 0,0 0,0 0,0 0.897,-0.529 1.88,-0.933 2.689,-1.587 1.122,-0.907 2.237,-1.876 3.06,-3.06 0.763,-1.097 1.345,-2.359 1.617,-3.666 0.279,-1.344 0.279,-2.774 0,-4.118 -0.272,-1.307 -0.972,-2.496 -1.616,-3.666 -0.267,-0.484 -0.855,-0.748 -1.092,-1.247 -0.151,-0.318 -0.17,-0.748 0,-1.055 0.301,-0.545 0.745,-1.075 1.316,-1.324 0.618,-0.271 1.365,-0.295 2.02,-0.134 1.709,0.421 3.243,1.408 4.947,1.85 0.674,0.175 1.485,0.326 2.086,-0.023 0.406,-0.235 0.493,-0.936 0.315,-1.37 -0.293,-0.711 -0.849,-1.43 -1.574,-1.686 -2.512,-0.89 -5.16,-1.71 -7.825,-1.642 -1.354,0.035 -2.53,1.071 -3.575,1.933 -0.762,0.628 -1.676,1.436 -1.706,2.424 -0.031,1.034 0.936,1.858 1.553,2.689 0.621,0.837 1.827,1.288 2.136,2.284 0.497,1.599 0.223,3.35 0.134,5.022 -0.028,0.52 -0.181,1.061 -0.483,1.486 -0.95,1.338 -1.939,2.698 -3.218,3.726 -0.243,0.195 -0.476,-0.537 -0.786,-0.506 -0.713,0.071 -1.288,0.716 -2.002,0.783 -1.676,0.157 -3.406,0.241 -5.05,-0.123 -1,-0.221 -1.842,-0.931 -2.636,-1.577 -1.112,-0.904 -2.3,-1.813 -3.042,-3.039 -0.856,-1.415 -1.19,-3.091 -1.631,-4.685 -0.097,-0.349 -0.314,-0.983 0.034,-1.088 0.761,-0.228 1.564,0.435 2.356,0.37 0.387,-0.032 0.584,-0.642 0.973,-0.642 0.388,0 0.602,0.525 0.973,0.642 0.335,0.106 0.765,0.198 1.054,-10e-4 0.9,-0.618 1.697,-1.415 2.315,-2.315 0.199,-0.289 0.212,-0.774 0,-1.054 -0.945,-1.248 -1.928,-2.601 -3.316,-3.324 -0.91,-0.475 -2.094,-0.296 -3.08,-0.011 -1.036,0.299 -1.997,0.928 -2.754,1.696 -0.711,0.723 -1.285,1.65 -1.515,2.637 -0.091,0.391 0.542,0.62 0.666,1.002 0.108,0.334 0.109,0.72 0,1.054 -0.126,0.385 -0.772,0.617 -0.676,1.01 0.56,2.3 1.349,4.585 2.535,6.633 0.736,1.271 1.931,2.249 3.114,3.119 1.423,1.045 2.906,2.192 4.63,2.573 m -67.493,-0.342 c 0,0 0,0 0,0 0.421,-0.418 1.05,-0.699 1.262,-1.253 0.739,-1.934 -0.274,-4.989 1.519,-6.024 1.696,-0.978 3.658,1.414 5.541,1.951 2.357,0.672 4.729,1.376 7.162,1.671 0.644,0.078 1.231,-0.74 1.859,-0.577 0.646,0.168 0.742,1.368 1.407,1.424 0.543,0.046 1.185,-0.674 1.096,-1.212 -0.128,-0.778 -0.846,-1.479 -1.585,-1.756 -4.039,-1.515 -8.351,-2.186 -12.455,-3.513 -0.295,-0.095 -0.564,-0.4 -0.6,-0.707 -0.06,-0.511 0.011,-1.109 0.339,-1.505 0.715,-0.865 1.845,-1.297 2.636,-2.093 1.479,-1.489 2.882,-3.063 4.151,-4.736 1.442,-1.902 2.86,-3.849 3.964,-5.966 1.102,-2.117 2.054,-4.346 2.617,-6.665 0.323,-1.333 0.332,-2.784 -0.004,-4.113 -0.332,-1.315 -1.062,-2.543 -1.938,-3.578 -0.938,-1.107 -1.987,-2.384 -3.398,-2.719 -2.621,-0.625 -5.414,-0.379 -8.085,-0.015 -1.324,0.181 -2.493,0.984 -3.669,1.619 -1.042,0.563 -2.039,1.221 -2.962,1.962 -0.772,0.62 -1.603,1.244 -2.098,2.101 -1.217,2.107 -2.177,4.369 -2.967,6.671 -0.782,2.279 -1.352,4.639 -1.731,7.02 -0.158,0.994 -0.072,2.033 0.134,3.019 0.08,0.383 0.675,0.556 0.695,0.947 0.032,0.634 -0.72,1.209 -0.555,1.823 0.173,0.644 1.179,0.787 1.424,1.408 0.117,0.297 -0.5,0.46 -0.564,0.772 -0.138,0.681 -0.218,1.42 -0.015,2.084 0.995,3.272 2.061,6.551 3.575,9.618 0.483,0.98 1.43,1.682 2.316,2.321 m 123.679,-0.748 c 0,0 0,0 0,0 6.529,-1.121 13.085,-2.095 19.588,-3.362 4.69,-0.913 9.371,-1.906 13.978,-3.175 0.512,-0.141 0.706,-0.924 1.23,-1.014 0.398,-0.067 0.643,0.725 1.035,0.629 3.621,-0.891 7.168,-2.106 10.628,-3.498 0.994,-0.4 2.102,-0.91 2.637,-1.838 0.231,-0.401 -0.841,-0.446 -1.303,-0.477 -1.349,-0.09 -2.745,-0.219 -4.055,0.118 -3.713,0.957 -7.182,2.725 -10.883,3.732 -1.198,0.326 -2.545,-0.171 -3.717,0.24 -0.702,0.246 -0.874,1.296 -1.551,1.605 -0.285,0.13 -0.463,-0.459 -0.763,-0.553 -0.347,-0.107 -0.735,-0.101 -1.09,-0.023 -5.311,1.161 -10.478,3.085 -15.876,3.734 -5.002,0.601 -10.097,0.441 -15.115,-0.007 -1.02,-0.091 -1.827,-0.949 -2.636,-1.577 -0.637,-0.495 -1.44,-0.983 -1.662,-1.759 -0.371,-1.299 -0.332,-2.743 10e-4,-4.052 0.152,-0.6 0.753,-1.112 1.35,-1.273 0.39,-0.106 0.648,0.743 1.035,0.628 3.005,-0.889 5.872,-2.204 8.719,-3.514 1.283,-0.591 2.505,-1.33 3.639,-2.173 0.162,-0.12 0.092,-0.396 0.089,-0.598 -0.01,-0.691 0.208,-1.466 -0.13,-2.07 -0.534,-0.957 -1.269,-2.032 -2.325,-2.325 -1.953,-0.543 -4.093,-0.409 -6.08,-0.011 -1.335,0.267 -2.652,0.959 -3.59,1.946 -1.625,1.71 -2.287,4.181 -3.884,5.917 -1.032,1.122 -2.681,1.491 -3.841,2.479 -0.296,0.253 0.84,-0.42 1.152,-0.188 0.715,0.529 1.306,1.322 1.539,2.18 0.105,0.389 -0.571,0.613 -0.675,1.002 -0.173,0.653 -0.263,1.36 -0.131,2.022 0.185,0.929 0.404,1.952 1.058,2.638 1.181,1.24 2.64,2.282 4.232,2.914 m -67.84,1.932 c 0,0 0,0 0,0 1.586,-0.577 3.281,-0.915 4.759,-1.731 0.697,-0.384 1.642,-0.982 1.598,-1.777 -0.076,-1.356 -1.059,-2.538 -1.899,-3.604 -0.625,-0.792 -1.669,-1.147 -2.397,-1.845 -2.186,-2.097 -4.689,-3.975 -6.326,-6.523 -0.334,-0.518 0.692,-1.133 1.271,-1.342 0.485,-0.175 1.06,0.086 1.509,0.34 0.585,0.33 0.914,1.012 1.493,1.353 0.298,0.176 0.683,0.134 1.029,0.134 1.342,-0.003 2.716,0.163 4.021,-0.144 0.31,-0.072 0.611,-0.69 0.359,-0.884 -1.956,-1.506 -4.113,-2.786 -6.382,-3.756 -0.358,-0.153 -0.612,0.603 -1.001,0.598 -0.401,-0.004 -0.655,-0.766 -1.029,-0.622 -1.257,0.484 -2.698,1.106 -3.322,2.299 -0.626,1.196 -0.553,2.819 -10e-4,4.05 0.828,1.843 2.446,3.238 3.902,4.638 1.743,1.677 5.488,2.139 5.652,4.552 0.127,1.869 -3.327,2.219 -5.198,2.133 -2.11,-0.096 -4.35,-1.063 -5.763,-2.632 -1.325,-1.471 -1.033,-3.828 -1.725,-5.683 -0.072,-0.192 -0.338,-0.428 -0.519,-0.331 -0.54,0.287 -1.119,0.712 -1.296,1.296 -0.113,0.372 0.608,0.613 0.598,1.001 -0.01,0.389 -0.524,0.603 -0.65,0.971 -0.173,0.501 0.16,1.211 -0.225,1.575 -0.926,0.875 -2.09,1.818 -3.364,1.814 -2.101,-0.007 -4.229,-0.757 -6.028,-1.842 -0.604,-0.364 -0.985,-1.605 -0.451,-2.065 2.012,-1.732 4.936,-2.08 7.081,-3.643 0.871,-0.635 1.319,-1.744 1.694,-2.754 0.159,-0.428 0.006,-0.937 -0.169,-1.358 -0.35,-0.842 -0.733,-1.72 -1.379,-2.364 -0.694,-0.69 -1.538,-1.494 -2.516,-1.512 -1.406,-0.025 -2.87,0.535 -3.983,1.396 -1.332,1.031 -2.245,2.551 -3.041,4.036 -0.78,1.457 -1.185,3.092 -1.631,4.684 -0.1,0.359 -0.145,0.778 0.007,1.118 0.721,1.61 1.62,3.139 2.567,4.628 0.265,0.415 0.587,0.86 1.043,1.048 1.851,0.76 3.745,1.752 5.746,1.739 2.086,-0.014 3.91,-1.986 5.989,-1.816 1.876,0.152 3.145,2.194 4.957,2.707 m -80.655,-0.338 c 0,0 0,0 0,0 -0.833,-0.747 -1.884,-1.306 -2.499,-2.24 -0.172,-0.261 0.62,-0.497 0.506,-0.787 -0.49,-1.244 -1.699,-2.128 -2.151,-3.386 -1.092,-3.04 -1.435,-6.308 -2.433,-9.38 -0.164,-0.505 -0.976,-0.7 -1.013,-1.23 -0.051,-0.716 0.703,-1.292 0.784,-2.005 0.189,-1.654 0.045,-3.331 0.014,-4.996 -0.013,-0.677 0.033,-1.373 -0.147,-2.026 -0.108,-0.394 -0.746,-0.609 -0.687,-1.013 0.296,-2.025 1.446,-3.868 1.699,-5.899 0.092,-0.733 -0.777,-1.367 -0.7,-2.102 0.589,-5.679 2.033,-11.245 2.676,-16.918 0.046,-0.405 -0.637,-0.634 -0.64,-1.042 -0.002,-0.403 0.731,-0.644 0.629,-1.034 -0.323,-1.234 -1.081,-2.321 -1.783,-3.386 -0.09,-0.136 -0.327,-0.09 -0.485,-0.054 -0.469,0.105 -1.141,0.042 -1.362,0.468 -0.179,0.347 0.61,0.616 0.6,1.006 -0.01,0.39 -0.569,0.592 -0.651,0.974 -0.144,0.669 -0.151,1.385 0,2.052 0.09,0.4 0.722,0.607 0.693,1.016 -0.308,4.331 -1.372,8.585 -1.682,12.916 -0.03,0.425 0.727,0.659 0.679,1.082 -0.345,3.031 -1.532,5.931 -1.824,8.967 -0.319,3.313 -0.319,6.673 0,9.986 0.292,3.036 1.473,5.937 1.824,8.966 0.048,0.416 -0.773,0.666 -0.66,1.069 0.558,2.001 1.469,3.913 2.546,5.69 0.834,1.377 1.716,2.91 3.131,3.68 m -95.125,-0.147 c 0,0 0,0 0,0 2.714,-0.854 5.626,-1.234 8.143,-2.562 0.507,-0.267 0.406,-1.349 -0.032,-1.718 -0.618,-0.523 -1.605,-0.474 -2.402,-0.34 -2.015,0.341 -3.86,1.42 -5.878,1.738 -1.684,0.265 -3.445,0.335 -5.115,-0.007 -1.003,-0.205 -1.827,-0.949 -2.636,-1.577 -0.637,-0.495 -1.439,-0.984 -1.661,-1.759 -0.376,-1.309 -0.291,-2.751 -0.015,-4.085 0.271,-1.308 0.968,-2.499 1.62,-3.666 0.153,-0.274 0.435,-0.596 0.748,-0.572 0.714,0.054 1.288,0.723 2.001,0.782 2.012,0.165 4.075,0.272 6.056,-0.119 1.415,-0.28 2.903,-0.82 3.912,-1.852 0.598,-0.612 0.818,-1.804 0.379,-2.538 -0.691,-1.156 -1.981,-2.043 -3.296,-2.338 -2.303,-0.517 -4.92,-0.94 -7.08,0.011 -2.449,1.078 -4.065,3.527 -5.723,5.626 -0.828,1.048 -1.375,2.353 -1.617,3.666 -0.308,1.677 -0.337,3.443 0.004,5.113 0.204,1.003 0.95,1.827 1.577,2.636 0.595,0.768 1.243,1.535 2.06,2.059 1.124,0.722 2.349,1.396 3.666,1.617 m 31.517,-2.343 c 0,0 0,0 0,0 0.282,-0.339 0.8,-0.58 0.844,-1.018 0.039,-0.389 -0.527,-0.606 -0.645,-0.978 -0.106,-0.335 -0.11,-0.72 0,-1.054 0.126,-0.386 0.736,-0.61 0.678,-1.012 -0.34,-2.376 -1.696,-4.57 -1.821,-6.968 -0.485,-9.317 -0.257,-18.663 10e-4,-27.99 0.02,-0.713 0.8,-1.262 0.828,-1.976 0.027,-0.722 -0.785,-1.347 -0.672,-2.061 0.208,-1.322 0.953,-2.508 1.579,-3.691 0.258,-0.486 1.016,-0.725 1.049,-1.274 0.038,-0.617 -0.44,-1.194 -0.873,-1.634 -0.686,-0.697 -1.426,-1.588 -2.398,-1.689 -0.628,-0.066 -1.139,0.713 -1.379,1.296 -0.261,0.632 -0.145,1.383 -10e-4,2.052 0.082,0.382 0.641,0.583 0.651,0.974 0.011,0.388 -0.605,0.612 -0.598,1 0.006,0.405 0.703,0.639 0.632,1.037 -0.305,1.702 -1.442,3.192 -1.696,4.902 -0.106,0.714 0.684,1.34 0.662,2.061 -0.021,0.717 -0.748,1.287 -0.784,2.004 -0.259,5.174 0.927,10.463 -0.093,15.542 -0.252,1.251 -2.151,1.47 -3.388,1.783 -0.391,0.099 -0.622,-0.546 -1.005,-0.672 -0.343,-0.112 -0.75,-0.152 -1.084,-0.013 -0.934,0.388 -1.895,0.833 -2.611,1.548 -0.762,0.762 -1.417,1.712 -1.696,2.754 -0.349,1.304 -0.334,2.714 -0.124,4.047 0.38,2.414 1.138,4.757 1.878,7.085 0.195,0.614 0.377,1.349 0.916,1.701 1.731,1.131 3.647,2.027 5.638,2.583 1.301,0.363 2.702,0.206 4.05,0.123 m 148.045,-1.168 c 0,0 0,0 0,0 -0.449,-0.105 -1.334,0.147 -1.346,-0.314 -0.011,-0.456 0.884,-0.436 1.329,-0.332 m -94.979,-0.347 c 0,0 0,0 0,0 -2.024,0.01 -4.061,0.263 -6.071,0.028 -0.614,-0.072 -1.168,-0.491 -1.607,-0.926 -0.696,-0.688 -1.509,-1.419 -1.729,-2.372 -0.38,-1.65 -0.225,-3.403 0.01,-5.08 0.086,-0.612 0.486,-1.173 0.926,-1.607 0.707,-0.697 1.444,-1.699 2.437,-1.712 1.668,-0.023 3.206,0.95 4.735,1.616 0.282,0.123 0.604,0.397 0.595,0.705 -0.021,0.722 -0.775,1.345 -0.674,2.061 0.244,1.716 1.37,3.218 1.666,4.926 0.069,0.399 -0.627,0.632 -0.633,1.037 -0.005,0.392 0.505,0.63 0.604,1.01 m 56.448,-1.618 c 0,0 0,0 0,0 -0.469,-1.059 -1.075,-2.068 -1.406,-3.178 -0.703,-2.353 -1.338,-4.741 -1.682,-7.173 -0.047,-0.33 0.677,-0.528 0.548,-0.835 -0.263,-0.624 -1.499,-0.709 -1.484,-1.385 0.031,-1.37 1.343,-2.441 1.601,-3.787 0.076,-0.398 -0.592,-0.612 -0.681,-1.008 -0.152,-0.678 -0.227,-1.423 -0.013,-2.085 0.715,-2.213 1.588,-4.399 2.76,-6.408 0.744,-1.273 1.762,-2.409 2.92,-3.321 1.101,-0.866 2.442,-1.387 3.737,-1.918 1.607,-0.659 3.208,-1.695 4.944,-1.643 1.673,0.049 3.248,0.99 4.635,1.926 0.811,0.547 1.436,1.437 1.731,2.369 0.309,0.979 0.156,2.067 -0.01,3.08 -0.062,0.386 -0.646,0.583 -0.651,0.974 -0.006,0.401 0.776,0.659 0.622,1.028 -1.308,3.121 -2.758,6.247 -4.801,8.944 -2.113,2.791 -4.632,5.352 -7.522,7.327 -0.506,0.346 -1.131,-0.71 -1.299,-1.298 -0.107,-0.376 0.569,-0.593 0.651,-0.975 0.144,-0.669 0.144,-1.383 0,-2.052 -0.082,-0.382 -0.647,-0.583 -0.651,-0.974 -0.005,-0.403 0.731,-0.644 0.628,-1.034 -0.324,-1.224 -0.945,-2.406 -1.788,-3.35 -0.211,-0.237 -0.851,0.043 -0.882,0.359 -0.329,3.325 -0.322,6.686 -0.144,10.021 0.038,0.717 0.975,1.313 0.784,2.005 m -112.279,4.451 c 0,0 0,0 0,0 -0.33,0.3 -0.554,0.803 -0.989,0.9 -1.004,0.224 -2.126,0.382 -3.085,0.01 -1.411,-0.546 -2.798,-1.419 -3.696,-2.637 -0.996,-1.352 -1.408,-3.084 -1.736,-4.731 -0.259,-1.305 -0.167,-2.671 10e-4,-3.991 0.079,-0.618 0.174,-1.433 0.726,-1.722 1.696,-0.886 4.363,-3.064 5.527,-1.546 2.48,3.232 1.42,8.032 2.469,11.969 0.144,0.541 0.836,0.789 1.065,1.3 m 55.889,-0.79 c 0,0 0,0 0,0 -0.515,-0.72 -1.362,-1.294 -1.546,-2.161 -0.149,-0.702 0.641,-1.335 0.654,-2.053 0.007,-0.389 -0.712,-0.629 -0.598,-1.001 0.18,-0.586 0.69,-1.301 1.304,-1.3 0.463,0.002 0.466,0.842 0.479,1.305 m 102.543,4.286 c 0,0 0,0 0,0 -0.12,-0.437 -0.351,-0.858 -0.359,-1.31 -0.002,-0.146 0.255,-0.405 0.332,-0.282 0.245,0.387 0.325,0.875 0.332,1.332 m -19.258,-3.68 c 0,0 0,0 0,0 -0.699,-0.002 -1.491,0.34 -2.098,-0.006 -0.408,-0.233 -0.525,-0.951 -0.318,-1.372 0.601,-1.22 1.496,-2.33 2.558,-3.18 0.243,-0.195 0.475,0.522 0.786,0.506 0.387,-0.02 0.626,-0.705 0.998,-0.597 0.593,0.17 1.034,0.738 1.342,1.272 0.175,0.303 0.243,0.8 -10e-4,1.052 m 31.704,-0.701 c 0,0 0,0 0,0 -0.783,-0.108 -2.321,0.465 -2.347,-0.324 -0.026,-0.783 1.549,-0.444 2.325,-0.337 m 52.654,-0.618 c 0,0 0,0 0,0 0.115,-0.516 -0.023,-1.167 0.343,-1.549 0.8,-0.834 1.814,-1.543 2.926,-1.858 1.299,-0.369 2.702,-0.211 4.05,-0.122 0.462,0.031 1.068,0.078 1.303,0.476 0.16,0.274 -0.291,0.622 -0.578,0.756 -2.163,1.006 -4.368,1.957 -6.661,2.612 m -252.989,-1.012 c 0,0 0,0 0,0 -1.762,-0.053 -3.742,0.692 -5.286,-0.159 -0.787,-0.434 1.323,-1.558 2.222,-1.531 m 140.431,-5.607 c 0,0 0,0 0,0 0.288,-0.349 0.815,-0.596 0.864,-1.046 0.042,-0.388 -0.645,-0.587 -0.645,-0.978 -0.001,-0.709 0.896,-1.366 0.642,-2.028 -0.389,-1.013 -1.219,-2.324 -2.304,-2.3 -0.796,0.019 -0.539,1.585 -0.362,2.361 m 320.868,-1.016 c 0,0 0,0 0,0 0.166,-1.116 0.01,-2.33 0.499,-3.346 0.201,-0.419 0.454,0.842 0.484,1.306 0.085,1.338 0.122,2.706 -0.146,4.02 -0.045,0.22 -0.588,0.207 -0.675,0 m 1.007,-15.3 c 0,0 0,0 0,0 -0.605,-1.783 -1.027,-3.638 -1.815,-5.348 -0.559,-1.212 -1.701,-2.109 -2.197,-3.348 -0.173,-0.433 -0.054,-1.074 0.311,-1.362 0.338,-0.266 0.878,-0.035 1.285,0.103 1.42,0.483 3.793,0.287 4.146,1.744 m 4.627,0.777 c 0,0 0,0 0,0 -0.12,-0.437 -0.352,-0.858 -0.359,-1.31 -0.003,-0.146 0.255,-0.405 0.332,-0.282 0.245,0.387 0.325,0.875 0.332,1.332 m 6.743,-4.675 c 0,0 0,0 0,0 -2.367,-0.004 -4.775,0.422 -7.103,-0.013 -0.46,-0.086 -0.559,-0.976 -0.307,-1.371 0.258,-0.404 0.927,-0.424 1.397,-0.336 m -6.012,1.703 c 0,0 0,0 0,0 -1.681,0.049 -3.368,0.291 -5.043,0.148 -9.411,-0.803 -18.834,-1.604 -28.177,-2.985 -0.773,-0.115 1.402,-0.886 2.183,-0.858 9.985,0.352 19.955,1.115 29.907,1.99 0.754,0.066 1.697,0.193 2.114,0.823 m -602.358,0.589 c 0,0 0,0 0,0 -0.053,-1.347 -0.242,-2.696 -0.16,-4.041 0.028,-0.464 0.02,-1.306 0.484,-1.306 0.464,0 0.432,0.844 0.484,1.306 0.112,0.991 0.112,2.001 0,2.992 -0.053,0.463 -0.204,0.941 -0.488,1.31 m 3.053,-14.977 c 0,0 0,0 0,0 -0.783,-0.108 -1.921,0.34 -2.349,-0.324 -0.335,-0.519 0.737,-1.039 1.272,-1.347 0.306,-0.175 0.866,-0.289 1.057,0.007"
       id="path6" />
  </g>
  <metadata
     id="metadata831">
    <rdf:RDF>
      <cc:Work
         rdf:about="">
        <dc:title>Figures notes</dc:title>
      </cc:Work>
    </rdf:RDF>
  </metadata>
</svg>
