<?xml version="1.0" encoding="UTF-8" standalone="no"?>
<svg
   width="246.21271pt"
   height="82.188438pt"
   viewBox="0 0 246.21271 82.188438"
   version="1.2"
   id="svg7"
   sodipodi:docname="us-financial-sytem-individual.svg"
   inkscape:version="1.1.1 (3bf5ae0d25, 2021-09-20, custom)"
   xmlns:inkscape="http://www.inkscape.org/namespaces/inkscape"
   xmlns:sodipodi="http://sodipodi.sourceforge.net/DTD/sodipodi-0.dtd"
   xmlns="http://www.w3.org/2000/svg"
   xmlns:svg="http://www.w3.org/2000/svg">
  <defs
     id="defs11" />
  <sodipodi:namedview
     id="namedview9"
     pagecolor="#ffffff"
     bordercolor="#cccccc"
     borderopacity="1"
     inkscape:pageshadow="0"
     inkscape:pageopacity="1"
     inkscape:pagecheckerboard="0"
     inkscape:document-units="pt"
     showgrid="false"
     fit-margin-top="0"
     fit-margin-left="0"
     fit-margin-right="0"
     fit-margin-bottom="0"
     inkscape:zoom="1.0921717"
     inkscape:cx="202.80694"
     inkscape:cy="65.465896"
     inkscape:window-width="1920"
     inkscape:window-height="1080"
     inkscape:window-x="0"
     inkscape:window-y="0"
     inkscape:window-maximized="1"
     inkscape:current-layer="surface3406" />
  <g
     id="surface3406"
     transform="translate(-70.804194,-255.06116)">
    <path
       style="fill:#000000;fill-opacity:1;fill-rule:nonzero;stroke:none"
       d="m 204.58203,337.21875 c 1.74219,-0.48047 3.50781,-0.90234 5.23438,-1.43359 0.0937,-0.0312 0.20703,-0.14063 0.17578,-0.23438 -0.0625,-0.18359 -0.21485,-0.36719 -0.40235,-0.42578 -0.3125,-0.0977 -0.66015,-0.0781 -0.98047,-0.008 -1.3789,0.32422 -2.70312,0.86328 -4.08593,1.18359 -0.16407,0.0391 -0.34375,-0.0273 -0.48828,-0.11328 -0.16797,-0.0977 -0.29688,-0.25781 -0.41407,-0.41406 -0.1914,-0.26563 -0.38281,-0.53516 -0.5,-0.83594 -0.0625,-0.15625 -0.17578,-0.44531 -0.0195,-0.5 1.30078,-0.47656 2.70313,-0.60547 4.03906,-0.97266 0.12891,-0.0351 0.27735,-0.10547 0.32813,-0.22656 0.043,-0.10937 -0.0117,-0.25781 -0.10156,-0.33203 -0.082,-0.0742 -0.21485,-0.043 -0.32422,-0.0469 -0.74219,-0.0117 -1.48438,-0.0703 -2.21875,0 -0.33203,0.0352 -0.6211,0.28125 -0.95703,0.3086 -0.35157,0.0273 -0.8125,0.11328 -1.0586,-0.14453 -0.22265,-0.23828 -0.082,-0.66407 -0.008,-0.98047 0.32031,-1.38281 0.89063,-2.69922 1.18359,-4.08594 0.043,-0.20312 -0.38671,-0.54687 -0.18359,-0.59766 1.9375,-0.5 3.99219,-0.40234 5.93359,-0.88281 0.1836,-0.0469 0.0469,-0.53125 -0.14453,-0.55078 -1.6914,-0.17969 -3.41406,-0.19922 -5.10547,-0.008 -0.74609,0.082 -1.42968,0.46484 -2.09765,0.8125 -0.22656,0.12109 -0.42969,0.32812 -0.53125,0.5625 -0.0859,0.19922 -0.10156,0.46094 0,0.65234 0.19922,0.37891 0.85156,0.52735 0.85156,0.95703 -0.004,1.08594 -0.66406,2.07032 -0.85937,3.14063 -0.0937,0.53125 -0.11329,1.09375 0.004,1.625 0.19922,0.9375 0.46485,1.88281 0.9336,2.71875 0.22265,0.40234 0.66015,0.67187 1.07812,0.86328 m -11.26562,-0.74219 c 0.14453,-0.24609 0.32031,-0.47265 0.42578,-0.73437 0.2539,-0.6211 0.47656,-1.26172 0.65625,-1.91016 0.32422,-1.16797 0.42187,-2.39844 0.84765,-3.53516 0.0547,-0.14453 0.32032,-0.0117 0.46485,0.0391 0.0937,0.0273 0.1914,0.0898 0.21875,0.18359 0.32031,1.11328 0.44531,2.27734 0.8125,3.37891 0.21875,0.65234 0.5664,1.25781 0.93359,1.83984 0.13672,0.21875 0.3125,0.45313 0.55859,0.52734 0.1875,0.0547 0.49219,-0.004 0.5586,-0.1914 0.71875,-2.01563 1.10937,-4.13672 1.71484,-6.19141 0.1875,-0.64062 0.40235,-1.27734 0.66797,-1.88672 0.0742,-0.16797 0.37109,-0.23828 0.34375,-0.41797 -0.0586,-0.39843 -0.26172,-0.80078 -0.56641,-1.0625 -0.11718,-0.10156 -0.32812,0.082 -0.41015,0.21094 -0.19922,0.3125 -0.29297,0.6875 -0.39844,1.04688 -0.47656,1.6289 -0.83203,3.29297 -1.34375,4.91015 -0.19141,0.58985 -0.13281,1.6836 -0.75391,1.70313 -0.59765,0.0156 -0.51953,-1.08594 -0.66015,-1.66406 -0.35547,-1.45704 -0.44531,-2.97266 -0.82422,-4.42579 -0.0352,-0.14062 -0.28125,-0.3125 -0.375,-0.20312 -0.32813,0.39062 -0.39453,0.94922 -0.64063,1.39844 -0.0156,0.0312 -0.0586,-0.043 -0.0703,-0.0742 -0.28515,-1.10938 -0.43359,-2.25781 -0.8125,-3.33985 -0.082,-0.23046 -0.30078,-0.4375 -0.53906,-0.5039 -0.41016,-0.11719 -0.89453,-0.17969 -1.28516,0 -0.51953,0.23437 -0.6914,1.11328 -1.26172,1.15625 -0.47656,0.0391 -0.65234,-0.71094 -1.05078,-0.97656 -0.66015,-0.44532 -1.32812,-0.96094 -2.10547,-1.13672 -0.9375,-0.21094 -1.93359,-0.10938 -2.89062,0 -0.77344,0.0859 -1.52344,0.33984 -2.26172,0.57812 -0.20703,0.0664 -0.39844,0.1875 -0.56641,0.32422 -0.16406,0.13672 -0.48046,0.27734 -0.42187,0.48438 0.14062,0.46875 0.57031,0.80078 0.91406,1.15234 0.25391,0.26172 0.55469,0.48828 0.86719,0.68359 0.39844,0.25 0.82422,0.45703 1.25781,0.64453 0.85156,0.36719 1.75391,0.61329 2.59375,1.01563 0.24219,0.11328 0.76563,0.29297 0.61719,0.51953 -0.40234,0.62109 -1.11719,1.01172 -1.80078,1.29688 -1.28125,0.53906 -2.66797,0.80859 -4.01563,1.14843 -0.21093,0.0547 -0.4375,0.0586 -0.65234,0.0352 -0.14844,-0.0117 -0.35938,-0.008 -0.42578,-0.14063 -0.0742,-0.14843 0.0156,-0.34375 0.10547,-0.48046 0.19922,-0.30469 0.61718,-0.45704 0.73047,-0.80079 0.0469,-0.14062 -0.26954,-0.13671 -0.41407,-0.15234 -0.21484,-0.0234 -0.46093,-0.0742 -0.64062,0.043 -0.41797,0.26953 -0.77735,0.64062 -1.05469,1.05469 -0.0977,0.14453 -0.13672,0.40234 -0.0117,0.53125 0.375,0.38672 0.86719,0.67578 1.375,0.85937 0.3086,0.11328 0.66406,0.0742 0.98828,0.004 1.46094,-0.31641 2.95313,-0.57422 4.33203,-1.14844 0.86719,-0.35937 1.50391,-1.125 2.30079,-1.61719 0.0977,-0.0586 0.25781,-0.0742 0.33593,0.004 0.10547,0.10547 0.125,0.28516 0.10157,0.43359 -0.0195,0.1211 -0.20313,0.17578 -0.22266,0.29688 -0.0586,0.42969 -0.082,0.875 -0.004,1.29687 0.0977,0.51953 0.3086,1.00782 0.51953,1.48828 0.0391,0.0899 0.12891,0.16016 0.22266,0.19141 0.14453,0.0469 0.41016,0.1875 0.45703,0.0391 0.41016,-1.33593 -0.043,-2.99609 0.79688,-4.11328 0.44922,-0.60156 1.51562,-0.0976 2.2539,0.0469 0.14844,0.0273 0.13672,0.27734 0.14453,0.42578 0.0312,0.53515 0.0742,1.08203 -0.0352,1.60547 -0.17578,0.83203 -0.48828,1.63281 -0.80469,2.42578 -0.1875,0.46875 -0.49609,0.88281 -0.69531,1.34765 -0.0469,0.10157 -0.0508,0.22266 -0.0352,0.33204 0.0195,0.14843 0.0273,0.32421 0.14063,0.42578 0.082,0.0742 0.23437,0.0547 0.33203,0 m -3.60547,-7.39453 c -0.10156,-0.19141 -0.13672,-0.44141 -0.30859,-0.57813 -0.34766,-0.27734 -0.77344,-0.44531 -1.1875,-0.60937 -0.79688,-0.3086 -1.64454,-0.47266 -2.4336,-0.80469 -0.34375,-0.14844 -0.64844,-0.38672 -0.9414,-0.625 -0.28907,-0.23828 -1.03907,-0.51172 -0.79297,-0.79297 0.4414,-0.50781 1.27734,-0.44141 1.94531,-0.52734 0.84375,-0.10547 1.72266,-0.20704 2.55469,-0.0352 0.95703,0.19531 1.82812,0.6875 2.70312,1.12109 0.19531,0.0937 0.48047,0.22657 0.48047,0.44922 0,0.19531 -0.38281,0.16797 -0.48047,0.33594 -0.29687,0.50391 -0.33984,1.13281 -0.66406,1.62109 -0.16797,0.25782 -0.48438,0.39453 -0.76172,0.53516 m 3.5,-0.25781 c -0.42969,-0.004 -0.85937,0.0351 -1.28125,-0.008 -0.15234,-0.0156 -0.47656,-0.0195 -0.42187,-0.16015 0.26562,-0.69531 0.7539,-1.29297 1.20703,-1.88672 0.21875,-0.29297 0.48047,-0.56641 0.78906,-0.75391 0.13672,-0.0859 0.38672,-0.15625 0.48437,-0.0273 0.3125,0.39453 0.48829,0.89453 0.59375,1.38672 0.0937,0.42187 0.11719,0.88281 -0.008,1.29687 -0.043,0.14453 -0.27734,0.12891 -0.42578,0.14453 m 9.9375,-1.7539 c -0.0352,0.14453 0.0469,0.42578 -0.10156,0.42969 -0.14453,0.004 -0.13672,-0.28125 -0.10547,-0.42188 M 98.035156,326.99219 c 0.09375,-0.10547 0.242188,-0.17969 0.28125,-0.3125 0.0625,-0.21485 0.07813,-0.45703 0.0078,-0.66407 -0.234375,-0.65625 -0.542969,-1.28515 -0.902344,-1.8789 -0.140625,-0.23047 -0.363281,-0.41016 -0.582031,-0.57422 -0.96875,-0.71094 -2.03125,-1.29688 -2.976563,-2.03906 -0.539062,-0.42578 -0.945312,-1.00391 -1.464843,-1.44922 -0.253907,-0.21875 -0.601563,-0.3086 -0.847657,-0.53906 -1.289062,-1.20704 -2.59375,-2.41407 -3.746093,-3.75391 -0.792969,-0.92188 -1.296876,-2.06641 -2.070313,-3.00781 -0.214844,-0.25782 -0.585937,-0.32422 -0.847656,-0.53516 -0.339844,-0.27734 -0.554688,-0.72266 -0.949219,-0.91406 -0.292969,-0.13672 -0.734375,-0.21485 -0.96875,0.008 -0.1875,0.17188 0.136719,0.48828 0.160156,0.74219 0.01953,0.21484 0.05469,0.45312 -0.03906,0.64844 -0.496094,1.04296 -1.207032,1.96875 -1.703125,3.00781 -0.570313,1.1875 -1.023438,2.42578 -1.492188,3.65625 -0.308593,0.82422 -0.605469,1.65625 -0.84375,2.5039 -0.05859,0.21094 -0.05859,0.4336 -0.03516,0.65235 0.01563,0.16406 0.06641,0.32812 0.152344,0.46875 0.07031,0.11719 0.183593,0.22265 0.308593,0.27344 0.101563,0.043 0.238282,0.0586 0.335938,0 0.167969,-0.0977 0.351562,-0.23438 0.402344,-0.42579 0.03125,-0.11718 -0.164063,-0.1914 -0.203125,-0.30859 -0.03516,-0.10937 -0.04297,-0.23437 -0.0078,-0.34375 0.5625,-1.69531 1.164063,-3.375 1.796875,-5.04297 0.277344,-0.73047 0.585938,-1.45312 0.9375,-2.14844 0.277344,-0.54687 0.582031,-1.07812 0.9375,-1.57421 0.152344,-0.20704 0.335938,-0.61719 0.570313,-0.51172 0.636718,0.28906 1.070312,0.91797 1.515625,1.46093 0.429687,0.52344 0.683593,1.16797 1.089843,1.70704 0.234376,0.3125 0.574219,0.52734 0.816407,0.83203 0.183593,0.23047 0.265625,0.53125 0.453125,0.7539 0.367187,0.4375 0.773437,0.84766 1.210937,1.21875 0.253907,0.21485 0.589844,0.32032 0.84375,0.53516 0.519531,0.44922 0.9375,1.01172 1.464844,1.44922 0.746094,0.62109 1.585937,1.12109 2.34375,1.72656 0.300781,0.24219 0.519531,0.57813 0.832031,0.8125 0.550782,0.41797 1.316406,0.58594 1.746094,1.12891 0.574219,0.73437 0.667969,1.7539 1.152344,2.55078 m 114.152348,-5.42969 c 3.21484,-0.28906 6.4375,-0.50391 9.64453,-0.875 0.26953,-0.0312 0.61719,-0.082 0.7539,-0.31641 0.22266,-0.38281 -0.004,-0.92187 0.19922,-1.3164 0.16407,-0.3125 0.875,-0.32031 0.82422,-0.67188 -0.0547,-0.36718 -0.64844,-0.3789 -0.99609,-0.51172 -0.16797,-0.0625 -0.40235,0.0469 -0.53906,-0.0742 -0.95313,-0.8711 -1.79297,-1.86329 -2.65235,-2.82813 -0.0898,-0.10156 -0.0859,-0.26562 -0.18359,-0.35547 -0.22656,-0.21094 -0.45313,-0.5039 -0.76172,-0.53515 -0.19531,-0.0195 -0.33203,0.23828 -0.43359,0.41015 -0.0547,0.0977 -0.0703,0.25 0,0.33594 0.72265,0.83984 1.59375,1.54687 2.32812,2.37891 0.0586,0.0625 0.0703,0.19921 0.008,0.25781 -0.0781,0.0742 -0.21484,0.043 -0.32422,0.0469 -0.52734,0.0117 -1.05859,0.0547 -1.58593,0 -0.32813,-0.0351 -0.62891,-0.2539 -0.96094,-0.26172 -0.125,-0.008 -0.17969,0.1836 -0.30078,0.21875 -0.20313,0.0586 -0.42578,0.0586 -0.64063,0.043 -2.60547,-0.21093 -5.19922,-0.51562 -7.80468,-0.71875 -2.89063,-0.22656 -5.78125,-0.4375 -8.67188,-0.5664 -5.59375,-0.2461 -11.19141,-0.30078 -16.78125,-0.55469 -0.0898,-0.004 -0.15234,-0.12891 -0.15234,-0.21875 0,-0.0898 0.23437,-0.1875 0.15234,-0.22656 -0.55469,-0.26563 -1.96484,0.0351 -1.76562,-0.54688 0.27734,-0.79687 1.51953,-0.73047 2.3125,-1.01953 0.60937,-0.22266 1.22656,-0.50781 1.875,-0.51953 0.21484,0 0.23828,0.57031 0.42968,0.47656 0.21485,-0.10547 0.14844,-0.49219 0.0508,-0.71094 -0.0586,-0.13671 -0.27343,-0.14062 -0.42578,-0.14453 -0.74609,-0.0312 -1.50781,-0.11328 -2.23828,0.0391 -0.64453,0.13281 -1.21875,0.5039 -1.80859,0.80468 -1.37891,0.71094 -2.80078,1.36328 -4.09375,2.22657 -0.28516,0.1875 -0.42578,0.55078 -0.53906,0.875 -0.0742,0.20703 -0.0703,0.45703 0,0.66796 0.0977,0.30469 0.26562,0.59766 0.49218,0.82813 0.27735,0.28125 0.61719,0.5 0.97657,0.66016 1.95312,0.86718 3.90625,1.74218 5.93359,2.40625 0.14062,0.0469 0.13672,-0.28125 0.11719,-0.42969 -0.0156,-0.10547 -0.11328,-0.19531 -0.20703,-0.24219 -1.79688,-0.90625 -3.64844,-1.69141 -5.44141,-2.60547 -0.32813,-0.16797 -0.76563,-0.28906 -0.91406,-0.6289 -0.11328,-0.26172 0.0664,-0.625 0.28125,-0.8125 0.59375,-0.51954 1.30859,-0.89454 2.03125,-1.21094 0.15234,-0.0664 0.33593,0.0391 0.48828,0.11328 0.3164,0.15625 0.57031,0.43359 0.89844,0.57812 0.49609,0.21485 1.0039,0.45704 1.54296,0.49219 6.32813,0.39844 12.67188,0.4336 19,0.80469 4.76172,0.27734 9.5,0.87109 14.26172,1.13281 0.4375,0.0274 0.85157,-0.29687 1.28907,-0.26953 1.00781,0.0703 1.99609,0.33594 2.98046,0.56641 0.32422,0.0742 0.69532,0.11328 0.94141,0.33984 0.12109,0.10938 0.0195,0.33203 -0.0234,0.48828 -0.0273,0.0899 -0.0859,0.20313 -0.17968,0.21485 -3.34766,0.35937 -6.71485,0.55859 -10.06641,0.88671 -0.41016,0.043 -0.82031,0.10938 -1.22266,0.21875 -0.35547,0.0977 -0.76172,0.14844 -1.02734,0.40235 -0.10156,0.10156 0.17578,0.27344 0.32031,0.28515 m 102.58985,-2.00781 c -0.0586,-0.0781 -0.0859,-0.19922 -0.17579,-0.23828 -0.43359,-0.18359 -0.89453,-0.28125 -1.34765,-0.39844 -1.625,-0.42187 -3.23828,-0.90234 -4.89063,-1.21484 -3.92578,-0.73828 -7.8789,-1.32813 -11.82812,-1.9375 -2.92578,-0.45313 -5.85547,-0.875 -8.78906,-1.25391 -9.17579,-1.19531 -18.34375,-2.45703 -27.53907,-3.48047 -6.98437,-0.77734 -13.99218,-1.32031 -20.99218,-1.92578 -4.02735,-0.34765 -8.0586,-0.66406 -12.09375,-0.92968 -3.72266,-0.2461 -7.44922,-0.4375 -11.17188,-0.60938 -3.54687,-0.16016 -7.09766,-0.28516 -10.64453,-0.38281 -11.03125,-0.29688 -22.0625,-0.59766 -33.09375,-0.80078 -3.59375,-0.0664 -7.19141,-0.0469 -10.78516,0 -11.84765,0.16015 -23.6914,0.45312 -35.53906,0.6289 -2.21875,0.0352 -4.44531,0.125 -6.66015,-0.004 -1.17188,-0.0664 -2.3086,-0.45703 -3.47266,-0.58985 -0.25391,-0.0273 -0.55078,-0.0391 -0.75,0.11719 -0.0977,0.0781 0.1875,0.19531 0.1875,0.32031 0,0.1211 -0.16016,0.19922 -0.1875,0.31641 -0.0117,0.0469 0.043,0.10937 0.0859,0.10547 0.32812,-0.0469 0.6289,-0.28516 0.96093,-0.25391 1.07422,0.0937 2.09766,0.59375 3.17579,0.6211 8.03515,0.18359 16.07421,0.0156 24.11328,0.004 0.21484,0 0.43359,0.0117 0.64062,-0.0469 0.12109,-0.0352 0.17969,-0.20313 0.30078,-0.22266 0.42188,-0.0742 0.85156,-0.0469 1.27735,-0.0469 0.32031,0 0.64843,-0.0156 0.96093,0.0469 0.22266,0.043 0.40235,0.25781 0.62891,0.26563 4.12109,0.0859 8.24609,0.0156 12.37109,0.004 0.21485,0 0.4375,0.004 0.64453,-0.0469 0.21875,-0.0547 0.39844,-0.26172 0.62891,-0.26563 4.33203,-0.0859 8.66797,-0.0703 13.00391,0 8.39453,0.12891 16.78515,0.35938 25.17968,0.59375 2.71485,0.0781 5.42579,0.25 8.14454,0.34766 0.52734,0.0195 1.05859,0.0586 1.58203,0 0.22656,-0.0234 0.40625,-0.23438 0.63672,-0.25 0.12109,-0.008 0.1914,0.19531 0.3164,0.1914 0.12891,-0.004 0.19922,-0.21093 0.33203,-0.20312 5.67578,0.29297 11.34766,0.70703 17.02344,1.10156 4.02734,0.28125 8.05859,0.57813 12.08203,0.92578 7.04297,0.60547 14.08985,1.13672 21.11328,1.94141 11.52735,1.32031 23.03125,2.85156 34.52735,4.4375 4.6875,0.64453 9.35547,1.45703 14.02343,2.25391 1.66016,0.28515 3.29688,0.6875 4.95313,0.98828 0.21484,0.0391 0.4375,0.0586 0.65625,0.0351 m -41.55469,-6.39843 c -0.14062,-0.0312 -0.42187,0.0469 -0.42578,-0.0977 -0.004,-0.14453 0.28125,-0.14063 0.42188,-0.10547 M 84.878906,310.91016 c 0.07813,-0.0625 0.195313,-0.0937 0.230469,-0.1875 0.222656,-0.58594 0.398437,-1.19141 0.523437,-1.80469 0.0625,-0.31641 0.08203,-0.64844 0.03516,-0.96875 -0.03125,-0.22656 -0.253907,-0.40235 -0.261719,-0.62891 -0.0078,-0.23047 0.242188,-0.42578 0.214844,-0.65625 -0.292969,-2.32812 -0.851563,-4.62109 -1.175782,-6.94531 -0.07031,-0.49609 -0.355468,-1.14063 -0.0078,-1.49609 0.851562,-0.8711 2.15625,-1.13672 3.199219,-1.76563 1.25,-0.75781 2.40625,-1.66406 3.675781,-2.39062 0.957031,-0.54688 2.042969,-0.84766 2.984375,-1.41797 0.347656,-0.20703 0.707031,-0.5 0.832031,-0.88282 0.05859,-0.1875 -0.234375,-0.32812 -0.402344,-0.42578 -0.09766,-0.0586 -0.234374,-0.0508 -0.335937,0 -0.164063,0.0781 -0.25,0.26953 -0.410156,0.35547 -1.289063,0.71485 -2.644531,1.3086 -3.925781,2.03906 -0.941407,0.53907 -1.800782,1.21875 -2.734376,1.76954 -0.875,0.51171 -2.121093,2.2539 -2.691406,1.41796 -1.25,-1.82421 -1.886718,-4.6289 -0.84375,-6.57812 0.847656,-1.57813 3.457032,-0.94141 5.164063,-1.48047 1.136719,-0.35937 2.300781,-0.67969 3.367187,-1.21875 1.261719,-0.64062 2.421875,-1.46875 3.570313,-2.29297 0.375,-0.27344 0.691406,-0.625 0.984375,-0.98437 0.203125,-0.25 0.363281,-0.53907 0.5,-0.83594 0.04687,-0.10156 0.03906,-0.22266 0.03906,-0.33594 0,-1.27344 0.191406,-2.57031 -0.03906,-3.82422 -0.164063,-0.8789 -0.714844,-1.64062 -1.128906,-2.42968 -0.28125,-0.54688 -0.574219,-1.10157 -0.960938,-1.57813 -0.476562,-0.59375 -0.992188,-1.17969 -1.617188,-1.61719 -0.734374,-0.51953 -1.578124,-0.8789 -2.410156,-1.22265 -0.613281,-0.25 -1.257812,-0.44141 -1.914062,-0.55078 -0.527344,-0.0859 -1.070313,-0.0859 -1.601563,-0.0352 -0.226562,0.0195 -0.410156,0.23828 -0.636719,0.25 -0.125,0.004 -0.1875,-0.17969 -0.308593,-0.20703 -0.21875,-0.0469 -0.445313,-0.0352 -0.664063,-0.008 -1.226562,0.16015 -2.453125,0.33203 -3.667968,0.5664 -0.792969,0.15235 -1.574219,0.35938 -2.347657,0.58985 -0.324219,0.0976 -0.648437,0.21875 -0.941406,0.39062 -1.15625,0.66797 -2.339844,1.30859 -3.394531,2.12891 -0.382813,0.30078 -0.671875,0.73437 -0.847656,1.18359 -0.121094,0.30469 -0.05469,0.65625 0,0.98047 0.02344,0.12109 0.179687,0.17969 0.222656,0.29687 0.03906,0.10938 0.04297,0.23829 0.0039,0.34375 -0.1875,0.53907 -0.496094,1.02735 -0.667969,1.56641 -0.234375,0.72656 -0.464843,1.46875 -0.550781,2.22656 -0.08594,0.74219 -0.07422,1.5 0.03906,2.23828 0.07813,0.54297 0.296876,1.0586 0.523438,1.55079 0.238281,0.51171 0.5,1.02734 0.871094,1.45312 0.214844,0.25391 0.582031,0.32813 0.84375,0.53516 0.300781,0.24609 0.523437,0.57812 0.832031,0.8164 0.222656,0.17188 0.46875,0.32422 0.738281,0.40235 1.074219,0.30468 2.167969,0.55078 3.265625,0.73437 0.480469,0.082 1.296875,-0.39062 1.460938,0.0664 0.738281,2.04687 0.640625,4.30078 0.898437,6.46094 0.03906,0.32421 0.101563,0.67187 -0.0039,0.98046 -0.08594,0.24219 -0.3125,0.42188 -0.53125,0.5586 -1.695312,1.05469 -3.492188,1.94531 -5.195312,2.99219 -1.296876,0.79687 -2.570313,1.64453 -3.808594,2.53906 -0.3125,0.22656 -0.507813,0.59765 -0.832032,0.8164 -0.636718,0.42188 -1.363281,0.69532 -2.019531,1.08594 -0.09375,0.0547 -0.195312,0.13672 -0.210937,0.24219 -0.01953,0.16016 0.02734,0.33594 0.109375,0.47656 0.06641,0.11719 0.179687,0.25781 0.316406,0.25781 0.101563,0.004 0.07813,-0.20312 0.167969,-0.25 0.425781,-0.23046 0.917968,-0.32421 1.339844,-0.5625 0.65625,-0.37109 1.285156,-0.79687 1.886718,-1.2539 0.308594,-0.23438 0.527344,-0.57031 0.828125,-0.8125 0.296875,-0.24219 0.628907,-0.4375 0.957031,-0.63672 2.230469,-1.34766 4.347657,-5.07422 6.726563,-4 2.390625,1.08203 1.105469,5.13672 1.527344,7.72656 0.02344,0.12891 -0.21875,0.19531 -0.214844,0.32422 0.01563,0.43359 0.21875,0.84375 0.265625,1.27734 0.02734,0.21094 0.0078,0.4336 -0.04297,0.64063 -0.05469,0.22266 -0.242187,0.40234 -0.265625,0.62891 -0.05078,0.42187 -0.09375,0.875 0.04297,1.27734 m 230.785152,-1.50391 c 0.0742,-0.0508 0.21875,-0.0664 0.22656,-0.15625 0.26563,-4.21484 0.22657,-8.44922 0.58594,-12.66015 0.14844,-1.70313 0.67188,-3.35547 0.93359,-5.04688 0.0508,-0.3125 0.0352,-0.63281 0,-0.94922 -0.0156,-0.14843 0.004,-0.40625 -0.14453,-0.42578 -0.42968,-0.0469 -0.84375,0.2461 -1.27734,0.26563 -1.58594,0.0703 -3.17578,0.0703 -4.75781,-0.004 -0.22657,-0.0117 -0.41016,-0.23828 -0.63672,-0.25 -0.125,-0.004 -0.1875,0.17578 -0.3086,0.20703 -0.20703,0.0547 -0.42968,0.0469 -0.64453,0.0469 -11.10156,0.0156 -22.21093,0.1289 -33.3125,-0.004 -14.76172,-0.17969 -29.51953,-0.5 -44.26953,-0.93359 -2.14453,-0.0664 -4.30078,-0.1875 -6.41015,-0.5625 -0.28125,-0.0508 -0.28516,-0.52735 -0.52735,-0.67969 -0.10937,-0.0664 -0.26953,0.0391 -0.36328,0.125 -0.23437,0.21484 -0.36328,0.52734 -0.58984,0.75391 -0.043,0.043 -0.1211,0.0273 -0.1836,0.0273 -2.54297,0.008 -5.08984,0.0937 -7.6289,0.004 -6.5625,-0.22657 -13.11328,-0.77344 -19.67578,-0.94532 -5.61329,-0.14843 -11.25782,0.58985 -16.83985,-0.008 -0.67578,-0.0742 -0.48828,-1.27344 -0.78515,-1.88672 -0.0234,-0.043 -0.11719,-0.0508 -0.14063,-0.0117 -0.29687,0.4961 -0.23437,1.375 -0.78906,1.54297 -2.08985,0.63281 -4.33985,0.49219 -6.51563,0.67188 -0.52343,0.043 -1.05859,0.0625 -1.58203,0 -0.33203,-0.043 -0.62109,-0.29688 -0.95312,-0.3086 -2.21875,-0.0898 -4.44141,-0.0664 -6.66016,0 -15.28516,0.45313 -30.58203,0.70703 -45.85156,1.56641 -2.17578,0.12109 4.32812,0.52344 6.5039,0.64453 1.69141,0.0937 3.38672,0.0586 5.07422,0.004 2.33594,-0.0742 4.66797,-0.30469 7.00391,-0.39453 9.08594,-0.33204 18.17578,-0.63672 27.26953,-0.8711 2.21875,-0.0547 4.44141,-0.0781 6.66016,0 0.22656,0.0117 0.40625,0.21485 0.6289,0.26563 0.20703,0.0547 0.42578,0.0469 0.64063,0.0469 0.53125,0 1.07031,0.0274 1.59375,-0.0469 0.22656,-0.0312 0.40234,-0.25782 0.6289,-0.26563 1.90625,-0.0625 3.84766,-0.32422 5.71875,0.0469 0.35157,0.0703 -0.16406,0.70312 -0.16796,1.0625 -0.0508,4.01562 -0.0117,8.03515 0,12.05468 0.004,0.21485 -0.008,0.4375 0.0469,0.64454 0.0312,0.12109 0.21094,0.18359 0.20703,0.30859 -0.008,0.22656 -0.22265,0.41016 -0.24219,0.63281 -0.0156,0.16406 0.0586,0.33203 0.14844,0.47266 0.0703,0.11328 0.17969,0.23828 0.31641,0.25781 0.0977,0.0156 0.1875,-0.0937 0.23828,-0.17969 0.20312,-0.375 0.42187,-0.7539 0.5,-1.17187 0.0273,-0.13281 -0.21484,-0.20703 -0.21094,-0.34375 0.0234,-0.65235 0.23047,-1.28906 0.29688,-1.94141 0.23047,-2.30859 0.47265,-4.61719 0.60156,-6.92969 0.0547,-1.05859 0.0352,-2.125 -0.043,-3.17968 -0.0117,-0.125 -0.18359,-0.1836 -0.22656,-0.30078 -0.0586,-0.16797 0.0117,-0.37891 -0.0781,-0.53516 -0.11718,-0.20313 -0.47265,-0.25781 -0.51172,-0.49219 -0.0273,-0.17187 0.20313,-0.35937 0.37891,-0.36328 5.71094,-0.13281 11.42578,-0.18359 17.14063,-0.043 6.45703,0.16016 12.90234,0.72266 19.35937,0.94531 2.68359,0.0937 6.57031,-2.23437 8.05078,0.008 2.49219,3.76562 0.47266,9.02343 0.89844,13.51953 0.0898,0.93359 0.32422,1.85547 0.65234,2.73437 0.0859,0.23047 0.30469,0.47266 0.55078,0.4961 0.19141,0.0156 0.32813,-0.23438 0.42579,-0.40235 0.0547,-0.10156 0.0312,-0.23437 0.004,-0.34765 -0.082,-0.375 -0.24609,-0.72657 -0.32031,-1.10157 -0.22656,-1.10156 -0.53516,-2.19921 -0.58203,-3.32421 -0.14844,-3.58985 -0.0508,-7.19141 -0.004,-10.78516 0.004,-0.25391 -0.10156,-0.72656 0.14844,-0.74219 2.05859,-0.14844 4.12109,0.22656 6.17969,0.28906 5.03125,0.15625 10.0625,0.26172 15.09375,0.36719 9.83593,0.20703 19.66797,0.47266 29.5039,0.5625 11,0.0977 22,0.0156 33,0 0.21485,0 0.4375,0.008 0.64453,-0.0469 0.1211,-0.0312 0.1836,-0.21094 0.3086,-0.20703 0.22656,0.0117 0.41015,0.23437 0.63672,0.25 1.37109,0.0703 2.75,0.0703 4.125,0.004 0.43359,-0.0234 0.84375,-0.3125 1.27734,-0.26562 0.14844,0.0156 0.12891,0.27734 0.14453,0.42578 0.0195,0.21484 0.004,0.4375 -0.0391,0.65234 -0.375,1.90235 -1.07813,3.75781 -1.22266,5.69531 -0.26562,3.58594 -0.0469,7.19141 -0.004,10.78516 M 116.08194,306.0584 c 0.0156,-1.0625 0.11328,-2.125 0.0469,-3.1875 -0.0195,-0.33203 -0.27344,-0.62109 -0.3086,-0.95312 -0.0703,-0.73828 -0.0117,-1.48047 -0.004,-2.22266 0.004,-0.32031 -0.0156,-0.64453 0.0469,-0.95703 0.0273,-0.12891 0.23438,-0.19531 0.21875,-0.32422 -0.19141,-1.88672 -0.41797,-3.77344 -0.83203,-5.625 -0.0547,-0.23828 -0.32422,-0.3789 -0.53516,-0.5 -0.0977,-0.0547 -0.27343,-0.0898 -0.33593,0.004 -0.13672,0.21094 -0.14453,0.48828 -0.14844,0.74219 -0.0312,2.54296 -0.13672,5.09375 0.043,7.63281 0.0898,1.32812 0.47265,2.62109 0.76172,3.91797 0.125,0.54297 0.15234,1.14453 0.47265,1.59765 M 86.492188,288.70312 c -0.328126,0.0312 -0.664063,0.0234 -0.984376,0.0937 -0.222656,0.0508 -0.402343,0.25 -0.628906,0.26563 -1.054687,0.0742 -2.117187,0.10156 -3.171875,0 -1.105469,-0.10547 -2.203125,-0.33203 -3.277343,-0.62109 -0.386719,-0.10547 -0.738282,-0.32422 -1.066407,-0.55079 -0.449219,-0.3164 -0.933593,-0.625 -1.253906,-1.07031 -0.507813,-0.71094 -0.976563,-1.48828 -1.183594,-2.33594 -0.199219,-0.83593 -0.105469,-1.72265 0,-2.57421 0.08203,-0.66016 0.308594,-1.29688 0.550781,-1.91407 0.492188,-1.24609 0.980469,-2.5039 1.652344,-3.66406 0.1875,-0.31641 0.542969,-0.51172 0.871094,-0.68359 1.105469,-0.57813 2.253906,-1.07422 3.40625,-1.5625 0.503906,-0.21094 1.019531,-0.40625 1.550781,-0.52344 0.316407,-0.0703 0.648438,-0.0859 0.96875,-0.0391 0.226563,0.0312 0.40625,0.22265 0.628907,0.26562 0.3125,0.0625 0.640624,0.0703 0.957031,0.043 0.167969,-0.0156 0.351562,-0.0547 0.480469,-0.16016 0.226562,-0.1875 0.296874,-0.53125 0.542968,-0.69531 0.08203,-0.0547 0.144532,0.14453 0.242188,0.17578 0.105468,0.0312 0.226562,0.0274 0.332031,0 0.21875,-0.0586 0.402344,-0.23828 0.628906,-0.26172 0.53125,-0.0547 1.078125,-0.0586 1.601563,0.0352 0.539062,0.0977 1.054687,0.30859 1.550781,0.52734 0.839844,0.3711 1.6875,0.7461 2.457031,1.24219 0.386719,0.25391 0.703125,0.61719 0.984375,0.98438 0.390625,0.51562 0.71875,1.08203 1.019531,1.65625 0.398438,0.76562 0.914063,1.5039 1.066407,2.35156 0.210937,1.15625 0.207031,2.37109 0,3.52734 -0.08594,0.47657 -0.476563,0.8711 -0.847657,1.1836 -0.878906,0.73437 -1.859374,1.34375 -2.859374,1.90234 -0.90625,0.50781 -1.871094,0.91016 -2.839844,1.28516 m 70.621096,-5.60157 c 0.94922,-0.42578 1.84375,-0.99218 2.84375,-1.28125 2.44531,-0.70312 4.98437,-1.01562 7.4414,-1.67187 0.95313,-0.25781 1.95313,-0.51172 2.76953,-1.07031 0.22266,-0.14844 0.0312,-0.53907 -0.0273,-0.80078 -0.0234,-0.10547 -0.11719,-0.1875 -0.21094,-0.24219 -0.82031,-0.45703 -1.66015,-0.88672 -2.51562,-1.27735 -1.09375,-0.5039 -2.25391,-0.86328 -3.32813,-1.41015 -0.49218,-0.25 -0.82422,-0.80078 -1.35547,-0.96485 -0.18359,-0.0586 -0.42968,0.21875 -0.41015,0.41407 0.0234,0.25 0.28906,0.44531 0.51172,0.5664 1.66406,0.90235 4.27734,0.77735 5.10156,2.47657 0.53125,1.09375 -2.37891,0.50781 -3.58594,0.64062 -2.54297,0.27734 -5.09375,0.49219 -7.64844,0.59375 -2.53515,0.0977 -5.07421,0.0742 -7.61328,0.004 -4.76172,-0.13672 -9.51562,-0.52344 -14.27734,-0.625 -0.33203,-0.008 -0.62109,0.30859 -0.94922,0.29687 -5.92969,-0.19922 -11.84765,-0.67969 -17.77344,-0.9375 -0.95312,-0.0391 -1.91797,-0.0937 -2.86328,0.043 -0.19531,0.0273 -0.40234,0.23438 -0.40234,0.42969 0,0.19531 0.23828,0.32422 0.40234,0.42969 0.0937,0.0586 0.21875,0.0586 0.32813,0.0351 0.32422,-0.0664 0.62109,-0.26172 0.95312,-0.30078 0.52344,-0.0625 1.05469,-0.0273 1.58203,0 7.30078,0.39063 14.58985,1.05859 21.89844,1.25781 8.14063,0.22266 16.28516,0.0195 24.42969,0.008 0.21484,-0.004 0.43359,0.004 0.64453,-0.0469 0.21875,-0.0547 0.39844,-0.24219 0.625,-0.26562 0.63281,-0.0664 1.26953,-0.0234 1.90234,0 0.12891,0.004 0.50782,0.043 0.38282,0.0742 -1.67188,0.41016 -3.38672,0.63672 -5.05469,1.06641 -0.97266,0.25391 -1.91797,0.61328 -2.85547,0.97656 -0.25391,0.0977 -0.5,0.23438 -0.71094,0.40625 -0.28125,0.23438 -0.59765,0.46875 -0.73828,0.80078 -0.0547,0.12891 0.14844,0.23438 0.26172,0.31641 m -39.10547,-0.625 c -0.0547,-0.0781 -0.0781,-0.20312 -0.16797,-0.23437 -0.82422,-0.27344 -1.69531,-0.39063 -2.51953,-0.66797 -0.60156,-0.19922 -1.19141,-0.44532 -1.74219,-0.75782 -0.46484,-0.26171 -0.875,-0.60546 -1.27343,-0.95312 -0.3086,-0.26563 -0.65235,-0.51953 -0.84375,-0.875 -0.0781,-0.14453 0.008,-0.35156 0.10937,-0.48047 0.3711,-0.47266 0.82031,-0.89062 1.27734,-1.28125 0.25391,-0.21875 0.59376,-0.32031 0.84375,-0.53906 0.52344,-0.44531 0.95313,-0.99219 1.46875,-1.44922 0.29688,-0.26172 0.76172,-0.35547 0.96485,-0.69531 0.12891,-0.21485 0.0742,-0.57032 -0.10547,-0.75 -0.15234,-0.15235 -0.4375,-0.0547 -0.64844,-0.004 -0.1914,0.0469 -0.37109,0.15625 -0.51172,0.29297 -0.5,0.49219 -0.88281,1.09375 -1.39453,1.57031 -0.24219,0.23047 -0.59765,0.31641 -0.84375,0.53906 -0.8125,0.73047 -1.6289,1.47266 -2.32031,2.31641 -0.14453,0.17578 -0.27734,0.50391 -0.125,0.67188 0.89453,0.98828 1.94141,1.85546 3.06641,2.57421 0.83984,0.53516 1.78906,0.89844 2.75,1.14844 0.52343,0.13672 1.08984,0.10547 1.61328,-0.004 m 181.875,-2.56641 c 2.41797,-0.28125 4.84765,-0.49609 7.2539,-0.84766 0.20703,-0.0312 0.41016,-0.14062 0.55078,-0.29297 0.21875,-0.23828 0.4961,-0.50781 0.49219,-0.82812 -0.004,-0.53516 -0.28515,-1.03516 -0.50781,-1.51953 -0.0664,-0.14453 -0.20313,-0.25391 -0.33984,-0.33594 -0.71485,-0.44922 -1.42188,-0.94141 -2.20704,-1.25781 -1.19921,-0.48438 -2.42968,-0.96485 -3.71093,-1.13672 -0.21094,-0.0273 -0.22657,0.43359 -0.13282,0.625 0.11719,0.24609 0.39454,0.42578 0.66407,0.48828 0.25,0.0547 0.49609,-0.22266 0.75,-0.17187 0.70312,0.14843 1.375,0.43359 2.02343,0.74609 0.79688,0.38281 1.59375,0.78906 2.29297,1.33594 0.26953,0.21093 0.4375,0.54687 0.53516,0.87109 0.0508,0.16406 -0.0195,0.35938 -0.12109,0.49609 -0.10547,0.14454 -0.28516,0.25391 -0.46094,0.28516 -1.52735,0.28516 -3.06641,0.5 -4.60938,0.65625 -0.14453,0.0156 -0.33203,-0.0234 -0.41015,-0.14844 -0.0547,-0.0781 0.22265,-0.16797 0.15625,-0.24218 -0.14453,-0.16407 -0.38672,-0.22266 -0.60547,-0.26172 -1.35938,-0.23828 -2.72266,-0.51563 -4.10156,-0.5586 -14.63282,-0.47656 -29.26954,-0.74609 -43.90625,-0.99609 -4.75782,-0.082 -9.51954,-0.20313 -14.27344,0 -2.66016,0.11328 -5.29688,0.58594 -7.9375,0.94531 -0.42969,0.0586 -0.83203,0.33985 -1.26563,0.3086 -0.88672,-0.0625 -1.75781,-0.3086 -2.59765,-0.58985 -0.27344,-0.0898 -0.51172,-0.28515 -0.69532,-0.5039 -0.043,-0.0547 0.0664,-0.13282 0.12891,-0.16797 1.20313,-0.71094 2.38672,-1.46485 3.64844,-2.0625 1.14844,-0.54297 2.39062,-0.85547 3.55859,-1.35157 0.0898,-0.0391 0.22656,-0.15234 0.17578,-0.23437 -0.0781,-0.125 -0.26562,-0.13672 -0.41406,-0.15234 -0.21484,-0.0195 -0.44531,-0.0352 -0.64844,0.0391 -1.46875,0.53515 -2.93359,1.09765 -4.33984,1.78125 -0.89063,0.4375 -1.71484,1.00781 -2.52734,1.57422 -0.20704,0.14843 -0.45704,0.3125 -0.52344,0.55859 -0.0547,0.19531 0.0508,0.44531 0.20703,0.57422 0.35156,0.29297 0.79687,0.45312 1.21875,0.62109 0.34766,0.13672 0.71484,0.23047 1.08203,0.28907 2.57813,0.41406 5.17578,0.71093 7.75391,1.12109 0.53125,0.0859 1.03515,0.38281 1.57422,0.36719 0.19921,-0.008 0.35546,-0.23828 0.42578,-0.42578 0.0312,-0.0899 -0.082,-0.20313 -0.17578,-0.23047 -1.36719,-0.39844 -5.50391,-0.60547 -4.14454,-1.03516 3.16797,-1 6.61719,-0.625 9.9375,-0.79687 1.79297,-0.0937 3.59375,-0.0586 5.39063,0.004 1.21094,0.0469 2.41016,0.26172 3.62109,0.32422 4.82032,0.25 9.64453,0.50781 14.46875,0.62109 4.125,0.0937 8.25,0.0937 12.3711,0 0.33593,-0.008 0.62109,-0.28515 0.95703,-0.30859 1.26562,-0.082 2.53906,-0.0469 3.80469,-0.004 5.22265,0.16797 10.48828,-0.10156 15.66406,0.63282 1.65234,0.23437 -3.32031,0.45312 -4.9336,0.88281 -0.16406,0.0469 0.22266,0.26172 0.36719,0.33984 0.0977,0.0508 0.21875,0.043 0.32813,0.043 M 171.5977,277.79306 c -0.14063,0.0391 -0.27344,0.11328 -0.41797,0.11328 -0.043,0.004 -0.12891,-0.0781 -0.0898,-0.10547 0.125,-0.0742 0.28125,-0.10156 0.42578,-0.10156 m 91.30079,-5.70313 c 0.19921,-0.39062 0.44921,-0.76172 0.60156,-1.17187 0.15625,-0.4375 0.23437,-0.90235 0.30859,-1.35938 0.22266,-1.34375 0.48438,-2.68359 0.58594,-4.03906 0.082,-1.0625 0.0664,-2.13281 -0.0352,-3.19141 -0.10156,-1.01171 -0.34765,-2.0039 -0.57422,-2.99218 -0.0625,-0.26953 -0.2539,-0.50391 -0.29296,-0.77735 -0.0234,-0.16406 0.0351,-0.33984 0.11328,-0.48828 0.10156,-0.18359 0.42968,-0.26953 0.41406,-0.48047 -0.0195,-0.24609 -0.26953,-0.44531 -0.48828,-0.54687 -0.57031,-0.26563 -1.1875,-0.42969 -1.8086,-0.52344 -0.63281,-0.0937 -1.28515,-0.0898 -1.92187,-0.0352 -2.83984,0.22657 -5.67578,0.51954 -8.50391,0.875 -1.4375,0.17969 -2.86718,0.4336 -4.28515,0.73047 -0.13282,0.0274 -0.28125,0.10547 -0.33203,0.22657 -0.043,0.10937 -0.0117,0.3164 0.10156,0.33203 0.83984,0.12109 1.69922,0.10547 2.54297,0.0469 0.64843,-0.0469 1.27343,-0.27734 1.91797,-0.35547 2.84765,-0.34375 5.69921,-0.66406 8.55859,-0.90625 0.52734,-0.043 1.11328,-0.17968 1.59375,0.0469 0.23047,0.10937 0.16797,0.51172 0.10547,0.76172 -0.40625,1.60156 -1.05078,3.13281 -1.5,4.72265 -0.0742,0.25782 0.1289,0.61328 -0.0586,0.80469 -0.40625,0.40625 -1.09765,0.41406 -1.53125,0.79297 -0.11718,0.10156 0.28516,0.13672 0.4375,0.16016 0.25391,0.0391 0.65235,-0.21485 0.76954,0.0156 0.53515,1.07031 -0.22657,3.46875 0.97265,3.46484 1.1836,-0.008 0.0977,-2.49609 0.76953,-3.47265 0.30469,-0.44141 1.07422,-0.0352 1.60938,0.004 0.15234,0.0117 0.43359,-0.008 0.42969,0.14454 -0.0469,1.58984 -0.28907,3.16796 -0.5625,4.73437 -0.11719,0.66406 -0.57813,1.25781 -0.60938,1.93359 -0.0117,0.28516 0.27344,0.52344 0.49609,0.70313 m 16.82032,-1.25391 c 1.34765,-0.27343 2.67968,-0.63281 4.04297,-0.82031 0.125,-0.0195 0.19531,0.1875 0.32031,0.21875 0.21484,0.0469 0.44922,0.0625 0.66015,0.004 0.41016,-0.11328 0.80469,-0.28907 1.16407,-0.51563 0.21093,-0.13281 0.43359,-0.30859 0.51562,-0.54687 0.10547,-0.3086 0.0899,-0.66016 0.004,-0.97657 -0.0859,-0.3125 -0.28125,-0.59375 -0.5,-0.83593 -0.91797,-1.00782 -1.88281,-1.96485 -2.88672,-2.88672 -0.23047,-0.21094 -0.57422,-0.26563 -0.79297,-0.49219 -0.32422,-0.33594 -0.58203,-0.73828 -0.80469,-1.15234 -0.0508,-0.0977 -0.0351,-0.23047 0,-0.33594 0.0391,-0.0977 0.1211,-0.18359 0.21094,-0.23828 0.39844,-0.2461 0.81641,-0.45703 1.24609,-0.64453 1.625,-0.71094 3.32422,-1.25 4.91016,-2.04297 0.45313,-0.22656 0.84766,-0.58985 1.15625,-0.98828 0.0742,-0.0977 -0.0469,-0.25 -0.11719,-0.35547 -0.0742,-0.11328 -0.17187,-0.30078 -0.30468,-0.27344 -1.31641,0.29688 -2.53907,0.94531 -3.85938,1.21094 -1.82812,0.36328 -3.73828,0.25 -5.55469,0.67578 -0.30078,0.0703 -0.44531,0.45703 -0.53515,0.75391 -0.0391,0.12109 0.17187,0.19531 0.21484,0.3164 0.0547,0.16797 -0.0273,0.38672 0.0781,0.52735 0.22656,0.30468 0.66796,0.41796 0.86718,0.74218 0.0899,0.14063 -0.0234,0.33594 -0.10547,0.47657 -0.0703,0.12109 -0.1875,0.29687 -0.32031,0.26171 -0.26172,-0.0742 -0.39062,-0.38671 -0.625,-0.52343 -0.0937,-0.0547 -0.21484,-0.043 -0.32422,-0.043 -0.32031,0 -0.64843,-0.0195 -0.96093,0.043 -0.22266,0.043 -0.40235,0.24609 -0.62891,0.26562 -0.88672,0.0703 -2.01172,0.59375 -2.67188,-0.008 -0.76171,-0.6875 -0.5,-1.99219 -0.65234,-3.00391 -0.0625,-0.41797 -0.0391,-0.84765 0,-1.26562 0.0156,-0.17188 0,-0.44531 0.16406,-0.48828 1.39844,-0.34766 2.86719,-0.33985 4.27735,-0.62891 0.18359,-0.0352 0.27734,-0.26562 0.44922,-0.33203 0.63281,-0.24609 1.33203,-0.3125 1.94531,-0.59766 0.19531,-0.0898 0.51172,-0.30078 0.41406,-0.49218 -0.19922,-0.38282 -0.67578,-0.53907 -1.05078,-0.75 -0.0977,-0.0586 -0.22266,-0.0391 -0.33594,-0.0391 -1.6914,-0.0117 -3.38672,-0.1289 -5.07422,0 -0.83984,0.0625 -1.65625,0.32032 -2.46484,0.5625 -0.0898,0.0273 -0.16797,0.13282 -0.16797,0.22657 -0.004,0.0938 0.22266,0.16796 0.15625,0.23437 -0.32031,0.3125 -0.94922,0.3125 -1.12891,0.71875 -0.11718,0.26172 0.40625,0.42969 0.5,0.69922 0.0312,0.0937 -0.14843,0.14453 -0.17578,0.24219 -0.0312,0.10547 -0.0664,0.24609 0.004,0.33203 0.0508,0.0664 0.17969,0.0351 0.25391,-0.008 0.16015,-0.0937 0.28906,-0.52344 0.39843,-0.37891 0.35157,0.46484 0.5586,1.07031 0.5586,1.65234 -0.004,2.77344 0.0195,5.59375 -0.57032,8.30469 -0.0937,0.42969 -0.74218,-0.47266 -1.07421,-0.76172 -0.4336,-0.37109 -0.83985,-0.77734 -1.21485,-1.21094 -0.43359,-0.49609 -0.875,-0.99609 -1.21094,-1.5664 -0.0703,-0.11719 -0.0117,-0.28516 0.0391,-0.41406 0.55468,-1.42579 1.44531,-2.74219 1.76953,-4.23829 0.0664,-0.29687 -0.45313,-0.43359 -0.73828,-0.53515 -0.10157,-0.0352 -0.20703,0.0937 -0.25,0.1914 -0.41016,0.97657 -0.67188,2.01563 -1.08594,2.9961 -0.14453,0.33594 -0.24219,1.08984 -0.57422,0.9375 -0.75781,-0.33985 -0.91797,-1.42188 -1.58203,-1.91016 -0.1875,-0.14062 -0.46875,0.11719 -0.64453,0.27344 -0.0742,0.0664 -0.0547,0.21875 0,0.30078 0.52344,0.82031 1.22656,1.52344 1.70312,2.37109 0.10938,0.19532 0.0625,0.45704 0,0.67188 -0.125,0.42969 -0.43359,0.79687 -0.54687,1.23047 -0.0391,0.14844 -0.0195,0.35547 0.10547,0.44531 0.14062,0.10156 0.39062,0.125 0.53125,0.0156 0.39843,-0.32032 0.48047,-1.39063 0.95703,-1.20313 1.0625,0.42578 1.51172,1.72266 2.33594,2.51563 0.2539,0.24218 0.63281,0.32812 0.88281,0.57421 0.28125,0.27344 0.3789,0.71094 0.6875,0.95704 0.13672,0.10937 0.36719,0.082 0.53125,0.0156 0.28906,-0.125 0.4414,-0.58984 0.75781,-0.5625 0.96094,0.0742 1.87891,0.46875 2.76563,0.83984 0.38281,0.16016 0.625,0.57032 1.0039,0.73829 0.60547,0.26953 1.25781,0.44531 1.91016,0.55859 m 0.66406,-1.23438 c -0.14062,-0.0273 -0.29687,-0.0234 -0.42578,-0.0898 -0.32422,-0.17187 -1.03516,-0.26172 -0.91406,-0.60937 0.15625,-0.44922 0.92968,-0.28125 1.32031,-0.55469 0.13672,-0.0977 0.15625,-0.3125 0.16016,-0.48438 0,-0.14843 -0.0117,-0.35156 -0.14063,-0.42578 -0.19141,-0.10156 -0.44141,-0.0469 -0.65234,0 -0.1211,0.0234 -0.1875,0.20313 -0.3086,0.20313 -0.125,0.004 -0.1914,-0.16407 -0.30859,-0.20313 -0.10547,-0.0312 -0.23047,-0.0351 -0.33594,0 -0.11719,0.043 -0.17578,0.20313 -0.30078,0.22266 -0.42578,0.0703 -0.875,0.14844 -1.28906,0.0391 -0.36328,-0.0937 -0.56641,-0.61328 -0.94141,-0.62109 -0.3164,-0.004 -0.4375,0.51172 -0.74609,0.59375 -0.32031,0.0898 -0.67578,-0.0156 -0.99219,-0.125 -0.12891,-0.043 -0.25391,-0.17188 -0.27344,-0.3086 -0.0898,-0.52343 -0.14453,-1.07031 -0.043,-1.59375 0.0937,-0.5 0.2461,-1.05078 0.61329,-1.40234 0.19921,-0.19141 0.5625,-0.0664 0.82421,0.0156 0.33985,0.11329 0.57813,0.44922 0.91797,0.54688 0.31641,0.0898 0.67578,0.11719 0.98047,-0.004 0.13672,-0.0547 0.17578,-0.30859 0.0977,-0.43359 -0.14453,-0.23047 -0.89844,-0.33594 -0.66406,-0.47656 0.71875,-0.42969 1.62109,-0.42188 2.4414,-0.58594 0.17578,-0.0352 0.40625,-0.13281 0.53516,-0.008 0.58984,0.57031 0.89453,1.39453 1.48437,1.96093 0.48828,0.46485 1.16797,0.6836 1.70703,1.08985 0.3125,0.23047 0.53125,0.57031 0.83204,0.8125 0.26171,0.21094 0.58203,0.33203 0.84375,0.53906 0.17187,0.13281 0.33593,0.28516 0.4375,0.47266 0.0508,0.0976 0.0742,0.2539 0,0.33593 -0.20704,0.23047 -0.48438,0.39844 -0.76954,0.52735 -0.49218,0.22656 -1.0039,0.45703 -1.54296,0.53125 m -24.625,-0.10156 c 0.32031,-2.96875 0.69531,-5.92969 0.96093,-8.89844 0.0391,-0.42578 0.0274,-0.85547 -0.0391,-1.27735 -0.0195,-0.12109 -0.20312,-0.18359 -0.20703,-0.30859 -0.004,-0.125 0.16016,-0.19922 0.1875,-0.32031 0.0117,-0.043 -0.043,-0.10547 -0.0859,-0.10156 -0.1914,0.0195 -0.50781,-0.0156 -0.54687,0.17187 -0.45703,2.17188 -0.69922,4.38672 -0.88282,6.59766 -0.0976,1.16406 -0.10937,2.34765 0.0391,3.5039 0.0351,0.28125 0.30468,0.48047 0.49609,0.69141 m -106.99219,-2.50391 c 1.02735,-0.3789 2.07813,-0.69922 3.08203,-1.14062 0.34375,-0.14844 0.65625,-0.3711 0.9375,-0.6211 0.53125,-0.46484 1.14454,-0.89062 1.48047,-1.50781 0.20313,-0.375 0.0703,-0.85156 0.043,-1.27734 -0.0117,-0.16406 -0.0469,-0.34766 -0.15234,-0.47266 -0.51563,-0.60547 -1.07031,-1.18359 -1.6875,-1.68359 -0.47656,-0.38281 -1.02344,-0.67969 -1.57422,-0.9375 -0.55859,-0.26172 -1.14844,-0.44141 -1.73828,-0.61719 -1.07031,-0.3125 -2.13281,-0.67187 -3.23438,-0.84766 -0.73437,-0.12109 -1.49218,-0.0937 -2.23828,-0.0391 -0.33203,0.0234 -0.63281,0.32031 -0.96094,0.26172 -0.27343,-0.0469 -0.39843,-0.39062 -0.6289,-0.54297 -0.0547,-0.0351 -0.14844,-0.043 -0.19922,0 -0.21094,0.19922 -0.29297,0.51953 -0.53125,0.6836 -0.49219,0.34375 -1.09766,0.49609 -1.60938,0.8125 -0.0586,0.0351 -0.0781,0.16015 -0.0273,0.20703 0.47266,0.46484 1.34766,0.625 1.53125,1.26172 0.35547,1.24609 0.625,2.78125 -0.0547,3.88281 -0.375,0.61328 -0.875,-1.14453 -1.26172,-1.75391 -0.44921,-0.71094 -0.86328,-1.44922 -1.25,-2.19922 -0.21875,-0.42968 -0.26171,-0.95312 -0.5625,-1.32812 -0.10156,-0.12891 -0.33984,-0.0469 -0.48437,0.0273 -0.17578,0.0859 -0.31641,0.25 -0.41797,0.41797 -0.0586,0.0937 -0.043,0.21875 -0.043,0.32813 -0.0117,1.16015 -0.11719,2.33203 0,3.48828 0.0742,0.75781 0.52735,1.44922 0.57813,2.21093 0.008,0.15235 -0.27344,0.15235 -0.42578,0.16407 -0.63282,0.043 -1.27344,0.0781 -1.90235,0 -0.29687,-0.0352 -0.60156,-0.14844 -0.83594,-0.33594 -0.24609,-0.19141 -0.47265,-0.44922 -0.54687,-0.75391 -0.13281,-0.51562 -0.10547,-1.07031 -0.0391,-1.60156 0.0352,-0.30469 0.0898,-0.67578 0.34375,-0.85156 0.61718,-0.42578 1.46875,-0.40235 2.08984,-0.82422 0.14063,-0.0937 -0.22266,-0.25781 -0.37109,-0.33984 -0.0937,-0.0547 -0.21485,-0.043 -0.32422,-0.043 -0.21485,0 -0.4336,-0.0117 -0.64453,0.043 -0.11719,0.0312 -0.19532,0.25781 -0.3086,0.20703 -0.13281,-0.0586 -0.16406,-0.26953 -0.14843,-0.41407 0.0391,-0.32812 0.26562,-0.62109 0.30468,-0.95312 0.0469,-0.42188 0.0195,-0.85156 -0.043,-1.27344 -0.0156,-0.10156 -0.2539,-0.17969 -0.17968,-0.24609 0.41015,-0.34375 1.04297,-0.38281 1.39843,-0.77735 0.11719,-0.125 -0.22265,-0.26953 -0.37109,-0.35156 -0.0937,-0.0508 -0.22266,-0.0703 -0.32422,-0.0351 -0.43359,0.14843 -0.82031,0.42187 -1.2539,0.57812 -0.10547,0.0391 -0.23829,0.043 -0.34375,-0.004 -0.15625,-0.0742 -0.23047,-0.27343 -0.38672,-0.33984 -0.80078,-0.34375 -1.6211,-0.64844 -2.46094,-0.875 -0.20703,-0.0547 -0.44531,-0.0508 -0.64063,0.043 -0.22656,0.10547 -0.42578,0.29297 -0.54687,0.51562 -0.25391,0.46875 -0.5,0.96875 -0.55078,1.5 -0.13672,1.47266 -0.23828,2.98047 0,4.4375 0.16406,0.99219 0.7539,1.86719 1.1875,2.77344 0.043,0.0899 0.1289,0.17969 0.22656,0.19531 0.14844,0.0195 0.32422,-0.004 0.43359,-0.10156 0.082,-0.0742 0.043,-0.21484 0.0469,-0.32812 0.0117,-0.73828 0.0664,-1.48047 0,-2.21875 -0.0273,-0.28125 -0.45313,-0.58594 -0.27734,-0.80469 0.3789,-0.47266 1.10937,-0.50391 1.60937,-0.84766 0.39453,-0.26953 0.62109,-0.77734 1.05469,-0.98047 0.13281,-0.0625 0.14453,0.28516 0.11328,0.42969 -0.13281,0.64844 -0.49219,1.23828 -0.58594,1.88672 -0.0937,0.63672 -0.125,1.30078 0.0391,1.92188 0.11329,0.42968 0.44141,0.78515 0.75782,1.10156 0.25781,0.25781 0.5664,0.52734 0.92578,0.58203 0.95312,0.14453 1.94531,0.17969 2.89062,0 0.41797,-0.0781 0.97657,-0.32031 1.04297,-0.74219 0.12891,-0.85156 -0.44531,-1.67187 -0.54297,-2.52734 -0.0625,-0.55469 -0.39843,-1.9961 0.0586,-1.67578 1.01953,0.71875 1.29297,2.14062 2.03125,3.14453 0.55078,0.75 1.125,1.5 1.82422,2.10937 0.125,0.10938 0.33593,-0.0273 0.48046,-0.10547 0.19141,-0.10546 0.27735,-0.40234 0.49219,-0.42578 0.35156,-0.0312 0.66797,0.22657 1.01172,0.28907 1.23438,0.22265 2.46484,0.5039 3.71875,0.57031 m -22.28906,-1.125 c 0.24219,-0.13672 0.51172,-0.23438 0.72265,-0.41406 0.43751,-0.36719 0.84375,-0.77735 1.21094,-1.21485 0.20703,-0.25 0.41406,-0.52344 0.5,-0.83594 0.0859,-0.3164 0.17188,-0.70312 -0.004,-0.97656 -0.46094,-0.72265 -1.13672,-1.28906 -1.80079,-1.83203 -0.40624,-0.33203 -0.9375,-0.48437 -1.38281,-0.76562 -0.42578,-0.27344 -0.86719,-0.53907 -1.21875,-0.89454 -0.25781,-0.26171 -0.46484,-0.58203 -0.58594,-0.92578 -0.0859,-0.26172 -0.18359,-0.60547 -0.0156,-0.82422 0.24219,-0.32421 0.66797,-0.49609 1.06641,-0.57812 0.625,-0.12891 1.28125,-0.0977 1.92187,-0.0391 0.33203,0.0312 0.62109,0.26562 0.95313,0.30468 0.16015,0.0156 0.32421,-0.0664 0.46875,-0.14843 0.0977,-0.0586 0.3125,-0.17188 0.23046,-0.25391 -0.36718,-0.35937 -0.81249,-0.70703 -1.3164,-0.81641 -0.83985,-0.17578 -1.72656,-0.12109 -2.57813,0 -0.5,0.0703 -0.96484,0.31641 -1.40234,0.57032 -0.24609,0.14843 -0.58203,0.32812 -0.59766,0.61328 -0.0234,0.49219 0.29688,0.9414 0.49219,1.39453 0.1836,0.42969 0.38281,0.85547 0.64453,1.24609 0.15235,0.22657 0.35156,0.42969 0.57422,0.58203 0.78516,0.53907 1.66406,0.92969 2.4336,1.48829 0.39843,0.29296 0.78515,0.63281 1.05078,1.05078 0.14062,0.22656 0.23437,0.55859 0.10937,0.79297 -0.25781,0.49218 -0.72266,0.85937 -1.16406,1.19531 -0.44531,0.33984 -0.9375,0.64062 -1.46875,0.8164 -0.3125,0.10547 -0.66406,0.0703 -0.98828,0.004 -0.50782,-0.10547 -1.04297,-0.21484 -1.47266,-0.50781 -0.27734,-0.19141 -0.43359,-0.53906 -0.52734,-0.86328 -0.0898,-0.31641 -0.0781,-0.66797 0,-0.98828 0.10547,-0.4336 0.43359,-0.79688 0.54687,-1.23047 0.0391,-0.14453 0.004,-0.33594 -0.10547,-0.44141 -0.0781,-0.082 -0.23828,-0.0586 -0.33593,-0.004 -0.21875,0.12891 -0.39844,0.32422 -0.55469,0.52344 -0.19922,0.25781 -0.4375,0.51953 -0.5,0.83985 -0.10938,0.52734 -0.16016,1.10156 0,1.61718 0.14062,0.46875 0.46094,0.89453 0.85156,1.1875 0.51953,0.39453 1.14844,0.64844 1.78125,0.81641 0.42188,0.11328 0.87891,0.0859 1.30859,0 m 24.49219,-0.68359 c -0.0977,0.0156 -0.21094,0.10546 -0.29297,0.0508 -0.15625,-0.11328 -0.27343,-0.30078 -0.32031,-0.48828 -0.47266,-1.92188 -0.63281,-3.91797 -1.23047,-5.80469 -0.0586,-0.1836 -0.48828,-0.0391 -0.5664,0.13672 -0.16797,0.39062 -0.10547,0.85547 -0.0469,1.27734 0.22656,1.60156 0.74219,3.16016 0.89844,4.76953 0.0117,0.15235 -0.27735,0.13672 -0.42578,0.14453 -0.63282,0.0391 -1.27735,0.10547 -1.90235,0 -0.53515,-0.0898 -1.07812,-0.27343 -1.52734,-0.57812 -0.25391,-0.17188 -0.28125,-0.55469 -0.48438,-0.78516 -0.17968,-0.20312 -0.62109,-0.22265 -0.65234,-0.49219 -0.19922,-1.59375 -0.32031,-3.24218 -0.008,-4.8164 0.0781,-0.39844 0.66797,-0.4961 1.0664,-0.57813 0.625,-0.1289 1.28516,-0.1289 1.91797,-0.0391 1.31641,0.19531 2.61328,0.50781 3.88282,0.89453 0.71484,0.21875 1.38671,0.57422 2.05078,0.91406 0.33984,0.17579 0.65625,0.39454 0.95312,0.63672 0.32422,0.26563 0.59766,0.58203 0.89063,0.88282 0.0977,0.0976 0.24218,0.17578 0.26953,0.30859 0.0664,0.31641 0.15234,0.68359 0,0.96875 -0.26172,0.49219 -0.71875,0.85937 -1.16406,1.19531 -0.3711,0.28516 -0.82032,0.46094 -1.25391,0.64453 m 128.69922,-1.21484 c -0.0859,0 -0.17188,0.0352 -0.25391,0.004 -0.0703,-0.0274 -0.11328,-0.10547 -0.16797,-0.16016 -0.14062,-0.15625 -0.30859,-0.29297 -0.41015,-0.47656 -0.0234,-0.0391 0.043,-0.10547 0.0859,-0.10547 0.16407,0 0.33594,0.0273 0.47657,0.10547 0.12109,0.0664 0.22265,0.18359 0.27734,0.3125 m -17.54687,0.10937 c -0.4336,0.004 -0.87891,0.10156 -1.30469,0.0117 -0.3711,-0.0781 -0.98438,-0.12109 -1.01953,-0.49609 -0.0859,-1 0.43359,-1.96094 0.72265,-2.92188 0.1875,-0.6289 0.19141,-1.42187 0.69922,-1.83984 0.25781,-0.21485 0.35156,0.57812 0.44141,0.90234 0.24609,0.86328 0.42578,1.7461 0.5625,2.63281 0.0664,0.42579 0.0625,0.85938 0.0351,1.28907 m -131.50781,-2.37891 c -0.0391,-0.16016 -0.14062,-0.32031 -0.12109,-0.48437 0.0195,-0.1211 0.20312,-0.17969 0.22265,-0.30079 0.0547,-0.3164 0.14063,-0.67968 -0.004,-0.96875 -0.0664,-0.1289 -0.29688,0.17188 -0.42578,0.10547 -0.12891,-0.0703 -0.13672,-0.26953 -0.14844,-0.41406 -0.008,-0.14062 0.0234,-0.28906 0.0898,-0.41406 0.13282,-0.24219 0.2461,-0.54297 0.49219,-0.66406 0.25391,-0.125 0.57031,-0.043 0.84375,0.0156 0.12109,0.0234 0.17969,0.19141 0.30078,0.22266 0.27344,0.0703 0.60156,-0.0664 0.84375,0.0781 0.26563,0.15625 0.4375,0.45703 0.55078,0.7461 0.0781,0.20312 0.11328,0.47265 -0.004,0.65625 -0.29688,0.47265 -0.73828,0.83593 -1.16407,1.19531 -0.24609,0.20703 -0.51562,0.44922 -0.83593,0.49609 m 141.21093,-4.75781 c -0.22656,0 -0.46875,0.0898 -0.67578,0.004 -0.25781,-0.10938 -0.91015,-0.51172 -0.63281,-0.54688 1.49219,-0.19922 3.12891,-0.54687 4.51953,0.0312 m -106.26953,21.96875 c -0.13672,0.0508 -0.26172,0.16016 -0.40625,0.16016 -0.25,0 -0.55469,0.0195 -0.73437,-0.15235 -0.10547,-0.10156 0.26953,-0.15234 0.41406,-0.15234"
       id="path4"
       sodipodi:nodetypes="cccsccccccccccccccscccccccccccccccccccccccccccccccccccccccccccccccccccccscccccsccccsccccccccccccccccccccccccsccccccccccccccccccccccccccccccccccccccccccccccccccccccccsccccccccccccccccccccscccccccccccccccccccccccccccccccccccccccccsccccccccccscccccccscccccccccccccccccsccscccccccccccccccccccccccccsccccccccccccccccccccccccscccccccccccccccsccccccccccccccccccccccccssccccccscccccccccccsccccccccccccccccccccccccccccccccccccccccccccccccccccccccccccccccccccccccccccsccccccccccccccccccccccccccccccccsccccccccccccccccccccccccccscccccccccccccsccccccccccccccccccccccccccccccccccccccccccccccscccccccccccccscccccccccccccccccsccccccccccccccccccccccscccccccccccsscccccccccccccccccccccccccccccccccccccscccccccccscccccccccccccccccccccccccsccccccccccccscccccccccccccccccccccccccccccccccccccccccscccccccccccccccccsccccccccccsccccccccccccccccccccccccccccccccccccccccccccccccccccccccccccccccccccccccccccccscccccccccccccccccsccccccccccccscc" />
  </g>
</svg>
