<?xml version="1.0" encoding="utf-8" standalone="no"?>
<!DOCTYPE svg PUBLIC "-//W3C//DTD SVG 1.1//EN"
  "http://www.w3.org/Graphics/SVG/1.1/DTD/svg11.dtd">
<svg xmlns:xlink="http://www.w3.org/1999/xlink" width="460.8pt" height="345.6pt" viewBox="0 0 460.8 345.6" xmlns="http://www.w3.org/2000/svg" version="1.1">
 <metadata>
  <rdf:RDF xmlns:dc="http://purl.org/dc/elements/1.1/" xmlns:cc="http://creativecommons.org/ns#" xmlns:rdf="http://www.w3.org/1999/02/22-rdf-syntax-ns#">
   <cc:Work>
    <dc:type rdf:resource="http://purl.org/dc/dcmitype/StillImage"/>
    <dc:date>2021-12-03T10:35:57.223315</dc:date>
    <dc:format>image/svg+xml</dc:format>
    <dc:creator>
     <cc:Agent>
      <dc:title>Matplotlib v3.5.0, https://matplotlib.org/</dc:title>
     </cc:Agent>
    </dc:creator>
   </cc:Work>
  </rdf:RDF>
 </metadata>
 <defs>
  <style type="text/css">*{stroke-linejoin: round; stroke-linecap: butt}</style>
 </defs>
 <g id="figure_1">
  <g id="patch_1">
   <path d="M 0 345.6 
L 460.8 345.6 
L 460.8 0 
L 0 0 
z
" style="fill: #ffffff"/>
  </g>
  <g id="axes_1">
   <g id="patch_2">
    <path d="M 63.47 302.92 
L 450 302.92 
L 450 38.966107 
L 63.47 38.966107 
z
" style="fill: #ffffff"/>
   </g>
   <g id="patch_3">
    <path d="M 81.039545 302.92 
L 82.787759 302.92 
L 82.787759 302.92 
L 81.039545 302.92 
z
" clip-path="url(#p89a6c545a0)" style="fill: #d3d3d3"/>
   </g>
   <g id="patch_4">
    <path d="M 82.787759 302.92 
L 84.535972 302.92 
L 84.535972 302.92 
L 82.787759 302.92 
z
" clip-path="url(#p89a6c545a0)" style="fill: #d3d3d3"/>
   </g>
   <g id="patch_5">
    <path d="M 84.535972 302.92 
L 86.284186 302.92 
L 86.284186 302.92 
L 84.535972 302.92 
z
" clip-path="url(#p89a6c545a0)" style="fill: #d3d3d3"/>
   </g>
   <g id="patch_6">
    <path d="M 86.284186 302.92 
L 88.032399 302.92 
L 88.032399 302.92 
L 86.284186 302.92 
z
" clip-path="url(#p89a6c545a0)" style="fill: #d3d3d3"/>
   </g>
   <g id="patch_7">
    <path d="M 88.032399 302.92 
L 89.780613 302.92 
L 89.780613 302.92 
L 88.032399 302.92 
z
" clip-path="url(#p89a6c545a0)" style="fill: #d3d3d3"/>
   </g>
   <g id="patch_8">
    <path d="M 89.780613 302.92 
L 91.528826 302.92 
L 91.528826 302.92 
L 89.780613 302.92 
z
" clip-path="url(#p89a6c545a0)" style="fill: #d3d3d3"/>
   </g>
   <g id="patch_9">
    <path d="M 91.528826 302.92 
L 93.27704 302.92 
L 93.27704 302.92 
L 91.528826 302.92 
z
" clip-path="url(#p89a6c545a0)" style="fill: #d3d3d3"/>
   </g>
   <g id="patch_10">
    <path d="M 93.27704 302.92 
L 95.025253 302.92 
L 95.025253 302.92 
L 93.27704 302.92 
z
" clip-path="url(#p89a6c545a0)" style="fill: #d3d3d3"/>
   </g>
   <g id="patch_11">
    <path d="M 95.025253 302.92 
L 96.773467 302.92 
L 96.773467 302.92 
L 95.025253 302.92 
z
" clip-path="url(#p89a6c545a0)" style="fill: #d3d3d3"/>
   </g>
   <g id="patch_12">
    <path d="M 96.773467 302.92 
L 98.52168 302.92 
L 98.52168 302.92 
L 96.773467 302.92 
z
" clip-path="url(#p89a6c545a0)" style="fill: #d3d3d3"/>
   </g>
   <g id="patch_13">
    <path d="M 98.52168 302.92 
L 100.269894 302.92 
L 100.269894 302.92 
L 98.52168 302.92 
z
" clip-path="url(#p89a6c545a0)" style="fill: #d3d3d3"/>
   </g>
   <g id="patch_14">
    <path d="M 100.269894 302.92 
L 102.018107 302.92 
L 102.018107 302.92 
L 100.269894 302.92 
z
" clip-path="url(#p89a6c545a0)" style="fill: #d3d3d3"/>
   </g>
   <g id="patch_15">
    <path d="M 102.018107 302.92 
L 103.766321 302.92 
L 103.766321 302.92 
L 102.018107 302.92 
z
" clip-path="url(#p89a6c545a0)" style="fill: #d3d3d3"/>
   </g>
   <g id="patch_16">
    <path d="M 103.766321 302.92 
L 105.514534 302.92 
L 105.514534 302.92 
L 103.766321 302.92 
z
" clip-path="url(#p89a6c545a0)" style="fill: #d3d3d3"/>
   </g>
   <g id="patch_17">
    <path d="M 105.514534 302.92 
L 107.262748 302.92 
L 107.262748 302.92 
L 105.514534 302.92 
z
" clip-path="url(#p89a6c545a0)" style="fill: #d3d3d3"/>
   </g>
   <g id="patch_18">
    <path d="M 107.262748 302.92 
L 109.010961 302.92 
L 109.010961 302.872596 
L 107.262748 302.872596 
z
" clip-path="url(#p89a6c545a0)" style="fill: #d3d3d3"/>
   </g>
   <g id="patch_19">
    <path d="M 109.010961 302.92 
L 110.759175 302.92 
L 110.759175 302.92 
L 109.010961 302.92 
z
" clip-path="url(#p89a6c545a0)" style="fill: #d3d3d3"/>
   </g>
   <g id="patch_20">
    <path d="M 110.759175 302.92 
L 112.507388 302.92 
L 112.507388 302.92 
L 110.759175 302.92 
z
" clip-path="url(#p89a6c545a0)" style="fill: #d3d3d3"/>
   </g>
   <g id="patch_21">
    <path d="M 112.507388 302.92 
L 114.255602 302.92 
L 114.255602 302.92 
L 112.507388 302.92 
z
" clip-path="url(#p89a6c545a0)" style="fill: #d3d3d3"/>
   </g>
   <g id="patch_22">
    <path d="M 114.255602 302.92 
L 116.003815 302.92 
L 116.003815 302.896298 
L 114.255602 302.896298 
z
" clip-path="url(#p89a6c545a0)" style="fill: #d3d3d3"/>
   </g>
   <g id="patch_23">
    <path d="M 116.003815 302.92 
L 117.752028 302.92 
L 117.752028 302.872596 
L 116.003815 302.872596 
z
" clip-path="url(#p89a6c545a0)" style="fill: #d3d3d3"/>
   </g>
   <g id="patch_24">
    <path d="M 117.752028 302.92 
L 119.500242 302.92 
L 119.500242 302.896298 
L 117.752028 302.896298 
z
" clip-path="url(#p89a6c545a0)" style="fill: #d3d3d3"/>
   </g>
   <g id="patch_25">
    <path d="M 119.500242 302.92 
L 121.248455 302.92 
L 121.248455 302.896298 
L 119.500242 302.896298 
z
" clip-path="url(#p89a6c545a0)" style="fill: #d3d3d3"/>
   </g>
   <g id="patch_26">
    <path d="M 121.248455 302.92 
L 122.996669 302.92 
L 122.996669 302.872596 
L 121.248455 302.872596 
z
" clip-path="url(#p89a6c545a0)" style="fill: #d3d3d3"/>
   </g>
   <g id="patch_27">
    <path d="M 122.996669 302.92 
L 124.744882 302.92 
L 124.744882 302.754085 
L 122.996669 302.754085 
z
" clip-path="url(#p89a6c545a0)" style="fill: #d3d3d3"/>
   </g>
   <g id="patch_28">
    <path d="M 124.744882 302.92 
L 126.493096 302.92 
L 126.493096 302.777787 
L 124.744882 302.777787 
z
" clip-path="url(#p89a6c545a0)" style="fill: #d3d3d3"/>
   </g>
   <g id="patch_29">
    <path d="M 126.493096 302.92 
L 128.241309 302.92 
L 128.241309 302.801489 
L 126.493096 302.801489 
z
" clip-path="url(#p89a6c545a0)" style="fill: #d3d3d3"/>
   </g>
   <g id="patch_30">
    <path d="M 128.241309 302.92 
L 129.989523 302.92 
L 129.989523 302.848894 
L 128.241309 302.848894 
z
" clip-path="url(#p89a6c545a0)" style="fill: #d3d3d3"/>
   </g>
   <g id="patch_31">
    <path d="M 129.989523 302.92 
L 131.737736 302.92 
L 131.737736 302.825192 
L 129.989523 302.825192 
z
" clip-path="url(#p89a6c545a0)" style="fill: #d3d3d3"/>
   </g>
   <g id="patch_32">
    <path d="M 131.737736 302.92 
L 133.48595 302.92 
L 133.48595 302.777787 
L 131.737736 302.777787 
z
" clip-path="url(#p89a6c545a0)" style="fill: #d3d3d3"/>
   </g>
   <g id="patch_33">
    <path d="M 133.48595 302.92 
L 135.234163 302.92 
L 135.234163 302.730383 
L 133.48595 302.730383 
z
" clip-path="url(#p89a6c545a0)" style="fill: #d3d3d3"/>
   </g>
   <g id="patch_34">
    <path d="M 135.234163 302.92 
L 136.982377 302.92 
L 136.982377 302.777787 
L 135.234163 302.777787 
z
" clip-path="url(#p89a6c545a0)" style="fill: #d3d3d3"/>
   </g>
   <g id="patch_35">
    <path d="M 136.982377 302.92 
L 138.73059 302.92 
L 138.73059 302.682979 
L 136.982377 302.682979 
z
" clip-path="url(#p89a6c545a0)" style="fill: #d3d3d3"/>
   </g>
   <g id="patch_36">
    <path d="M 138.73059 302.92 
L 140.478804 302.92 
L 140.478804 302.706681 
L 138.73059 302.706681 
z
" clip-path="url(#p89a6c545a0)" style="fill: #d3d3d3"/>
   </g>
   <g id="patch_37">
    <path d="M 140.478804 302.92 
L 142.227017 302.92 
L 142.227017 302.682979 
L 140.478804 302.682979 
z
" clip-path="url(#p89a6c545a0)" style="fill: #d3d3d3"/>
   </g>
   <g id="patch_38">
    <path d="M 142.227017 302.92 
L 143.975231 302.92 
L 143.975231 302.611872 
L 142.227017 302.611872 
z
" clip-path="url(#p89a6c545a0)" style="fill: #d3d3d3"/>
   </g>
   <g id="patch_39">
    <path d="M 143.975231 302.92 
L 145.723444 302.92 
L 145.723444 302.540766 
L 143.975231 302.540766 
z
" clip-path="url(#p89a6c545a0)" style="fill: #d3d3d3"/>
   </g>
   <g id="patch_40">
    <path d="M 145.723444 302.92 
L 147.471658 302.92 
L 147.471658 302.46966 
L 145.723444 302.46966 
z
" clip-path="url(#p89a6c545a0)" style="fill: #d3d3d3"/>
   </g>
   <g id="patch_41">
    <path d="M 147.471658 302.92 
L 149.219871 302.92 
L 149.219871 302.564468 
L 147.471658 302.564468 
z
" clip-path="url(#p89a6c545a0)" style="fill: #d3d3d3"/>
   </g>
   <g id="patch_42">
    <path d="M 149.219871 302.92 
L 150.968085 302.92 
L 150.968085 302.445958 
L 149.219871 302.445958 
z
" clip-path="url(#p89a6c545a0)" style="fill: #d3d3d3"/>
   </g>
   <g id="patch_43">
    <path d="M 150.968085 302.92 
L 152.716298 302.92 
L 152.716298 302.46966 
L 150.968085 302.46966 
z
" clip-path="url(#p89a6c545a0)" style="fill: #d3d3d3"/>
   </g>
   <g id="patch_44">
    <path d="M 152.716298 302.92 
L 154.464512 302.92 
L 154.464512 302.374851 
L 152.716298 302.374851 
z
" clip-path="url(#p89a6c545a0)" style="fill: #d3d3d3"/>
   </g>
   <g id="patch_45">
    <path d="M 154.464512 302.92 
L 156.212725 302.92 
L 156.212725 302.398553 
L 154.464512 302.398553 
z
" clip-path="url(#p89a6c545a0)" style="fill: #d3d3d3"/>
   </g>
   <g id="patch_46">
    <path d="M 156.212725 302.92 
L 157.960938 302.92 
L 157.960938 302.327447 
L 156.212725 302.327447 
z
" clip-path="url(#p89a6c545a0)" style="fill: #d3d3d3"/>
   </g>
   <g id="patch_47">
    <path d="M 157.960938 302.92 
L 159.709152 302.92 
L 159.709152 302.232639 
L 157.960938 302.232639 
z
" clip-path="url(#p89a6c545a0)" style="fill: #d3d3d3"/>
   </g>
   <g id="patch_48">
    <path d="M 159.709152 302.92 
L 161.457365 302.92 
L 161.457365 302.256341 
L 159.709152 302.256341 
z
" clip-path="url(#p89a6c545a0)" style="fill: #d3d3d3"/>
   </g>
   <g id="patch_49">
    <path d="M 161.457365 302.92 
L 163.205579 302.92 
L 163.205579 301.853405 
L 161.457365 301.853405 
z
" clip-path="url(#p89a6c545a0)" style="fill: #d3d3d3"/>
   </g>
   <g id="patch_50">
    <path d="M 163.205579 302.92 
L 164.953792 302.92 
L 164.953792 301.568979 
L 163.205579 301.568979 
z
" clip-path="url(#p89a6c545a0)" style="fill: #d3d3d3"/>
   </g>
   <g id="patch_51">
    <path d="M 164.953792 302.92 
L 166.702006 302.92 
L 166.702006 301.379362 
L 164.953792 301.379362 
z
" clip-path="url(#p89a6c545a0)" style="fill: #d3d3d3"/>
   </g>
   <g id="patch_52">
    <path d="M 166.702006 302.92 
L 168.450219 302.92 
L 168.450219 301.379362 
L 166.702006 301.379362 
z
" clip-path="url(#p89a6c545a0)" style="fill: #d3d3d3"/>
   </g>
   <g id="patch_53">
    <path d="M 168.450219 302.92 
L 170.198433 302.92 
L 170.198433 301.734894 
L 168.450219 301.734894 
z
" clip-path="url(#p89a6c545a0)" style="fill: #d3d3d3"/>
   </g>
   <g id="patch_54">
    <path d="M 170.198433 302.92 
L 171.946646 302.92 
L 171.946646 301.166043 
L 170.198433 301.166043 
z
" clip-path="url(#p89a6c545a0)" style="fill: #d3d3d3"/>
   </g>
   <g id="patch_55">
    <path d="M 171.946646 302.92 
L 173.69486 302.92 
L 173.69486 300.929022 
L 171.946646 300.929022 
z
" clip-path="url(#p89a6c545a0)" style="fill: #d3d3d3"/>
   </g>
   <g id="patch_56">
    <path d="M 173.69486 302.92 
L 175.443073 302.92 
L 175.443073 300.526086 
L 173.69486 300.526086 
z
" clip-path="url(#p89a6c545a0)" style="fill: #d3d3d3"/>
   </g>
   <g id="patch_57">
    <path d="M 175.443073 302.92 
L 177.191287 302.92 
L 177.191287 300.644597 
L 175.443073 300.644597 
z
" clip-path="url(#p89a6c545a0)" style="fill: #d3d3d3"/>
   </g>
   <g id="patch_58">
    <path d="M 177.191287 302.92 
L 178.9395 302.92 
L 178.9395 299.838725 
L 177.191287 299.838725 
z
" clip-path="url(#p89a6c545a0)" style="fill: #d3d3d3"/>
   </g>
   <g id="patch_59">
    <path d="M 178.9395 302.92 
L 180.687714 302.92 
L 180.687714 300.00464 
L 178.9395 300.00464 
z
" clip-path="url(#p89a6c545a0)" style="fill: #d3d3d3"/>
   </g>
   <g id="patch_60">
    <path d="M 180.687714 302.92 
L 182.435927 302.92 
L 182.435927 299.578001 
L 180.687714 299.578001 
z
" clip-path="url(#p89a6c545a0)" style="fill: #d3d3d3"/>
   </g>
   <g id="patch_61">
    <path d="M 182.435927 302.92 
L 184.184141 302.92 
L 184.184141 298.89064 
L 182.435927 298.89064 
z
" clip-path="url(#p89a6c545a0)" style="fill: #d3d3d3"/>
   </g>
   <g id="patch_62">
    <path d="M 184.184141 302.92 
L 185.932354 302.92 
L 185.932354 298.487704 
L 184.184141 298.487704 
z
" clip-path="url(#p89a6c545a0)" style="fill: #d3d3d3"/>
   </g>
   <g id="patch_63">
    <path d="M 185.932354 302.92 
L 187.680568 302.92 
L 187.680568 298.132172 
L 185.932354 298.132172 
z
" clip-path="url(#p89a6c545a0)" style="fill: #d3d3d3"/>
   </g>
   <g id="patch_64">
    <path d="M 187.680568 302.92 
L 189.428781 302.92 
L 189.428781 298.321789 
L 187.680568 298.321789 
z
" clip-path="url(#p89a6c545a0)" style="fill: #d3d3d3"/>
   </g>
   <g id="patch_65">
    <path d="M 189.428781 302.92 
L 191.176995 302.92 
L 191.176995 296.970768 
L 189.428781 296.970768 
z
" clip-path="url(#p89a6c545a0)" style="fill: #d3d3d3"/>
   </g>
   <g id="patch_66">
    <path d="M 191.176995 302.92 
L 192.925208 302.92 
L 192.925208 296.520428 
L 191.176995 296.520428 
z
" clip-path="url(#p89a6c545a0)" style="fill: #d3d3d3"/>
   </g>
   <g id="patch_67">
    <path d="M 192.925208 302.92 
L 194.673422 302.92 
L 194.673422 296.828556 
L 192.925208 296.828556 
z
" clip-path="url(#p89a6c545a0)" style="fill: #d3d3d3"/>
   </g>
   <g id="patch_68">
    <path d="M 194.673422 302.92 
L 196.421635 302.92 
L 196.421635 295.951577 
L 194.673422 295.951577 
z
" clip-path="url(#p89a6c545a0)" style="fill: #d3d3d3"/>
   </g>
   <g id="patch_69">
    <path d="M 196.421635 302.92 
L 198.169848 302.92 
L 198.169848 295.027195 
L 196.421635 295.027195 
z
" clip-path="url(#p89a6c545a0)" style="fill: #d3d3d3"/>
   </g>
   <g id="patch_70">
    <path d="M 198.169848 302.92 
L 199.918062 302.92 
L 199.918062 293.699876 
L 198.169848 293.699876 
z
" clip-path="url(#p89a6c545a0)" style="fill: #d3d3d3"/>
   </g>
   <g id="patch_71">
    <path d="M 199.918062 302.92 
L 201.666275 302.92 
L 201.666275 294.41094 
L 199.918062 294.41094 
z
" clip-path="url(#p89a6c545a0)" style="fill: #d3d3d3"/>
   </g>
   <g id="patch_72">
    <path d="M 201.666275 302.92 
L 203.414489 302.92 
L 203.414489 293.036217 
L 201.666275 293.036217 
z
" clip-path="url(#p89a6c545a0)" style="fill: #d3d3d3"/>
   </g>
   <g id="patch_73">
    <path d="M 203.414489 302.92 
L 205.162702 302.92 
L 205.162702 292.562175 
L 203.414489 292.562175 
z
" clip-path="url(#p89a6c545a0)" style="fill: #d3d3d3"/>
   </g>
   <g id="patch_74">
    <path d="M 205.162702 302.92 
L 206.910916 302.92 
L 206.910916 290.452686 
L 205.162702 290.452686 
z
" clip-path="url(#p89a6c545a0)" style="fill: #d3d3d3"/>
   </g>
   <g id="patch_75">
    <path d="M 206.910916 302.92 
L 208.659129 302.92 
L 208.659129 289.93124 
L 206.910916 289.93124 
z
" clip-path="url(#p89a6c545a0)" style="fill: #d3d3d3"/>
   </g>
   <g id="patch_76">
    <path d="M 208.659129 302.92 
L 210.407343 302.92 
L 210.407343 289.196474 
L 208.659129 289.196474 
z
" clip-path="url(#p89a6c545a0)" style="fill: #d3d3d3"/>
   </g>
   <g id="patch_77">
    <path d="M 210.407343 302.92 
L 212.155556 302.92 
L 212.155556 288.698729 
L 210.407343 288.698729 
z
" clip-path="url(#p89a6c545a0)" style="fill: #d3d3d3"/>
   </g>
   <g id="patch_78">
    <path d="M 212.155556 302.92 
L 213.90377 302.92 
L 213.90377 287.371411 
L 212.155556 287.371411 
z
" clip-path="url(#p89a6c545a0)" style="fill: #d3d3d3"/>
   </g>
   <g id="patch_79">
    <path d="M 213.90377 302.92 
L 215.651983 302.92 
L 215.651983 285.309327 
L 213.90377 285.309327 
z
" clip-path="url(#p89a6c545a0)" style="fill: #d3d3d3"/>
   </g>
   <g id="patch_80">
    <path d="M 215.651983 302.92 
L 217.400197 302.92 
L 217.400197 283.744987 
L 215.651983 283.744987 
z
" clip-path="url(#p89a6c545a0)" style="fill: #d3d3d3"/>
   </g>
   <g id="patch_81">
    <path d="M 217.400197 302.92 
L 219.14841 302.92 
L 219.14841 282.393966 
L 217.400197 282.393966 
z
" clip-path="url(#p89a6c545a0)" style="fill: #d3d3d3"/>
   </g>
   <g id="patch_82">
    <path d="M 219.14841 302.92 
L 220.896624 302.92 
L 220.896624 280.711116 
L 219.14841 280.711116 
z
" clip-path="url(#p89a6c545a0)" style="fill: #d3d3d3"/>
   </g>
   <g id="patch_83">
    <path d="M 220.896624 302.92 
L 222.644837 302.92 
L 222.644837 85.90341 
L 220.896624 85.90341 
z
" clip-path="url(#p89a6c545a0)" style="fill: #d3d3d3"/>
   </g>
   <g id="patch_84">
    <path d="M 222.644837 302.92 
L 224.393051 302.92 
L 224.393051 269.547418 
L 222.644837 269.547418 
z
" clip-path="url(#p89a6c545a0)" style="fill: #d3d3d3"/>
   </g>
   <g id="patch_85">
    <path d="M 224.393051 302.92 
L 226.141264 302.92 
L 226.141264 264.783293 
L 224.393051 264.783293 
z
" clip-path="url(#p89a6c545a0)" style="fill: #d3d3d3"/>
   </g>
   <g id="patch_86">
    <path d="M 226.141264 302.92 
L 227.889478 302.92 
L 227.889478 262.29457 
L 226.141264 262.29457 
z
" clip-path="url(#p89a6c545a0)" style="fill: #d3d3d3"/>
   </g>
   <g id="patch_87">
    <path d="M 227.889478 302.92 
L 229.637691 302.92 
L 229.637691 261.630911 
L 227.889478 261.630911 
z
" clip-path="url(#p89a6c545a0)" style="fill: #d3d3d3"/>
   </g>
   <g id="patch_88">
    <path d="M 229.637691 302.92 
L 231.385905 302.92 
L 231.385905 256.653466 
L 229.637691 256.653466 
z
" clip-path="url(#p89a6c545a0)" style="fill: #d3d3d3"/>
   </g>
   <g id="patch_89">
    <path d="M 231.385905 302.92 
L 233.134118 302.92 
L 233.134118 253.121851 
L 231.385905 253.121851 
z
" clip-path="url(#p89a6c545a0)" style="fill: #d3d3d3"/>
   </g>
   <g id="patch_90">
    <path d="M 233.134118 302.92 
L 234.882332 302.92 
L 234.882332 253.169255 
L 233.134118 253.169255 
z
" clip-path="url(#p89a6c545a0)" style="fill: #d3d3d3"/>
   </g>
   <g id="patch_91">
    <path d="M 234.882332 302.92 
L 236.630545 302.92 
L 236.630545 250.98866 
L 234.882332 250.98866 
z
" clip-path="url(#p89a6c545a0)" style="fill: #d3d3d3"/>
   </g>
   <g id="patch_92">
    <path d="M 236.630545 302.92 
L 238.378758 302.92 
L 238.378758 248.571044 
L 236.630545 248.571044 
z
" clip-path="url(#p89a6c545a0)" style="fill: #d3d3d3"/>
   </g>
   <g id="patch_93">
    <path d="M 238.378758 302.92 
L 240.126972 302.92 
L 240.126972 245.513471 
L 238.378758 245.513471 
z
" clip-path="url(#p89a6c545a0)" style="fill: #d3d3d3"/>
   </g>
   <g id="patch_94">
    <path d="M 240.126972 302.92 
L 241.875185 302.92 
L 241.875185 240.275303 
L 240.126972 240.275303 
z
" clip-path="url(#p89a6c545a0)" style="fill: #d3d3d3"/>
   </g>
   <g id="patch_95">
    <path d="M 241.875185 302.92 
L 243.623399 302.92 
L 243.623399 238.142112 
L 241.875185 238.142112 
z
" clip-path="url(#p89a6c545a0)" style="fill: #d3d3d3"/>
   </g>
   <g id="patch_96">
    <path d="M 243.623399 302.92 
L 245.371612 302.92 
L 245.371612 236.530368 
L 243.623399 236.530368 
z
" clip-path="url(#p89a6c545a0)" style="fill: #d3d3d3"/>
   </g>
   <g id="patch_97">
    <path d="M 245.371612 302.92 
L 247.119826 302.92 
L 247.119826 231.197392 
L 245.371612 231.197392 
z
" clip-path="url(#p89a6c545a0)" style="fill: #d3d3d3"/>
   </g>
   <g id="patch_98">
    <path d="M 247.119826 302.92 
L 248.868039 302.92 
L 248.868039 230.533733 
L 247.119826 230.533733 
z
" clip-path="url(#p89a6c545a0)" style="fill: #d3d3d3"/>
   </g>
   <g id="patch_99">
    <path d="M 248.868039 302.92 
L 250.616253 302.92 
L 250.616253 227.002117 
L 248.868039 227.002117 
z
" clip-path="url(#p89a6c545a0)" style="fill: #d3d3d3"/>
   </g>
   <g id="patch_100">
    <path d="M 250.616253 302.92 
L 252.364466 302.92 
L 252.364466 224.039352 
L 250.616253 224.039352 
z
" clip-path="url(#p89a6c545a0)" style="fill: #d3d3d3"/>
   </g>
   <g id="patch_101">
    <path d="M 252.364466 302.92 
L 254.11268 302.92 
L 254.11268 223.257182 
L 252.364466 223.257182 
z
" clip-path="url(#p89a6c545a0)" style="fill: #d3d3d3"/>
   </g>
   <g id="patch_102">
    <path d="M 254.11268 302.92 
L 255.860893 302.92 
L 255.860893 216.644292 
L 254.11268 216.644292 
z
" clip-path="url(#p89a6c545a0)" style="fill: #d3d3d3"/>
   </g>
   <g id="patch_103">
    <path d="M 255.860893 302.92 
L 257.609107 302.92 
L 257.609107 68.174226 
L 255.860893 68.174226 
z
" clip-path="url(#p89a6c545a0)" style="fill: #d3d3d3"/>
   </g>
   <g id="patch_104">
    <path d="M 257.609107 302.92 
L 259.35732 302.92 
L 259.35732 207.495274 
L 257.609107 207.495274 
z
" clip-path="url(#p89a6c545a0)" style="fill: #d3d3d3"/>
   </g>
   <g id="patch_105">
    <path d="M 259.35732 302.92 
L 261.105534 302.92 
L 261.105534 201.759362 
L 259.35732 201.759362 
z
" clip-path="url(#p89a6c545a0)" style="fill: #d3d3d3"/>
   </g>
   <g id="patch_106">
    <path d="M 261.105534 302.92 
L 262.853747 302.92 
L 262.853747 198.204044 
L 261.105534 198.204044 
z
" clip-path="url(#p89a6c545a0)" style="fill: #d3d3d3"/>
   </g>
   <g id="patch_107">
    <path d="M 262.853747 302.92 
L 264.601961 302.92 
L 264.601961 197.990725 
L 262.853747 197.990725 
z
" clip-path="url(#p89a6c545a0)" style="fill: #d3d3d3"/>
   </g>
   <g id="patch_108">
    <path d="M 264.601961 302.92 
L 266.350174 302.92 
L 266.350174 196.450087 
L 264.601961 196.450087 
z
" clip-path="url(#p89a6c545a0)" style="fill: #d3d3d3"/>
   </g>
   <g id="patch_109">
    <path d="M 266.350174 302.92 
L 268.098388 302.92 
L 268.098388 192.56294 
L 266.350174 192.56294 
z
" clip-path="url(#p89a6c545a0)" style="fill: #d3d3d3"/>
   </g>
   <g id="patch_110">
    <path d="M 268.098388 302.92 
L 269.846601 302.92 
L 269.846601 190.382345 
L 268.098388 190.382345 
z
" clip-path="url(#p89a6c545a0)" style="fill: #d3d3d3"/>
   </g>
   <g id="patch_111">
    <path d="M 269.846601 302.92 
L 271.594815 302.92 
L 271.594815 191.188217 
L 269.846601 191.188217 
z
" clip-path="url(#p89a6c545a0)" style="fill: #d3d3d3"/>
   </g>
   <g id="patch_112">
    <path d="M 271.594815 302.92 
L 273.343028 302.92 
L 273.343028 186.566304 
L 271.594815 186.566304 
z
" clip-path="url(#p89a6c545a0)" style="fill: #d3d3d3"/>
   </g>
   <g id="patch_113">
    <path d="M 273.343028 302.92 
L 275.091242 302.92 
L 275.091242 185.428603 
L 273.343028 185.428603 
z
" clip-path="url(#p89a6c545a0)" style="fill: #d3d3d3"/>
   </g>
   <g id="patch_114">
    <path d="M 275.091242 302.92 
L 276.839455 302.92 
L 276.839455 186.376687 
L 275.091242 186.376687 
z
" clip-path="url(#p89a6c545a0)" style="fill: #d3d3d3"/>
   </g>
   <g id="patch_115">
    <path d="M 276.839455 302.92 
L 278.587668 302.92 
L 278.587668 182.679157 
L 276.839455 182.679157 
z
" clip-path="url(#p89a6c545a0)" style="fill: #d3d3d3"/>
   </g>
   <g id="patch_116">
    <path d="M 278.587668 302.92 
L 280.335882 302.92 
L 280.335882 180.451158 
L 278.587668 180.451158 
z
" clip-path="url(#p89a6c545a0)" style="fill: #d3d3d3"/>
   </g>
   <g id="patch_117">
    <path d="M 280.335882 302.92 
L 282.084095 302.92 
L 282.084095 180.000818 
L 280.335882 180.000818 
z
" clip-path="url(#p89a6c545a0)" style="fill: #d3d3d3"/>
   </g>
   <g id="patch_118">
    <path d="M 282.084095 302.92 
L 283.832309 302.92 
L 283.832309 177.701712 
L 282.084095 177.701712 
z
" clip-path="url(#p89a6c545a0)" style="fill: #d3d3d3"/>
   </g>
   <g id="patch_119">
    <path d="M 283.832309 302.92 
L 285.580522 302.92 
L 285.580522 176.611415 
L 283.832309 176.611415 
z
" clip-path="url(#p89a6c545a0)" style="fill: #d3d3d3"/>
   </g>
   <g id="patch_120">
    <path d="M 285.580522 302.92 
L 287.328736 302.92 
L 287.328736 177.938733 
L 285.580522 177.938733 
z
" clip-path="url(#p89a6c545a0)" style="fill: #d3d3d3"/>
   </g>
   <g id="patch_121">
    <path d="M 287.328736 302.92 
L 289.076949 302.92 
L 289.076949 175.165586 
L 287.328736 175.165586 
z
" clip-path="url(#p89a6c545a0)" style="fill: #d3d3d3"/>
   </g>
   <g id="patch_122">
    <path d="M 289.076949 302.92 
L 290.825163 302.92 
L 290.825163 175.568522 
L 289.076949 175.568522 
z
" clip-path="url(#p89a6c545a0)" style="fill: #d3d3d3"/>
   </g>
   <g id="patch_123">
    <path d="M 290.825163 302.92 
L 292.573376 302.92 
L 292.573376 51.53534 
L 290.825163 51.53534 
z
" clip-path="url(#p89a6c545a0)" style="fill: #d3d3d3"/>
   </g>
   <g id="patch_124">
    <path d="M 292.573376 302.92 
L 294.32159 302.92 
L 294.32159 172.439842 
L 292.573376 172.439842 
z
" clip-path="url(#p89a6c545a0)" style="fill: #d3d3d3"/>
   </g>
   <g id="patch_125">
    <path d="M 294.32159 302.92 
L 296.069803 302.92 
L 296.069803 174.004182 
L 294.32159 174.004182 
z
" clip-path="url(#p89a6c545a0)" style="fill: #d3d3d3"/>
   </g>
   <g id="patch_126">
    <path d="M 296.069803 302.92 
L 297.818017 302.92 
L 297.818017 174.288607 
L 296.069803 174.288607 
z
" clip-path="url(#p89a6c545a0)" style="fill: #d3d3d3"/>
   </g>
   <g id="patch_127">
    <path d="M 297.818017 302.92 
L 299.56623 302.92 
L 299.56623 175.165586 
L 297.818017 175.165586 
z
" clip-path="url(#p89a6c545a0)" style="fill: #d3d3d3"/>
   </g>
   <g id="patch_128">
    <path d="M 299.56623 302.92 
L 301.314444 302.92 
L 301.314444 179.455669 
L 299.56623 179.455669 
z
" clip-path="url(#p89a6c545a0)" style="fill: #d3d3d3"/>
   </g>
   <g id="patch_129">
    <path d="M 301.314444 302.92 
L 303.062657 302.92 
L 303.062657 180.166732 
L 301.314444 180.166732 
z
" clip-path="url(#p89a6c545a0)" style="fill: #d3d3d3"/>
   </g>
   <g id="patch_130">
    <path d="M 303.062657 302.92 
L 304.810871 302.92 
L 304.810871 178.957924 
L 303.062657 178.957924 
z
" clip-path="url(#p89a6c545a0)" style="fill: #d3d3d3"/>
   </g>
   <g id="patch_131">
    <path d="M 304.810871 302.92 
L 306.559084 302.92 
L 306.559084 179.953413 
L 304.810871 179.953413 
z
" clip-path="url(#p89a6c545a0)" style="fill: #d3d3d3"/>
   </g>
   <g id="patch_132">
    <path d="M 306.559084 302.92 
L 308.307298 302.92 
L 308.307298 184.95456 
L 306.559084 184.95456 
z
" clip-path="url(#p89a6c545a0)" style="fill: #d3d3d3"/>
   </g>
   <g id="patch_133">
    <path d="M 308.307298 302.92 
L 310.055511 302.92 
L 310.055511 184.788645 
L 308.307298 184.788645 
z
" clip-path="url(#p89a6c545a0)" style="fill: #d3d3d3"/>
   </g>
   <g id="patch_134">
    <path d="M 310.055511 302.92 
L 311.803725 302.92 
L 311.803725 184.622731 
L 310.055511 184.622731 
z
" clip-path="url(#p89a6c545a0)" style="fill: #d3d3d3"/>
   </g>
   <g id="patch_135">
    <path d="M 311.803725 302.92 
L 313.551938 302.92 
L 313.551938 187.348474 
L 311.803725 187.348474 
z
" clip-path="url(#p89a6c545a0)" style="fill: #d3d3d3"/>
   </g>
   <g id="patch_136">
    <path d="M 313.551938 302.92 
L 315.300152 302.92 
L 315.300152 187.704006 
L 313.551938 187.704006 
z
" clip-path="url(#p89a6c545a0)" style="fill: #d3d3d3"/>
   </g>
   <g id="patch_137">
    <path d="M 315.300152 302.92 
L 317.048365 302.92 
L 317.048365 189.149835 
L 315.300152 189.149835 
z
" clip-path="url(#p89a6c545a0)" style="fill: #d3d3d3"/>
   </g>
   <g id="patch_138">
    <path d="M 317.048365 302.92 
L 318.796578 302.92 
L 318.796578 193.416216 
L 317.048365 193.416216 
z
" clip-path="url(#p89a6c545a0)" style="fill: #d3d3d3"/>
   </g>
   <g id="patch_139">
    <path d="M 318.796578 302.92 
L 320.544792 302.92 
L 320.544792 197.516683 
L 318.796578 197.516683 
z
" clip-path="url(#p89a6c545a0)" style="fill: #d3d3d3"/>
   </g>
   <g id="patch_140">
    <path d="M 320.544792 302.92 
L 322.293005 302.92 
L 322.293005 199.318044 
L 320.544792 199.318044 
z
" clip-path="url(#p89a6c545a0)" style="fill: #d3d3d3"/>
   </g>
   <g id="patch_141">
    <path d="M 322.293005 302.92 
L 324.041219 302.92 
L 324.041219 203.323701 
L 322.293005 203.323701 
z
" clip-path="url(#p89a6c545a0)" style="fill: #d3d3d3"/>
   </g>
   <g id="patch_142">
    <path d="M 324.041219 302.92 
L 325.789432 302.92 
L 325.789432 204.888041 
L 324.041219 204.888041 
z
" clip-path="url(#p89a6c545a0)" style="fill: #d3d3d3"/>
   </g>
   <g id="patch_143">
    <path d="M 325.789432 302.92 
L 327.537646 302.92 
L 327.537646 87.230729 
L 325.789432 87.230729 
z
" clip-path="url(#p89a6c545a0)" style="fill: #d3d3d3"/>
   </g>
   <g id="patch_144">
    <path d="M 327.537646 302.92 
L 329.285859 302.92 
L 329.285859 214.27408 
L 327.537646 214.27408 
z
" clip-path="url(#p89a6c545a0)" style="fill: #d3d3d3"/>
   </g>
   <g id="patch_145">
    <path d="M 329.285859 302.92 
L 331.034073 302.92 
L 331.034073 217.118334 
L 329.285859 217.118334 
z
" clip-path="url(#p89a6c545a0)" style="fill: #d3d3d3"/>
   </g>
   <g id="patch_146">
    <path d="M 331.034073 302.92 
L 332.782286 302.92 
L 332.782286 217.331653 
L 331.034073 217.331653 
z
" clip-path="url(#p89a6c545a0)" style="fill: #d3d3d3"/>
   </g>
   <g id="patch_147">
    <path d="M 332.782286 302.92 
L 334.5305 302.92 
L 334.5305 222.214289 
L 332.782286 222.214289 
z
" clip-path="url(#p89a6c545a0)" style="fill: #d3d3d3"/>
   </g>
   <g id="patch_148">
    <path d="M 334.5305 302.92 
L 336.278713 302.92 
L 336.278713 228.163521 
L 334.5305 228.163521 
z
" clip-path="url(#p89a6c545a0)" style="fill: #d3d3d3"/>
   </g>
   <g id="patch_149">
    <path d="M 336.278713 302.92 
L 338.026927 302.92 
L 338.026927 228.424244 
L 336.278713 228.424244 
z
" clip-path="url(#p89a6c545a0)" style="fill: #d3d3d3"/>
   </g>
   <g id="patch_150">
    <path d="M 338.026927 302.92 
L 339.77514 302.92 
L 339.77514 229.301222 
L 338.026927 229.301222 
z
" clip-path="url(#p89a6c545a0)" style="fill: #d3d3d3"/>
   </g>
   <g id="patch_151">
    <path d="M 339.77514 302.92 
L 341.523354 302.92 
L 341.523354 235.819305 
L 339.77514 235.819305 
z
" clip-path="url(#p89a6c545a0)" style="fill: #d3d3d3"/>
   </g>
   <g id="patch_152">
    <path d="M 341.523354 302.92 
L 343.271567 302.92 
L 343.271567 235.843007 
L 341.523354 235.843007 
z
" clip-path="url(#p89a6c545a0)" style="fill: #d3d3d3"/>
   </g>
   <g id="patch_153">
    <path d="M 343.271567 302.92 
L 345.019781 302.92 
L 345.019781 241.104877 
L 343.271567 241.104877 
z
" clip-path="url(#p89a6c545a0)" style="fill: #d3d3d3"/>
   </g>
   <g id="patch_154">
    <path d="M 345.019781 302.92 
L 346.767994 302.92 
L 346.767994 241.815941 
L 345.019781 241.815941 
z
" clip-path="url(#p89a6c545a0)" style="fill: #d3d3d3"/>
   </g>
   <g id="patch_155">
    <path d="M 346.767994 302.92 
L 348.516208 302.92 
L 348.516208 245.72679 
L 346.767994 245.72679 
z
" clip-path="url(#p89a6c545a0)" style="fill: #d3d3d3"/>
   </g>
   <g id="patch_156">
    <path d="M 348.516208 302.92 
L 350.264421 302.92 
L 350.264421 247.931087 
L 348.516208 247.931087 
z
" clip-path="url(#p89a6c545a0)" style="fill: #d3d3d3"/>
   </g>
   <g id="patch_157">
    <path d="M 350.264421 302.92 
L 352.012635 302.92 
L 352.012635 253.714404 
L 350.264421 253.714404 
z
" clip-path="url(#p89a6c545a0)" style="fill: #d3d3d3"/>
   </g>
   <g id="patch_158">
    <path d="M 352.012635 302.92 
L 353.760848 302.92 
L 353.760848 254.069935 
L 352.012635 254.069935 
z
" clip-path="url(#p89a6c545a0)" style="fill: #d3d3d3"/>
   </g>
   <g id="patch_159">
    <path d="M 353.760848 302.92 
L 355.509062 302.92 
L 355.509062 258.075593 
L 353.760848 258.075593 
z
" clip-path="url(#p89a6c545a0)" style="fill: #d3d3d3"/>
   </g>
   <g id="patch_160">
    <path d="M 355.509062 302.92 
L 357.257275 302.92 
L 357.257275 259.236997 
L 355.509062 259.236997 
z
" clip-path="url(#p89a6c545a0)" style="fill: #d3d3d3"/>
   </g>
   <g id="patch_161">
    <path d="M 357.257275 302.92 
L 359.005488 302.92 
L 359.005488 262.152358 
L 357.257275 262.152358 
z
" clip-path="url(#p89a6c545a0)" style="fill: #d3d3d3"/>
   </g>
   <g id="patch_162">
    <path d="M 359.005488 302.92 
L 360.753702 302.92 
L 360.753702 263.882612 
L 359.005488 263.882612 
z
" clip-path="url(#p89a6c545a0)" style="fill: #d3d3d3"/>
   </g>
   <g id="patch_163">
    <path d="M 360.753702 302.92 
L 362.501915 302.92 
L 362.501915 197.398172 
L 360.753702 197.398172 
z
" clip-path="url(#p89a6c545a0)" style="fill: #d3d3d3"/>
   </g>
   <g id="patch_164">
    <path d="M 362.501915 302.92 
L 364.250129 302.92 
L 364.250129 267.248313 
L 362.501915 267.248313 
z
" clip-path="url(#p89a6c545a0)" style="fill: #d3d3d3"/>
   </g>
   <g id="patch_165">
    <path d="M 364.250129 302.92 
L 365.998342 302.92 
L 365.998342 270.542907 
L 364.250129 270.542907 
z
" clip-path="url(#p89a6c545a0)" style="fill: #d3d3d3"/>
   </g>
   <g id="patch_166">
    <path d="M 365.998342 302.92 
L 367.746556 302.92 
L 367.746556 271.799119 
L 365.998342 271.799119 
z
" clip-path="url(#p89a6c545a0)" style="fill: #d3d3d3"/>
   </g>
   <g id="patch_167">
    <path d="M 367.746556 302.92 
L 369.494769 302.92 
L 369.494769 274.430055 
L 367.746556 274.430055 
z
" clip-path="url(#p89a6c545a0)" style="fill: #d3d3d3"/>
   </g>
   <g id="patch_168">
    <path d="M 369.494769 302.92 
L 371.242983 302.92 
L 371.242983 275.591458 
L 369.494769 275.591458 
z
" clip-path="url(#p89a6c545a0)" style="fill: #d3d3d3"/>
   </g>
   <g id="patch_169">
    <path d="M 371.242983 302.92 
L 372.991196 302.92 
L 372.991196 278.174989 
L 371.242983 278.174989 
z
" clip-path="url(#p89a6c545a0)" style="fill: #d3d3d3"/>
   </g>
   <g id="patch_170">
    <path d="M 372.991196 302.92 
L 374.73941 302.92 
L 374.73941 279.051967 
L 372.991196 279.051967 
z
" clip-path="url(#p89a6c545a0)" style="fill: #d3d3d3"/>
   </g>
   <g id="patch_171">
    <path d="M 374.73941 302.92 
L 376.487623 302.92 
L 376.487623 282.156945 
L 374.73941 282.156945 
z
" clip-path="url(#p89a6c545a0)" style="fill: #d3d3d3"/>
   </g>
   <g id="patch_172">
    <path d="M 376.487623 302.92 
L 378.235837 302.92 
L 378.235837 283.413157 
L 376.487623 283.413157 
z
" clip-path="url(#p89a6c545a0)" style="fill: #d3d3d3"/>
   </g>
   <g id="patch_173">
    <path d="M 378.235837 302.92 
L 379.98405 302.92 
L 379.98405 285.451539 
L 378.235837 285.451539 
z
" clip-path="url(#p89a6c545a0)" style="fill: #d3d3d3"/>
   </g>
   <g id="patch_174">
    <path d="M 379.98405 302.92 
L 381.732264 302.92 
L 381.732264 286.210007 
L 379.98405 286.210007 
z
" clip-path="url(#p89a6c545a0)" style="fill: #d3d3d3"/>
   </g>
   <g id="patch_175">
    <path d="M 381.732264 302.92 
L 383.480477 302.92 
L 383.480477 287.395113 
L 381.732264 287.395113 
z
" clip-path="url(#p89a6c545a0)" style="fill: #d3d3d3"/>
   </g>
   <g id="patch_176">
    <path d="M 383.480477 302.92 
L 385.228691 302.92 
L 385.228691 288.698729 
L 383.480477 288.698729 
z
" clip-path="url(#p89a6c545a0)" style="fill: #d3d3d3"/>
   </g>
   <g id="patch_177">
    <path d="M 385.228691 302.92 
L 386.976904 302.92 
L 386.976904 290.476388 
L 385.228691 290.476388 
z
" clip-path="url(#p89a6c545a0)" style="fill: #d3d3d3"/>
   </g>
   <g id="patch_178">
    <path d="M 386.976904 302.92 
L 388.725118 302.92 
L 388.725118 290.334176 
L 386.976904 290.334176 
z
" clip-path="url(#p89a6c545a0)" style="fill: #d3d3d3"/>
   </g>
   <g id="patch_179">
    <path d="M 388.725118 302.92 
L 390.473331 302.92 
L 390.473331 291.187452 
L 388.725118 291.187452 
z
" clip-path="url(#p89a6c545a0)" style="fill: #d3d3d3"/>
   </g>
   <g id="patch_180">
    <path d="M 390.473331 302.92 
L 392.221545 302.92 
L 392.221545 293.510259 
L 390.473331 293.510259 
z
" clip-path="url(#p89a6c545a0)" style="fill: #d3d3d3"/>
   </g>
   <g id="patch_181">
    <path d="M 392.221545 302.92 
L 393.969758 302.92 
L 393.969758 294.126514 
L 392.221545 294.126514 
z
" clip-path="url(#p89a6c545a0)" style="fill: #d3d3d3"/>
   </g>
   <g id="patch_182">
    <path d="M 393.969758 302.92 
L 395.717972 302.92 
L 395.717972 294.41094 
L 393.969758 294.41094 
z
" clip-path="url(#p89a6c545a0)" style="fill: #d3d3d3"/>
   </g>
   <g id="patch_183">
    <path d="M 395.717972 302.92 
L 397.466185 302.92 
L 397.466185 294.719067 
L 395.717972 294.719067 
z
" clip-path="url(#p89a6c545a0)" style="fill: #d3d3d3"/>
   </g>
   <g id="patch_184">
    <path d="M 397.466185 302.92 
L 399.214398 302.92 
L 399.214398 296.662641 
L 397.466185 296.662641 
z
" clip-path="url(#p89a6c545a0)" style="fill: #d3d3d3"/>
   </g>
   <g id="patch_185">
    <path d="M 399.214398 302.92 
L 400.962612 302.92 
L 400.962612 296.970768 
L 399.214398 296.970768 
z
" clip-path="url(#p89a6c545a0)" style="fill: #d3d3d3"/>
   </g>
   <g id="patch_186">
    <path d="M 400.962612 302.92 
L 402.710825 302.92 
L 402.710825 297.3263 
L 400.962612 297.3263 
z
" clip-path="url(#p89a6c545a0)" style="fill: #d3d3d3"/>
   </g>
   <g id="patch_187">
    <path d="M 402.710825 302.92 
L 404.459039 302.92 
L 404.459039 297.942555 
L 402.710825 297.942555 
z
" clip-path="url(#p89a6c545a0)" style="fill: #d3d3d3"/>
   </g>
   <g id="patch_188">
    <path d="M 404.459039 302.92 
L 406.207252 302.92 
L 406.207252 298.155874 
L 404.459039 298.155874 
z
" clip-path="url(#p89a6c545a0)" style="fill: #d3d3d3"/>
   </g>
   <g id="patch_189">
    <path d="M 406.207252 302.92 
L 407.955466 302.92 
L 407.955466 298.464002 
L 406.207252 298.464002 
z
" clip-path="url(#p89a6c545a0)" style="fill: #d3d3d3"/>
   </g>
   <g id="patch_190">
    <path d="M 407.955466 302.92 
L 409.703679 302.92 
L 409.703679 299.269874 
L 407.955466 299.269874 
z
" clip-path="url(#p89a6c545a0)" style="fill: #d3d3d3"/>
   </g>
   <g id="patch_191">
    <path d="M 409.703679 302.92 
L 411.451893 302.92 
L 411.451893 299.554299 
L 409.703679 299.554299 
z
" clip-path="url(#p89a6c545a0)" style="fill: #d3d3d3"/>
   </g>
   <g id="patch_192">
    <path d="M 411.451893 302.92 
L 413.200106 302.92 
L 413.200106 300.478682 
L 411.451893 300.478682 
z
" clip-path="url(#p89a6c545a0)" style="fill: #d3d3d3"/>
   </g>
   <g id="patch_193">
    <path d="M 413.200106 302.92 
L 414.94832 302.92 
L 414.94832 300.360171 
L 413.200106 300.360171 
z
" clip-path="url(#p89a6c545a0)" style="fill: #d3d3d3"/>
   </g>
   <g id="patch_194">
    <path d="M 414.94832 302.92 
L 416.696533 302.92 
L 416.696533 300.312767 
L 414.94832 300.312767 
z
" clip-path="url(#p89a6c545a0)" style="fill: #d3d3d3"/>
   </g>
   <g id="patch_195">
    <path d="M 416.696533 302.92 
L 418.444747 302.92 
L 418.444747 300.929022 
L 416.696533 300.929022 
z
" clip-path="url(#p89a6c545a0)" style="fill: #d3d3d3"/>
   </g>
   <g id="patch_196">
    <path d="M 418.444747 302.92 
L 420.19296 302.92 
L 420.19296 301.379362 
L 418.444747 301.379362 
z
" clip-path="url(#p89a6c545a0)" style="fill: #d3d3d3"/>
   </g>
   <g id="patch_197">
    <path d="M 420.19296 302.92 
L 421.941174 302.92 
L 421.941174 301.23715 
L 420.19296 301.23715 
z
" clip-path="url(#p89a6c545a0)" style="fill: #d3d3d3"/>
   </g>
   <g id="patch_198">
    <path d="M 421.941174 302.92 
L 423.689387 302.92 
L 423.689387 301.308256 
L 421.941174 301.308256 
z
" clip-path="url(#p89a6c545a0)" style="fill: #d3d3d3"/>
   </g>
   <g id="patch_199">
    <path d="M 423.689387 302.92 
L 425.437601 302.92 
L 425.437601 301.68749 
L 423.689387 301.68749 
z
" clip-path="url(#p89a6c545a0)" style="fill: #d3d3d3"/>
   </g>
   <g id="patch_200">
    <path d="M 425.437601 302.92 
L 427.185814 302.92 
L 427.185814 301.853405 
L 425.437601 301.853405 
z
" clip-path="url(#p89a6c545a0)" style="fill: #d3d3d3"/>
   </g>
   <g id="patch_201">
    <path d="M 427.185814 302.92 
L 428.934028 302.92 
L 428.934028 301.971915 
L 427.185814 301.971915 
z
" clip-path="url(#p89a6c545a0)" style="fill: #d3d3d3"/>
   </g>
   <g id="patch_202">
    <path d="M 428.934028 302.92 
L 430.682241 302.92 
L 430.682241 301.877107 
L 428.934028 301.877107 
z
" clip-path="url(#p89a6c545a0)" style="fill: #d3d3d3"/>
   </g>
   <g id="patch_203">
    <path d="M 430.682241 302.92 
L 432.430455 302.92 
L 432.430455 296.710045 
L 430.682241 296.710045 
z
" clip-path="url(#p89a6c545a0)" style="fill: #d3d3d3"/>
   </g>
   <g id="matplotlib.axis_1">
    <g id="xtick_1">
     <g id="line2d_1">
      <defs>
       <path id="m2eeb0a0614" d="M 0 0 
L 0 3.5 
" style="stroke: #000000; stroke-width: 0.8"/>
      </defs>
      <g>
       <use xlink:href="#m2eeb0a0614" x="81.913652" y="302.92" style="stroke: #000000; stroke-width: 0.8"/>
      </g>
     </g>
     <g id="text_1">
      <!-- 0 -->
      <g transform="translate(78.732402 317.518437)scale(0.1 -0.1)">
       <defs>
        <path id="DejaVuSerif-30" d="M 2034 219 
Q 2513 219 2750 744 
Q 2988 1269 2988 2328 
Q 2988 3391 2750 3916 
Q 2513 4441 2034 4441 
Q 1556 4441 1318 3916 
Q 1081 3391 1081 2328 
Q 1081 1269 1318 744 
Q 1556 219 2034 219 
z
M 2034 -91 
Q 1275 -91 848 546 
Q 422 1184 422 2328 
Q 422 3475 848 4112 
Q 1275 4750 2034 4750 
Q 2797 4750 3222 4112 
Q 3647 3475 3647 2328 
Q 3647 1184 3222 546 
Q 2797 -91 2034 -91 
z
" transform="scale(0.015625)"/>
       </defs>
       <use xlink:href="#DejaVuSerif-30"/>
      </g>
     </g>
    </g>
    <g id="xtick_2">
     <g id="line2d_2">
      <g>
       <use xlink:href="#m2eeb0a0614" x="221.77073" y="302.92" style="stroke: #000000; stroke-width: 0.8"/>
      </g>
     </g>
     <g id="text_2">
      <!-- 8 -->
      <g transform="translate(218.58948 317.518437)scale(0.1 -0.1)">
       <defs>
        <path id="DejaVuSerif-38" d="M 2981 1275 
Q 2981 1775 2732 2051 
Q 2484 2328 2034 2328 
Q 1584 2328 1336 2051 
Q 1088 1775 1088 1275 
Q 1088 772 1336 495 
Q 1584 219 2034 219 
Q 2484 219 2732 495 
Q 2981 772 2981 1275 
z
M 2853 3541 
Q 2853 3966 2637 4203 
Q 2422 4441 2034 4441 
Q 1650 4441 1433 4203 
Q 1216 3966 1216 3541 
Q 1216 3113 1433 2875 
Q 1650 2638 2034 2638 
Q 2422 2638 2637 2875 
Q 2853 3113 2853 3541 
z
M 2516 2484 
Q 3047 2413 3344 2092 
Q 3641 1772 3641 1275 
Q 3641 619 3225 264 
Q 2809 -91 2034 -91 
Q 1263 -91 845 264 
Q 428 619 428 1275 
Q 428 1772 725 2092 
Q 1022 2413 1556 2484 
Q 1084 2569 832 2842 
Q 581 3116 581 3541 
Q 581 4103 968 4426 
Q 1356 4750 2034 4750 
Q 2713 4750 3100 4426 
Q 3488 4103 3488 3541 
Q 3488 3116 3236 2842 
Q 2984 2569 2516 2484 
z
" transform="scale(0.015625)"/>
       </defs>
       <use xlink:href="#DejaVuSerif-38"/>
      </g>
     </g>
    </g>
    <g id="xtick_3">
     <g id="line2d_3">
      <g>
       <use xlink:href="#m2eeb0a0614" x="256.735" y="302.92" style="stroke: #000000; stroke-width: 0.8"/>
      </g>
     </g>
     <g id="text_3">
      <!-- 10 -->
      <g transform="translate(250.3725 317.518437)scale(0.1 -0.1)">
       <defs>
        <path id="DejaVuSerif-31" d="M 909 0 
L 909 331 
L 1722 331 
L 1722 4213 
L 781 3603 
L 781 4013 
L 1919 4750 
L 2350 4750 
L 2350 331 
L 3163 331 
L 3163 0 
L 909 0 
z
" transform="scale(0.015625)"/>
       </defs>
       <use xlink:href="#DejaVuSerif-31"/>
       <use xlink:href="#DejaVuSerif-30" x="63.623047"/>
      </g>
     </g>
    </g>
    <g id="xtick_4">
     <g id="line2d_4">
      <g>
       <use xlink:href="#m2eeb0a0614" x="291.69927" y="302.92" style="stroke: #000000; stroke-width: 0.8"/>
      </g>
     </g>
     <g id="text_4">
      <!-- 12 -->
      <g transform="translate(285.33677 317.518437)scale(0.1 -0.1)">
       <defs>
        <path id="DejaVuSerif-32" d="M 819 3553 
L 469 3553 
L 469 4384 
Q 803 4563 1142 4656 
Q 1481 4750 1806 4750 
Q 2534 4750 2956 4397 
Q 3378 4044 3378 3438 
Q 3378 2753 2422 1800 
Q 2347 1728 2309 1691 
L 1131 513 
L 3078 513 
L 3078 1088 
L 3444 1088 
L 3444 0 
L 434 0 
L 434 341 
L 1850 1753 
Q 2319 2222 2519 2614 
Q 2719 3006 2719 3438 
Q 2719 3909 2473 4175 
Q 2228 4441 1797 4441 
Q 1350 4441 1106 4219 
Q 863 3997 819 3553 
z
" transform="scale(0.015625)"/>
       </defs>
       <use xlink:href="#DejaVuSerif-31"/>
       <use xlink:href="#DejaVuSerif-32" x="63.623047"/>
      </g>
     </g>
    </g>
    <g id="xtick_5">
     <g id="line2d_5">
      <g>
       <use xlink:href="#m2eeb0a0614" x="326.663539" y="302.92" style="stroke: #000000; stroke-width: 0.8"/>
      </g>
     </g>
     <g id="text_5">
      <!-- 14 -->
      <g transform="translate(320.301039 317.518437)scale(0.1 -0.1)">
       <defs>
        <path id="DejaVuSerif-34" d="M 2234 1581 
L 2234 4063 
L 641 1581 
L 2234 1581 
z
M 3609 0 
L 1484 0 
L 1484 331 
L 2234 331 
L 2234 1247 
L 197 1247 
L 197 1588 
L 2241 4750 
L 2859 4750 
L 2859 1581 
L 3750 1581 
L 3750 1247 
L 2859 1247 
L 2859 331 
L 3609 331 
L 3609 0 
z
" transform="scale(0.015625)"/>
       </defs>
       <use xlink:href="#DejaVuSerif-31"/>
       <use xlink:href="#DejaVuSerif-34" x="63.623047"/>
      </g>
     </g>
    </g>
    <g id="xtick_6">
     <g id="line2d_6">
      <g>
       <use xlink:href="#m2eeb0a0614" x="361.627809" y="302.92" style="stroke: #000000; stroke-width: 0.8"/>
      </g>
     </g>
     <g id="text_6">
      <!-- 16 -->
      <g transform="translate(355.265309 317.518437)scale(0.1 -0.1)">
       <defs>
        <path id="DejaVuSerif-36" d="M 2094 219 
Q 2534 219 2771 542 
Q 3009 866 3009 1472 
Q 3009 2078 2771 2401 
Q 2534 2725 2094 2725 
Q 1647 2725 1412 2412 
Q 1178 2100 1178 1509 
Q 1178 888 1415 553 
Q 1653 219 2094 219 
z
M 1075 2569 
Q 1288 2803 1556 2918 
Q 1825 3034 2163 3034 
Q 2859 3034 3264 2615 
Q 3669 2197 3669 1472 
Q 3669 763 3233 336 
Q 2797 -91 2069 -91 
Q 1278 -91 853 498 
Q 428 1088 428 2181 
Q 428 3406 931 4078 
Q 1434 4750 2350 4750 
Q 2597 4750 2869 4703 
Q 3141 4656 3425 4563 
L 3425 3794 
L 3072 3794 
Q 3034 4109 2831 4275 
Q 2628 4441 2284 4441 
Q 1678 4441 1381 3981 
Q 1084 3522 1075 2569 
z
" transform="scale(0.015625)"/>
       </defs>
       <use xlink:href="#DejaVuSerif-31"/>
       <use xlink:href="#DejaVuSerif-36" x="63.623047"/>
      </g>
     </g>
    </g>
    <g id="xtick_7">
     <g id="line2d_7">
      <g>
       <use xlink:href="#m2eeb0a0614" x="431.556348" y="302.92" style="stroke: #000000; stroke-width: 0.8"/>
      </g>
     </g>
     <g id="text_7">
      <!-- 20 -->
      <g transform="translate(425.193848 317.518437)scale(0.1 -0.1)">
       <use xlink:href="#DejaVuSerif-32"/>
       <use xlink:href="#DejaVuSerif-30" x="63.623047"/>
      </g>
     </g>
    </g>
    <g id="text_8">
     <!-- Moyenne à l'issue de la première session -->
     <g transform="translate(152.595937 331.587187)scale(0.1 -0.1)">
      <defs>
       <path id="DejaVuSerif-4d" d="M 353 0 
L 353 331 
L 947 331 
L 947 4331 
L 319 4331 
L 319 4666 
L 1678 4666 
L 3316 1344 
L 4953 4666 
L 6228 4666 
L 6228 4331 
L 5606 4331 
L 5606 331 
L 6203 331 
L 6203 0 
L 4378 0 
L 4378 331 
L 4972 331 
L 4972 3938 
L 3372 684 
L 2931 684 
L 1331 3938 
L 1331 331 
L 1925 331 
L 1925 0 
L 353 0 
z
" transform="scale(0.015625)"/>
       <path id="DejaVuSerif-6f" d="M 1925 219 
Q 2388 219 2623 584 
Q 2859 950 2859 1663 
Q 2859 2375 2623 2739 
Q 2388 3103 1925 3103 
Q 1463 3103 1227 2739 
Q 991 2375 991 1663 
Q 991 950 1228 584 
Q 1466 219 1925 219 
z
M 1925 -91 
Q 1200 -91 759 389 
Q 319 869 319 1663 
Q 319 2456 758 2934 
Q 1197 3413 1925 3413 
Q 2653 3413 3092 2934 
Q 3531 2456 3531 1663 
Q 3531 869 3092 389 
Q 2653 -91 1925 -91 
z
" transform="scale(0.015625)"/>
       <path id="DejaVuSerif-79" d="M 1381 -609 
L 1600 -56 
L 359 2988 
L -19 2988 
L -19 3322 
L 1509 3322 
L 1509 2988 
L 978 2988 
L 1913 703 
L 2847 2988 
L 2350 2988 
L 2350 3322 
L 3597 3322 
L 3597 2988 
L 3225 2988 
L 1703 -750 
Q 1547 -1138 1356 -1280 
Q 1166 -1422 819 -1422 
Q 672 -1422 517 -1397 
Q 363 -1372 206 -1325 
L 206 -691 
L 500 -691 
Q 519 -903 608 -995 
Q 697 -1088 884 -1088 
Q 1056 -1088 1161 -992 
Q 1266 -897 1381 -609 
z
" transform="scale(0.015625)"/>
       <path id="DejaVuSerif-65" d="M 3469 1600 
L 991 1600 
L 991 1575 
Q 991 903 1244 561 
Q 1497 219 1991 219 
Q 2369 219 2611 417 
Q 2853 616 2950 1006 
L 3413 1006 
Q 3275 459 2904 184 
Q 2534 -91 1931 -91 
Q 1203 -91 761 389 
Q 319 869 319 1663 
Q 319 2450 753 2931 
Q 1188 3413 1894 3413 
Q 2647 3413 3050 2948 
Q 3453 2484 3469 1600 
z
M 2791 1931 
Q 2772 2513 2545 2808 
Q 2319 3103 1894 3103 
Q 1497 3103 1269 2806 
Q 1041 2509 991 1931 
L 2791 1931 
z
" transform="scale(0.015625)"/>
       <path id="DejaVuSerif-6e" d="M 263 0 
L 263 331 
L 781 331 
L 781 2988 
L 231 2988 
L 231 3322 
L 1356 3322 
L 1356 2731 
Q 1516 3069 1770 3241 
Q 2025 3413 2363 3413 
Q 2913 3413 3172 3097 
Q 3431 2781 3431 2113 
L 3431 331 
L 3944 331 
L 3944 0 
L 2356 0 
L 2356 331 
L 2853 331 
L 2853 1931 
Q 2853 2541 2703 2767 
Q 2553 2994 2175 2994 
Q 1775 2994 1565 2701 
Q 1356 2409 1356 1850 
L 1356 331 
L 1856 331 
L 1856 0 
L 263 0 
z
" transform="scale(0.015625)"/>
       <path id="DejaVuSerif-20" transform="scale(0.015625)"/>
       <path id="DejaVuSerif-e0" d="M 2547 1044 
L 2547 1747 
L 1806 1747 
Q 1378 1747 1168 1562 
Q 959 1378 959 997 
Q 959 650 1171 447 
Q 1384 244 1747 244 
Q 2106 244 2326 466 
Q 2547 688 2547 1044 
z
M 3122 2075 
L 3122 331 
L 3634 331 
L 3634 0 
L 2547 0 
L 2547 359 
Q 2356 128 2106 18 
Q 1856 -91 1522 -91 
Q 969 -91 644 203 
Q 319 497 319 997 
Q 319 1513 691 1797 
Q 1063 2081 1741 2081 
L 2547 2081 
L 2547 2309 
Q 2547 2688 2317 2895 
Q 2088 3103 1672 3103 
Q 1328 3103 1125 2947 
Q 922 2791 872 2484 
L 575 2484 
L 575 3156 
Q 875 3284 1158 3348 
Q 1441 3413 1709 3413 
Q 2400 3413 2761 3070 
Q 3122 2728 3122 2075 
z
M 1323 5113 
L 2135 3938 
L 1770 3938 
L 707 5113 
L 1323 5113 
z
" transform="scale(0.015625)"/>
       <path id="DejaVuSerif-6c" d="M 1313 331 
L 1856 331 
L 1856 0 
L 184 0 
L 184 331 
L 738 331 
L 738 4531 
L 184 4531 
L 184 4863 
L 1313 4863 
L 1313 331 
z
" transform="scale(0.015625)"/>
       <path id="DejaVuSerif-27" d="M 1125 4666 
L 1125 2931 
L 628 2931 
L 628 4666 
L 1125 4666 
z
" transform="scale(0.015625)"/>
       <path id="DejaVuSerif-69" d="M 622 4353 
Q 622 4497 726 4603 
Q 831 4709 978 4709 
Q 1122 4709 1226 4603 
Q 1331 4497 1331 4353 
Q 1331 4206 1228 4103 
Q 1125 4000 978 4000 
Q 831 4000 726 4103 
Q 622 4206 622 4353 
z
M 1356 331 
L 1900 331 
L 1900 0 
L 231 0 
L 231 331 
L 781 331 
L 781 2988 
L 231 2988 
L 231 3322 
L 1356 3322 
L 1356 331 
z
" transform="scale(0.015625)"/>
       <path id="DejaVuSerif-73" d="M 359 184 
L 359 959 
L 691 959 
Q 703 588 923 403 
Q 1144 219 1575 219 
Q 1963 219 2166 364 
Q 2369 509 2369 788 
Q 2369 1006 2220 1140 
Q 2072 1275 1594 1428 
L 1178 1569 
Q 750 1706 558 1912 
Q 366 2119 366 2438 
Q 366 2894 700 3153 
Q 1034 3413 1625 3413 
Q 1888 3413 2178 3344 
Q 2469 3275 2778 3144 
L 2778 2419 
L 2447 2419 
Q 2434 2741 2221 2922 
Q 2009 3103 1644 3103 
Q 1281 3103 1095 2975 
Q 909 2847 909 2591 
Q 909 2381 1050 2254 
Q 1191 2128 1613 1997 
L 2069 1856 
Q 2541 1709 2748 1489 
Q 2956 1269 2956 922 
Q 2956 450 2595 179 
Q 2234 -91 1600 -91 
Q 1278 -91 972 -22 
Q 666 47 359 184 
z
" transform="scale(0.015625)"/>
       <path id="DejaVuSerif-75" d="M 2266 3322 
L 3341 3322 
L 3341 331 
L 3884 331 
L 3884 0 
L 2766 0 
L 2766 588 
Q 2606 256 2353 82 
Q 2100 -91 1766 -91 
Q 1213 -91 952 223 
Q 691 538 691 1209 
L 691 2988 
L 172 2988 
L 172 3322 
L 1269 3322 
L 1269 1388 
Q 1269 781 1417 556 
Q 1566 331 1947 331 
Q 2347 331 2556 625 
Q 2766 919 2766 1478 
L 2766 2988 
L 2266 2988 
L 2266 3322 
z
" transform="scale(0.015625)"/>
       <path id="DejaVuSerif-64" d="M 3359 331 
L 3909 331 
L 3909 0 
L 2784 0 
L 2784 519 
Q 2616 206 2355 57 
Q 2094 -91 1709 -91 
Q 1097 -91 708 395 
Q 319 881 319 1663 
Q 319 2444 706 2928 
Q 1094 3413 1709 3413 
Q 2094 3413 2355 3264 
Q 2616 3116 2784 2803 
L 2784 4531 
L 2241 4531 
L 2241 4863 
L 3359 4863 
L 3359 331 
z
M 2784 1497 
L 2784 1825 
Q 2784 2422 2554 2737 
Q 2325 3053 1888 3053 
Q 1444 3053 1217 2703 
Q 991 2353 991 1663 
Q 991 975 1217 622 
Q 1444 269 1888 269 
Q 2325 269 2554 583 
Q 2784 897 2784 1497 
z
" transform="scale(0.015625)"/>
       <path id="DejaVuSerif-61" d="M 2547 1044 
L 2547 1747 
L 1806 1747 
Q 1378 1747 1168 1562 
Q 959 1378 959 997 
Q 959 650 1171 447 
Q 1384 244 1747 244 
Q 2106 244 2326 466 
Q 2547 688 2547 1044 
z
M 3122 2075 
L 3122 331 
L 3634 331 
L 3634 0 
L 2547 0 
L 2547 359 
Q 2356 128 2106 18 
Q 1856 -91 1522 -91 
Q 969 -91 644 203 
Q 319 497 319 997 
Q 319 1513 691 1797 
Q 1063 2081 1741 2081 
L 2547 2081 
L 2547 2309 
Q 2547 2688 2317 2895 
Q 2088 3103 1672 3103 
Q 1328 3103 1125 2947 
Q 922 2791 872 2484 
L 575 2484 
L 575 3156 
Q 875 3284 1158 3348 
Q 1441 3413 1709 3413 
Q 2400 3413 2761 3070 
Q 3122 2728 3122 2075 
z
" transform="scale(0.015625)"/>
       <path id="DejaVuSerif-70" d="M 1313 1825 
L 1313 1497 
Q 1313 897 1542 583 
Q 1772 269 2209 269 
Q 2650 269 2876 622 
Q 3103 975 3103 1663 
Q 3103 2353 2876 2703 
Q 2650 3053 2209 3053 
Q 1772 3053 1542 2737 
Q 1313 2422 1313 1825 
z
M 738 2988 
L 184 2988 
L 184 3322 
L 1313 3322 
L 1313 2803 
Q 1481 3116 1742 3264 
Q 2003 3413 2388 3413 
Q 3000 3413 3387 2928 
Q 3775 2444 3775 1663 
Q 3775 881 3387 395 
Q 3000 -91 2388 -91 
Q 2003 -91 1742 57 
Q 1481 206 1313 519 
L 1313 -997 
L 1856 -997 
L 1856 -1331 
L 184 -1331 
L 184 -997 
L 738 -997 
L 738 2988 
z
" transform="scale(0.015625)"/>
       <path id="DejaVuSerif-72" d="M 3059 3328 
L 3059 2497 
L 2728 2497 
Q 2713 2744 2591 2866 
Q 2469 2988 2234 2988 
Q 1809 2988 1582 2694 
Q 1356 2400 1356 1850 
L 1356 331 
L 2022 331 
L 2022 0 
L 263 0 
L 263 331 
L 781 331 
L 781 2994 
L 231 2994 
L 231 3322 
L 1356 3322 
L 1356 2731 
Q 1525 3078 1790 3245 
Q 2056 3413 2438 3413 
Q 2578 3413 2733 3391 
Q 2888 3369 3059 3328 
z
" transform="scale(0.015625)"/>
       <path id="DejaVuSerif-6d" d="M 3316 2675 
Q 3481 3041 3739 3227 
Q 3997 3413 4341 3413 
Q 4863 3413 5119 3089 
Q 5375 2766 5375 2113 
L 5375 331 
L 5894 331 
L 5894 0 
L 4300 0 
L 4300 331 
L 4800 331 
L 4800 2047 
Q 4800 2556 4650 2772 
Q 4500 2988 4153 2988 
Q 3769 2988 3567 2697 
Q 3366 2406 3366 1850 
L 3366 331 
L 3866 331 
L 3866 0 
L 2291 0 
L 2291 331 
L 2791 331 
L 2791 2069 
Q 2791 2566 2641 2777 
Q 2491 2988 2144 2988 
Q 1759 2988 1557 2697 
Q 1356 2406 1356 1850 
L 1356 331 
L 1856 331 
L 1856 0 
L 263 0 
L 263 331 
L 781 331 
L 781 2994 
L 231 2994 
L 231 3322 
L 1356 3322 
L 1356 2731 
Q 1516 3063 1762 3238 
Q 2009 3413 2322 3413 
Q 2709 3413 2968 3220 
Q 3228 3028 3316 2675 
z
" transform="scale(0.015625)"/>
       <path id="DejaVuSerif-e8" d="M 3469 1600 
L 991 1600 
L 991 1575 
Q 991 903 1244 561 
Q 1497 219 1991 219 
Q 2369 219 2611 417 
Q 2853 616 2950 1006 
L 3413 1006 
Q 3275 459 2904 184 
Q 2534 -91 1931 -91 
Q 1203 -91 761 389 
Q 319 869 319 1663 
Q 319 2450 753 2931 
Q 1188 3413 1894 3413 
Q 2647 3413 3050 2948 
Q 3453 2484 3469 1600 
z
M 2791 1931 
Q 2772 2513 2545 2808 
Q 2319 3103 1894 3103 
Q 1497 3103 1269 2806 
Q 1041 2509 991 1931 
L 2791 1931 
z
M 1443 5113 
L 2255 3938 
L 1890 3938 
L 827 5113 
L 1443 5113 
z
" transform="scale(0.015625)"/>
      </defs>
      <use xlink:href="#DejaVuSerif-4d"/>
      <use xlink:href="#DejaVuSerif-6f" x="102.392578"/>
      <use xlink:href="#DejaVuSerif-79" x="162.597656"/>
      <use xlink:href="#DejaVuSerif-65" x="219.091797"/>
      <use xlink:href="#DejaVuSerif-6e" x="278.271484"/>
      <use xlink:href="#DejaVuSerif-6e" x="342.675781"/>
      <use xlink:href="#DejaVuSerif-65" x="407.080078"/>
      <use xlink:href="#DejaVuSerif-20" x="466.259766"/>
      <use xlink:href="#DejaVuSerif-e0" x="498.046875"/>
      <use xlink:href="#DejaVuSerif-20" x="557.666016"/>
      <use xlink:href="#DejaVuSerif-6c" x="589.453125"/>
      <use xlink:href="#DejaVuSerif-27" x="621.435547"/>
      <use xlink:href="#DejaVuSerif-69" x="648.925781"/>
      <use xlink:href="#DejaVuSerif-73" x="680.908203"/>
      <use xlink:href="#DejaVuSerif-73" x="732.226562"/>
      <use xlink:href="#DejaVuSerif-75" x="783.544922"/>
      <use xlink:href="#DejaVuSerif-65" x="847.949219"/>
      <use xlink:href="#DejaVuSerif-20" x="907.128906"/>
      <use xlink:href="#DejaVuSerif-64" x="938.916016"/>
      <use xlink:href="#DejaVuSerif-65" x="1002.929688"/>
      <use xlink:href="#DejaVuSerif-20" x="1062.109375"/>
      <use xlink:href="#DejaVuSerif-6c" x="1093.896484"/>
      <use xlink:href="#DejaVuSerif-61" x="1125.878906"/>
      <use xlink:href="#DejaVuSerif-20" x="1185.498047"/>
      <use xlink:href="#DejaVuSerif-70" x="1217.285156"/>
      <use xlink:href="#DejaVuSerif-72" x="1281.298828"/>
      <use xlink:href="#DejaVuSerif-65" x="1329.101562"/>
      <use xlink:href="#DejaVuSerif-6d" x="1388.28125"/>
      <use xlink:href="#DejaVuSerif-69" x="1483.105469"/>
      <use xlink:href="#DejaVuSerif-e8" x="1515.087891"/>
      <use xlink:href="#DejaVuSerif-72" x="1574.267578"/>
      <use xlink:href="#DejaVuSerif-65" x="1622.070312"/>
      <use xlink:href="#DejaVuSerif-20" x="1681.25"/>
      <use xlink:href="#DejaVuSerif-73" x="1713.037109"/>
      <use xlink:href="#DejaVuSerif-65" x="1764.355469"/>
      <use xlink:href="#DejaVuSerif-73" x="1823.535156"/>
      <use xlink:href="#DejaVuSerif-73" x="1874.853516"/>
      <use xlink:href="#DejaVuSerif-69" x="1926.171875"/>
      <use xlink:href="#DejaVuSerif-6f" x="1958.154297"/>
      <use xlink:href="#DejaVuSerif-6e" x="2018.359375"/>
     </g>
    </g>
   </g>
   <g id="matplotlib.axis_2">
    <g id="ytick_1">
     <g id="line2d_8">
      <defs>
       <path id="md79da56631" d="M 0 0 
L -3.5 0 
" style="stroke: #000000; stroke-width: 0.8"/>
      </defs>
      <g>
       <use xlink:href="#md79da56631" x="63.47" y="302.92" style="stroke: #000000; stroke-width: 0.8"/>
      </g>
     </g>
     <g id="text_9">
      <!-- 0 -->
      <g transform="translate(50.1075 306.719219)scale(0.1 -0.1)">
       <use xlink:href="#DejaVuSerif-30"/>
      </g>
     </g>
    </g>
    <g id="ytick_2">
     <g id="line2d_9">
      <g>
       <use xlink:href="#md79da56631" x="63.47" y="255.515765" style="stroke: #000000; stroke-width: 0.8"/>
      </g>
     </g>
     <g id="text_10">
      <!-- 2000 -->
      <g transform="translate(31.02 259.314983)scale(0.1 -0.1)">
       <use xlink:href="#DejaVuSerif-32"/>
       <use xlink:href="#DejaVuSerif-30" x="63.623047"/>
       <use xlink:href="#DejaVuSerif-30" x="127.246094"/>
       <use xlink:href="#DejaVuSerif-30" x="190.869141"/>
      </g>
     </g>
    </g>
    <g id="ytick_3">
     <g id="line2d_10">
      <g>
       <use xlink:href="#md79da56631" x="63.47" y="208.111529" style="stroke: #000000; stroke-width: 0.8"/>
      </g>
     </g>
     <g id="text_11">
      <!-- 4000 -->
      <g transform="translate(31.02 211.910748)scale(0.1 -0.1)">
       <use xlink:href="#DejaVuSerif-34"/>
       <use xlink:href="#DejaVuSerif-30" x="63.623047"/>
       <use xlink:href="#DejaVuSerif-30" x="127.246094"/>
       <use xlink:href="#DejaVuSerif-30" x="190.869141"/>
      </g>
     </g>
    </g>
    <g id="ytick_4">
     <g id="line2d_11">
      <g>
       <use xlink:href="#md79da56631" x="63.47" y="160.707294" style="stroke: #000000; stroke-width: 0.8"/>
      </g>
     </g>
     <g id="text_12">
      <!-- 6000 -->
      <g transform="translate(31.02 164.506513)scale(0.1 -0.1)">
       <use xlink:href="#DejaVuSerif-36"/>
       <use xlink:href="#DejaVuSerif-30" x="63.623047"/>
       <use xlink:href="#DejaVuSerif-30" x="127.246094"/>
       <use xlink:href="#DejaVuSerif-30" x="190.869141"/>
      </g>
     </g>
    </g>
    <g id="ytick_5">
     <g id="line2d_12">
      <g>
       <use xlink:href="#md79da56631" x="63.47" y="113.303058" style="stroke: #000000; stroke-width: 0.8"/>
      </g>
     </g>
     <g id="text_13">
      <!-- 8000 -->
      <g transform="translate(31.02 117.102277)scale(0.1 -0.1)">
       <use xlink:href="#DejaVuSerif-38"/>
       <use xlink:href="#DejaVuSerif-30" x="63.623047"/>
       <use xlink:href="#DejaVuSerif-30" x="127.246094"/>
       <use xlink:href="#DejaVuSerif-30" x="190.869141"/>
      </g>
     </g>
    </g>
    <g id="ytick_6">
     <g id="line2d_13">
      <g>
       <use xlink:href="#md79da56631" x="63.47" y="65.898823" style="stroke: #000000; stroke-width: 0.8"/>
      </g>
     </g>
     <g id="text_14">
      <!-- 10000 -->
      <g transform="translate(24.6575 69.698042)scale(0.1 -0.1)">
       <use xlink:href="#DejaVuSerif-31"/>
       <use xlink:href="#DejaVuSerif-30" x="63.623047"/>
       <use xlink:href="#DejaVuSerif-30" x="127.246094"/>
       <use xlink:href="#DejaVuSerif-30" x="190.869141"/>
       <use xlink:href="#DejaVuSerif-30" x="254.492188"/>
      </g>
     </g>
    </g>
    <g id="text_15">
     <!-- Nombre de candidats -->
     <g transform="translate(18.577813 225.516491)rotate(-90)scale(0.1 -0.1)">
      <defs>
       <path id="DejaVuSerif-4e" d="M 313 0 
L 313 331 
L 941 331 
L 941 4331 
L 313 4331 
L 313 4666 
L 1509 4666 
L 4306 984 
L 4306 4331 
L 3681 4331 
L 3681 4666 
L 5319 4666 
L 5319 4331 
L 4691 4331 
L 4691 -91 
L 4313 -91 
L 1325 3841 
L 1325 331 
L 1953 331 
L 1953 0 
L 313 0 
z
" transform="scale(0.015625)"/>
       <path id="DejaVuSerif-62" d="M 738 331 
L 738 4531 
L 184 4531 
L 184 4863 
L 1313 4863 
L 1313 2803 
Q 1481 3116 1742 3264 
Q 2003 3413 2388 3413 
Q 3000 3413 3387 2928 
Q 3775 2444 3775 1663 
Q 3775 881 3387 395 
Q 3000 -91 2388 -91 
Q 2003 -91 1742 57 
Q 1481 206 1313 519 
L 1313 0 
L 184 0 
L 184 331 
L 738 331 
z
M 1313 1497 
Q 1313 897 1542 583 
Q 1772 269 2209 269 
Q 2650 269 2876 622 
Q 3103 975 3103 1663 
Q 3103 2353 2876 2703 
Q 2650 3053 2209 3053 
Q 1772 3053 1542 2737 
Q 1313 2422 1313 1825 
L 1313 1497 
z
" transform="scale(0.015625)"/>
       <path id="DejaVuSerif-63" d="M 3291 997 
Q 3169 466 2822 187 
Q 2475 -91 1925 -91 
Q 1200 -91 759 389 
Q 319 869 319 1663 
Q 319 2459 759 2936 
Q 1200 3413 1925 3413 
Q 2241 3413 2553 3339 
Q 2866 3266 3181 3116 
L 3181 2266 
L 2847 2266 
Q 2781 2703 2561 2903 
Q 2341 3103 1931 3103 
Q 1466 3103 1228 2742 
Q 991 2381 991 1663 
Q 991 944 1227 581 
Q 1463 219 1931 219 
Q 2303 219 2525 412 
Q 2747 606 2828 997 
L 3291 997 
z
" transform="scale(0.015625)"/>
       <path id="DejaVuSerif-74" d="M 691 2988 
L 184 2988 
L 184 3322 
L 691 3322 
L 691 4353 
L 1269 4353 
L 1269 3322 
L 2350 3322 
L 2350 2988 
L 1269 2988 
L 1269 878 
Q 1269 456 1350 337 
Q 1431 219 1650 219 
Q 1875 219 1978 351 
Q 2081 484 2088 781 
L 2522 781 
Q 2497 328 2275 118 
Q 2053 -91 1600 -91 
Q 1103 -91 897 129 
Q 691 350 691 878 
L 691 2988 
z
" transform="scale(0.015625)"/>
      </defs>
      <use xlink:href="#DejaVuSerif-4e"/>
      <use xlink:href="#DejaVuSerif-6f" x="87.5"/>
      <use xlink:href="#DejaVuSerif-6d" x="147.705078"/>
      <use xlink:href="#DejaVuSerif-62" x="242.529297"/>
      <use xlink:href="#DejaVuSerif-72" x="306.542969"/>
      <use xlink:href="#DejaVuSerif-65" x="354.345703"/>
      <use xlink:href="#DejaVuSerif-20" x="413.525391"/>
      <use xlink:href="#DejaVuSerif-64" x="445.3125"/>
      <use xlink:href="#DejaVuSerif-65" x="509.326172"/>
      <use xlink:href="#DejaVuSerif-20" x="568.505859"/>
      <use xlink:href="#DejaVuSerif-63" x="600.292969"/>
      <use xlink:href="#DejaVuSerif-61" x="656.298828"/>
      <use xlink:href="#DejaVuSerif-6e" x="715.917969"/>
      <use xlink:href="#DejaVuSerif-64" x="780.322266"/>
      <use xlink:href="#DejaVuSerif-69" x="844.335938"/>
      <use xlink:href="#DejaVuSerif-64" x="876.318359"/>
      <use xlink:href="#DejaVuSerif-61" x="940.332031"/>
      <use xlink:href="#DejaVuSerif-74" x="999.951172"/>
      <use xlink:href="#DejaVuSerif-73" x="1040.136719"/>
     </g>
    </g>
   </g>
   <g id="patch_204">
    <path d="M 63.47 302.92 
L 63.47 11.028421 
" style="fill: none; stroke: #000000; stroke-width: 0.8; stroke-linejoin: miter; stroke-linecap: square"/>
   </g>
   <g id="patch_205">
    <path d="M 81.913652 302.92 
L 431.556348 302.92 
" style="fill: none; stroke: #000000; stroke-width: 0.8; stroke-linejoin: miter; stroke-linecap: square"/>
   </g>
  </g>
 </g>
 <defs>
  <clipPath id="p89a6c545a0">
   <rect x="63.47" y="38.966107" width="386.53" height="263.953893"/>
  </clipPath>
 </defs>
</svg>
