<?xml version="1.0" encoding="utf-8" standalone="no"?>
<!DOCTYPE svg PUBLIC "-//W3C//DTD SVG 1.1//EN"
  "http://www.w3.org/Graphics/SVG/1.1/DTD/svg11.dtd">
<svg xmlns:xlink="http://www.w3.org/1999/xlink" width="460.8pt" height="345.6pt" viewBox="0 0 460.8 345.6" xmlns="http://www.w3.org/2000/svg" version="1.1">
 <metadata>
  <rdf:RDF xmlns:dc="http://purl.org/dc/elements/1.1/" xmlns:cc="http://creativecommons.org/ns#" xmlns:rdf="http://www.w3.org/1999/02/22-rdf-syntax-ns#">
   <cc:Work>
    <dc:type rdf:resource="http://purl.org/dc/dcmitype/StillImage"/>
    <dc:date>2021-12-01T12:17:47.364091</dc:date>
    <dc:format>image/svg+xml</dc:format>
    <dc:creator>
     <cc:Agent>
      <dc:title>Matplotlib v3.5.0, https://matplotlib.org/</dc:title>
     </cc:Agent>
    </dc:creator>
   </cc:Work>
  </rdf:RDF>
 </metadata>
 <defs>
  <style type="text/css">*{stroke-linejoin: round; stroke-linecap: butt}</style>
 </defs>
 <g id="figure_1">
  <g id="patch_1">
   <path d="M 0 345.6 
L 460.8 345.6 
L 460.8 0 
L 0 0 
z
" style="fill: #ffffff"/>
  </g>
  <g id="axes_1">
   <g id="patch_2">
    <path d="M 63.47 302.92 
L 450 302.92 
L 450 10.8 
L 63.47 10.8 
z
" style="fill: #ffffff"/>
   </g>
   <g id="patch_3">
    <path d="M 81.039545 302.92 
L 82.787759 302.92 
L 82.787759 302.92 
L 81.039545 302.92 
z
" clip-path="url(#p4e9cac910c)" style="fill: #d3d3d3"/>
   </g>
   <g id="patch_4">
    <path d="M 82.787759 302.92 
L 84.535972 302.92 
L 84.535972 302.92 
L 82.787759 302.92 
z
" clip-path="url(#p4e9cac910c)" style="fill: #d3d3d3"/>
   </g>
   <g id="patch_5">
    <path d="M 84.535972 302.92 
L 86.284186 302.92 
L 86.284186 302.92 
L 84.535972 302.92 
z
" clip-path="url(#p4e9cac910c)" style="fill: #d3d3d3"/>
   </g>
   <g id="patch_6">
    <path d="M 86.284186 302.92 
L 88.032399 302.92 
L 88.032399 302.92 
L 86.284186 302.92 
z
" clip-path="url(#p4e9cac910c)" style="fill: #d3d3d3"/>
   </g>
   <g id="patch_7">
    <path d="M 88.032399 302.92 
L 89.780613 302.92 
L 89.780613 302.92 
L 88.032399 302.92 
z
" clip-path="url(#p4e9cac910c)" style="fill: #d3d3d3"/>
   </g>
   <g id="patch_8">
    <path d="M 89.780613 302.92 
L 91.528826 302.92 
L 91.528826 302.92 
L 89.780613 302.92 
z
" clip-path="url(#p4e9cac910c)" style="fill: #d3d3d3"/>
   </g>
   <g id="patch_9">
    <path d="M 91.528826 302.92 
L 93.27704 302.92 
L 93.27704 302.92 
L 91.528826 302.92 
z
" clip-path="url(#p4e9cac910c)" style="fill: #d3d3d3"/>
   </g>
   <g id="patch_10">
    <path d="M 93.27704 302.92 
L 95.025253 302.92 
L 95.025253 302.92 
L 93.27704 302.92 
z
" clip-path="url(#p4e9cac910c)" style="fill: #d3d3d3"/>
   </g>
   <g id="patch_11">
    <path d="M 95.025253 302.92 
L 96.773467 302.92 
L 96.773467 302.897409 
L 95.025253 302.897409 
z
" clip-path="url(#p4e9cac910c)" style="fill: #d3d3d3"/>
   </g>
   <g id="patch_12">
    <path d="M 96.773467 302.92 
L 98.52168 302.92 
L 98.52168 302.92 
L 96.773467 302.92 
z
" clip-path="url(#p4e9cac910c)" style="fill: #d3d3d3"/>
   </g>
   <g id="patch_13">
    <path d="M 98.52168 302.92 
L 100.269894 302.92 
L 100.269894 302.897409 
L 98.52168 302.897409 
z
" clip-path="url(#p4e9cac910c)" style="fill: #d3d3d3"/>
   </g>
   <g id="patch_14">
    <path d="M 100.269894 302.92 
L 102.018107 302.92 
L 102.018107 302.897409 
L 100.269894 302.897409 
z
" clip-path="url(#p4e9cac910c)" style="fill: #d3d3d3"/>
   </g>
   <g id="patch_15">
    <path d="M 102.018107 302.92 
L 103.766321 302.92 
L 103.766321 302.92 
L 102.018107 302.92 
z
" clip-path="url(#p4e9cac910c)" style="fill: #d3d3d3"/>
   </g>
   <g id="patch_16">
    <path d="M 103.766321 302.92 
L 105.514534 302.92 
L 105.514534 302.92 
L 103.766321 302.92 
z
" clip-path="url(#p4e9cac910c)" style="fill: #d3d3d3"/>
   </g>
   <g id="patch_17">
    <path d="M 105.514534 302.92 
L 107.262748 302.92 
L 107.262748 302.897409 
L 105.514534 302.897409 
z
" clip-path="url(#p4e9cac910c)" style="fill: #d3d3d3"/>
   </g>
   <g id="patch_18">
    <path d="M 107.262748 302.92 
L 109.010961 302.92 
L 109.010961 302.897409 
L 107.262748 302.897409 
z
" clip-path="url(#p4e9cac910c)" style="fill: #d3d3d3"/>
   </g>
   <g id="patch_19">
    <path d="M 109.010961 302.92 
L 110.759175 302.92 
L 110.759175 302.874818 
L 109.010961 302.874818 
z
" clip-path="url(#p4e9cac910c)" style="fill: #d3d3d3"/>
   </g>
   <g id="patch_20">
    <path d="M 110.759175 302.92 
L 112.507388 302.92 
L 112.507388 302.897409 
L 110.759175 302.897409 
z
" clip-path="url(#p4e9cac910c)" style="fill: #d3d3d3"/>
   </g>
   <g id="patch_21">
    <path d="M 112.507388 302.92 
L 114.255602 302.92 
L 114.255602 302.92 
L 112.507388 302.92 
z
" clip-path="url(#p4e9cac910c)" style="fill: #d3d3d3"/>
   </g>
   <g id="patch_22">
    <path d="M 114.255602 302.92 
L 116.003815 302.92 
L 116.003815 302.92 
L 114.255602 302.92 
z
" clip-path="url(#p4e9cac910c)" style="fill: #d3d3d3"/>
   </g>
   <g id="patch_23">
    <path d="M 116.003815 302.92 
L 117.752028 302.92 
L 117.752028 302.852227 
L 116.003815 302.852227 
z
" clip-path="url(#p4e9cac910c)" style="fill: #d3d3d3"/>
   </g>
   <g id="patch_24">
    <path d="M 117.752028 302.92 
L 119.500242 302.92 
L 119.500242 302.897409 
L 117.752028 302.897409 
z
" clip-path="url(#p4e9cac910c)" style="fill: #d3d3d3"/>
   </g>
   <g id="patch_25">
    <path d="M 119.500242 302.92 
L 121.248455 302.92 
L 121.248455 302.784453 
L 119.500242 302.784453 
z
" clip-path="url(#p4e9cac910c)" style="fill: #d3d3d3"/>
   </g>
   <g id="patch_26">
    <path d="M 121.248455 302.92 
L 122.996669 302.92 
L 122.996669 302.807044 
L 121.248455 302.807044 
z
" clip-path="url(#p4e9cac910c)" style="fill: #d3d3d3"/>
   </g>
   <g id="patch_27">
    <path d="M 122.996669 302.92 
L 124.744882 302.92 
L 124.744882 302.739271 
L 122.996669 302.739271 
z
" clip-path="url(#p4e9cac910c)" style="fill: #d3d3d3"/>
   </g>
   <g id="patch_28">
    <path d="M 124.744882 302.92 
L 126.493096 302.92 
L 126.493096 302.829636 
L 124.744882 302.829636 
z
" clip-path="url(#p4e9cac910c)" style="fill: #d3d3d3"/>
   </g>
   <g id="patch_29">
    <path d="M 126.493096 302.92 
L 128.241309 302.92 
L 128.241309 302.852227 
L 126.493096 302.852227 
z
" clip-path="url(#p4e9cac910c)" style="fill: #d3d3d3"/>
   </g>
   <g id="patch_30">
    <path d="M 128.241309 302.92 
L 129.989523 302.92 
L 129.989523 302.829636 
L 128.241309 302.829636 
z
" clip-path="url(#p4e9cac910c)" style="fill: #d3d3d3"/>
   </g>
   <g id="patch_31">
    <path d="M 129.989523 302.92 
L 131.737736 302.92 
L 131.737736 302.739271 
L 129.989523 302.739271 
z
" clip-path="url(#p4e9cac910c)" style="fill: #d3d3d3"/>
   </g>
   <g id="patch_32">
    <path d="M 131.737736 302.92 
L 133.48595 302.92 
L 133.48595 302.761862 
L 131.737736 302.761862 
z
" clip-path="url(#p4e9cac910c)" style="fill: #d3d3d3"/>
   </g>
   <g id="patch_33">
    <path d="M 133.48595 302.92 
L 135.234163 302.92 
L 135.234163 302.694089 
L 133.48595 302.694089 
z
" clip-path="url(#p4e9cac910c)" style="fill: #d3d3d3"/>
   </g>
   <g id="patch_34">
    <path d="M 135.234163 302.92 
L 136.982377 302.92 
L 136.982377 302.71668 
L 135.234163 302.71668 
z
" clip-path="url(#p4e9cac910c)" style="fill: #d3d3d3"/>
   </g>
   <g id="patch_35">
    <path d="M 136.982377 302.92 
L 138.73059 302.92 
L 138.73059 302.761862 
L 136.982377 302.761862 
z
" clip-path="url(#p4e9cac910c)" style="fill: #d3d3d3"/>
   </g>
   <g id="patch_36">
    <path d="M 138.73059 302.92 
L 140.478804 302.92 
L 140.478804 302.784453 
L 138.73059 302.784453 
z
" clip-path="url(#p4e9cac910c)" style="fill: #d3d3d3"/>
   </g>
   <g id="patch_37">
    <path d="M 140.478804 302.92 
L 142.227017 302.92 
L 142.227017 302.400404 
L 140.478804 302.400404 
z
" clip-path="url(#p4e9cac910c)" style="fill: #d3d3d3"/>
   </g>
   <g id="patch_38">
    <path d="M 142.227017 302.92 
L 143.975231 302.92 
L 143.975231 302.400404 
L 142.227017 302.400404 
z
" clip-path="url(#p4e9cac910c)" style="fill: #d3d3d3"/>
   </g>
   <g id="patch_39">
    <path d="M 143.975231 302.92 
L 145.723444 302.92 
L 145.723444 302.400404 
L 143.975231 302.400404 
z
" clip-path="url(#p4e9cac910c)" style="fill: #d3d3d3"/>
   </g>
   <g id="patch_40">
    <path d="M 145.723444 302.92 
L 147.471658 302.92 
L 147.471658 302.422996 
L 145.723444 302.422996 
z
" clip-path="url(#p4e9cac910c)" style="fill: #d3d3d3"/>
   </g>
   <g id="patch_41">
    <path d="M 147.471658 302.92 
L 149.219871 302.92 
L 149.219871 302.355222 
L 147.471658 302.355222 
z
" clip-path="url(#p4e9cac910c)" style="fill: #d3d3d3"/>
   </g>
   <g id="patch_42">
    <path d="M 149.219871 302.92 
L 150.968085 302.92 
L 150.968085 302.31004 
L 149.219871 302.31004 
z
" clip-path="url(#p4e9cac910c)" style="fill: #d3d3d3"/>
   </g>
   <g id="patch_43">
    <path d="M 150.968085 302.92 
L 152.716298 302.92 
L 152.716298 302.151902 
L 150.968085 302.151902 
z
" clip-path="url(#p4e9cac910c)" style="fill: #d3d3d3"/>
   </g>
   <g id="patch_44">
    <path d="M 152.716298 302.92 
L 154.464512 302.92 
L 154.464512 301.993764 
L 152.716298 301.993764 
z
" clip-path="url(#p4e9cac910c)" style="fill: #d3d3d3"/>
   </g>
   <g id="patch_45">
    <path d="M 154.464512 302.92 
L 156.212725 302.92 
L 156.212725 301.519351 
L 154.464512 301.519351 
z
" clip-path="url(#p4e9cac910c)" style="fill: #d3d3d3"/>
   </g>
   <g id="patch_46">
    <path d="M 156.212725 302.92 
L 157.960938 302.92 
L 157.960938 301.541942 
L 156.212725 301.541942 
z
" clip-path="url(#p4e9cac910c)" style="fill: #d3d3d3"/>
   </g>
   <g id="patch_47">
    <path d="M 157.960938 302.92 
L 159.709152 302.92 
L 159.709152 301.745262 
L 157.960938 301.745262 
z
" clip-path="url(#p4e9cac910c)" style="fill: #d3d3d3"/>
   </g>
   <g id="patch_48">
    <path d="M 159.709152 302.92 
L 161.457365 302.92 
L 161.457365 301.587124 
L 159.709152 301.587124 
z
" clip-path="url(#p4e9cac910c)" style="fill: #d3d3d3"/>
   </g>
   <g id="patch_49">
    <path d="M 161.457365 302.92 
L 163.205579 302.92 
L 163.205579 301.157893 
L 161.457365 301.157893 
z
" clip-path="url(#p4e9cac910c)" style="fill: #d3d3d3"/>
   </g>
   <g id="patch_50">
    <path d="M 163.205579 302.92 
L 164.953792 302.92 
L 164.953792 301.067529 
L 163.205579 301.067529 
z
" clip-path="url(#p4e9cac910c)" style="fill: #d3d3d3"/>
   </g>
   <g id="patch_51">
    <path d="M 164.953792 302.92 
L 166.702006 302.92 
L 166.702006 300.796436 
L 164.953792 300.796436 
z
" clip-path="url(#p4e9cac910c)" style="fill: #d3d3d3"/>
   </g>
   <g id="patch_52">
    <path d="M 166.702006 302.92 
L 168.450219 302.92 
L 168.450219 300.434978 
L 166.702006 300.434978 
z
" clip-path="url(#p4e9cac910c)" style="fill: #d3d3d3"/>
   </g>
   <g id="patch_53">
    <path d="M 168.450219 302.92 
L 170.198433 302.92 
L 170.198433 299.983156 
L 168.450219 299.983156 
z
" clip-path="url(#p4e9cac910c)" style="fill: #d3d3d3"/>
   </g>
   <g id="patch_54">
    <path d="M 170.198433 302.92 
L 171.946646 302.92 
L 171.946646 299.847609 
L 170.198433 299.847609 
z
" clip-path="url(#p4e9cac910c)" style="fill: #d3d3d3"/>
   </g>
   <g id="patch_55">
    <path d="M 171.946646 302.92 
L 173.69486 302.92 
L 173.69486 299.46356 
L 171.946646 299.46356 
z
" clip-path="url(#p4e9cac910c)" style="fill: #d3d3d3"/>
   </g>
   <g id="patch_56">
    <path d="M 173.69486 302.92 
L 175.443073 302.92 
L 175.443073 298.989147 
L 173.69486 298.989147 
z
" clip-path="url(#p4e9cac910c)" style="fill: #d3d3d3"/>
   </g>
   <g id="patch_57">
    <path d="M 175.443073 302.92 
L 177.191287 302.92 
L 177.191287 298.718053 
L 175.443073 298.718053 
z
" clip-path="url(#p4e9cac910c)" style="fill: #d3d3d3"/>
   </g>
   <g id="patch_58">
    <path d="M 177.191287 302.92 
L 178.9395 302.92 
L 178.9395 298.24364 
L 177.191287 298.24364 
z
" clip-path="url(#p4e9cac910c)" style="fill: #d3d3d3"/>
   </g>
   <g id="patch_59">
    <path d="M 178.9395 302.92 
L 180.687714 302.92 
L 180.687714 297.656271 
L 178.9395 297.656271 
z
" clip-path="url(#p4e9cac910c)" style="fill: #d3d3d3"/>
   </g>
   <g id="patch_60">
    <path d="M 180.687714 302.92 
L 182.435927 302.92 
L 182.435927 296.797809 
L 180.687714 296.797809 
z
" clip-path="url(#p4e9cac910c)" style="fill: #d3d3d3"/>
   </g>
   <g id="patch_61">
    <path d="M 182.435927 302.92 
L 184.184141 302.92 
L 184.184141 297.204449 
L 182.435927 297.204449 
z
" clip-path="url(#p4e9cac910c)" style="fill: #d3d3d3"/>
   </g>
   <g id="patch_62">
    <path d="M 184.184141 302.92 
L 185.932354 302.92 
L 185.932354 296.526716 
L 184.184141 296.526716 
z
" clip-path="url(#p4e9cac910c)" style="fill: #d3d3d3"/>
   </g>
   <g id="patch_63">
    <path d="M 185.932354 302.92 
L 187.680568 302.92 
L 187.680568 295.419751 
L 185.932354 295.419751 
z
" clip-path="url(#p4e9cac910c)" style="fill: #d3d3d3"/>
   </g>
   <g id="patch_64">
    <path d="M 187.680568 302.92 
L 189.428781 302.92 
L 189.428781 295.284205 
L 187.680568 295.284205 
z
" clip-path="url(#p4e9cac910c)" style="fill: #d3d3d3"/>
   </g>
   <g id="patch_65">
    <path d="M 189.428781 302.92 
L 191.176995 302.92 
L 191.176995 293.612463 
L 189.428781 293.612463 
z
" clip-path="url(#p4e9cac910c)" style="fill: #d3d3d3"/>
   </g>
   <g id="patch_66">
    <path d="M 191.176995 302.92 
L 192.925208 302.92 
L 192.925208 293.36396 
L 191.176995 293.36396 
z
" clip-path="url(#p4e9cac910c)" style="fill: #d3d3d3"/>
   </g>
   <g id="patch_67">
    <path d="M 192.925208 302.92 
L 194.673422 302.92 
L 194.673422 291.601854 
L 192.925208 291.601854 
z
" clip-path="url(#p4e9cac910c)" style="fill: #d3d3d3"/>
   </g>
   <g id="patch_68">
    <path d="M 194.673422 302.92 
L 196.421635 302.92 
L 196.421635 290.540072 
L 194.673422 290.540072 
z
" clip-path="url(#p4e9cac910c)" style="fill: #d3d3d3"/>
   </g>
   <g id="patch_69">
    <path d="M 196.421635 302.92 
L 198.169848 302.92 
L 198.169848 289.049058 
L 196.421635 289.049058 
z
" clip-path="url(#p4e9cac910c)" style="fill: #d3d3d3"/>
   </g>
   <g id="patch_70">
    <path d="M 198.169848 302.92 
L 199.918062 302.92 
L 199.918062 289.320152 
L 198.169848 289.320152 
z
" clip-path="url(#p4e9cac910c)" style="fill: #d3d3d3"/>
   </g>
   <g id="patch_71">
    <path d="M 199.918062 302.92 
L 201.666275 302.92 
L 201.666275 287.106223 
L 199.918062 287.106223 
z
" clip-path="url(#p4e9cac910c)" style="fill: #d3d3d3"/>
   </g>
   <g id="patch_72">
    <path d="M 201.666275 302.92 
L 203.414489 302.92 
L 203.414489 286.586627 
L 201.666275 286.586627 
z
" clip-path="url(#p4e9cac910c)" style="fill: #d3d3d3"/>
   </g>
   <g id="patch_73">
    <path d="M 203.414489 302.92 
L 205.162702 302.92 
L 205.162702 285.434481 
L 203.414489 285.434481 
z
" clip-path="url(#p4e9cac910c)" style="fill: #d3d3d3"/>
   </g>
   <g id="patch_74">
    <path d="M 205.162702 302.92 
L 206.910916 302.92 
L 206.910916 283.130187 
L 205.162702 283.130187 
z
" clip-path="url(#p4e9cac910c)" style="fill: #d3d3d3"/>
   </g>
   <g id="patch_75">
    <path d="M 206.910916 302.92 
L 208.659129 302.92 
L 208.659129 283.807921 
L 206.910916 283.807921 
z
" clip-path="url(#p4e9cac910c)" style="fill: #d3d3d3"/>
   </g>
   <g id="patch_76">
    <path d="M 208.659129 302.92 
L 210.407343 302.92 
L 210.407343 281.006623 
L 208.659129 281.006623 
z
" clip-path="url(#p4e9cac910c)" style="fill: #d3d3d3"/>
   </g>
   <g id="patch_77">
    <path d="M 210.407343 302.92 
L 212.155556 302.92 
L 212.155556 278.024596 
L 210.407343 278.024596 
z
" clip-path="url(#p4e9cac910c)" style="fill: #d3d3d3"/>
   </g>
   <g id="patch_78">
    <path d="M 212.155556 302.92 
L 213.90377 302.92 
L 213.90377 276.917632 
L 212.155556 276.917632 
z
" clip-path="url(#p4e9cac910c)" style="fill: #d3d3d3"/>
   </g>
   <g id="patch_79">
    <path d="M 213.90377 302.92 
L 215.651983 302.92 
L 215.651983 274.251881 
L 213.90377 274.251881 
z
" clip-path="url(#p4e9cac910c)" style="fill: #d3d3d3"/>
   </g>
   <g id="patch_80">
    <path d="M 215.651983 302.92 
L 217.400197 302.92 
L 217.400197 270.795441 
L 215.651983 270.795441 
z
" clip-path="url(#p4e9cac910c)" style="fill: #d3d3d3"/>
   </g>
   <g id="patch_81">
    <path d="M 217.400197 302.92 
L 219.14841 302.92 
L 219.14841 271.450583 
L 217.400197 271.450583 
z
" clip-path="url(#p4e9cac910c)" style="fill: #d3d3d3"/>
   </g>
   <g id="patch_82">
    <path d="M 219.14841 302.92 
L 220.896624 302.92 
L 220.896624 267.451957 
L 219.14841 267.451957 
z
" clip-path="url(#p4e9cac910c)" style="fill: #d3d3d3"/>
   </g>
   <g id="patch_83">
    <path d="M 220.896624 302.92 
L 222.644837 302.92 
L 222.644837 265.780215 
L 220.896624 265.780215 
z
" clip-path="url(#p4e9cac910c)" style="fill: #d3d3d3"/>
   </g>
   <g id="patch_84">
    <path d="M 222.644837 302.92 
L 224.393051 302.92 
L 224.393051 262.097864 
L 222.644837 262.097864 
z
" clip-path="url(#p4e9cac910c)" style="fill: #d3d3d3"/>
   </g>
   <g id="patch_85">
    <path d="M 224.393051 302.92 
L 226.141264 302.92 
L 226.141264 261.781588 
L 224.393051 261.781588 
z
" clip-path="url(#p4e9cac910c)" style="fill: #d3d3d3"/>
   </g>
   <g id="patch_86">
    <path d="M 226.141264 302.92 
L 227.889478 302.92 
L 227.889478 258.279966 
L 226.141264 258.279966 
z
" clip-path="url(#p4e9cac910c)" style="fill: #d3d3d3"/>
   </g>
   <g id="patch_87">
    <path d="M 227.889478 302.92 
L 229.637691 302.92 
L 229.637691 255.275348 
L 227.889478 255.275348 
z
" clip-path="url(#p4e9cac910c)" style="fill: #d3d3d3"/>
   </g>
   <g id="patch_88">
    <path d="M 229.637691 302.92 
L 231.385905 302.92 
L 231.385905 252.609597 
L 229.637691 252.609597 
z
" clip-path="url(#p4e9cac910c)" style="fill: #d3d3d3"/>
   </g>
   <g id="patch_89">
    <path d="M 231.385905 302.92 
L 233.134118 302.92 
L 233.134118 248.904655 
L 231.385905 248.904655 
z
" clip-path="url(#p4e9cac910c)" style="fill: #d3d3d3"/>
   </g>
   <g id="patch_90">
    <path d="M 233.134118 302.92 
L 234.882332 302.92 
L 234.882332 247.458824 
L 233.134118 247.458824 
z
" clip-path="url(#p4e9cac910c)" style="fill: #d3d3d3"/>
   </g>
   <g id="patch_91">
    <path d="M 234.882332 302.92 
L 236.630545 302.92 
L 236.630545 244.341251 
L 234.882332 244.341251 
z
" clip-path="url(#p4e9cac910c)" style="fill: #d3d3d3"/>
   </g>
   <g id="patch_92">
    <path d="M 236.630545 302.92 
L 238.378758 302.92 
L 238.378758 241.178495 
L 236.630545 241.178495 
z
" clip-path="url(#p4e9cac910c)" style="fill: #d3d3d3"/>
   </g>
   <g id="patch_93">
    <path d="M 238.378758 302.92 
L 240.126972 302.92 
L 240.126972 237.563918 
L 238.378758 237.563918 
z
" clip-path="url(#p4e9cac910c)" style="fill: #d3d3d3"/>
   </g>
   <g id="patch_94">
    <path d="M 240.126972 302.92 
L 241.875185 302.92 
L 241.875185 235.892176 
L 240.126972 235.892176 
z
" clip-path="url(#p4e9cac910c)" style="fill: #d3d3d3"/>
   </g>
   <g id="patch_95">
    <path d="M 241.875185 302.92 
L 243.623399 302.92 
L 243.623399 234.017113 
L 241.875185 234.017113 
z
" clip-path="url(#p4e9cac910c)" style="fill: #d3d3d3"/>
   </g>
   <g id="patch_96">
    <path d="M 243.623399 302.92 
L 245.371612 302.92 
L 245.371612 229.950714 
L 243.623399 229.950714 
z
" clip-path="url(#p4e9cac910c)" style="fill: #d3d3d3"/>
   </g>
   <g id="patch_97">
    <path d="M 245.371612 302.92 
L 247.119826 302.92 
L 247.119826 227.488283 
L 245.371612 227.488283 
z
" clip-path="url(#p4e9cac910c)" style="fill: #d3d3d3"/>
   </g>
   <g id="patch_98">
    <path d="M 247.119826 302.92 
L 248.868039 302.92 
L 248.868039 221.207954 
L 247.119826 221.207954 
z
" clip-path="url(#p4e9cac910c)" style="fill: #d3d3d3"/>
   </g>
   <g id="patch_99">
    <path d="M 248.868039 302.92 
L 250.616253 302.92 
L 250.616253 219.423256 
L 248.868039 219.423256 
z
" clip-path="url(#p4e9cac910c)" style="fill: #d3d3d3"/>
   </g>
   <g id="patch_100">
    <path d="M 250.616253 302.92 
L 252.364466 302.92 
L 252.364466 216.057181 
L 250.616253 216.057181 
z
" clip-path="url(#p4e9cac910c)" style="fill: #d3d3d3"/>
   </g>
   <g id="patch_101">
    <path d="M 252.364466 302.92 
L 254.11268 302.92 
L 254.11268 213.052563 
L 252.364466 213.052563 
z
" clip-path="url(#p4e9cac910c)" style="fill: #d3d3d3"/>
   </g>
   <g id="patch_102">
    <path d="M 254.11268 302.92 
L 255.860893 302.92 
L 255.860893 210.567541 
L 254.11268 210.567541 
z
" clip-path="url(#p4e9cac910c)" style="fill: #d3d3d3"/>
   </g>
   <g id="patch_103">
    <path d="M 255.860893 302.92 
L 257.609107 302.92 
L 257.609107 209.32503 
L 255.860893 209.32503 
z
" clip-path="url(#p4e9cac910c)" style="fill: #d3d3d3"/>
   </g>
   <g id="patch_104">
    <path d="M 257.609107 302.92 
L 259.35732 302.92 
L 259.35732 206.727052 
L 257.609107 206.727052 
z
" clip-path="url(#p4e9cac910c)" style="fill: #d3d3d3"/>
   </g>
   <g id="patch_105">
    <path d="M 259.35732 302.92 
L 261.105534 302.92 
L 261.105534 202.954337 
L 259.35732 202.954337 
z
" clip-path="url(#p4e9cac910c)" style="fill: #d3d3d3"/>
   </g>
   <g id="patch_106">
    <path d="M 261.105534 302.92 
L 262.853747 302.92 
L 262.853747 197.871337 
L 261.105534 197.871337 
z
" clip-path="url(#p4e9cac910c)" style="fill: #d3d3d3"/>
   </g>
   <g id="patch_107">
    <path d="M 262.853747 302.92 
L 264.601961 302.92 
L 264.601961 196.899919 
L 262.853747 196.899919 
z
" clip-path="url(#p4e9cac910c)" style="fill: #d3d3d3"/>
   </g>
   <g id="patch_108">
    <path d="M 264.601961 302.92 
L 266.350174 302.92 
L 266.350174 195.363724 
L 264.601961 195.363724 
z
" clip-path="url(#p4e9cac910c)" style="fill: #d3d3d3"/>
   </g>
   <g id="patch_109">
    <path d="M 266.350174 302.92 
L 268.098388 302.92 
L 268.098388 191.929875 
L 266.350174 191.929875 
z
" clip-path="url(#p4e9cac910c)" style="fill: #d3d3d3"/>
   </g>
   <g id="patch_110">
    <path d="M 268.098388 302.92 
L 269.846601 302.92 
L 269.846601 190.935866 
L 268.098388 190.935866 
z
" clip-path="url(#p4e9cac910c)" style="fill: #d3d3d3"/>
   </g>
   <g id="patch_111">
    <path d="M 269.846601 302.92 
L 271.594815 302.92 
L 271.594815 186.101368 
L 269.846601 186.101368 
z
" clip-path="url(#p4e9cac910c)" style="fill: #d3d3d3"/>
   </g>
   <g id="patch_112">
    <path d="M 271.594815 302.92 
L 273.343028 302.92 
L 273.343028 185.242906 
L 271.594815 185.242906 
z
" clip-path="url(#p4e9cac910c)" style="fill: #d3d3d3"/>
   </g>
   <g id="patch_113">
    <path d="M 273.343028 302.92 
L 275.091242 302.92 
L 275.091242 185.694728 
L 273.343028 185.694728 
z
" clip-path="url(#p4e9cac910c)" style="fill: #d3d3d3"/>
   </g>
   <g id="patch_114">
    <path d="M 275.091242 302.92 
L 276.839455 302.92 
L 276.839455 179.866222 
L 275.091242 179.866222 
z
" clip-path="url(#p4e9cac910c)" style="fill: #d3d3d3"/>
   </g>
   <g id="patch_115">
    <path d="M 276.839455 302.92 
L 278.587668 302.92 
L 278.587668 180.882822 
L 276.839455 180.882822 
z
" clip-path="url(#p4e9cac910c)" style="fill: #d3d3d3"/>
   </g>
   <g id="patch_116">
    <path d="M 278.587668 302.92 
L 280.335882 302.92 
L 280.335882 180.182498 
L 278.587668 180.182498 
z
" clip-path="url(#p4e9cac910c)" style="fill: #d3d3d3"/>
   </g>
   <g id="patch_117">
    <path d="M 280.335882 302.92 
L 282.084095 302.92 
L 282.084095 177.810431 
L 280.335882 177.810431 
z
" clip-path="url(#p4e9cac910c)" style="fill: #d3d3d3"/>
   </g>
   <g id="patch_118">
    <path d="M 282.084095 302.92 
L 283.832309 302.92 
L 283.832309 175.415773 
L 282.084095 175.415773 
z
" clip-path="url(#p4e9cac910c)" style="fill: #d3d3d3"/>
   </g>
   <g id="patch_119">
    <path d="M 283.832309 302.92 
L 285.580522 302.92 
L 285.580522 171.07828 
L 283.832309 171.07828 
z
" clip-path="url(#p4e9cac910c)" style="fill: #d3d3d3"/>
   </g>
   <g id="patch_120">
    <path d="M 285.580522 302.92 
L 287.328736 302.92 
L 287.328736 175.280227 
L 285.580522 175.280227 
z
" clip-path="url(#p4e9cac910c)" style="fill: #d3d3d3"/>
   </g>
   <g id="patch_121">
    <path d="M 287.328736 302.92 
L 289.076949 302.92 
L 289.076949 173.292209 
L 287.328736 173.292209 
z
" clip-path="url(#p4e9cac910c)" style="fill: #d3d3d3"/>
   </g>
   <g id="patch_122">
    <path d="M 289.076949 302.92 
L 290.825163 302.92 
L 290.825163 172.682249 
L 289.076949 172.682249 
z
" clip-path="url(#p4e9cac910c)" style="fill: #d3d3d3"/>
   </g>
   <g id="patch_123">
    <path d="M 290.825163 302.92 
L 292.573376 302.92 
L 292.573376 173.3148 
L 290.825163 173.3148 
z
" clip-path="url(#p4e9cac910c)" style="fill: #d3d3d3"/>
   </g>
   <g id="patch_124">
    <path d="M 292.573376 302.92 
L 294.32159 302.92 
L 294.32159 173.766622 
L 292.573376 173.766622 
z
" clip-path="url(#p4e9cac910c)" style="fill: #d3d3d3"/>
   </g>
   <g id="patch_125">
    <path d="M 294.32159 302.92 
L 296.069803 302.92 
L 296.069803 174.873587 
L 294.32159 174.873587 
z
" clip-path="url(#p4e9cac910c)" style="fill: #d3d3d3"/>
   </g>
   <g id="patch_126">
    <path d="M 296.069803 302.92 
L 297.818017 302.92 
L 297.818017 172.50152 
L 296.069803 172.50152 
z
" clip-path="url(#p4e9cac910c)" style="fill: #d3d3d3"/>
   </g>
   <g id="patch_127">
    <path d="M 297.818017 302.92 
L 299.56623 302.92 
L 299.56623 173.856987 
L 297.818017 173.856987 
z
" clip-path="url(#p4e9cac910c)" style="fill: #d3d3d3"/>
   </g>
   <g id="patch_128">
    <path d="M 299.56623 302.92 
L 301.314444 302.92 
L 301.314444 179.436991 
L 299.56623 179.436991 
z
" clip-path="url(#p4e9cac910c)" style="fill: #d3d3d3"/>
   </g>
   <g id="patch_129">
    <path d="M 301.314444 302.92 
L 303.062657 302.92 
L 303.062657 176.703467 
L 301.314444 176.703467 
z
" clip-path="url(#p4e9cac910c)" style="fill: #d3d3d3"/>
   </g>
   <g id="patch_130">
    <path d="M 303.062657 302.92 
L 304.810871 302.92 
L 304.810871 179.685493 
L 303.062657 179.685493 
z
" clip-path="url(#p4e9cac910c)" style="fill: #d3d3d3"/>
   </g>
   <g id="patch_131">
    <path d="M 304.810871 302.92 
L 306.559084 302.92 
L 306.559084 181.696102 
L 304.810871 181.696102 
z
" clip-path="url(#p4e9cac910c)" style="fill: #d3d3d3"/>
   </g>
   <g id="patch_132">
    <path d="M 306.559084 302.92 
L 308.307298 302.92 
L 308.307298 183.096751 
L 306.559084 183.096751 
z
" clip-path="url(#p4e9cac910c)" style="fill: #d3d3d3"/>
   </g>
   <g id="patch_133">
    <path d="M 308.307298 302.92 
L 310.055511 302.92 
L 310.055511 184.474808 
L 308.307298 184.474808 
z
" clip-path="url(#p4e9cac910c)" style="fill: #d3d3d3"/>
   </g>
   <g id="patch_134">
    <path d="M 310.055511 302.92 
L 311.803725 302.92 
L 311.803725 187.34388 
L 310.055511 187.34388 
z
" clip-path="url(#p4e9cac910c)" style="fill: #d3d3d3"/>
   </g>
   <g id="patch_135">
    <path d="M 311.803725 302.92 
L 313.551938 302.92 
L 313.551938 189.151168 
L 311.803725 189.151168 
z
" clip-path="url(#p4e9cac910c)" style="fill: #d3d3d3"/>
   </g>
   <g id="patch_136">
    <path d="M 313.551938 302.92 
L 315.300152 302.92 
L 315.300152 192.359106 
L 313.551938 192.359106 
z
" clip-path="url(#p4e9cac910c)" style="fill: #d3d3d3"/>
   </g>
   <g id="patch_137">
    <path d="M 315.300152 302.92 
L 317.048365 302.92 
L 317.048365 194.979675 
L 315.300152 194.979675 
z
" clip-path="url(#p4e9cac910c)" style="fill: #d3d3d3"/>
   </g>
   <g id="patch_138">
    <path d="M 317.048365 302.92 
L 318.796578 302.92 
L 318.796578 196.425506 
L 317.048365 196.425506 
z
" clip-path="url(#p4e9cac910c)" style="fill: #d3d3d3"/>
   </g>
   <g id="patch_139">
    <path d="M 318.796578 302.92 
L 320.544792 302.92 
L 320.544792 200.288586 
L 318.796578 200.288586 
z
" clip-path="url(#p4e9cac910c)" style="fill: #d3d3d3"/>
   </g>
   <g id="patch_140">
    <path d="M 320.544792 302.92 
L 322.293005 302.92 
L 322.293005 200.356359 
L 320.544792 200.356359 
z
" clip-path="url(#p4e9cac910c)" style="fill: #d3d3d3"/>
   </g>
   <g id="patch_141">
    <path d="M 322.293005 302.92 
L 324.041219 302.92 
L 324.041219 203.202839 
L 322.293005 203.202839 
z
" clip-path="url(#p4e9cac910c)" style="fill: #d3d3d3"/>
   </g>
   <g id="patch_142">
    <path d="M 324.041219 302.92 
L 325.789432 302.92 
L 325.789432 208.805434 
L 324.041219 208.805434 
z
" clip-path="url(#p4e9cac910c)" style="fill: #d3d3d3"/>
   </g>
   <g id="patch_143">
    <path d="M 325.789432 302.92 
L 327.537646 302.92 
L 327.537646 211.313048 
L 325.789432 211.313048 
z
" clip-path="url(#p4e9cac910c)" style="fill: #d3d3d3"/>
   </g>
   <g id="patch_144">
    <path d="M 327.537646 302.92 
L 329.285859 302.92 
L 329.285859 214.453212 
L 327.537646 214.453212 
z
" clip-path="url(#p4e9cac910c)" style="fill: #d3d3d3"/>
   </g>
   <g id="patch_145">
    <path d="M 329.285859 302.92 
L 331.034073 302.92 
L 331.034073 215.944225 
L 329.285859 215.944225 
z
" clip-path="url(#p4e9cac910c)" style="fill: #d3d3d3"/>
   </g>
   <g id="patch_146">
    <path d="M 331.034073 302.92 
L 332.782286 302.92 
L 332.782286 221.817914 
L 331.034073 221.817914 
z
" clip-path="url(#p4e9cac910c)" style="fill: #d3d3d3"/>
   </g>
   <g id="patch_147">
    <path d="M 332.782286 302.92 
L 334.5305 302.92 
L 334.5305 221.546821 
L 332.782286 221.546821 
z
" clip-path="url(#p4e9cac910c)" style="fill: #d3d3d3"/>
   </g>
   <g id="patch_148">
    <path d="M 334.5305 302.92 
L 336.278713 302.92 
L 336.278713 223.421883 
L 334.5305 223.421883 
z
" clip-path="url(#p4e9cac910c)" style="fill: #d3d3d3"/>
   </g>
   <g id="patch_149">
    <path d="M 336.278713 302.92 
L 338.026927 302.92 
L 338.026927 229.27298 
L 336.278713 229.27298 
z
" clip-path="url(#p4e9cac910c)" style="fill: #d3d3d3"/>
   </g>
   <g id="patch_150">
    <path d="M 338.026927 302.92 
L 339.77514 302.92 
L 339.77514 233.249016 
L 338.026927 233.249016 
z
" clip-path="url(#p4e9cac910c)" style="fill: #d3d3d3"/>
   </g>
   <g id="patch_151">
    <path d="M 339.77514 302.92 
L 341.523354 302.92 
L 341.523354 237.40578 
L 339.77514 237.40578 
z
" clip-path="url(#p4e9cac910c)" style="fill: #d3d3d3"/>
   </g>
   <g id="patch_152">
    <path d="M 341.523354 302.92 
L 343.271567 302.92 
L 343.271567 240.45558 
L 341.523354 240.45558 
z
" clip-path="url(#p4e9cac910c)" style="fill: #d3d3d3"/>
   </g>
   <g id="patch_153">
    <path d="M 343.271567 302.92 
L 345.019781 302.92 
L 345.019781 239.326024 
L 343.271567 239.326024 
z
" clip-path="url(#p4e9cac910c)" style="fill: #d3d3d3"/>
   </g>
   <g id="patch_154">
    <path d="M 345.019781 302.92 
L 346.767994 302.92 
L 346.767994 244.250886 
L 345.019781 244.250886 
z
" clip-path="url(#p4e9cac910c)" style="fill: #d3d3d3"/>
   </g>
   <g id="patch_155">
    <path d="M 346.767994 302.92 
L 348.516208 302.92 
L 348.516208 249.763117 
L 346.767994 249.763117 
z
" clip-path="url(#p4e9cac910c)" style="fill: #d3d3d3"/>
   </g>
   <g id="patch_156">
    <path d="M 348.516208 302.92 
L 350.264421 302.92 
L 350.264421 248.7917 
L 348.516208 248.7917 
z
" clip-path="url(#p4e9cac910c)" style="fill: #d3d3d3"/>
   </g>
   <g id="patch_157">
    <path d="M 350.264421 302.92 
L 352.012635 302.92 
L 352.012635 254.733162 
L 350.264421 254.733162 
z
" clip-path="url(#p4e9cac910c)" style="fill: #d3d3d3"/>
   </g>
   <g id="patch_158">
    <path d="M 352.012635 302.92 
L 353.760848 302.92 
L 353.760848 256.969682 
L 352.012635 256.969682 
z
" clip-path="url(#p4e9cac910c)" style="fill: #d3d3d3"/>
   </g>
   <g id="patch_159">
    <path d="M 353.760848 302.92 
L 355.509062 302.92 
L 355.509062 258.754379 
L 353.760848 258.754379 
z
" clip-path="url(#p4e9cac910c)" style="fill: #d3d3d3"/>
   </g>
   <g id="patch_160">
    <path d="M 355.509062 302.92 
L 357.257275 302.92 
L 357.257275 260.855353 
L 355.509062 260.855353 
z
" clip-path="url(#p4e9cac910c)" style="fill: #d3d3d3"/>
   </g>
   <g id="patch_161">
    <path d="M 357.257275 302.92 
L 359.005488 302.92 
L 359.005488 263.024099 
L 357.257275 263.024099 
z
" clip-path="url(#p4e9cac910c)" style="fill: #d3d3d3"/>
   </g>
   <g id="patch_162">
    <path d="M 359.005488 302.92 
L 360.753702 302.92 
L 360.753702 265.170255 
L 359.005488 265.170255 
z
" clip-path="url(#p4e9cac910c)" style="fill: #d3d3d3"/>
   </g>
   <g id="patch_163">
    <path d="M 360.753702 302.92 
L 362.501915 302.92 
L 362.501915 268.174872 
L 360.753702 268.174872 
z
" clip-path="url(#p4e9cac910c)" style="fill: #d3d3d3"/>
   </g>
   <g id="patch_164">
    <path d="M 362.501915 302.92 
L 364.250129 302.92 
L 364.250129 271.337628 
L 362.501915 271.337628 
z
" clip-path="url(#p4e9cac910c)" style="fill: #d3d3d3"/>
   </g>
   <g id="patch_165">
    <path d="M 364.250129 302.92 
L 365.998342 302.92 
L 365.998342 271.834632 
L 364.250129 271.834632 
z
" clip-path="url(#p4e9cac910c)" style="fill: #d3d3d3"/>
   </g>
   <g id="patch_166">
    <path d="M 365.998342 302.92 
L 367.746556 302.92 
L 367.746556 273.935605 
L 365.998342 273.935605 
z
" clip-path="url(#p4e9cac910c)" style="fill: #d3d3d3"/>
   </g>
   <g id="patch_167">
    <path d="M 367.746556 302.92 
L 369.494769 302.92 
L 369.494769 277.120952 
L 367.746556 277.120952 
z
" clip-path="url(#p4e9cac910c)" style="fill: #d3d3d3"/>
   </g>
   <g id="patch_168">
    <path d="M 369.494769 302.92 
L 371.242983 302.92 
L 371.242983 279.651156 
L 369.494769 279.651156 
z
" clip-path="url(#p4e9cac910c)" style="fill: #d3d3d3"/>
   </g>
   <g id="patch_169">
    <path d="M 371.242983 302.92 
L 372.991196 302.92 
L 372.991196 280.32889 
L 371.242983 280.32889 
z
" clip-path="url(#p4e9cac910c)" style="fill: #d3d3d3"/>
   </g>
   <g id="patch_170">
    <path d="M 372.991196 302.92 
L 374.73941 302.92 
L 374.73941 281.706947 
L 372.991196 281.706947 
z
" clip-path="url(#p4e9cac910c)" style="fill: #d3d3d3"/>
   </g>
   <g id="patch_171">
    <path d="M 374.73941 302.92 
L 376.487623 302.92 
L 376.487623 283.265734 
L 374.73941 283.265734 
z
" clip-path="url(#p4e9cac910c)" style="fill: #d3d3d3"/>
   </g>
   <g id="patch_172">
    <path d="M 376.487623 302.92 
L 378.235837 302.92 
L 378.235837 285.411889 
L 376.487623 285.411889 
z
" clip-path="url(#p4e9cac910c)" style="fill: #d3d3d3"/>
   </g>
   <g id="patch_173">
    <path d="M 378.235837 302.92 
L 379.98405 302.92 
L 379.98405 284.937476 
L 378.235837 284.937476 
z
" clip-path="url(#p4e9cac910c)" style="fill: #d3d3d3"/>
   </g>
   <g id="patch_174">
    <path d="M 379.98405 302.92 
L 381.732264 302.92 
L 381.732264 287.377316 
L 379.98405 287.377316 
z
" clip-path="url(#p4e9cac910c)" style="fill: #d3d3d3"/>
   </g>
   <g id="patch_175">
    <path d="M 381.732264 302.92 
L 383.480477 302.92 
L 383.480477 288.348734 
L 381.732264 288.348734 
z
" clip-path="url(#p4e9cac910c)" style="fill: #d3d3d3"/>
   </g>
   <g id="patch_176">
    <path d="M 383.480477 302.92 
L 385.228691 302.92 
L 385.228691 289.546063 
L 383.480477 289.546063 
z
" clip-path="url(#p4e9cac910c)" style="fill: #d3d3d3"/>
   </g>
   <g id="patch_177">
    <path d="M 385.228691 302.92 
L 386.976904 302.92 
L 386.976904 291.262987 
L 385.228691 291.262987 
z
" clip-path="url(#p4e9cac910c)" style="fill: #d3d3d3"/>
   </g>
   <g id="patch_178">
    <path d="M 386.976904 302.92 
L 388.725118 302.92 
L 388.725118 292.189223 
L 386.976904 292.189223 
z
" clip-path="url(#p4e9cac910c)" style="fill: #d3d3d3"/>
   </g>
   <g id="patch_179">
    <path d="M 388.725118 302.92 
L 390.473331 302.92 
L 390.473331 292.076267 
L 388.725118 292.076267 
z
" clip-path="url(#p4e9cac910c)" style="fill: #d3d3d3"/>
   </g>
   <g id="patch_180">
    <path d="M 390.473331 302.92 
L 392.221545 302.92 
L 392.221545 294.357969 
L 390.473331 294.357969 
z
" clip-path="url(#p4e9cac910c)" style="fill: #d3d3d3"/>
   </g>
   <g id="patch_181">
    <path d="M 392.221545 302.92 
L 393.969758 302.92 
L 393.969758 295.826391 
L 392.221545 295.826391 
z
" clip-path="url(#p4e9cac910c)" style="fill: #d3d3d3"/>
   </g>
   <g id="patch_182">
    <path d="M 393.969758 302.92 
L 395.717972 302.92 
L 395.717972 295.510116 
L 393.969758 295.510116 
z
" clip-path="url(#p4e9cac910c)" style="fill: #d3d3d3"/>
   </g>
   <g id="patch_183">
    <path d="M 395.717972 302.92 
L 397.466185 302.92 
L 397.466185 296.842991 
L 395.717972 296.842991 
z
" clip-path="url(#p4e9cac910c)" style="fill: #d3d3d3"/>
   </g>
   <g id="patch_184">
    <path d="M 397.466185 302.92 
L 399.214398 302.92 
L 399.214398 296.571898 
L 397.466185 296.571898 
z
" clip-path="url(#p4e9cac910c)" style="fill: #d3d3d3"/>
   </g>
   <g id="patch_185">
    <path d="M 399.214398 302.92 
L 400.962612 302.92 
L 400.962612 296.955947 
L 399.214398 296.955947 
z
" clip-path="url(#p4e9cac910c)" style="fill: #d3d3d3"/>
   </g>
   <g id="patch_186">
    <path d="M 400.962612 302.92 
L 402.710825 302.92 
L 402.710825 297.385178 
L 400.962612 297.385178 
z
" clip-path="url(#p4e9cac910c)" style="fill: #d3d3d3"/>
   </g>
   <g id="patch_187">
    <path d="M 402.710825 302.92 
L 404.459039 302.92 
L 404.459039 297.995138 
L 402.710825 297.995138 
z
" clip-path="url(#p4e9cac910c)" style="fill: #d3d3d3"/>
   </g>
   <g id="patch_188">
    <path d="M 404.459039 302.92 
L 406.207252 302.92 
L 406.207252 298.492142 
L 404.459039 298.492142 
z
" clip-path="url(#p4e9cac910c)" style="fill: #d3d3d3"/>
   </g>
   <g id="patch_189">
    <path d="M 406.207252 302.92 
L 407.955466 302.92 
L 407.955466 299.011738 
L 406.207252 299.011738 
z
" clip-path="url(#p4e9cac910c)" style="fill: #d3d3d3"/>
   </g>
   <g id="patch_190">
    <path d="M 407.955466 302.92 
L 409.703679 302.92 
L 409.703679 299.192467 
L 407.955466 299.192467 
z
" clip-path="url(#p4e9cac910c)" style="fill: #d3d3d3"/>
   </g>
   <g id="patch_191">
    <path d="M 409.703679 302.92 
L 411.451893 302.92 
L 411.451893 299.531333 
L 409.703679 299.531333 
z
" clip-path="url(#p4e9cac910c)" style="fill: #d3d3d3"/>
   </g>
   <g id="patch_192">
    <path d="M 411.451893 302.92 
L 413.200106 302.92 
L 413.200106 300.254249 
L 411.451893 300.254249 
z
" clip-path="url(#p4e9cac910c)" style="fill: #d3d3d3"/>
   </g>
   <g id="patch_193">
    <path d="M 413.200106 302.92 
L 414.94832 302.92 
L 414.94832 300.593116 
L 413.200106 300.593116 
z
" clip-path="url(#p4e9cac910c)" style="fill: #d3d3d3"/>
   </g>
   <g id="patch_194">
    <path d="M 414.94832 302.92 
L 416.696533 302.92 
L 416.696533 301.338622 
L 414.94832 301.338622 
z
" clip-path="url(#p4e9cac910c)" style="fill: #d3d3d3"/>
   </g>
   <g id="patch_195">
    <path d="M 416.696533 302.92 
L 418.444747 302.92 
L 418.444747 300.796436 
L 416.696533 300.796436 
z
" clip-path="url(#p4e9cac910c)" style="fill: #d3d3d3"/>
   </g>
   <g id="patch_196">
    <path d="M 418.444747 302.92 
L 420.19296 302.92 
L 420.19296 301.270849 
L 418.444747 301.270849 
z
" clip-path="url(#p4e9cac910c)" style="fill: #d3d3d3"/>
   </g>
   <g id="patch_197">
    <path d="M 420.19296 302.92 
L 421.941174 302.92 
L 421.941174 301.225667 
L 420.19296 301.225667 
z
" clip-path="url(#p4e9cac910c)" style="fill: #d3d3d3"/>
   </g>
   <g id="patch_198">
    <path d="M 421.941174 302.92 
L 423.689387 302.92 
L 423.689387 301.49676 
L 421.941174 301.49676 
z
" clip-path="url(#p4e9cac910c)" style="fill: #d3d3d3"/>
   </g>
   <g id="patch_199">
    <path d="M 423.689387 302.92 
L 425.437601 302.92 
L 425.437601 301.858218 
L 423.689387 301.858218 
z
" clip-path="url(#p4e9cac910c)" style="fill: #d3d3d3"/>
   </g>
   <g id="patch_200">
    <path d="M 425.437601 302.92 
L 427.185814 302.92 
L 427.185814 301.880809 
L 425.437601 301.880809 
z
" clip-path="url(#p4e9cac910c)" style="fill: #d3d3d3"/>
   </g>
   <g id="patch_201">
    <path d="M 427.185814 302.92 
L 428.934028 302.92 
L 428.934028 301.587124 
L 427.185814 301.587124 
z
" clip-path="url(#p4e9cac910c)" style="fill: #d3d3d3"/>
   </g>
   <g id="patch_202">
    <path d="M 428.934028 302.92 
L 430.682241 302.92 
L 430.682241 302.10672 
L 428.934028 302.10672 
z
" clip-path="url(#p4e9cac910c)" style="fill: #d3d3d3"/>
   </g>
   <g id="patch_203">
    <path d="M 430.682241 302.92 
L 432.430455 302.92 
L 432.430455 302.355222 
L 430.682241 302.355222 
z
" clip-path="url(#p4e9cac910c)" style="fill: #d3d3d3"/>
   </g>
   <g id="matplotlib.axis_1">
    <g id="xtick_1">
     <g id="line2d_1">
      <defs>
       <path id="m6b0ee99e8d" d="M 0 0 
L 0 3.5 
" style="stroke: #000000; stroke-width: 0.8"/>
      </defs>
      <g>
       <use xlink:href="#m6b0ee99e8d" x="81.913652" y="302.92" style="stroke: #000000; stroke-width: 0.8"/>
      </g>
     </g>
     <g id="text_1">
      <!-- 0 -->
      <g transform="translate(78.732402 317.518437)scale(0.1 -0.1)">
       <defs>
        <path id="DejaVuSerif-30" d="M 2034 219 
Q 2513 219 2750 744 
Q 2988 1269 2988 2328 
Q 2988 3391 2750 3916 
Q 2513 4441 2034 4441 
Q 1556 4441 1318 3916 
Q 1081 3391 1081 2328 
Q 1081 1269 1318 744 
Q 1556 219 2034 219 
z
M 2034 -91 
Q 1275 -91 848 546 
Q 422 1184 422 2328 
Q 422 3475 848 4112 
Q 1275 4750 2034 4750 
Q 2797 4750 3222 4112 
Q 3647 3475 3647 2328 
Q 3647 1184 3222 546 
Q 2797 -91 2034 -91 
z
" transform="scale(0.015625)"/>
       </defs>
       <use xlink:href="#DejaVuSerif-30"/>
      </g>
     </g>
    </g>
    <g id="xtick_2">
     <g id="line2d_2">
      <g>
       <use xlink:href="#m6b0ee99e8d" x="221.77073" y="302.92" style="stroke: #000000; stroke-width: 0.8"/>
      </g>
     </g>
     <g id="text_2">
      <!-- 8 -->
      <g transform="translate(218.58948 317.518437)scale(0.1 -0.1)">
       <defs>
        <path id="DejaVuSerif-38" d="M 2981 1275 
Q 2981 1775 2732 2051 
Q 2484 2328 2034 2328 
Q 1584 2328 1336 2051 
Q 1088 1775 1088 1275 
Q 1088 772 1336 495 
Q 1584 219 2034 219 
Q 2484 219 2732 495 
Q 2981 772 2981 1275 
z
M 2853 3541 
Q 2853 3966 2637 4203 
Q 2422 4441 2034 4441 
Q 1650 4441 1433 4203 
Q 1216 3966 1216 3541 
Q 1216 3113 1433 2875 
Q 1650 2638 2034 2638 
Q 2422 2638 2637 2875 
Q 2853 3113 2853 3541 
z
M 2516 2484 
Q 3047 2413 3344 2092 
Q 3641 1772 3641 1275 
Q 3641 619 3225 264 
Q 2809 -91 2034 -91 
Q 1263 -91 845 264 
Q 428 619 428 1275 
Q 428 1772 725 2092 
Q 1022 2413 1556 2484 
Q 1084 2569 832 2842 
Q 581 3116 581 3541 
Q 581 4103 968 4426 
Q 1356 4750 2034 4750 
Q 2713 4750 3100 4426 
Q 3488 4103 3488 3541 
Q 3488 3116 3236 2842 
Q 2984 2569 2516 2484 
z
" transform="scale(0.015625)"/>
       </defs>
       <use xlink:href="#DejaVuSerif-38"/>
      </g>
     </g>
    </g>
    <g id="xtick_3">
     <g id="line2d_3">
      <g>
       <use xlink:href="#m6b0ee99e8d" x="256.735" y="302.92" style="stroke: #000000; stroke-width: 0.8"/>
      </g>
     </g>
     <g id="text_3">
      <!-- 10 -->
      <g transform="translate(250.3725 317.518437)scale(0.1 -0.1)">
       <defs>
        <path id="DejaVuSerif-31" d="M 909 0 
L 909 331 
L 1722 331 
L 1722 4213 
L 781 3603 
L 781 4013 
L 1919 4750 
L 2350 4750 
L 2350 331 
L 3163 331 
L 3163 0 
L 909 0 
z
" transform="scale(0.015625)"/>
       </defs>
       <use xlink:href="#DejaVuSerif-31"/>
       <use xlink:href="#DejaVuSerif-30" x="63.623047"/>
      </g>
     </g>
    </g>
    <g id="xtick_4">
     <g id="line2d_4">
      <g>
       <use xlink:href="#m6b0ee99e8d" x="291.69927" y="302.92" style="stroke: #000000; stroke-width: 0.8"/>
      </g>
     </g>
     <g id="text_4">
      <!-- 12 -->
      <g transform="translate(285.33677 317.518437)scale(0.1 -0.1)">
       <defs>
        <path id="DejaVuSerif-32" d="M 819 3553 
L 469 3553 
L 469 4384 
Q 803 4563 1142 4656 
Q 1481 4750 1806 4750 
Q 2534 4750 2956 4397 
Q 3378 4044 3378 3438 
Q 3378 2753 2422 1800 
Q 2347 1728 2309 1691 
L 1131 513 
L 3078 513 
L 3078 1088 
L 3444 1088 
L 3444 0 
L 434 0 
L 434 341 
L 1850 1753 
Q 2319 2222 2519 2614 
Q 2719 3006 2719 3438 
Q 2719 3909 2473 4175 
Q 2228 4441 1797 4441 
Q 1350 4441 1106 4219 
Q 863 3997 819 3553 
z
" transform="scale(0.015625)"/>
       </defs>
       <use xlink:href="#DejaVuSerif-31"/>
       <use xlink:href="#DejaVuSerif-32" x="63.623047"/>
      </g>
     </g>
    </g>
    <g id="xtick_5">
     <g id="line2d_5">
      <g>
       <use xlink:href="#m6b0ee99e8d" x="326.663539" y="302.92" style="stroke: #000000; stroke-width: 0.8"/>
      </g>
     </g>
     <g id="text_5">
      <!-- 14 -->
      <g transform="translate(320.301039 317.518437)scale(0.1 -0.1)">
       <defs>
        <path id="DejaVuSerif-34" d="M 2234 1581 
L 2234 4063 
L 641 1581 
L 2234 1581 
z
M 3609 0 
L 1484 0 
L 1484 331 
L 2234 331 
L 2234 1247 
L 197 1247 
L 197 1588 
L 2241 4750 
L 2859 4750 
L 2859 1581 
L 3750 1581 
L 3750 1247 
L 2859 1247 
L 2859 331 
L 3609 331 
L 3609 0 
z
" transform="scale(0.015625)"/>
       </defs>
       <use xlink:href="#DejaVuSerif-31"/>
       <use xlink:href="#DejaVuSerif-34" x="63.623047"/>
      </g>
     </g>
    </g>
    <g id="xtick_6">
     <g id="line2d_6">
      <g>
       <use xlink:href="#m6b0ee99e8d" x="361.627809" y="302.92" style="stroke: #000000; stroke-width: 0.8"/>
      </g>
     </g>
     <g id="text_6">
      <!-- 16 -->
      <g transform="translate(355.265309 317.518437)scale(0.1 -0.1)">
       <defs>
        <path id="DejaVuSerif-36" d="M 2094 219 
Q 2534 219 2771 542 
Q 3009 866 3009 1472 
Q 3009 2078 2771 2401 
Q 2534 2725 2094 2725 
Q 1647 2725 1412 2412 
Q 1178 2100 1178 1509 
Q 1178 888 1415 553 
Q 1653 219 2094 219 
z
M 1075 2569 
Q 1288 2803 1556 2918 
Q 1825 3034 2163 3034 
Q 2859 3034 3264 2615 
Q 3669 2197 3669 1472 
Q 3669 763 3233 336 
Q 2797 -91 2069 -91 
Q 1278 -91 853 498 
Q 428 1088 428 2181 
Q 428 3406 931 4078 
Q 1434 4750 2350 4750 
Q 2597 4750 2869 4703 
Q 3141 4656 3425 4563 
L 3425 3794 
L 3072 3794 
Q 3034 4109 2831 4275 
Q 2628 4441 2284 4441 
Q 1678 4441 1381 3981 
Q 1084 3522 1075 2569 
z
" transform="scale(0.015625)"/>
       </defs>
       <use xlink:href="#DejaVuSerif-31"/>
       <use xlink:href="#DejaVuSerif-36" x="63.623047"/>
      </g>
     </g>
    </g>
    <g id="xtick_7">
     <g id="line2d_7">
      <g>
       <use xlink:href="#m6b0ee99e8d" x="431.556348" y="302.92" style="stroke: #000000; stroke-width: 0.8"/>
      </g>
     </g>
     <g id="text_7">
      <!-- 20 -->
      <g transform="translate(425.193848 317.518437)scale(0.1 -0.1)">
       <use xlink:href="#DejaVuSerif-32"/>
       <use xlink:href="#DejaVuSerif-30" x="63.623047"/>
      </g>
     </g>
    </g>
    <g id="text_8">
     <!-- Moyenne à l'issue de la première session -->
     <g transform="translate(152.595937 331.587187)scale(0.1 -0.1)">
      <defs>
       <path id="DejaVuSerif-4d" d="M 353 0 
L 353 331 
L 947 331 
L 947 4331 
L 319 4331 
L 319 4666 
L 1678 4666 
L 3316 1344 
L 4953 4666 
L 6228 4666 
L 6228 4331 
L 5606 4331 
L 5606 331 
L 6203 331 
L 6203 0 
L 4378 0 
L 4378 331 
L 4972 331 
L 4972 3938 
L 3372 684 
L 2931 684 
L 1331 3938 
L 1331 331 
L 1925 331 
L 1925 0 
L 353 0 
z
" transform="scale(0.015625)"/>
       <path id="DejaVuSerif-6f" d="M 1925 219 
Q 2388 219 2623 584 
Q 2859 950 2859 1663 
Q 2859 2375 2623 2739 
Q 2388 3103 1925 3103 
Q 1463 3103 1227 2739 
Q 991 2375 991 1663 
Q 991 950 1228 584 
Q 1466 219 1925 219 
z
M 1925 -91 
Q 1200 -91 759 389 
Q 319 869 319 1663 
Q 319 2456 758 2934 
Q 1197 3413 1925 3413 
Q 2653 3413 3092 2934 
Q 3531 2456 3531 1663 
Q 3531 869 3092 389 
Q 2653 -91 1925 -91 
z
" transform="scale(0.015625)"/>
       <path id="DejaVuSerif-79" d="M 1381 -609 
L 1600 -56 
L 359 2988 
L -19 2988 
L -19 3322 
L 1509 3322 
L 1509 2988 
L 978 2988 
L 1913 703 
L 2847 2988 
L 2350 2988 
L 2350 3322 
L 3597 3322 
L 3597 2988 
L 3225 2988 
L 1703 -750 
Q 1547 -1138 1356 -1280 
Q 1166 -1422 819 -1422 
Q 672 -1422 517 -1397 
Q 363 -1372 206 -1325 
L 206 -691 
L 500 -691 
Q 519 -903 608 -995 
Q 697 -1088 884 -1088 
Q 1056 -1088 1161 -992 
Q 1266 -897 1381 -609 
z
" transform="scale(0.015625)"/>
       <path id="DejaVuSerif-65" d="M 3469 1600 
L 991 1600 
L 991 1575 
Q 991 903 1244 561 
Q 1497 219 1991 219 
Q 2369 219 2611 417 
Q 2853 616 2950 1006 
L 3413 1006 
Q 3275 459 2904 184 
Q 2534 -91 1931 -91 
Q 1203 -91 761 389 
Q 319 869 319 1663 
Q 319 2450 753 2931 
Q 1188 3413 1894 3413 
Q 2647 3413 3050 2948 
Q 3453 2484 3469 1600 
z
M 2791 1931 
Q 2772 2513 2545 2808 
Q 2319 3103 1894 3103 
Q 1497 3103 1269 2806 
Q 1041 2509 991 1931 
L 2791 1931 
z
" transform="scale(0.015625)"/>
       <path id="DejaVuSerif-6e" d="M 263 0 
L 263 331 
L 781 331 
L 781 2988 
L 231 2988 
L 231 3322 
L 1356 3322 
L 1356 2731 
Q 1516 3069 1770 3241 
Q 2025 3413 2363 3413 
Q 2913 3413 3172 3097 
Q 3431 2781 3431 2113 
L 3431 331 
L 3944 331 
L 3944 0 
L 2356 0 
L 2356 331 
L 2853 331 
L 2853 1931 
Q 2853 2541 2703 2767 
Q 2553 2994 2175 2994 
Q 1775 2994 1565 2701 
Q 1356 2409 1356 1850 
L 1356 331 
L 1856 331 
L 1856 0 
L 263 0 
z
" transform="scale(0.015625)"/>
       <path id="DejaVuSerif-20" transform="scale(0.015625)"/>
       <path id="DejaVuSerif-e0" d="M 2547 1044 
L 2547 1747 
L 1806 1747 
Q 1378 1747 1168 1562 
Q 959 1378 959 997 
Q 959 650 1171 447 
Q 1384 244 1747 244 
Q 2106 244 2326 466 
Q 2547 688 2547 1044 
z
M 3122 2075 
L 3122 331 
L 3634 331 
L 3634 0 
L 2547 0 
L 2547 359 
Q 2356 128 2106 18 
Q 1856 -91 1522 -91 
Q 969 -91 644 203 
Q 319 497 319 997 
Q 319 1513 691 1797 
Q 1063 2081 1741 2081 
L 2547 2081 
L 2547 2309 
Q 2547 2688 2317 2895 
Q 2088 3103 1672 3103 
Q 1328 3103 1125 2947 
Q 922 2791 872 2484 
L 575 2484 
L 575 3156 
Q 875 3284 1158 3348 
Q 1441 3413 1709 3413 
Q 2400 3413 2761 3070 
Q 3122 2728 3122 2075 
z
M 1323 5113 
L 2135 3938 
L 1770 3938 
L 707 5113 
L 1323 5113 
z
" transform="scale(0.015625)"/>
       <path id="DejaVuSerif-6c" d="M 1313 331 
L 1856 331 
L 1856 0 
L 184 0 
L 184 331 
L 738 331 
L 738 4531 
L 184 4531 
L 184 4863 
L 1313 4863 
L 1313 331 
z
" transform="scale(0.015625)"/>
       <path id="DejaVuSerif-27" d="M 1125 4666 
L 1125 2931 
L 628 2931 
L 628 4666 
L 1125 4666 
z
" transform="scale(0.015625)"/>
       <path id="DejaVuSerif-69" d="M 622 4353 
Q 622 4497 726 4603 
Q 831 4709 978 4709 
Q 1122 4709 1226 4603 
Q 1331 4497 1331 4353 
Q 1331 4206 1228 4103 
Q 1125 4000 978 4000 
Q 831 4000 726 4103 
Q 622 4206 622 4353 
z
M 1356 331 
L 1900 331 
L 1900 0 
L 231 0 
L 231 331 
L 781 331 
L 781 2988 
L 231 2988 
L 231 3322 
L 1356 3322 
L 1356 331 
z
" transform="scale(0.015625)"/>
       <path id="DejaVuSerif-73" d="M 359 184 
L 359 959 
L 691 959 
Q 703 588 923 403 
Q 1144 219 1575 219 
Q 1963 219 2166 364 
Q 2369 509 2369 788 
Q 2369 1006 2220 1140 
Q 2072 1275 1594 1428 
L 1178 1569 
Q 750 1706 558 1912 
Q 366 2119 366 2438 
Q 366 2894 700 3153 
Q 1034 3413 1625 3413 
Q 1888 3413 2178 3344 
Q 2469 3275 2778 3144 
L 2778 2419 
L 2447 2419 
Q 2434 2741 2221 2922 
Q 2009 3103 1644 3103 
Q 1281 3103 1095 2975 
Q 909 2847 909 2591 
Q 909 2381 1050 2254 
Q 1191 2128 1613 1997 
L 2069 1856 
Q 2541 1709 2748 1489 
Q 2956 1269 2956 922 
Q 2956 450 2595 179 
Q 2234 -91 1600 -91 
Q 1278 -91 972 -22 
Q 666 47 359 184 
z
" transform="scale(0.015625)"/>
       <path id="DejaVuSerif-75" d="M 2266 3322 
L 3341 3322 
L 3341 331 
L 3884 331 
L 3884 0 
L 2766 0 
L 2766 588 
Q 2606 256 2353 82 
Q 2100 -91 1766 -91 
Q 1213 -91 952 223 
Q 691 538 691 1209 
L 691 2988 
L 172 2988 
L 172 3322 
L 1269 3322 
L 1269 1388 
Q 1269 781 1417 556 
Q 1566 331 1947 331 
Q 2347 331 2556 625 
Q 2766 919 2766 1478 
L 2766 2988 
L 2266 2988 
L 2266 3322 
z
" transform="scale(0.015625)"/>
       <path id="DejaVuSerif-64" d="M 3359 331 
L 3909 331 
L 3909 0 
L 2784 0 
L 2784 519 
Q 2616 206 2355 57 
Q 2094 -91 1709 -91 
Q 1097 -91 708 395 
Q 319 881 319 1663 
Q 319 2444 706 2928 
Q 1094 3413 1709 3413 
Q 2094 3413 2355 3264 
Q 2616 3116 2784 2803 
L 2784 4531 
L 2241 4531 
L 2241 4863 
L 3359 4863 
L 3359 331 
z
M 2784 1497 
L 2784 1825 
Q 2784 2422 2554 2737 
Q 2325 3053 1888 3053 
Q 1444 3053 1217 2703 
Q 991 2353 991 1663 
Q 991 975 1217 622 
Q 1444 269 1888 269 
Q 2325 269 2554 583 
Q 2784 897 2784 1497 
z
" transform="scale(0.015625)"/>
       <path id="DejaVuSerif-61" d="M 2547 1044 
L 2547 1747 
L 1806 1747 
Q 1378 1747 1168 1562 
Q 959 1378 959 997 
Q 959 650 1171 447 
Q 1384 244 1747 244 
Q 2106 244 2326 466 
Q 2547 688 2547 1044 
z
M 3122 2075 
L 3122 331 
L 3634 331 
L 3634 0 
L 2547 0 
L 2547 359 
Q 2356 128 2106 18 
Q 1856 -91 1522 -91 
Q 969 -91 644 203 
Q 319 497 319 997 
Q 319 1513 691 1797 
Q 1063 2081 1741 2081 
L 2547 2081 
L 2547 2309 
Q 2547 2688 2317 2895 
Q 2088 3103 1672 3103 
Q 1328 3103 1125 2947 
Q 922 2791 872 2484 
L 575 2484 
L 575 3156 
Q 875 3284 1158 3348 
Q 1441 3413 1709 3413 
Q 2400 3413 2761 3070 
Q 3122 2728 3122 2075 
z
" transform="scale(0.015625)"/>
       <path id="DejaVuSerif-70" d="M 1313 1825 
L 1313 1497 
Q 1313 897 1542 583 
Q 1772 269 2209 269 
Q 2650 269 2876 622 
Q 3103 975 3103 1663 
Q 3103 2353 2876 2703 
Q 2650 3053 2209 3053 
Q 1772 3053 1542 2737 
Q 1313 2422 1313 1825 
z
M 738 2988 
L 184 2988 
L 184 3322 
L 1313 3322 
L 1313 2803 
Q 1481 3116 1742 3264 
Q 2003 3413 2388 3413 
Q 3000 3413 3387 2928 
Q 3775 2444 3775 1663 
Q 3775 881 3387 395 
Q 3000 -91 2388 -91 
Q 2003 -91 1742 57 
Q 1481 206 1313 519 
L 1313 -997 
L 1856 -997 
L 1856 -1331 
L 184 -1331 
L 184 -997 
L 738 -997 
L 738 2988 
z
" transform="scale(0.015625)"/>
       <path id="DejaVuSerif-72" d="M 3059 3328 
L 3059 2497 
L 2728 2497 
Q 2713 2744 2591 2866 
Q 2469 2988 2234 2988 
Q 1809 2988 1582 2694 
Q 1356 2400 1356 1850 
L 1356 331 
L 2022 331 
L 2022 0 
L 263 0 
L 263 331 
L 781 331 
L 781 2994 
L 231 2994 
L 231 3322 
L 1356 3322 
L 1356 2731 
Q 1525 3078 1790 3245 
Q 2056 3413 2438 3413 
Q 2578 3413 2733 3391 
Q 2888 3369 3059 3328 
z
" transform="scale(0.015625)"/>
       <path id="DejaVuSerif-6d" d="M 3316 2675 
Q 3481 3041 3739 3227 
Q 3997 3413 4341 3413 
Q 4863 3413 5119 3089 
Q 5375 2766 5375 2113 
L 5375 331 
L 5894 331 
L 5894 0 
L 4300 0 
L 4300 331 
L 4800 331 
L 4800 2047 
Q 4800 2556 4650 2772 
Q 4500 2988 4153 2988 
Q 3769 2988 3567 2697 
Q 3366 2406 3366 1850 
L 3366 331 
L 3866 331 
L 3866 0 
L 2291 0 
L 2291 331 
L 2791 331 
L 2791 2069 
Q 2791 2566 2641 2777 
Q 2491 2988 2144 2988 
Q 1759 2988 1557 2697 
Q 1356 2406 1356 1850 
L 1356 331 
L 1856 331 
L 1856 0 
L 263 0 
L 263 331 
L 781 331 
L 781 2994 
L 231 2994 
L 231 3322 
L 1356 3322 
L 1356 2731 
Q 1516 3063 1762 3238 
Q 2009 3413 2322 3413 
Q 2709 3413 2968 3220 
Q 3228 3028 3316 2675 
z
" transform="scale(0.015625)"/>
       <path id="DejaVuSerif-e8" d="M 3469 1600 
L 991 1600 
L 991 1575 
Q 991 903 1244 561 
Q 1497 219 1991 219 
Q 2369 219 2611 417 
Q 2853 616 2950 1006 
L 3413 1006 
Q 3275 459 2904 184 
Q 2534 -91 1931 -91 
Q 1203 -91 761 389 
Q 319 869 319 1663 
Q 319 2450 753 2931 
Q 1188 3413 1894 3413 
Q 2647 3413 3050 2948 
Q 3453 2484 3469 1600 
z
M 2791 1931 
Q 2772 2513 2545 2808 
Q 2319 3103 1894 3103 
Q 1497 3103 1269 2806 
Q 1041 2509 991 1931 
L 2791 1931 
z
M 1443 5113 
L 2255 3938 
L 1890 3938 
L 827 5113 
L 1443 5113 
z
" transform="scale(0.015625)"/>
      </defs>
      <use xlink:href="#DejaVuSerif-4d"/>
      <use xlink:href="#DejaVuSerif-6f" x="102.392578"/>
      <use xlink:href="#DejaVuSerif-79" x="162.597656"/>
      <use xlink:href="#DejaVuSerif-65" x="219.091797"/>
      <use xlink:href="#DejaVuSerif-6e" x="278.271484"/>
      <use xlink:href="#DejaVuSerif-6e" x="342.675781"/>
      <use xlink:href="#DejaVuSerif-65" x="407.080078"/>
      <use xlink:href="#DejaVuSerif-20" x="466.259766"/>
      <use xlink:href="#DejaVuSerif-e0" x="498.046875"/>
      <use xlink:href="#DejaVuSerif-20" x="557.666016"/>
      <use xlink:href="#DejaVuSerif-6c" x="589.453125"/>
      <use xlink:href="#DejaVuSerif-27" x="621.435547"/>
      <use xlink:href="#DejaVuSerif-69" x="648.925781"/>
      <use xlink:href="#DejaVuSerif-73" x="680.908203"/>
      <use xlink:href="#DejaVuSerif-73" x="732.226562"/>
      <use xlink:href="#DejaVuSerif-75" x="783.544922"/>
      <use xlink:href="#DejaVuSerif-65" x="847.949219"/>
      <use xlink:href="#DejaVuSerif-20" x="907.128906"/>
      <use xlink:href="#DejaVuSerif-64" x="938.916016"/>
      <use xlink:href="#DejaVuSerif-65" x="1002.929688"/>
      <use xlink:href="#DejaVuSerif-20" x="1062.109375"/>
      <use xlink:href="#DejaVuSerif-6c" x="1093.896484"/>
      <use xlink:href="#DejaVuSerif-61" x="1125.878906"/>
      <use xlink:href="#DejaVuSerif-20" x="1185.498047"/>
      <use xlink:href="#DejaVuSerif-70" x="1217.285156"/>
      <use xlink:href="#DejaVuSerif-72" x="1281.298828"/>
      <use xlink:href="#DejaVuSerif-65" x="1329.101562"/>
      <use xlink:href="#DejaVuSerif-6d" x="1388.28125"/>
      <use xlink:href="#DejaVuSerif-69" x="1483.105469"/>
      <use xlink:href="#DejaVuSerif-e8" x="1515.087891"/>
      <use xlink:href="#DejaVuSerif-72" x="1574.267578"/>
      <use xlink:href="#DejaVuSerif-65" x="1622.070312"/>
      <use xlink:href="#DejaVuSerif-20" x="1681.25"/>
      <use xlink:href="#DejaVuSerif-73" x="1713.037109"/>
      <use xlink:href="#DejaVuSerif-65" x="1764.355469"/>
      <use xlink:href="#DejaVuSerif-73" x="1823.535156"/>
      <use xlink:href="#DejaVuSerif-73" x="1874.853516"/>
      <use xlink:href="#DejaVuSerif-69" x="1926.171875"/>
      <use xlink:href="#DejaVuSerif-6f" x="1958.154297"/>
      <use xlink:href="#DejaVuSerif-6e" x="2018.359375"/>
     </g>
    </g>
   </g>
   <g id="matplotlib.axis_2">
    <g id="ytick_1">
     <g id="line2d_8">
      <defs>
       <path id="m76ee2663d0" d="M 0 0 
L -3.5 0 
" style="stroke: #000000; stroke-width: 0.8"/>
      </defs>
      <g>
       <use xlink:href="#m76ee2663d0" x="63.47" y="302.92" style="stroke: #000000; stroke-width: 0.8"/>
      </g>
     </g>
     <g id="text_9">
      <!-- 0 -->
      <g transform="translate(50.1075 306.719219)scale(0.1 -0.1)">
       <use xlink:href="#DejaVuSerif-30"/>
      </g>
     </g>
    </g>
    <g id="ytick_2">
     <g id="line2d_9">
      <g>
       <use xlink:href="#m76ee2663d0" x="63.47" y="257.737779" style="stroke: #000000; stroke-width: 0.8"/>
      </g>
     </g>
     <g id="text_10">
      <!-- 2000 -->
      <g transform="translate(31.02 261.536998)scale(0.1 -0.1)">
       <use xlink:href="#DejaVuSerif-32"/>
       <use xlink:href="#DejaVuSerif-30" x="63.623047"/>
       <use xlink:href="#DejaVuSerif-30" x="127.246094"/>
       <use xlink:href="#DejaVuSerif-30" x="190.869141"/>
      </g>
     </g>
    </g>
    <g id="ytick_3">
     <g id="line2d_10">
      <g>
       <use xlink:href="#m76ee2663d0" x="63.47" y="212.555559" style="stroke: #000000; stroke-width: 0.8"/>
      </g>
     </g>
     <g id="text_11">
      <!-- 4000 -->
      <g transform="translate(31.02 216.354777)scale(0.1 -0.1)">
       <use xlink:href="#DejaVuSerif-34"/>
       <use xlink:href="#DejaVuSerif-30" x="63.623047"/>
       <use xlink:href="#DejaVuSerif-30" x="127.246094"/>
       <use xlink:href="#DejaVuSerif-30" x="190.869141"/>
      </g>
     </g>
    </g>
    <g id="ytick_4">
     <g id="line2d_11">
      <g>
       <use xlink:href="#m76ee2663d0" x="63.47" y="167.373338" style="stroke: #000000; stroke-width: 0.8"/>
      </g>
     </g>
     <g id="text_12">
      <!-- 6000 -->
      <g transform="translate(31.02 171.172557)scale(0.1 -0.1)">
       <use xlink:href="#DejaVuSerif-36"/>
       <use xlink:href="#DejaVuSerif-30" x="63.623047"/>
       <use xlink:href="#DejaVuSerif-30" x="127.246094"/>
       <use xlink:href="#DejaVuSerif-30" x="190.869141"/>
      </g>
     </g>
    </g>
    <g id="ytick_5">
     <g id="line2d_12">
      <g>
       <use xlink:href="#m76ee2663d0" x="63.47" y="122.191117" style="stroke: #000000; stroke-width: 0.8"/>
      </g>
     </g>
     <g id="text_13">
      <!-- 8000 -->
      <g transform="translate(31.02 125.990336)scale(0.1 -0.1)">
       <use xlink:href="#DejaVuSerif-38"/>
       <use xlink:href="#DejaVuSerif-30" x="63.623047"/>
       <use xlink:href="#DejaVuSerif-30" x="127.246094"/>
       <use xlink:href="#DejaVuSerif-30" x="190.869141"/>
      </g>
     </g>
    </g>
    <g id="ytick_6">
     <g id="line2d_13">
      <g>
       <use xlink:href="#m76ee2663d0" x="63.47" y="77.008897" style="stroke: #000000; stroke-width: 0.8"/>
      </g>
     </g>
     <g id="text_14">
      <!-- 10000 -->
      <g transform="translate(24.6575 80.808115)scale(0.1 -0.1)">
       <use xlink:href="#DejaVuSerif-31"/>
       <use xlink:href="#DejaVuSerif-30" x="63.623047"/>
       <use xlink:href="#DejaVuSerif-30" x="127.246094"/>
       <use xlink:href="#DejaVuSerif-30" x="190.869141"/>
       <use xlink:href="#DejaVuSerif-30" x="254.492188"/>
      </g>
     </g>
    </g>
    <g id="ytick_7">
     <g id="line2d_14">
      <g>
       <use xlink:href="#m76ee2663d0" x="63.47" y="31.826676" style="stroke: #000000; stroke-width: 0.8"/>
      </g>
     </g>
     <g id="text_15">
      <!-- 12000 -->
      <g transform="translate(24.6575 35.625895)scale(0.1 -0.1)">
       <use xlink:href="#DejaVuSerif-31"/>
       <use xlink:href="#DejaVuSerif-32" x="63.623047"/>
       <use xlink:href="#DejaVuSerif-30" x="127.246094"/>
       <use xlink:href="#DejaVuSerif-30" x="190.869141"/>
       <use xlink:href="#DejaVuSerif-30" x="254.492188"/>
      </g>
     </g>
    </g>
    <g id="text_16">
     <!-- Nombre de candidats -->
     <g transform="translate(18.577813 211.433437)rotate(-90)scale(0.1 -0.1)">
      <defs>
       <path id="DejaVuSerif-4e" d="M 313 0 
L 313 331 
L 941 331 
L 941 4331 
L 313 4331 
L 313 4666 
L 1509 4666 
L 4306 984 
L 4306 4331 
L 3681 4331 
L 3681 4666 
L 5319 4666 
L 5319 4331 
L 4691 4331 
L 4691 -91 
L 4313 -91 
L 1325 3841 
L 1325 331 
L 1953 331 
L 1953 0 
L 313 0 
z
" transform="scale(0.015625)"/>
       <path id="DejaVuSerif-62" d="M 738 331 
L 738 4531 
L 184 4531 
L 184 4863 
L 1313 4863 
L 1313 2803 
Q 1481 3116 1742 3264 
Q 2003 3413 2388 3413 
Q 3000 3413 3387 2928 
Q 3775 2444 3775 1663 
Q 3775 881 3387 395 
Q 3000 -91 2388 -91 
Q 2003 -91 1742 57 
Q 1481 206 1313 519 
L 1313 0 
L 184 0 
L 184 331 
L 738 331 
z
M 1313 1497 
Q 1313 897 1542 583 
Q 1772 269 2209 269 
Q 2650 269 2876 622 
Q 3103 975 3103 1663 
Q 3103 2353 2876 2703 
Q 2650 3053 2209 3053 
Q 1772 3053 1542 2737 
Q 1313 2422 1313 1825 
L 1313 1497 
z
" transform="scale(0.015625)"/>
       <path id="DejaVuSerif-63" d="M 3291 997 
Q 3169 466 2822 187 
Q 2475 -91 1925 -91 
Q 1200 -91 759 389 
Q 319 869 319 1663 
Q 319 2459 759 2936 
Q 1200 3413 1925 3413 
Q 2241 3413 2553 3339 
Q 2866 3266 3181 3116 
L 3181 2266 
L 2847 2266 
Q 2781 2703 2561 2903 
Q 2341 3103 1931 3103 
Q 1466 3103 1228 2742 
Q 991 2381 991 1663 
Q 991 944 1227 581 
Q 1463 219 1931 219 
Q 2303 219 2525 412 
Q 2747 606 2828 997 
L 3291 997 
z
" transform="scale(0.015625)"/>
       <path id="DejaVuSerif-74" d="M 691 2988 
L 184 2988 
L 184 3322 
L 691 3322 
L 691 4353 
L 1269 4353 
L 1269 3322 
L 2350 3322 
L 2350 2988 
L 1269 2988 
L 1269 878 
Q 1269 456 1350 337 
Q 1431 219 1650 219 
Q 1875 219 1978 351 
Q 2081 484 2088 781 
L 2522 781 
Q 2497 328 2275 118 
Q 2053 -91 1600 -91 
Q 1103 -91 897 129 
Q 691 350 691 878 
L 691 2988 
z
" transform="scale(0.015625)"/>
      </defs>
      <use xlink:href="#DejaVuSerif-4e"/>
      <use xlink:href="#DejaVuSerif-6f" x="87.5"/>
      <use xlink:href="#DejaVuSerif-6d" x="147.705078"/>
      <use xlink:href="#DejaVuSerif-62" x="242.529297"/>
      <use xlink:href="#DejaVuSerif-72" x="306.542969"/>
      <use xlink:href="#DejaVuSerif-65" x="354.345703"/>
      <use xlink:href="#DejaVuSerif-20" x="413.525391"/>
      <use xlink:href="#DejaVuSerif-64" x="445.3125"/>
      <use xlink:href="#DejaVuSerif-65" x="509.326172"/>
      <use xlink:href="#DejaVuSerif-20" x="568.505859"/>
      <use xlink:href="#DejaVuSerif-63" x="600.292969"/>
      <use xlink:href="#DejaVuSerif-61" x="656.298828"/>
      <use xlink:href="#DejaVuSerif-6e" x="715.917969"/>
      <use xlink:href="#DejaVuSerif-64" x="780.322266"/>
      <use xlink:href="#DejaVuSerif-69" x="844.335938"/>
      <use xlink:href="#DejaVuSerif-64" x="876.318359"/>
      <use xlink:href="#DejaVuSerif-61" x="940.332031"/>
      <use xlink:href="#DejaVuSerif-74" x="999.951172"/>
      <use xlink:href="#DejaVuSerif-73" x="1040.136719"/>
     </g>
    </g>
   </g>
   <g id="line2d_15">
    <path d="M 81.913652 299.486151 
L 81.913652 302.581133 
L 87.158293 302.51336 
L 87.158293 302.422996 
L 88.906506 302.422996 
L 88.906506 302.151902 
L 92.402933 302.174493 
L 92.402933 302.400404 
L 95.89936 302.31004 
L 95.89936 302.581133 
L 97.647573 302.581133 
L 97.647573 302.061538 
L 99.395787 302.061538 
L 99.395787 302.31004 
L 102.892214 302.219676 
L 102.892214 301.971173 
L 104.640427 301.971173 
L 104.640427 302.332631 
L 106.388641 302.332631 
L 106.388641 302.10672 
L 111.633281 302.129311 
L 111.633281 302.287449 
L 113.381495 302.287449 
L 113.381495 302.422996 
L 115.129708 302.422996 
L 115.129708 301.767853 
L 116.877922 301.767853 
L 116.877922 302.219676 
L 118.626135 302.219676 
L 118.626135 302.016356 
L 120.374349 302.016356 
L 120.374349 301.9034 
L 122.122562 301.9034 
L 122.122562 302.129311 
L 127.367203 302.129311 
L 127.367203 301.993764 
L 130.86363 301.971173 
L 130.86363 302.174493 
L 132.611843 302.174493 
L 132.611843 301.9034 
L 134.360057 301.9034 
L 134.360057 302.038947 
L 136.10827 302.038947 
L 136.10827 301.9034 
L 139.604697 301.813036 
L 139.604697 302.061538 
L 141.35291 302.061538 
L 141.35291 301.632307 
L 143.101124 301.632307 
L 143.101124 301.767853 
L 146.597551 301.767853 
L 146.597551 301.632307 
L 148.345764 301.632307 
L 148.345764 301.9034 
L 150.093978 301.9034 
L 150.093978 301.203076 
L 151.842191 301.203076 
L 151.842191 301.49676 
L 153.590405 301.49676 
L 153.590405 301.70008 
L 155.338618 301.70008 
L 155.338618 301.587124 
L 158.835045 301.632307 
L 158.835045 300.209067 
L 160.583259 300.209067 
L 160.583259 300.751253 
L 162.331472 300.751253 
L 162.331472 300.547933 
L 164.079686 300.547933 
L 164.079686 300.773845 
L 167.576113 300.68348 
L 167.576113 299.486151 
L 169.324326 299.486151 
L 169.324326 299.892791 
L 171.07254 299.892791 
L 171.07254 299.440969 
L 172.820753 299.440969 
L 172.820753 299.599107 
L 174.568967 299.599107 
L 174.568967 299.440969 
L 176.31718 299.440969 
L 176.31718 297.362587 
L 178.065393 297.362587 
L 178.065393 299.034329 
L 179.813607 299.034329 
L 179.813607 297.498134 
L 181.56182 297.498134 
L 181.56182 297.859591 
L 183.310034 297.859591 
L 183.310034 298.017729 
L 185.058247 298.017729 
L 185.058247 294.17724 
L 186.806461 294.17724 
L 186.806461 295.668254 
L 188.554674 295.668254 
L 188.554674 293.906147 
L 190.302888 293.906147 
L 190.302888 294.290196 
L 192.051101 294.290196 
L 192.051101 294.922747 
L 193.799315 294.922747 
L 193.799315 290.31416 
L 195.547528 290.31416 
L 195.547528 291.421125 
L 197.295742 291.421125 
L 197.295742 290.359343 
L 199.043955 290.359343 
L 199.043955 288.732783 
L 200.792169 288.732783 
L 200.792169 290.7208 
L 202.540382 290.7208 
L 202.540382 283.152778 
L 204.288596 283.152778 
L 204.288596 286.451081 
L 206.036809 286.451081 
L 206.036809 282.384681 
L 207.785023 282.384681 
L 207.785023 281.729539 
L 209.533236 281.729539 
L 209.533236 284.982658 
L 211.28145 284.982658 
L 211.28145 276.623948 
L 213.029663 276.623948 
L 213.029663 281.910267 
L 214.777877 281.910267 
L 214.777877 283.898285 
L 216.52609 283.898285 
L 216.52609 289.365334 
L 218.274303 289.365334 
L 218.274303 296.278214 
L 220.022517 296.278214 
L 220.022517 204.716443 
L 221.77073 204.716443 
L 221.77073 267.542321 
L 223.518944 267.542321 
L 223.518944 259.228793 
L 225.267157 259.228793 
L 225.267157 260.132437 
L 227.015371 260.132437 
L 227.015371 266.367583 
L 228.763584 266.367583 
L 228.763584 246.012993 
L 230.511798 246.012993 
L 230.511798 254.552433 
L 232.260011 254.552433 
L 232.260011 247.232913 
L 235.756438 247.187731 
L 235.756438 252.632188 
L 237.504652 252.632188 
L 237.504652 224.709576 
L 239.252865 224.709576 
L 239.252865 242.398415 
L 241.001079 242.398415 
L 241.001079 228.482291 
L 242.749292 228.482291 
L 242.749292 235.462945 
L 244.497506 235.462945 
L 244.497506 243.234286 
L 246.245719 243.234286 
L 246.245719 216.757505 
L 247.993933 216.757505 
L 247.993933 239.664891 
L 249.742146 239.664891 
L 249.742146 253.287331 
L 251.49036 253.287331 
L 251.49036 272.467183 
L 253.238573 272.467183 
L 253.238573 290.675618 
L 254.986787 290.675618 
L 254.986787 24.710476 
L 256.735 24.710476 
L 256.735 209.32503 
L 258.483213 209.32503 
L 258.483213 200.469315 
L 260.231427 200.469315 
L 260.231427 209.957581 
L 261.97964 209.957581 
L 261.97964 221.501638 
L 263.727854 221.501638 
L 263.727854 182.125333 
L 265.476067 182.125333 
L 265.476067 210.13831 
L 267.224281 210.13831 
L 267.224281 190.596999 
L 268.972494 190.596999 
L 268.972494 199.791581 
L 270.720708 199.791581 
L 270.720708 215.876452 
L 272.468921 215.876452 
L 272.468921 167.305565 
L 274.217135 167.305565 
L 274.217135 201.576279 
L 275.965348 201.576279 
L 275.965348 185.152542 
L 277.713562 185.152542 
L 277.713562 197.53247 
L 279.461775 197.53247 
L 279.461775 211.584141 
L 281.209989 211.584141 
L 281.209989 171.213827 
L 282.958202 171.213827 
L 282.958202 204.942354 
L 284.706416 204.942354 
L 284.706416 212.691105 
L 286.454629 212.691105 
L 286.454629 245.515989 
L 288.202843 245.515989 
L 288.202843 278.318281 
L 289.951056 278.318281 
L 289.951056 24.823432 
L 291.69927 24.823432 
L 291.69927 193.330524 
L 293.447483 193.330524 
L 293.447483 186.869466 
L 295.195697 186.869466 
L 295.195697 199.881946 
L 296.94391 199.881946 
L 296.94391 212.645923 
L 298.692123 212.645923 
L 298.692123 173.066298 
L 300.440337 173.066298 
L 300.440337 204.784217 
L 302.18855 204.784217 
L 302.18855 192.517244 
L 303.936764 192.517244 
L 303.936764 201.666643 
L 305.684977 201.666643 
L 305.684977 219.89767 
L 307.433191 219.89767 
L 307.433191 175.528729 
L 309.181404 175.528729 
L 309.181404 211.855234 
L 310.929618 211.855234 
L 310.929618 197.283968 
L 312.677831 197.283968 
L 312.677831 208.443977 
L 314.426045 208.443977 
L 314.426045 226.22318 
L 316.174258 226.22318 
L 316.174258 189.128577 
L 317.922472 189.128577 
L 317.922472 222.405283 
L 319.670685 222.405283 
L 319.670685 237.654282 
L 321.418899 237.654282 
L 321.418899 267.000135 
L 323.167112 267.000135 
L 323.167112 293.16064 
L 324.915326 293.16064 
L 324.915326 51.345395 
L 326.663539 51.345395 
L 326.663539 219.739532 
L 328.411753 219.739532 
L 328.411753 216.418639 
L 330.159966 216.418639 
L 330.159966 225.00326 
L 331.90818 225.00326 
L 331.90818 237.518736 
L 333.656393 237.518736 
L 333.656393 207.811425 
L 335.404607 207.811425 
L 335.404607 233.700838 
L 337.15282 233.700838 
L 337.15282 225.342127 
L 338.901033 225.342127 
L 338.901033 233.633065 
L 340.649247 233.633065 
L 340.649247 247.865464 
L 342.39746 247.865464 
L 342.39746 219.423256 
L 344.145674 219.423256 
L 344.145674 243.731291 
L 345.893887 243.731291 
L 345.893887 234.785211 
L 347.642101 234.785211 
L 347.642101 242.601735 
L 349.390314 242.601735 
L 349.390314 254.236157 
L 351.138528 254.236157 
L 351.138528 230.131442 
L 352.886741 230.131442 
L 352.886741 255.297939 
L 354.634955 255.297939 
L 354.634955 267.135681 
L 356.383168 267.135681 
L 356.383168 288.800556 
L 358.131382 288.800556 
L 358.131382 300.68348 
L 359.879595 300.68348 
L 359.879595 132.62821 
L 361.627809 132.62821 
L 361.627809 254.416886 
L 363.376022 254.416886 
L 363.376022 250.62158 
L 365.124236 250.62158 
L 365.124236 256.404904 
L 366.872449 256.404904 
L 366.872449 265.170255 
L 368.620663 265.170255 
L 368.620663 250.41826 
L 370.368876 250.41826 
L 370.368876 265.712441 
L 372.11709 265.712441 
L 372.11709 263.04669 
L 373.865303 263.04669 
L 373.865303 264.650659 
L 375.613517 264.650659 
L 375.613517 274.748885 
L 377.36173 274.748885 
L 377.36173 257.986282 
L 379.109943 257.986282 
L 379.109943 273.00937 
L 380.858157 273.00937 
L 380.858157 269.033334 
L 382.60637 269.033334 
L 382.60637 272.241272 
L 384.354584 272.241272 
L 384.354584 280.215934 
L 386.102797 280.215934 
L 386.102797 268.762241 
L 387.851011 268.762241 
L 387.851011 279.786703 
L 389.599224 279.786703 
L 389.599224 278.137552 
L 391.347438 278.137552 
L 391.347438 279.51561 
L 393.095651 279.51561 
L 393.095651 286.112214 
L 394.843865 286.112214 
L 394.843865 277.730912 
L 396.592078 277.730912 
L 396.592078 286.676992 
L 398.340292 286.676992 
L 398.340292 285.570027 
L 400.088505 285.570027 
L 400.088505 288.055049 
L 401.836719 288.055049 
L 401.836719 290.494889 
L 403.584932 290.494889 
L 403.584932 285.502254 
L 405.333146 285.502254 
L 405.333146 292.821774 
L 407.081359 292.821774 
L 407.081359 291.647036 
L 408.829573 291.647036 
L 408.829573 293.544689 
L 410.577786 293.544689 
L 410.577786 295.645662 
L 412.326 295.645662 
L 412.326 292.912138 
L 414.074213 292.912138 
L 414.074213 296.865582 
L 417.57064 296.865582 
L 417.57064 297.22704 
L 419.318853 297.22704 
L 419.318853 299.192467 
L 421.067067 299.192467 
L 421.067067 298.334005 
L 422.81528 298.334005 
L 422.81528 300.118702 
L 424.563494 300.118702 
L 424.563494 299.983156 
L 426.311707 299.983156 
L 426.311707 300.389796 
L 428.059921 300.389796 
L 428.059921 301.203076 
L 429.808134 301.203076 
L 429.808134 295.871574 
L 431.556348 295.871574 
L 431.556348 295.871574 
" clip-path="url(#p4e9cac910c)" style="fill: none; stroke: #000000; stroke-width: 1.5; stroke-linecap: square"/>
   </g>
   <g id="patch_204">
    <path d="M 63.47 302.92 
L 63.47 24.710476 
" style="fill: none; stroke: #000000; stroke-width: 0.8; stroke-linejoin: miter; stroke-linecap: square"/>
   </g>
   <g id="patch_205">
    <path d="M 81.913652 302.92 
L 431.556348 302.92 
" style="fill: none; stroke: #000000; stroke-width: 0.8; stroke-linejoin: miter; stroke-linecap: square"/>
   </g>
   <g id="legend_1">
    <g id="line2d_16">
     <path d="M 358.189062 23.898438 
L 358.189062 23.898438 
L 368.189062 23.898438 
L 368.189062 23.898438 
L 378.189062 23.898438 
" style="fill: none; stroke: #000000; stroke-width: 1.5; stroke-linecap: square"/>
    </g>
    <g id="text_17">
     <!-- Données -->
     <g transform="translate(386.189062 27.398438)scale(0.1 -0.1)">
      <defs>
       <path id="DejaVuSerif-44" d="M 1581 331 
L 2163 331 
Q 3072 331 3558 850 
Q 4044 1369 4044 2338 
Q 4044 3306 3559 3818 
Q 3075 4331 2163 4331 
L 1581 4331 
L 1581 331 
z
M 353 0 
L 353 331 
L 947 331 
L 947 4331 
L 353 4331 
L 353 4666 
L 2209 4666 
Q 3416 4666 4089 4050 
Q 4763 3434 4763 2338 
Q 4763 1238 4088 619 
Q 3413 0 2209 0 
L 353 0 
z
" transform="scale(0.015625)"/>
       <path id="DejaVuSerif-e9" d="M 3469 1600 
L 991 1600 
L 991 1575 
Q 991 903 1244 561 
Q 1497 219 1991 219 
Q 2369 219 2611 417 
Q 2853 616 2950 1006 
L 3413 1006 
Q 3275 459 2904 184 
Q 2534 -91 1931 -91 
Q 1203 -91 761 389 
Q 319 869 319 1663 
Q 319 2450 753 2931 
Q 1188 3413 1894 3413 
Q 2647 3413 3050 2948 
Q 3453 2484 3469 1600 
z
M 2791 1931 
Q 2772 2513 2545 2808 
Q 2319 3103 1894 3103 
Q 1497 3103 1269 2806 
Q 1041 2509 991 1931 
L 2791 1931 
z
M 2330 5119 
L 2952 5119 
L 1890 3944 
L 1524 3944 
L 2330 5119 
z
" transform="scale(0.015625)"/>
      </defs>
      <use xlink:href="#DejaVuSerif-44"/>
      <use xlink:href="#DejaVuSerif-6f" x="80.175781"/>
      <use xlink:href="#DejaVuSerif-6e" x="140.380859"/>
      <use xlink:href="#DejaVuSerif-6e" x="204.785156"/>
      <use xlink:href="#DejaVuSerif-e9" x="269.189453"/>
      <use xlink:href="#DejaVuSerif-65" x="328.369141"/>
      <use xlink:href="#DejaVuSerif-73" x="387.548828"/>
     </g>
    </g>
    <g id="patch_206">
     <path d="M 358.189062 42.076563 
L 378.189062 42.076563 
L 378.189062 35.076563 
L 358.189062 35.076563 
z
" style="fill: #d3d3d3"/>
    </g>
    <g id="text_18">
     <!-- Simulation -->
     <g transform="translate(386.189062 42.076563)scale(0.1 -0.1)">
      <defs>
       <path id="DejaVuSerif-53" d="M 594 225 
L 594 1288 
L 953 1284 
Q 969 753 1261 498 
Q 1553 244 2150 244 
Q 2706 244 2998 464 
Q 3291 684 3291 1106 
Q 3291 1444 3114 1625 
Q 2938 1806 2369 1978 
L 1753 2163 
Q 1084 2366 811 2669 
Q 538 2972 538 3500 
Q 538 4094 959 4422 
Q 1381 4750 2144 4750 
Q 2469 4750 2856 4679 
Q 3244 4609 3681 4475 
L 3681 3481 
L 3328 3481 
Q 3275 3975 2998 4195 
Q 2722 4416 2156 4416 
Q 1663 4416 1405 4214 
Q 1147 4013 1147 3628 
Q 1147 3294 1340 3103 
Q 1534 2913 2163 2725 
L 2741 2553 
Q 3375 2363 3645 2067 
Q 3916 1772 3916 1275 
Q 3916 597 3481 253 
Q 3047 -91 2188 -91 
Q 1803 -91 1404 -12 
Q 1006 66 594 225 
z
" transform="scale(0.015625)"/>
      </defs>
      <use xlink:href="#DejaVuSerif-53"/>
      <use xlink:href="#DejaVuSerif-69" x="68.505859"/>
      <use xlink:href="#DejaVuSerif-6d" x="100.488281"/>
      <use xlink:href="#DejaVuSerif-75" x="195.3125"/>
      <use xlink:href="#DejaVuSerif-6c" x="259.716797"/>
      <use xlink:href="#DejaVuSerif-61" x="291.699219"/>
      <use xlink:href="#DejaVuSerif-74" x="351.318359"/>
      <use xlink:href="#DejaVuSerif-69" x="391.503906"/>
      <use xlink:href="#DejaVuSerif-6f" x="423.486328"/>
      <use xlink:href="#DejaVuSerif-6e" x="483.691406"/>
     </g>
    </g>
   </g>
  </g>
 </g>
 <defs>
  <clipPath id="p4e9cac910c">
   <rect x="63.47" y="10.8" width="386.53" height="292.12"/>
  </clipPath>
 </defs>
</svg>
